  0
SECTION
  2
HEADER
  9
$ACADVER
  1
AC1024
  9
$ACADMAINTVER
 70
     6
  9
$DWGCODEPAGE
  3
UNDEFINED
  9
$INSBASE
 10
0.0
 20
0.0
 30
0.0
  9
$EXTMIN
 10
1.000000000000000E+20
 20
1.000000000000000E+20
 30
1.000000000000000E+20
  9
$EXTMAX
 10
-1.000000000000000E+20
 20
-1.000000000000000E+20
 30
-1.000000000000000E+20
  9
$LIMMIN
 10
0.0
 20
0.0
  9
$LIMMAX
 10
12.0
 20
9.0
  9
$ORTHOMODE
 70
     0
  9
$REGENMODE
 70
     1
  9
$FILLMODE
 70
     1
  9
$QTEXTMODE
 70
     0
  9
$MIRRTEXT
 70
     1
  9
$LTSCALE
 40
1.0
  9
$ATTMODE
 70
     1
  9
$TEXTSIZE
 40
0.2
  9
$TRACEWID
 40
0.05
  9
$TEXTSTYLE
  7
Standard
  9
$CLAYER
  8
0
  9
$CELTYPE
  6
ByLayer
  9
$CECOLOR
 62
   256
  9
$CELTSCALE
 40
1.0
  9
$DISPSILH
 70
     0
  9
$DIMSCALE
 40
1.0
  9
$DIMASZ
 40
0.18
  9
$DIMEXO
 40
0.0625
  9
$DIMDLI
 40
0.38
  9
$DIMRND
 40
0.0
  9
$DIMDLE
 40
0.0
  9
$DIMEXE
 40
0.18
  9
$DIMTP
 40
0.0
  9
$DIMTM
 40
0.0
  9
$DIMTXT
 40
0.18
  9
$DIMCEN
 40
0.09
  9
$DIMTSZ
 40
0.0
  9
$DIMTOL
 70
     0
  9
$DIMLIM
 70
     0
  9
$DIMTIH
 70
     1
  9
$DIMTOH
 70
     1
  9
$DIMSE1
 70
     0
  9
$DIMSE2
 70
     0
  9
$DIMTAD
 70
     0
  9
$DIMZIN
 70
     0
  9
$DIMBLK
  1

  9
$DIMASO
 70
     1
  9
$DIMSHO
 70
     1
  9
$DIMPOST
  1

  9
$DIMAPOST
  1

  9
$DIMALT
 70
     0
  9
$DIMALTD
 70
     2
  9
$DIMALTF
 40
25.4
  9
$DIMLFAC
 40
1.0
  9
$DIMTOFL
 70
     0
  9
$DIMTVP
 40
0.0
  9
$DIMTIX
 70
     0
  9
$DIMSOXD
 70
     0
  9
$DIMSAH
 70
     0
  9
$DIMBLK1
  1

  9
$DIMBLK2
  1

  9
$DIMSTYLE
  2
Standard
  9
$DIMCLRD
 70
     0
  9
$DIMCLRE
 70
     0
  9
$DIMCLRT
 70
     0
  9
$DIMTFAC
 40
1.0
  9
$DIMGAP
 40
0.09
  9
$DIMJUST
 70
     0
  9
$DIMSD1
 70
     0
  9
$DIMSD2
 70
     0
  9
$DIMTOLJ
 70
     1
  9
$DIMTZIN
 70
     0
  9
$DIMALTZ
 70
     0
  9
$DIMALTTZ
 70
     0
  9
$DIMUPT
 70
     0
  9
$DIMDEC
 70
     4
  9
$DIMTDEC
 70
     4
  9
$DIMALTU
 70
     2
  9
$DIMALTTD
 70
     2
  9
$DIMTXSTY
  7
Standard
  9
$DIMAUNIT
 70
     0
  9
$DIMADEC
 70
     0
  9
$DIMALTRND
 40
0.0
  9
$DIMAZIN
 70
     0
  9
$DIMDSEP
 70
    46
  9
$DIMATFIT
 70
     3
  9
$DIMFRAC
 70
     0
  9
$DIMLDRBLK
  1

  9
$DIMLUNIT
 70
     2
  9
$DIMLWD
 70
    -2
  9
$DIMLWE
 70
    -2
  9
$DIMTMOVE
 70
     0
  9
$DIMFXL
 40
1.0
  9
$DIMFXLON
 70
     0
  9
$DIMJOGANG
 40
0.7853981633974483
  9
$DIMTFILL
 70
     0
  9
$DIMTFILLCLR
 70
     0
  9
$DIMARCSYM
 70
     0
  9
$DIMLTYPE
  6

  9
$DIMLTEX1
  6

  9
$DIMLTEX2
  6

  9
$DIMTXTDIRECTION
 70
     0
  9
$LUNITS
 70
     2
  9
$LUPREC
 70
     4
  9
$SKETCHINC
 40
0.1
  9
$FILLETRAD
 40
0.5
  9
$AUNITS
 70
     0
  9
$AUPREC
 70
     0
  9
$MENU
  1
.
  9
$ELEVATION
 40
0.0
  9
$PELEVATION
 40
0.0
  9
$THICKNESS
 40
0.0
  9
$LIMCHECK
 70
     0
  9
$CHAMFERA
 40
0.5
  9
$CHAMFERB
 40
0.5
  9
$CHAMFERC
 40
1.0
  9
$CHAMFERD
 40
0.0
  9
$SKPOLY
 70
     0
  9
$TDCREATE
 40
2458182.441759248
  9
$TDUCREATE
 40
2458182.775092592
  9
$TDUPDATE
 40
2458182.441759248
  9
$TDUUPDATE
 40
2458182.775092592
  9
$TDINDWG
 40
0.0000000116
  9
$TDUSRTIMER
 40
0.0000000116
  9
$USRTIMER
 70
     1
  9
$ANGBASE
 50
0.0
  9
$ANGDIR
 70
     0
  9
$PDMODE
 70
     0
  9
$PDSIZE
 40
0.0
  9
$PLINEWID
 40
0.0
  9
$SPLFRAME
 70
     0
  9
$SPLINETYPE
 70
     6
  9
$SPLINESEGS
 70
     8
  9
$HANDSEED
  5
5F
  9
$SURFTAB1
 70
     6
  9
$SURFTAB2
 70
     6
  9
$SURFTYPE
 70
     6
  9
$SURFU
 70
     6
  9
$SURFV
 70
     6
  9
$UCSBASE
  2

  9
$UCSNAME
  2

  9
$UCSORG
 10
0.0
 20
0.0
 30
0.0
  9
$UCSXDIR
 10
1.0
 20
0.0
 30
0.0
  9
$UCSYDIR
 10
0.0
 20
1.0
 30
0.0
  9
$UCSORTHOREF
  2

  9
$UCSORTHOVIEW
 70
     0
  9
$UCSORGTOP
 10
0.0
 20
0.0
 30
0.0
  9
$UCSORGBOTTOM
 10
0.0
 20
0.0
 30
0.0
  9
$UCSORGLEFT
 10
0.0
 20
0.0
 30
0.0
  9
$UCSORGRIGHT
 10
0.0
 20
0.0
 30
0.0
  9
$UCSORGFRONT
 10
0.0
 20
0.0
 30
0.0
  9
$UCSORGBACK
 10
0.0
 20
0.0
 30
0.0
  9
$PUCSBASE
  2

  9
$PUCSNAME
  2

  9
$PUCSORG
 10
0.0
 20
0.0
 30
0.0
  9
$PUCSXDIR
 10
1.0
 20
0.0
 30
0.0
  9
$PUCSYDIR
 10
0.0
 20
1.0
 30
0.0
  9
$PUCSORTHOREF
  2

  9
$PUCSORTHOVIEW
 70
     0
  9
$PUCSORGTOP
 10
0.0
 20
0.0
 30
0.0
  9
$PUCSORGBOTTOM
 10
0.0
 20
0.0
 30
0.0
  9
$PUCSORGLEFT
 10
0.0
 20
0.0
 30
0.0
  9
$PUCSORGRIGHT
 10
0.0
 20
0.0
 30
0.0
  9
$PUCSORGFRONT
 10
0.0
 20
0.0
 30
0.0
  9
$PUCSORGBACK
 10
0.0
 20
0.0
 30
0.0
  9
$USERI1
 70
     0
  9
$USERI2
 70
     0
  9
$USERI3
 70
     0
  9
$USERI4
 70
     0
  9
$USERI5
 70
     0
  9
$USERR1
 40
0.0
  9
$USERR2
 40
0.0
  9
$USERR3
 40
0.0
  9
$USERR4
 40
0.0
  9
$USERR5
 40
0.0
  9
$WORLDVIEW
 70
     1
  9
$SHADEDGE
 70
     3
  9
$SHADEDIF
 70
    70
  9
$TILEMODE
 70
     1
  9
$MAXACTVP
 70
    64
  9
$PINSBASE
 10
0.0
 20
0.0
 30
0.0
  9
$PLIMCHECK
 70
     0
  9
$PEXTMIN
 10
1.000000000000000E+20
 20
1.000000000000000E+20
 30
1.000000000000000E+20
  9
$PEXTMAX
 10
-1.000000000000000E+20
 20
-1.000000000000000E+20
 30
-1.000000000000000E+20
  9
$PLIMMIN
 10
0.0
 20
0.0
  9
$PLIMMAX
 10
12.0
 20
9.0
  9
$UNITMODE
 70
     0
  9
$VISRETAIN
 70
     1
  9
$PLINEGEN
 70
     0
  9
$PSLTSCALE
 70
     1
  9
$TREEDEPTH
 70
  3020
  9
$CMLSTYLE
  2
Standard
  9
$CMLJUST
 70
     0
  9
$CMLSCALE
 40
1.0
  9
$PROXYGRAPHICS
 70
     1
  9
$MEASUREMENT
 70
     0
  9
$CELWEIGHT
370
    -1
  9
$ENDCAPS
280
     0
  9
$JOINSTYLE
280
     0
  9
$LWDISPLAY
290
     1
  9
$INSUNITS
 70
     1
  9
$HYPERLINKBASE
  1

  9
$STYLESHEET
  1

  9
$XEDIT
290
     1
  9
$CEPSNTYPE
380
     0
  9
$PSTYLEMODE
290
     1
  9
$FINGERPRINTGUID
  2
{DE03C59C-D491-06F5-E165-E262DBF8D799}
  9
$VERSIONGUID
  2
{FAEB1C32-E019-11D5-929B-00C0DF256EC4}
  9
$EXTNAMES
290
     1
  9
$PSVPSCALE
 40
0.0
  9
$OLESTARTUP
290
     0
  9
$SORTENTS
280
   127
  9
$INDEXCTL
280
     0
  9
$HIDETEXT
280
     1
  9
$XCLIPFRAME
280
     2
  9
$HALOGAP
280
     0
  9
$OBSCOLOR
 70
   257
  9
$OBSLTYPE
280
     0
  9
$INTERSECTIONDISPLAY
280
     0
  9
$INTERSECTIONCOLOR
 70
   257
  9
$DIMASSOC
280
     2
  9
$PROJECTNAME
  1

  9
$CAMERADISPLAY
290
     0
  9
$LENSLENGTH
 40
50.0
  9
$CAMERAHEIGHT
 40
0.0
  9
$STEPSPERSEC
 40
2.0
  9
$STEPSIZE
 40
6.0
  9
$3DDWFPREC
 40
2.0
  9
$PSOLWIDTH
 40
0.25
  9
$PSOLHEIGHT
 40
4.0
  9
$LOFTANG1
 40
1.570796326794897
  9
$LOFTANG2
 40
1.570796326794897
  9
$LOFTMAG1
 40
0.0
  9
$LOFTMAG2
 40
0.0
  9
$LOFTPARAM
 70
     7
  9
$LOFTNORMALS
280
     1
  9
$LATITUDE
 40
37.795
  9
$LONGITUDE
 40
-122.394
  9
$NORTHDIRECTION
 40
0.0
  9
$TIMEZONE
 70
 -8000
  9
$LIGHTGLYPHDISPLAY
280
     1
  9
$TILEMODELIGHTSYNCH
280
     1
  9
$CMATERIAL
347
3C
  9
$SOLIDHIST
280
     1
  9
$SHOWHIST
280
     1
  9
$DWFFRAME
280
     2
  9
$DGNFRAME
280
     2
  9
$REALWORLDSCALE
290
     1
  9
$INTERFERECOLOR
 62
   256
  9
$CSHADOW
280
     0
  9
$SHADOWPLANELOCATION
 40
0.0
  0
ENDSEC
  0
SECTION
  2
CLASSES
  0
CLASS
  1
ACDBDICTIONARYWDFLT
  2
AcDbDictionaryWithDefault
  3
ObjectDBX Classes
 90
        0
 91
        4
280
     0
281
     0
  0
CLASS
  1
VISUALSTYLE
  2
AcDbVisualStyle
  3
ObjectDBX Classes
 90
     4095
 91
        4
280
     0
281
     0
  0
CLASS
  1
MATERIAL
  2
AcDbMaterial
  3
ObjectDBX Classes
 90
     1153
 91
        4
280
     0
281
     0
  0
CLASS
  1
SUN
  2
AcDbSun
  3
SCENEOE
 90
     1024
 91
        4
280
     0
281
     0
  0
ENDSEC
  0
SECTION
  2
TABLES
  0
TABLE
  2
VPORT
  5
8
330
0
100
AcDbSymbolTable
 70
     1
  0
VPORT
  5
29
330
8
100
AcDbSymbolTableRecord
100
AcDbViewportTableRecord
  2
*Active
 70
     0
 10
0.0
 20
0.0
 11
1.0
 21
1.0
 12
0.0
 22
0.0
 13
0.0
 23
0.0
 14
0.5
 24
0.5
 15
0.5
 25
0.5
 16
0.0
 26
0.0
 36
1.0
 17
50.7999999873
 27
-50.7999999873
 37
0.0
 40
101.5999999746
 41
1.0
 42
50.0
 43
0.0
 44
0.0
 50
0.0
 51
0.0
 71
     0
 72
   100
 73
     1
 74
     3
 75
     0
 76
     0
 77
     0
 78
     0
281
     0
 65
     1
110
0.0
120
0.0
130
0.0
111
1.0
121
0.0
131
0.0
112
0.0
122
1.0
132
0.0
 79
     0
146
0.0
 60
     3
 61
     5
292
     1
282
     1
141
0.0
142
0.0
 63
   250
361
3F
  0
ENDTAB
  0
TABLE
  2
LTYPE
  5
5
330
0
100
AcDbSymbolTable
 70
     1
  0
LTYPE
  5
14
330
5
100
AcDbSymbolTableRecord
100
AcDbLinetypeTableRecord
  2
ByBlock
 70
     0
  3

 72
    65
 73
     0
 40
0.0
  0
LTYPE
  5
15
330
5
100
AcDbSymbolTableRecord
100
AcDbLinetypeTableRecord
  2
ByLayer
 70
     0
  3

 72
    65
 73
     0
 40
0.0
  0
LTYPE
  5
16
330
5
100
AcDbSymbolTableRecord
100
AcDbLinetypeTableRecord
  2
Continuous
 70
     0
  3
Solid line
 72
    65
 73
     0
 40
0.0
  0
ENDTAB
  0
TABLE
  2
LAYER
  5
2
330
0
100
AcDbSymbolTable
 70
     3
  0
LAYER
  5
10
330
2
100
AcDbSymbolTableRecord
100
AcDbLayerTableRecord
  2
0
 70
     0
 62
     7
  6
Continuous
370
    -3
390
F
347
3E
  0
LAYER
  5
40
330
2
100
AcDbSymbolTableRecord
100
AcDbLayerTableRecord
  2
Original Image from calculator
 70
     1
 62
     7
  6
Continuous
370
    -3
390
F
347
3E
  0
LAYER
  5
4D
330
2
100
AcDbSymbolTableRecord
100
AcDbLayerTableRecord
  2
Traced antenna
 70
     0
 62
     7
  6
Continuous
370
    -3
390
F
347
3E
  0
ENDTAB
  0
TABLE
  2
STYLE
  5
3
330
0
100
AcDbSymbolTable
 70
     1
  0
STYLE
  5
11
330
3
100
AcDbSymbolTableRecord
100
AcDbTextStyleTableRecord
  2
Standard
 70
     0
 40
0.0
 41
1.0
 50
0.0
 71
     0
 42
0.2
  3
txt
  4

  0
ENDTAB
  0
TABLE
  2
VIEW
  5
6
330
0
100
AcDbSymbolTable
 70
     0
  0
ENDTAB
  0
TABLE
  2
UCS
  5
7
330
0
100
AcDbSymbolTable
 70
     0
  0
ENDTAB
  0
TABLE
  2
APPID
  5
9
330
0
100
AcDbSymbolTable
 70
     1
  0
APPID
  5
12
330
9
100
AcDbSymbolTableRecord
100
AcDbRegAppTableRecord
  2
ACAD
 70
     0
  0
ENDTAB
  0
TABLE
  2
DIMSTYLE
  5
A
330
0
100
AcDbSymbolTable
 70
     1
100
AcDbDimStyleTable
  0
DIMSTYLE
105
27
330
A
100
AcDbSymbolTableRecord
100
AcDbDimStyleTableRecord
  2
Standard
 70
     0
178
     0
340
11
  0
ENDTAB
  0
TABLE
  2
BLOCK_RECORD
  5
1
330
0
100
AcDbSymbolTable
 70
     3
  0
BLOCK_RECORD
  5
1F
330
1
100
AcDbSymbolTableRecord
100
AcDbBlockTableRecord
  2
*Model_Space
340
22
 70
     0
280
     1
281
     0
  0
BLOCK_RECORD
  5
1B
330
1
100
AcDbSymbolTableRecord
100
AcDbBlockTableRecord
  2
*Paper_Space
340
1E
 70
     0
280
     1
281
     0
  0
BLOCK_RECORD
  5
23
330
1
100
AcDbSymbolTableRecord
100
AcDbBlockTableRecord
  2
*Paper_Space0
340
26
 70
     0
280
     1
281
     0
  0
BLOCK_RECORD
  5
41
330
1
100
AcDbSymbolTableRecord
100
AcDbBlockTableRecord
  2
block 2
340
0
102
{BLKREFS
331
42
102
}
 70
     0
280
     1
281
     0
  0
BLOCK_RECORD
  5
45
330
1
100
AcDbSymbolTableRecord
100
AcDbBlockTableRecord
  2
block 3
340
0
102
{BLKREFS
331
46
102
}
 70
     0
280
     1
281
     0
  0
ENDTAB
  0
ENDSEC
  0
SECTION
  2
BLOCKS
  0
BLOCK
  5
20
330
1F
100
AcDbEntity
  8
0
100
AcDbBlockBegin
  2
*Model_Space
 70
     0
 10
0.0
 20
0.0
 30
0.0
  3
*Model_Space
  1

  0
ENDBLK
  5
21
330
1F
100
AcDbEntity
  8
0
100
AcDbBlockEnd
  0
BLOCK
  5
1C
330
1B
100
AcDbEntity
 67
     1
  8
0
100
AcDbBlockBegin
  2
*Paper_Space
 70
     0
 10
0.0
 20
0.0
 30
0.0
  3
*Paper_Space
  1

  0
ENDBLK
  5
1D
330
1B
100
AcDbEntity
 67
     1
  8
0
100
AcDbBlockEnd
  0
BLOCK
  5
24
330
23
100
AcDbEntity
  8
0
100
AcDbBlockBegin
  2
*Paper_Space0
 70
     0
 10
0.0
 20
0.0
 30
0.0
  3
*Paper_Space0
  1

  0
ENDBLK
  5
25
330
23
100
AcDbEntity
  8
0
100
AcDbBlockEnd
  0
BLOCK
  5
43
330
41
100
AcDbEntity
  8
0
100
AcDbBlockBegin
  2
block 2
 70
     0
 10
0.0
 20
0.0
 30
0.0
  3
block 2
  1

  0
INSERT
  5
46
330
41
100
AcDbEntity
  8
Original Image from calculator
100
AcDbBlockReference
  2
block 3
 10
0.0
 20
0.0
 30
0.0
  0
ENDBLK
  5
44
330
41
100
AcDbEntity
  8
0
100
AcDbBlockEnd
  0
BLOCK
  5
47
330
45
100
AcDbEntity
  8
0
100
AcDbBlockBegin
  2
block 3
 70
     0
 10
0.0
 20
0.0
 30
0.0
  3
block 3
  1

  0
SPLINE
  5
49
330
45
100
AcDbEntity
  8
Original Image from calculator
370
     0
100
AcDbSpline
210
0.0
220
0.0
230
1.0
 70
    11
 71
     3
 72
    17
 73
    13
 74
     0
 42
0.0000000001
 43
0.0000000001
 12
1.0
 22
0.0
 32
0.0
 13
1.0
 23
0.0
 33
0.0
 40
0.0
 40
0.0
 40
0.0
 40
0.0
 40
1.0
 40
1.0
 40
1.0
 40
2.0
 40
2.0
 40
2.0
 40
3.0
 40
3.0
 40
3.0
 40
4.0
 40
4.0
 40
4.0
 40
4.0
 10
65.9405920147189
 20
-60.92462511380565
 30
0.0
 10
55.86677122415848
 20
-60.92462511380565
 30
0.0
 10
45.79295043359807
 20
-60.92462511380565
 30
0.0
 10
35.71912964803071
 20
-60.92462511380565
 30
0.0
 10
35.71912964553417
 20
-54.18780066630191
 30
0.0
 10
35.71912964553417
 20
-47.45097685794261
 30
0.0
 10
35.71912964303733
 20
-40.71415305457669
 30
0.0
 10
45.79295043359807
 20
-40.71415305457669
 30
0.0
 10
55.86677122415848
 20
-40.71415305457669
 30
0.0
 10
65.9405920147189
 20
-40.71415305208016
 30
0.0
 10
65.9405920147189
 20
-47.45097685794261
 30
0.0
 10
65.9405920147189
 20
-54.18780066630191
 30
0.0
 10
65.9405920147189
 20
-60.92462511380565
 30
0.0
  0
SPLINE
  5
4A
330
45
100
AcDbEntity
  8
Original Image from calculator
370
     0
100
AcDbSpline
210
0.0
220
0.0
230
1.0
 70
    11
 71
     3
 72
   194
 73
   190
 74
     0
 42
0.0000000001
 43
0.0000000001
 12
1.0
 22
0.0
 32
0.0
 13
1.0
 23
0.0
 33
0.0
 40
0.0
 40
0.0
 40
0.0
 40
0.0
 40
1.0
 40
1.0
 40
1.0
 40
2.0
 40
2.0
 40
2.0
 40
3.0
 40
3.0
 40
3.0
 40
4.0
 40
4.0
 40
4.0
 40
5.0
 40
5.0
 40
5.0
 40
6.0
 40
6.0
 40
6.0
 40
7.0
 40
7.0
 40
7.0
 40
8.0
 40
8.0
 40
8.0
 40
9.0
 40
9.0
 40
9.0
 40
10.0
 40
10.0
 40
10.0
 40
11.0
 40
11.0
 40
11.0
 40
12.0
 40
12.0
 40
12.0
 40
13.0
 40
13.0
 40
13.0
 40
14.0
 40
14.0
 40
14.0
 40
15.0
 40
15.0
 40
15.0
 40
16.0
 40
16.0
 40
16.0
 40
17.0
 40
17.0
 40
17.0
 40
18.0
 40
18.0
 40
18.0
 40
19.0
 40
19.0
 40
19.0
 40
20.0
 40
20.0
 40
20.0
 40
21.0
 40
21.0
 40
21.0
 40
22.0
 40
22.0
 40
22.0
 40
23.0
 40
23.0
 40
23.0
 40
24.0
 40
24.0
 40
24.0
 40
25.0
 40
25.0
 40
25.0
 40
26.0
 40
26.0
 40
26.0
 40
27.0
 40
27.0
 40
27.0
 40
28.0
 40
28.0
 40
28.0
 40
29.0
 40
29.0
 40
29.0
 40
30.0
 40
30.0
 40
30.0
 40
31.0
 40
31.0
 40
31.0
 40
32.0
 40
32.0
 40
32.0
 40
33.0
 40
33.0
 40
33.0
 40
34.0
 40
34.0
 40
34.0
 40
35.0
 40
35.0
 40
35.0
 40
36.0
 40
36.0
 40
36.0
 40
37.0
 40
37.0
 40
37.0
 40
38.0
 40
38.0
 40
38.0
 40
39.0
 40
39.0
 40
39.0
 40
40.0
 40
40.0
 40
40.0
 40
41.0
 40
41.0
 40
41.0
 40
42.0
 40
42.0
 40
42.0
 40
43.0
 40
43.0
 40
43.0
 40
44.0
 40
44.0
 40
44.0
 40
45.0
 40
45.0
 40
45.0
 40
46.0
 40
46.0
 40
46.0
 40
47.0
 40
47.0
 40
47.0
 40
48.0
 40
48.0
 40
48.0
 40
49.0
 40
49.0
 40
49.0
 40
50.0
 40
50.0
 40
50.0
 40
51.0
 40
51.0
 40
51.0
 40
52.0
 40
52.0
 40
52.0
 40
53.0
 40
53.0
 40
53.0
 40
54.0
 40
54.0
 40
54.0
 40
55.0
 40
55.0
 40
55.0
 40
56.0
 40
56.0
 40
56.0
 40
57.0
 40
57.0
 40
57.0
 40
58.0
 40
58.0
 40
58.0
 40
59.0
 40
59.0
 40
59.0
 40
60.0
 40
60.0
 40
60.0
 40
61.0
 40
61.0
 40
61.0
 40
62.0
 40
62.0
 40
62.0
 40
63.0
 40
63.0
 40
63.0
 40
63.0
 10
65.52032112213926
 20
-60.51358474935256
 30
0.0
 10
55.72740827332942
 20
-60.51358474935256
 30
0.0
 10
45.94575843287362
 20
-60.51358474935256
 30
0.0
 10
36.16370752910259
 20
-60.51358474935256
 30
0.0
 10
36.16370752910259
 20
-54.18628333672338
 30
0.0
 10
36.16370752910259
 20
-47.86661714698578
 30
0.0
 10
36.16370752910259
 20
-41.54383912136571
 30
0.0
 10
45.81963983904782
 20
-41.54383912136571
 30
0.0
 10
55.46883460486834
 20
-41.54383912136571
 30
0.0
 10
65.11932683448211
 20
-41.54383912136571
 30
0.0
 10
65.11932683448211
 20
-47.73827432951487
 30
0.0
 10
65.11932683448211
 20
-53.92530009264682
 30
0.0
 10
65.11932683448211
 20
-60.11610320110715
 30
0.0
 10
55.59633375130155
 20
-60.11610320110715
 30
0.0
 10
46.07977813379684
 20
-60.11610320110715
 30
0.0
 10
36.56104526978454
 20
-60.11610320110715
 30
0.0
 10
36.56104526978454
 20
-54.05452876470742
 30
0.0
 10
36.56104526978454
 20
-48.00014470647032
 30
0.0
 10
36.56104526978454
 20
-41.94165869727775
 30
0.0
 10
45.94747006244879
 20
-41.94165869727775
 30
0.0
 10
55.32774724156994
 20
-41.94165869727775
 30
0.0
 10
64.71355685743552
 20
-41.94165869727775
 30
0.0
 10
64.71355685743552
 20
-47.86673858448372
 30
0.0
 10
64.71355685743552
 20
-53.78451696223771
 30
0.0
 10
64.71355685743552
 20
-59.70609313795133
 30
0.0
 10
55.45883710307133
 20
-59.70609313795133
 30
0.0
 10
46.21082261602277
 20
-59.70609313795133
 30
0.0
 10
36.95282492804028
 20
-59.70609313795133
 30
0.0
 10
36.95282492804028
 20
-59.37666132863598
 30
0.0
 10
36.95282484814715
 20
-59.05294347316753
 30
0.0
 10
36.95282484814715
 20
-58.72922689598796
 30
0.0
 10
36.95282484814715
 20
-58.40460784645598
 30
0.0
 10
36.95282484814715
 20
-58.07998879692465
 30
0.0
 10
36.95282484814715
 20
-57.75536974739268
 30
0.0
 10
36.95282484814715
 20
-57.43075069786071
 30
0.0
 10
36.95282484814715
 20
-57.10613164832937
 30
0.0
 10
36.95282484814715
 20
-56.78151259879741
 30
0.0
 10
36.95282484814715
 20
-56.45340254077475
 30
0.0
 10
36.95282484814715
 20
-56.12529376104098
 30
0.0
 10
36.95282484814715
 20
-55.79718370301833
 30
0.0
 10
36.95282484814715
 20
-55.472564653487
 30
0.0
 10
36.95282484814715
 20
-55.14794560395503
 30
0.0
 10
36.95282484814715
 20
-54.82332655442305
 30
0.0
 10
36.95282484814715
 20
-54.49870750489173
 30
0.0
 10
36.95282484814715
 20
-54.17408845535975
 30
0.0
 10
36.95282484814715
 20
-53.84946940582778
 30
0.0
 10
36.95282484814715
 20
-53.52485035629581
 30
0.0
 10
36.95282484814715
 20
-53.20023002847496
 30
0.0
 10
36.95282484814715
 20
-52.87561097894299
 30
0.0
 10
36.95282484814715
 20
-52.55099192941102
 30
0.0
 10
36.95282484814715
 20
-52.22637287987968
 30
0.0
 10
36.95282484814715
 20
-51.90175383034772
 30
0.0
 10
36.95282484814715
 20
-51.57713478081574
 30
0.0
 10
36.95282484814715
 20
-51.25251637042884
 30
0.0
 10
36.95282484814715
 20
-50.92789732089719
 30
0.0
 10
36.95282476825401
 20
-50.59978790201898
 30
0.0
 10
36.95282484814715
 20
-50.27167784399633
 30
0.0
 10
36.95282484814715
 20
-49.94356842511844
 30
0.0
 10
36.95282484814715
 20
-49.61894937558647
 30
0.0
 10
36.95282484814715
 20
-49.29433032605482
 30
0.0
 10
36.95282484814715
 20
-48.96971127652284
 30
0.0
 10
36.95282484814715
 20
-48.64509222699119
 30
0.0
 10
36.95282484814715
 20
-48.32047317745954
 30
0.0
 10
36.95282484814715
 20
-47.99585412792757
 30
0.0
 10
36.95282484814715
 20
-47.67123507839592
 30
0.0
 10
36.95282484814715
 20
-47.34661602886394
 30
0.0
 10
36.95282484814715
 20
-47.02199697933229
 30
0.0
 10
36.95282484814715
 20
-46.69737792980064
 30
0.0
 10
36.95282484814715
 20
-46.37275888026867
 30
0.0
 10
36.95282484814715
 20
-46.0481395111648
 30
0.0
 10
36.95282484814715
 20
-45.72352046163282
 30
0.0
 10
36.95282476825401
 20
-45.39890141210117
 30
0.0
 10
36.95282484814715
 20
-45.0742823625692
 30
0.0
 10
36.95282484814715
 20
-44.74617262411877
 30
0.0
 10
36.95282484814715
 20
-44.41806320524088
 30
0.0
 10
36.95282484814715
 20
-44.08995346679045
 30
0.0
 10
36.95282484814715
 20
-43.76533441725879
 30
0.0
 10
36.95307099875962
 20
-43.44071504815461
 30
0.0
 10
36.95275566073072
 20
-43.1160961584089
 30
0.0
 10
36.9524418406704
 20
-42.79302671526422
 30
0.0
 10
36.95415402949688
 20
-42.46991508856786
 30
0.0
 10
36.95165800955752
 20
-42.14032509093284
 30
0.0
 10
36.90580448865663
 20
-42.14032509093284
 30
0.0
 10
36.87473806033992
 20
-42.13973404184799
 30
0.0
 10
36.84370462786985
 20
-42.14049286642353
 30
0.0
 10
36.81315319041583
 20
-42.14123954724901
 30
0.0
 10
36.7826351482738
 20
-42.14335511629066
 30
0.0
 10
36.74665928953371
 20
-42.14514024750897
 30
0.0
 10
36.74665928953371
 20
-48.07239106966842
 30
0.0
 10
36.74665928953371
 20
-53.99335110986639
 30
0.0
 10
36.74665928953371
 20
-59.91443514414132
 30
0.0
 10
36.76283963772664
 20
-59.91868929143456
 30
0.0
 10
36.77258635511225
 20
-59.9234982163494
 30
0.0
 10
36.78233331217695
 20
-59.9234982163494
 30
0.0
 10
46.14043232910772
 20
-59.92411818673359
 30
0.0
 10
55.49853182539668
 20
-59.92441730646483
 30
0.0
 10
64.85663068254118
 20
-59.92447355120082
 30
0.0
 10
64.87383390197466
 20
-59.92447355120082
 30
0.0
 10
64.89105757403841
 20
-59.92097615126258
 30
0.0
 10
64.90822244478844
 20
-59.91871485722353
 30
0.0
 10
64.91146163025728
 20
-59.91828663025728
 30
0.0
 10
64.91480307888266
 20
-59.91643950200049
 30
0.0
 10
64.91745680778288
 20
-59.91440957835236
 30
0.0
 10
64.92016678141974
 20
-59.91233363628368
 30
0.0
 10
64.92208932875394
 20
-59.90922867120662
 30
0.0
 10
64.92639716420415
 20
-59.90418837590087
 30
0.0
 10
64.92639716420415
 20
-53.85250023011631
 30
0.0
 10
64.92639716420415
 20
-47.79842807450557
 30
0.0
 10
64.92639716420415
 20
-41.74536480884387
 30
0.0
 10
64.78065682730377
 20
-41.72423284667558
 30
0.0
 10
36.42308004857753
 20
-41.7313106554734
 30
0.0
 10
36.34183237053011
 20
-41.75360777847614
 30
0.0
 10
36.34183237053011
 20
-41.78587635812843
 30
0.0
 10
36.34182270346595
 20
-41.82029965443684
 30
0.0
 10
36.34183372871244
 20
-41.85472295074526
 30
0.0
 10
36.34380305345179
 20
-48.00830658461583
 30
0.0
 10
36.34577361653361
 20
-54.16188973912759
 30
0.0
 10
36.34797035695546
 20
-60.31547289363935
 30
0.0
 10
36.34797135561885
 20
-60.3182570080641
 30
0.0
 10
36.35109154032956
 20
-60.32132618103609
 30
0.0
 10
36.3533166427985
 20
-60.32374598296702
 30
0.0
 10
36.35565447441851
 20
-60.32628594410638
 30
0.0
 10
36.35866971955444
 20
-60.32820209999365
 30
0.0
 10
36.36860486479402
 20
-60.33620035708955
 30
0.0
 10
36.40987052496206
 20
-60.33620035708955
 30
0.0
 10
36.458391356589
 20
-60.33620163537906
 30
0.0
 10
36.50691218821562
 20
-60.33620163537906
 30
0.0
 10
46.05699645919904
 20
-60.33620163537906
 30
0.0
 10
55.60708033071712
 20
-60.3362233662995
 30
0.0
 10
65.1571642022352
 20
-60.3360495189341
 30
0.0
 10
65.3467115186253
 20
-60.33604696235507
 30
0.0
 10
65.33896508455187
 20
-60.36015550140363
 30
0.0
 10
65.33895997139382
 20
-60.1569036438078
 30
0.0
 10
65.33880657665998
 20
-53.94027397527714
 30
0.0
 10
65.33883725560636
 20
-47.72364430674681
 30
0.0
 10
65.33883469902734
 20
-41.5070144784302
 30
0.0
 10
65.33883469902734
 20
-41.47909024537077
 30
0.0
 10
65.33996470690211
 20
-41.45110249730394
 30
0.0
 10
65.3384460990347
 20
-41.42326039434169
 30
0.0
 10
65.33699651879714
 20
-41.39667940381567
 30
0.0
 10
65.33276538071385
 20
-41.37025029005552
 30
0.0
 10
65.32974861760931
 20
-41.34370117687291
 30
0.0
 10
55.53304436228741
 20
-41.34370117687291
 30
0.0
 10
45.74390374564823
 20
-41.34370117687291
 30
0.0
 10
35.95584901592434
 20
-41.34370117687291
 30
0.0
 10
35.93488049504651
 20
-41.47395935130005
 30
0.0
 10
35.94005481101201
 20
-60.64819757658116
 30
0.0
 10
35.96037426044747
 20
-60.72699645150517
 30
0.0
 10
45.88154867545487
 20
-60.72699645150517
 30
0.0
 10
55.80310090488814
 20
-60.72699645150517
 30
0.0
 10
65.72329303434526
 20
-60.72699645150517
 30
0.0
 10
65.74531540500902
 20
-60.611280577233
 30
0.0
 10
65.74098456034824
 20
-41.02317774676908
 30
0.0
 10
65.7199388028254
 20
-40.94563858615223
 30
0.0
 10
55.79846454904855
 20
-40.94563858615223
 30
0.0
 10
45.87665090942274
 20
-40.94563858615223
 30
0.0
 10
35.95288156682982
 20
-40.94563858615223
 30
0.0
 10
35.95288156682982
 20
-41.01236917031535
 30
0.0
 10
35.95288156682982
 20
-41.07226699776306
 30
0.0
 10
35.95288156682982
 20
-41.1290379095074
 30
0.0
 10
35.96503422469505
 20
-41.13303128575286
 30
0.0
 10
35.96820260491253
 20
-41.13426978844481
 30
0.0
 10
35.97147536545285
 20
-41.13509324653067
 30
0.0
 10
35.97485276596893
 20
-41.1359430293898
 30
0.0
 10
35.97831335516583
 20
-41.13653499724521
 30
0.0
 10
35.98177142773011
 20
-41.13697085400149
 30
0.0
 10
35.98522378793832
 20
-41.13740607161301
 30
0.0
 10
35.98871813196584
 20
-41.13772556408268
 30
0.0
 10
35.99219408060945
 20
-41.13772564397581
 30
0.0
 10
45.80755425143208
 20
-41.13801821247385
 30
0.0
 10
55.62291450214784
 20
-41.13827990229252
 30
0.0
 10
65.43827539200869
 20
-41.13855884901864
 30
0.0
 10
65.44874458261346
 20
-41.13855912864445
 30
0.0
 10
65.45921632979726
 20
-41.13880036583188
 30
0.0
 10
65.46968552040138
 20
-41.13896642362098
 30
0.0
 10
65.47317269402416
 20
-41.13902174958609
 30
0.0
 10
65.47669054659397
 20
-41.13895276190233
 30
0.0
 10
65.4801444846907
 20
-41.13936377190753
 30
0.0
 10
65.48707025693669
 20
-41.14018878790839
 30
0.0
 10
65.49408295286571
 20
-41.14082749322191
 30
0.0
 10
65.5008144251154
 20
-41.142512518398
 30
0.0
 10
65.50394879084932
 20
-41.14329702860205
 30
0.0
 10
65.5065948500131
 20
-41.14624520348818
 30
0.0
 10
65.50931760654382
 20
-41.14839820244271
 30
0.0
 10
65.51199178807559
 20
-41.1505140910569
 30
0.0
 10
65.51448445250554
 20
-41.15286282808353
 30
0.0
 10
65.52032112213926
 20
-41.15796336277976
 30
0.0
 10
65.52032112213926
 20
-47.6050554769326
 30
0.0
 10
65.52032112213926
 20
-54.05500173180405
 30
0.0
 10
65.52032112213926
 20
-60.51358474935256
 30
0.0
  0
SPLINE
  5
4B
330
45
100
AcDbEntity
  8
Original Image from calculator
370
     0
100
AcDbSpline
210
0.0
220
0.0
230
1.0
 70
    11
 71
     3
 72
   194
 73
   190
 74
     0
 42
0.0000000001
 43
0.0000000001
 12
1.0
 22
0.0
 32
0.0
 13
1.0
 23
0.0
 33
0.0
 40
0.0
 40
0.0
 40
0.0
 40
0.0
 40
1.0
 40
1.0
 40
1.0
 40
2.0
 40
2.0
 40
2.0
 40
3.0
 40
3.0
 40
3.0
 40
4.0
 40
4.0
 40
4.0
 40
5.0
 40
5.0
 40
5.0
 40
6.0
 40
6.0
 40
6.0
 40
7.0
 40
7.0
 40
7.0
 40
8.0
 40
8.0
 40
8.0
 40
9.0
 40
9.0
 40
9.0
 40
10.0
 40
10.0
 40
10.0
 40
11.0
 40
11.0
 40
11.0
 40
12.0
 40
12.0
 40
12.0
 40
13.0
 40
13.0
 40
13.0
 40
14.0
 40
14.0
 40
14.0
 40
15.0
 40
15.0
 40
15.0
 40
16.0
 40
16.0
 40
16.0
 40
17.0
 40
17.0
 40
17.0
 40
18.0
 40
18.0
 40
18.0
 40
19.0
 40
19.0
 40
19.0
 40
20.0
 40
20.0
 40
20.0
 40
21.0
 40
21.0
 40
21.0
 40
22.0
 40
22.0
 40
22.0
 40
23.0
 40
23.0
 40
23.0
 40
24.0
 40
24.0
 40
24.0
 40
25.0
 40
25.0
 40
25.0
 40
26.0
 40
26.0
 40
26.0
 40
27.0
 40
27.0
 40
27.0
 40
28.0
 40
28.0
 40
28.0
 40
29.0
 40
29.0
 40
29.0
 40
30.0
 40
30.0
 40
30.0
 40
31.0
 40
31.0
 40
31.0
 40
32.0
 40
32.0
 40
32.0
 40
33.0
 40
33.0
 40
33.0
 40
34.0
 40
34.0
 40
34.0
 40
35.0
 40
35.0
 40
35.0
 40
36.0
 40
36.0
 40
36.0
 40
37.0
 40
37.0
 40
37.0
 40
38.0
 40
38.0
 40
38.0
 40
39.0
 40
39.0
 40
39.0
 40
40.0
 40
40.0
 40
40.0
 40
41.0
 40
41.0
 40
41.0
 40
42.0
 40
42.0
 40
42.0
 40
43.0
 40
43.0
 40
43.0
 40
44.0
 40
44.0
 40
44.0
 40
45.0
 40
45.0
 40
45.0
 40
46.0
 40
46.0
 40
46.0
 40
47.0
 40
47.0
 40
47.0
 40
48.0
 40
48.0
 40
48.0
 40
49.0
 40
49.0
 40
49.0
 40
50.0
 40
50.0
 40
50.0
 40
51.0
 40
51.0
 40
51.0
 40
52.0
 40
52.0
 40
52.0
 40
53.0
 40
53.0
 40
53.0
 40
54.0
 40
54.0
 40
54.0
 40
55.0
 40
55.0
 40
55.0
 40
56.0
 40
56.0
 40
56.0
 40
57.0
 40
57.0
 40
57.0
 40
58.0
 40
58.0
 40
58.0
 40
59.0
 40
59.0
 40
59.0
 40
60.0
 40
60.0
 40
60.0
 40
61.0
 40
61.0
 40
61.0
 40
62.0
 40
62.0
 40
62.0
 40
63.0
 40
63.0
 40
63.0
 40
63.0
 10
65.52032112213926
 20
-60.51358474935256
 30
0.0
 10
65.52032112213926
 20
-54.05500173180405
 30
0.0
 10
65.52032112213926
 20
-47.6050554769326
 30
0.0
 10
65.52032112213926
 20
-41.15796336277976
 30
0.0
 10
65.51448445250554
 20
-41.15286282808353
 30
0.0
 10
65.51199178807559
 20
-41.1505140910569
 30
0.0
 10
65.50931760654382
 20
-41.14839820244271
 30
0.0
 10
65.5065948500131
 20
-41.14624520348818
 30
0.0
 10
65.50394879084932
 20
-41.14329702860205
 30
0.0
 10
65.5008144251154
 20
-41.142512518398
 30
0.0
 10
65.49408295286571
 20
-41.14082749322191
 30
0.0
 10
65.48707025693669
 20
-41.14018878790839
 30
0.0
 10
65.4801444846907
 20
-41.13936377190753
 30
0.0
 10
65.47669054659397
 20
-41.13895276190233
 30
0.0
 10
65.47317269402416
 20
-41.13902174958609
 30
0.0
 10
65.46968552040138
 20
-41.13896642362098
 30
0.0
 10
65.45921632979726
 20
-41.13880036583188
 30
0.0
 10
65.44874458261346
 20
-41.13855912864445
 30
0.0
 10
65.43827539200869
 20
-41.13855884901864
 30
0.0
 10
55.62291450214784
 20
-41.13827990229252
 30
0.0
 10
45.80755425143208
 20
-41.13801821247385
 30
0.0
 10
35.99219408060945
 20
-41.13772564397581
 30
0.0
 10
35.98871813196584
 20
-41.13772556408268
 30
0.0
 10
35.98522378793832
 20
-41.13740607161301
 30
0.0
 10
35.98177142773011
 20
-41.13697085400149
 30
0.0
 10
35.97831335516583
 20
-41.13653499724521
 30
0.0
 10
35.97485276596893
 20
-41.1359430293898
 30
0.0
 10
35.97147536545285
 20
-41.13509324653067
 30
0.0
 10
35.96820260491253
 20
-41.13426978844481
 30
0.0
 10
35.96503422469505
 20
-41.13303128575286
 30
0.0
 10
35.95288156682982
 20
-41.1290379095074
 30
0.0
 10
35.95288156682982
 20
-41.07226699776306
 30
0.0
 10
35.95288156682982
 20
-41.01236917031535
 30
0.0
 10
35.95288156682982
 20
-40.94563858615223
 30
0.0
 10
45.87665090942274
 20
-40.94563858615223
 30
0.0
 10
55.79846454904855
 20
-40.94563858615223
 30
0.0
 10
65.7199388028254
 20
-40.94563858615223
 30
0.0
 10
65.74098456034824
 20
-41.02317774676908
 30
0.0
 10
65.74531540500902
 20
-60.611280577233
 30
0.0
 10
65.72329303434526
 20
-60.72699645150517
 30
0.0
 10
55.80310090488814
 20
-60.72699645150517
 30
0.0
 10
45.88154867545487
 20
-60.72699645150517
 30
0.0
 10
35.96037426044747
 20
-60.72699645150517
 30
0.0
 10
35.94005481101201
 20
-60.64819757658116
 30
0.0
 10
35.93488049504651
 20
-41.47395935130005
 30
0.0
 10
35.95584901592434
 20
-41.34370117687291
 30
0.0
 10
45.74390374564823
 20
-41.34370117687291
 30
0.0
 10
55.53304436228741
 20
-41.34370117687291
 30
0.0
 10
65.32974861760931
 20
-41.34370117687291
 30
0.0
 10
65.33276538071385
 20
-41.37025029005552
 30
0.0
 10
65.33699651879714
 20
-41.39667940381567
 30
0.0
 10
65.3384460990347
 20
-41.42326039434169
 30
0.0
 10
65.33996470690211
 20
-41.45110249730394
 30
0.0
 10
65.33883469902734
 20
-41.47909024537077
 30
0.0
 10
65.33883469902734
 20
-41.5070144784302
 30
0.0
 10
65.33883725560636
 20
-47.72364430674681
 30
0.0
 10
65.33880657665998
 20
-53.94027397527714
 30
0.0
 10
65.33895997139382
 20
-60.1569036438078
 30
0.0
 10
65.33896508455187
 20
-60.36015550140363
 30
0.0
 10
65.3467115186253
 20
-60.33604696235507
 30
0.0
 10
65.1571642022352
 20
-60.3360495189341
 30
0.0
 10
55.60708033071712
 20
-60.3362233662995
 30
0.0
 10
46.05699645919904
 20
-60.33620163537906
 30
0.0
 10
36.50691218821562
 20
-60.33620163537906
 30
0.0
 10
36.458391356589
 20
-60.33620163537906
 30
0.0
 10
36.40987052496206
 20
-60.33620035708955
 30
0.0
 10
36.36860486479402
 20
-60.33620035708955
 30
0.0
 10
36.35866971955444
 20
-60.32820209999365
 30
0.0
 10
36.35565447441851
 20
-60.32628594410638
 30
0.0
 10
36.3533166427985
 20
-60.32374598296702
 30
0.0
 10
36.35109154032956
 20
-60.32132618103609
 30
0.0
 10
36.34797135561885
 20
-60.3182570080641
 30
0.0
 10
36.34797035695546
 20
-60.31547289363935
 30
0.0
 10
36.34577361653361
 20
-54.16188973912759
 30
0.0
 10
36.34380305345179
 20
-48.00830658461583
 30
0.0
 10
36.34183372871244
 20
-41.85472295074526
 30
0.0
 10
36.34182270346595
 20
-41.82029965443684
 30
0.0
 10
36.34183237053011
 20
-41.78587635812843
 30
0.0
 10
36.34183237053011
 20
-41.75360777847614
 30
0.0
 10
36.42308004857753
 20
-41.7313106554734
 30
0.0
 10
64.78065682730377
 20
-41.72423284667558
 30
0.0
 10
64.92639716420415
 20
-41.74536480884387
 30
0.0
 10
64.92639716420415
 20
-47.79842807450557
 30
0.0
 10
64.92639716420415
 20
-53.85250023011631
 30
0.0
 10
64.92639716420415
 20
-59.90418837590087
 30
0.0
 10
64.92208932875394
 20
-59.90922867120662
 30
0.0
 10
64.92016678141974
 20
-59.91233363628368
 30
0.0
 10
64.91745680778288
 20
-59.91440957835236
 30
0.0
 10
64.91480307888266
 20
-59.91643950200049
 30
0.0
 10
64.91146163025728
 20
-59.91828663025728
 30
0.0
 10
64.90822244478844
 20
-59.91871485722353
 30
0.0
 10
64.89105757403841
 20
-59.92097615126258
 30
0.0
 10
64.87383390197466
 20
-59.92447355120082
 30
0.0
 10
64.85663068254118
 20
-59.92447355120082
 30
0.0
 10
55.49853182539668
 20
-59.92441730646483
 30
0.0
 10
46.14043232910772
 20
-59.92411818673359
 30
0.0
 10
36.78233331217695
 20
-59.9234982163494
 30
0.0
 10
36.77258635511225
 20
-59.9234982163494
 30
0.0
 10
36.76283963772664
 20
-59.91868929143456
 30
0.0
 10
36.74665928953371
 20
-59.91443514414132
 30
0.0
 10
36.74665928953371
 20
-53.99335110986639
 30
0.0
 10
36.74665928953371
 20
-48.07239106966842
 30
0.0
 10
36.74665928953371
 20
-42.14514024750897
 30
0.0
 10
36.7826351482738
 20
-42.14335511629066
 30
0.0
 10
36.81315319041583
 20
-42.14123954724901
 30
0.0
 10
36.84370462786985
 20
-42.14049286642353
 30
0.0
 10
36.87473806033992
 20
-42.13973404184799
 30
0.0
 10
36.90580448865663
 20
-42.14032509093284
 30
0.0
 10
36.95165800955752
 20
-42.14032509093284
 30
0.0
 10
36.95415402949688
 20
-42.46991508856786
 30
0.0
 10
36.9524418406704
 20
-42.79302671526422
 30
0.0
 10
36.95275566073072
 20
-43.1160961584089
 30
0.0
 10
36.95307099875962
 20
-43.44071504815461
 30
0.0
 10
36.95282484814715
 20
-43.76533441725879
 30
0.0
 10
36.95282484814715
 20
-44.08995346679045
 30
0.0
 10
36.95282484814715
 20
-44.41806320524088
 30
0.0
 10
36.95282484814715
 20
-44.74617262411877
 30
0.0
 10
36.95282484814715
 20
-45.0742823625692
 30
0.0
 10
36.95282476825401
 20
-45.39890141210117
 30
0.0
 10
36.95282484814715
 20
-45.72352046163282
 30
0.0
 10
36.95282484814715
 20
-46.0481395111648
 30
0.0
 10
36.95282484814715
 20
-46.37275888026867
 30
0.0
 10
36.95282484814715
 20
-46.69737792980064
 30
0.0
 10
36.95282484814715
 20
-47.02199697933229
 30
0.0
 10
36.95282484814715
 20
-47.34661602886394
 30
0.0
 10
36.95282484814715
 20
-47.67123507839592
 30
0.0
 10
36.95282484814715
 20
-47.99585412792757
 30
0.0
 10
36.95282484814715
 20
-48.32047317745954
 30
0.0
 10
36.95282484814715
 20
-48.64509222699119
 30
0.0
 10
36.95282484814715
 20
-48.96971127652284
 30
0.0
 10
36.95282484814715
 20
-49.29433032605482
 30
0.0
 10
36.95282484814715
 20
-49.61894937558647
 30
0.0
 10
36.95282484814715
 20
-49.94356842511844
 30
0.0
 10
36.95282484814715
 20
-50.27167784399633
 30
0.0
 10
36.95282476825401
 20
-50.59978790201898
 30
0.0
 10
36.95282484814715
 20
-50.92789732089719
 30
0.0
 10
36.95282484814715
 20
-51.25251637042884
 30
0.0
 10
36.95282484814715
 20
-51.57713478081574
 30
0.0
 10
36.95282484814715
 20
-51.90175383034772
 30
0.0
 10
36.95282484814715
 20
-52.22637287987968
 30
0.0
 10
36.95282484814715
 20
-52.55099192941102
 30
0.0
 10
36.95282484814715
 20
-52.87561097894299
 30
0.0
 10
36.95282484814715
 20
-53.20023002847496
 30
0.0
 10
36.95282484814715
 20
-53.52485035629581
 30
0.0
 10
36.95282484814715
 20
-53.84946940582778
 30
0.0
 10
36.95282484814715
 20
-54.17408845535975
 30
0.0
 10
36.95282484814715
 20
-54.49870750489173
 30
0.0
 10
36.95282484814715
 20
-54.82332655442305
 30
0.0
 10
36.95282484814715
 20
-55.14794560395503
 30
0.0
 10
36.95282484814715
 20
-55.472564653487
 30
0.0
 10
36.95282484814715
 20
-55.79718370301833
 30
0.0
 10
36.95282484814715
 20
-56.12529376104098
 30
0.0
 10
36.95282484814715
 20
-56.45340254077475
 30
0.0
 10
36.95282484814715
 20
-56.78151259879741
 30
0.0
 10
36.95282484814715
 20
-57.10613164832937
 30
0.0
 10
36.95282484814715
 20
-57.43075069786071
 30
0.0
 10
36.95282484814715
 20
-57.75536974739268
 30
0.0
 10
36.95282484814715
 20
-58.07998879692465
 30
0.0
 10
36.95282484814715
 20
-58.40460784645598
 30
0.0
 10
36.95282484814715
 20
-58.72922689598796
 30
0.0
 10
36.95282484814715
 20
-59.05294347316753
 30
0.0
 10
36.95282492804028
 20
-59.37666132863598
 30
0.0
 10
36.95282492804028
 20
-59.70609313795133
 30
0.0
 10
46.21082261602277
 20
-59.70609313795133
 30
0.0
 10
55.45883710307133
 20
-59.70609313795133
 30
0.0
 10
64.71355685743552
 20
-59.70609313795133
 30
0.0
 10
64.71355685743552
 20
-53.78451696223771
 30
0.0
 10
64.71355685743552
 20
-47.86673858448372
 30
0.0
 10
64.71355685743552
 20
-41.94165869727775
 30
0.0
 10
55.32774724156994
 20
-41.94165869727775
 30
0.0
 10
45.94747006244879
 20
-41.94165869727775
 30
0.0
 10
36.56104526978454
 20
-41.94165869727775
 30
0.0
 10
36.56104526978454
 20
-48.00014470647032
 30
0.0
 10
36.56104526978454
 20
-54.05452876470742
 30
0.0
 10
36.56104526978454
 20
-60.11610320110715
 30
0.0
 10
46.07977813379684
 20
-60.11610320110715
 30
0.0
 10
55.59633375130155
 20
-60.11610320110715
 30
0.0
 10
65.11932683448211
 20
-60.11610320110715
 30
0.0
 10
65.11932683448211
 20
-53.92530009264682
 30
0.0
 10
65.11932683448211
 20
-47.73827432951487
 30
0.0
 10
65.11932683448211
 20
-41.54383912136571
 30
0.0
 10
55.46883460486834
 20
-41.54383912136571
 30
0.0
 10
45.81963983904782
 20
-41.54383912136571
 30
0.0
 10
36.16370752910259
 20
-41.54383912136571
 30
0.0
 10
36.16370752910259
 20
-47.86661714698578
 30
0.0
 10
36.16370752910259
 20
-54.18628333672338
 30
0.0
 10
36.16370752910259
 20
-60.51358474935256
 30
0.0
 10
45.94575843287362
 20
-60.51358474935256
 30
0.0
 10
55.72740827332942
 20
-60.51358474935256
 30
0.0
 10
65.52032112213926
 20
-60.51358474935256
 30
0.0
  0
HATCH
  5
4C
330
45
100
AcDbEntity
  8
Original Image from calculator
 62
     7
420
 16777215
100
AcDbHatch
 10
0.0
 20
0.0
 30
0.0
210
0.0
220
0.0
230
1.0
  2
SOLID
 70
     1
 71
     0
 91
        1
 92
        1
 93
        1
 72
     4
 94
        3
 73
     0
 74
     1
 95
      194
 96
      190
 40
0.0
 40
0.0
 40
0.0
 40
0.0
 40
1.0
 40
1.0
 40
1.0
 40
2.0
 40
2.0
 40
2.0
 40
3.0
 40
3.0
 40
3.0
 40
4.0
 40
4.0
 40
4.0
 40
5.0
 40
5.0
 40
5.0
 40
6.0
 40
6.0
 40
6.0
 40
7.0
 40
7.0
 40
7.0
 40
8.0
 40
8.0
 40
8.0
 40
9.0
 40
9.0
 40
9.0
 40
10.0
 40
10.0
 40
10.0
 40
11.0
 40
11.0
 40
11.0
 40
12.0
 40
12.0
 40
12.0
 40
13.0
 40
13.0
 40
13.0
 40
14.0
 40
14.0
 40
14.0
 40
15.0
 40
15.0
 40
15.0
 40
16.0
 40
16.0
 40
16.0
 40
17.0
 40
17.0
 40
17.0
 40
18.0
 40
18.0
 40
18.0
 40
19.0
 40
19.0
 40
19.0
 40
20.0
 40
20.0
 40
20.0
 40
21.0
 40
21.0
 40
21.0
 40
22.0
 40
22.0
 40
22.0
 40
23.0
 40
23.0
 40
23.0
 40
24.0
 40
24.0
 40
24.0
 40
25.0
 40
25.0
 40
25.0
 40
26.0
 40
26.0
 40
26.0
 40
27.0
 40
27.0
 40
27.0
 40
28.0
 40
28.0
 40
28.0
 40
29.0
 40
29.0
 40
29.0
 40
30.0
 40
30.0
 40
30.0
 40
31.0
 40
31.0
 40
31.0
 40
32.0
 40
32.0
 40
32.0
 40
33.0
 40
33.0
 40
33.0
 40
34.0
 40
34.0
 40
34.0
 40
35.0
 40
35.0
 40
35.0
 40
36.0
 40
36.0
 40
36.0
 40
37.0
 40
37.0
 40
37.0
 40
38.0
 40
38.0
 40
38.0
 40
39.0
 40
39.0
 40
39.0
 40
40.0
 40
40.0
 40
40.0
 40
41.0
 40
41.0
 40
41.0
 40
42.0
 40
42.0
 40
42.0
 40
43.0
 40
43.0
 40
43.0
 40
44.0
 40
44.0
 40
44.0
 40
45.0
 40
45.0
 40
45.0
 40
46.0
 40
46.0
 40
46.0
 40
47.0
 40
47.0
 40
47.0
 40
48.0
 40
48.0
 40
48.0
 40
49.0
 40
49.0
 40
49.0
 40
50.0
 40
50.0
 40
50.0
 40
51.0
 40
51.0
 40
51.0
 40
52.0
 40
52.0
 40
52.0
 40
53.0
 40
53.0
 40
53.0
 40
54.0
 40
54.0
 40
54.0
 40
55.0
 40
55.0
 40
55.0
 40
56.0
 40
56.0
 40
56.0
 40
57.0
 40
57.0
 40
57.0
 40
58.0
 40
58.0
 40
58.0
 40
59.0
 40
59.0
 40
59.0
 40
60.0
 40
60.0
 40
60.0
 40
61.0
 40
61.0
 40
61.0
 40
62.0
 40
62.0
 40
62.0
 40
63.0
 40
63.0
 40
63.0
 40
63.0
 10
65.52032112213926
 20
-60.51358474935256
 10
65.52032112213926
 20
-54.05500173180405
 10
65.52032112213926
 20
-47.6050554769326
 10
65.52032112213926
 20
-41.15796336277976
 10
65.51448445250554
 20
-41.15286282808353
 10
65.51199178807559
 20
-41.1505140910569
 10
65.50931760654382
 20
-41.14839820244271
 10
65.5065948500131
 20
-41.14624520348818
 10
65.50394879084932
 20
-41.14329702860205
 10
65.5008144251154
 20
-41.142512518398
 10
65.49408295286571
 20
-41.14082749322191
 10
65.48707025693669
 20
-41.14018878790839
 10
65.4801444846907
 20
-41.13936377190753
 10
65.47669054659397
 20
-41.13895276190233
 10
65.47317269402416
 20
-41.13902174958609
 10
65.46968552040138
 20
-41.13896642362098
 10
65.45921632979726
 20
-41.13880036583188
 10
65.44874458261346
 20
-41.13855912864445
 10
65.43827539200869
 20
-41.13855884901864
 10
55.62291450214784
 20
-41.13827990229252
 10
45.80755425143208
 20
-41.13801821247385
 10
35.99219408060945
 20
-41.13772564397581
 10
35.98871813196584
 20
-41.13772556408268
 10
35.98522378793832
 20
-41.13740607161301
 10
35.98177142773011
 20
-41.13697085400149
 10
35.97831335516583
 20
-41.13653499724521
 10
35.97485276596893
 20
-41.1359430293898
 10
35.97147536545285
 20
-41.13509324653067
 10
35.96820260491253
 20
-41.13426978844481
 10
35.96503422469505
 20
-41.13303128575286
 10
35.95288156682982
 20
-41.1290379095074
 10
35.95288156682982
 20
-41.07226699776306
 10
35.95288156682982
 20
-41.01236917031535
 10
35.95288156682982
 20
-40.94563858615223
 10
45.87665090942274
 20
-40.94563858615223
 10
55.79846454904855
 20
-40.94563858615223
 10
65.7199388028254
 20
-40.94563858615223
 10
65.74098456034824
 20
-41.02317774676908
 10
65.74531540500902
 20
-60.611280577233
 10
65.72329303434526
 20
-60.72699645150517
 10
55.80310090488814
 20
-60.72699645150517
 10
45.88154867545487
 20
-60.72699645150517
 10
35.96037426044747
 20
-60.72699645150517
 10
35.94005481101201
 20
-60.64819757658116
 10
35.93488049504651
 20
-41.47395935130005
 10
35.95584901592434
 20
-41.34370117687291
 10
45.74390374564823
 20
-41.34370117687291
 10
55.53304436228741
 20
-41.34370117687291
 10
65.32974861760931
 20
-41.34370117687291
 10
65.33276538071385
 20
-41.37025029005552
 10
65.33699651879714
 20
-41.39667940381567
 10
65.3384460990347
 20
-41.42326039434169
 10
65.33996470690211
 20
-41.45110249730394
 10
65.33883469902734
 20
-41.47909024537077
 10
65.33883469902734
 20
-41.5070144784302
 10
65.33883725560636
 20
-47.72364430674681
 10
65.33880657665998
 20
-53.94027397527714
 10
65.33895997139382
 20
-60.1569036438078
 10
65.33896508455187
 20
-60.36015550140363
 10
65.3467115186253
 20
-60.33604696235507
 10
65.1571642022352
 20
-60.3360495189341
 10
55.60708033071712
 20
-60.3362233662995
 10
46.05699645919904
 20
-60.33620163537906
 10
36.50691218821562
 20
-60.33620163537906
 10
36.458391356589
 20
-60.33620163537906
 10
36.40987052496206
 20
-60.33620035708955
 10
36.36860486479402
 20
-60.33620035708955
 10
36.35866971955444
 20
-60.32820209999365
 10
36.35565447441851
 20
-60.32628594410638
 10
36.3533166427985
 20
-60.32374598296702
 10
36.35109154032956
 20
-60.32132618103609
 10
36.34797135561885
 20
-60.3182570080641
 10
36.34797035695546
 20
-60.31547289363935
 10
36.34577361653361
 20
-54.16188973912759
 10
36.34380305345179
 20
-48.00830658461583
 10
36.34183372871244
 20
-41.85472295074526
 10
36.34182270346595
 20
-41.82029965443684
 10
36.34183237053011
 20
-41.78587635812843
 10
36.34183237053011
 20
-41.75360777847614
 10
36.42308004857753
 20
-41.7313106554734
 10
64.78065682730377
 20
-41.72423284667558
 10
64.92639716420415
 20
-41.74536480884387
 10
64.92639716420415
 20
-47.79842807450557
 10
64.92639716420415
 20
-53.85250023011631
 10
64.92639716420415
 20
-59.90418837590087
 10
64.92208932875394
 20
-59.90922867120662
 10
64.92016678141974
 20
-59.91233363628368
 10
64.91745680778288
 20
-59.91440957835236
 10
64.91480307888266
 20
-59.91643950200049
 10
64.91146163025728
 20
-59.91828663025728
 10
64.90822244478844
 20
-59.91871485722353
 10
64.89105757403841
 20
-59.92097615126258
 10
64.87383390197466
 20
-59.92447355120082
 10
64.85663068254118
 20
-59.92447355120082
 10
55.49853182539668
 20
-59.92441730646483
 10
46.14043232910772
 20
-59.92411818673359
 10
36.78233331217695
 20
-59.9234982163494
 10
36.77258635511225
 20
-59.9234982163494
 10
36.76283963772664
 20
-59.91868929143456
 10
36.74665928953371
 20
-59.91443514414132
 10
36.74665928953371
 20
-53.99335110986639
 10
36.74665928953371
 20
-48.07239106966842
 10
36.74665928953371
 20
-42.14514024750897
 10
36.7826351482738
 20
-42.14335511629066
 10
36.81315319041583
 20
-42.14123954724901
 10
36.84370462786985
 20
-42.14049286642353
 10
36.87473806033992
 20
-42.13973404184799
 10
36.90580448865663
 20
-42.14032509093284
 10
36.95165800955752
 20
-42.14032509093284
 10
36.95415402949688
 20
-42.46991508856786
 10
36.9524418406704
 20
-42.79302671526422
 10
36.95275566073072
 20
-43.1160961584089
 10
36.95307099875962
 20
-43.44071504815461
 10
36.95282484814715
 20
-43.76533441725879
 10
36.95282484814715
 20
-44.08995346679045
 10
36.95282484814715
 20
-44.41806320524088
 10
36.95282484814715
 20
-44.74617262411877
 10
36.95282484814715
 20
-45.0742823625692
 10
36.95282476825401
 20
-45.39890141210117
 10
36.95282484814715
 20
-45.72352046163282
 10
36.95282484814715
 20
-46.0481395111648
 10
36.95282484814715
 20
-46.37275888026867
 10
36.95282484814715
 20
-46.69737792980064
 10
36.95282484814715
 20
-47.02199697933229
 10
36.95282484814715
 20
-47.34661602886394
 10
36.95282484814715
 20
-47.67123507839592
 10
36.95282484814715
 20
-47.99585412792757
 10
36.95282484814715
 20
-48.32047317745954
 10
36.95282484814715
 20
-48.64509222699119
 10
36.95282484814715
 20
-48.96971127652284
 10
36.95282484814715
 20
-49.29433032605482
 10
36.95282484814715
 20
-49.61894937558647
 10
36.95282484814715
 20
-49.94356842511844
 10
36.95282484814715
 20
-50.27167784399633
 10
36.95282476825401
 20
-50.59978790201898
 10
36.95282484814715
 20
-50.92789732089719
 10
36.95282484814715
 20
-51.25251637042884
 10
36.95282484814715
 20
-51.57713478081574
 10
36.95282484814715
 20
-51.90175383034772
 10
36.95282484814715
 20
-52.22637287987968
 10
36.95282484814715
 20
-52.55099192941102
 10
36.95282484814715
 20
-52.87561097894299
 10
36.95282484814715
 20
-53.20023002847496
 10
36.95282484814715
 20
-53.52485035629581
 10
36.95282484814715
 20
-53.84946940582778
 10
36.95282484814715
 20
-54.17408845535975
 10
36.95282484814715
 20
-54.49870750489173
 10
36.95282484814715
 20
-54.82332655442305
 10
36.95282484814715
 20
-55.14794560395503
 10
36.95282484814715
 20
-55.472564653487
 10
36.95282484814715
 20
-55.79718370301833
 10
36.95282484814715
 20
-56.12529376104098
 10
36.95282484814715
 20
-56.45340254077475
 10
36.95282484814715
 20
-56.78151259879741
 10
36.95282484814715
 20
-57.10613164832937
 10
36.95282484814715
 20
-57.43075069786071
 10
36.95282484814715
 20
-57.75536974739268
 10
36.95282484814715
 20
-58.07998879692465
 10
36.95282484814715
 20
-58.40460784645598
 10
36.95282484814715
 20
-58.72922689598796
 10
36.95282484814715
 20
-59.05294347316753
 10
36.95282492804028
 20
-59.37666132863598
 10
36.95282492804028
 20
-59.70609313795133
 10
46.21082261602277
 20
-59.70609313795133
 10
55.45883710307133
 20
-59.70609313795133
 10
64.71355685743552
 20
-59.70609313795133
 10
64.71355685743552
 20
-53.78451696223771
 10
64.71355685743552
 20
-47.86673858448372
 10
64.71355685743552
 20
-41.94165869727775
 10
55.32774724156994
 20
-41.94165869727775
 10
45.94747006244879
 20
-41.94165869727775
 10
36.56104526978454
 20
-41.94165869727775
 10
36.56104526978454
 20
-48.00014470647032
 10
36.56104526978454
 20
-54.05452876470742
 10
36.56104526978454
 20
-60.11610320110715
 10
46.07977813379684
 20
-60.11610320110715
 10
55.59633375130155
 20
-60.11610320110715
 10
65.11932683448211
 20
-60.11610320110715
 10
65.11932683448211
 20
-53.92530009264682
 10
65.11932683448211
 20
-47.73827432951487
 10
65.11932683448211
 20
-41.54383912136571
 10
55.46883460486834
 20
-41.54383912136571
 10
45.81963983904782
 20
-41.54383912136571
 10
36.16370752910259
 20
-41.54383912136571
 10
36.16370752910259
 20
-47.86661714698578
 10
36.16370752910259
 20
-54.18628333672338
 10
36.16370752910259
 20
-60.51358474935256
 10
45.94575843287362
 20
-60.51358474935256
 10
55.72740827332942
 20
-60.51358474935256
 10
65.52032112213926
 20
-60.51358474935256
 97
        0
 97
        0
 75
     2
 76
     1
 98
        0
  0
ENDBLK
  5
48
330
45
100
AcDbEntity
  8
0
100
AcDbBlockEnd
  0
ENDSEC
  0
SECTION
  2
ENTITIES
  0
INSERT
  5
42
330
1F
100
AcDbEntity
  8
Original Image from calculator
100
AcDbBlockReference
  2
block 2
 10
0.0
 20
0.0
 30
0.0
  0
POLYLINE
  5
4E
330
1F
100
AcDbEntity
  8
Traced antenna
 62
   177
420
  3027090
370
    20
100
AcDb2dPolyline
 66
     1
 10
0.0
 20
0.0
 30
0.0
  0
VERTEX
  5
4F
330
4E
100
AcDbEntity
  8
Traced antenna
 62
   177
420
  3027090
370
    20
100
AcDbVertex
100
AcDb2dVertex
 10
35.95428308873791
 20
-41.04349613774797
 30
0.0
  0
VERTEX
  5
50
330
4E
100
AcDbEntity
  8
Traced antenna
 62
   177
420
  3027090
370
    20
100
AcDbVertex
100
AcDb2dVertex
 10
65.6332031085917
 20
-41.02695311474326
 30
0.0
  0
VERTEX
  5
51
330
4E
100
AcDbEntity
  8
Traced antenna
 62
   177
420
  3027090
370
    20
100
AcDbVertex
100
AcDb2dVertex
 10
65.6276909558153
 20
-60.60060762373874
 30
0.0
  0
VERTEX
  5
52
330
4E
100
AcDbEntity
  8
Traced antenna
 62
   177
420
  3027090
370
    20
100
AcDbVertex
100
AcDb2dVertex
 10
36.06772330253144
 20
-60.62382351425362
 30
0.0
  0
VERTEX
  5
53
330
4E
100
AcDbEntity
  8
Traced antenna
 62
   177
420
  3027090
370
    20
100
AcDbVertex
100
AcDb2dVertex
 10
36.0660156159835
 20
-41.44036457297324
 30
0.0
  0
VERTEX
  5
54
330
4E
100
AcDbEntity
  8
Traced antenna
 62
   177
420
  3027090
370
    20
100
AcDbVertex
100
AcDb2dVertex
 10
65.23345174064248
 20
-41.44578744816599
 30
0.0
  0
VERTEX
  5
55
330
4E
100
AcDbEntity
  8
Traced antenna
 62
   177
420
  3027090
370
    20
100
AcDbVertex
100
AcDb2dVertex
 10
65.23081595591452
 20
-60.20373262383796
 30
0.0
  0
VERTEX
  5
56
330
4E
100
AcDbEntity
  8
Traced antenna
 62
   177
420
  3027090
370
    20
100
AcDbVertex
100
AcDb2dVertex
 10
36.45508713685722
 20
-60.22815902633546
 30
0.0
  0
VERTEX
  5
57
330
4E
100
AcDbEntity
  8
Traced antenna
 62
   177
420
  3027090
370
    20
100
AcDbVertex
100
AcDb2dVertex
 10
36.44125271420178
 20
-41.85881262570356
 30
0.0
  0
VERTEX
  5
58
330
4E
100
AcDbEntity
  8
Traced antenna
 62
   177
420
  3027090
370
    20
100
AcDbVertex
100
AcDb2dVertex
 10
64.82842880323734
 20
-41.83172742009763
 30
0.0
  0
VERTEX
  5
59
330
4E
100
AcDbEntity
  8
Traced antenna
 62
   177
420
  3027090
370
    20
100
AcDbVertex
100
AcDb2dVertex
 10
64.82842880323734
 20
-59.83441838781918
 30
0.0
  0
VERTEX
  5
5A
330
4E
100
AcDbEntity
  8
Traced antenna
 62
   177
420
  3027090
370
    20
100
AcDbVertex
100
AcDb2dVertex
 10
36.85075162477538
 20
-59.81589323123193
 30
0.0
  0
VERTEX
  5
5B
330
4E
100
AcDbEntity
  8
Traced antenna
 62
   177
420
  3027090
370
    20
100
AcDbVertex
100
AcDb2dVertex
 10
36.84322822671761
 20
-42.15694443390521
 30
0.0
  0
SEQEND
  5
5C
330
4E
100
AcDbEntity
  8
Traced antenna
 62
   177
420
  3027090
370
    20
  0
ENDSEC
  0
SECTION
  2
OBJECTS
  0
DICTIONARY
  5
C
330
0
100
AcDbDictionary
281
     1
  3
ACAD_GROUP
350
D
  3
ACAD_LAYOUT
350
1A
  3
ACAD_MATERIAL
350
3B
  3
ACAD_MLEADERSTYLE
350
5E
  3
ACAD_MLINESTYLE
350
17
  3
ACAD_PLOTSETTINGS
350
19
  3
ACAD_PLOTSTYLENAME
350
E
  3
ACAD_TABLESTYLE
350
5D
  3
ACAD_VISUALSTYLE
350
2A
  0
SUN
  5
3F
330
29
100
AcDbSun
 90
        1
290
     0
 63
     7
421
 16777215
 40
1.0
291
     1
 91
  2455826
 92
 54000000
292
     0
 70
     2
 71
   256
280
     1
  0
DICTIONARY
  5
D
102
{ACAD_REACTORS
330
C
102
}
330
C
100
AcDbDictionary
281
     1
  0
DICTIONARY
  5
1A
102
{ACAD_REACTORS
330
C
102
}
330
C
100
AcDbDictionary
281
     1
  3
Layout1
350
1E
  3
Layout2
350
26
  3
Model
350
22
  0
DICTIONARY
  5
3B
102
{ACAD_REACTORS
330
C
102
}
330
C
100
AcDbDictionary
281
     1
  3
ByBlock
350
3D
  3
ByLayer
350
3C
  3
Global
350
3E
  0
DICTIONARY
  5
5E
102
{ACAD_REACTORS
330
C
102
}
330
C
100
AcDbDictionary
281
     1
  0
DICTIONARY
  5
17
102
{ACAD_REACTORS
330
C
102
}
330
C
100
AcDbDictionary
281
     1
  3
Standard
350
18
  0
DICTIONARY
  5
19
102
{ACAD_REACTORS
330
C
102
}
330
C
100
AcDbDictionary
281
     1
  0
ACDBDICTIONARYWDFLT
  5
E
102
{ACAD_REACTORS
330
C
102
}
330
C
100
AcDbDictionary
281
     1
  3
Normal
350
F
100
AcDbDictionaryWithDefault
340
F
  0
DICTIONARY
  5
5D
102
{ACAD_REACTORS
330
C
102
}
330
C
100
AcDbDictionary
281
     1
  0
DICTIONARY
  5
2A
102
{ACAD_REACTORS
330
C
102
}
330
C
100
AcDbDictionary
281
     1
  3
2dWireframe
350
2F
  3
3D Hidden
350
31
  3
3dWireframe
350
30
  3
Basic
350
32
  3
Brighten
350
36
  3
ColorChange
350
3A
  3
Conceptual
350
34
  3
Dim
350
35
  3
Facepattern
350
39
  3
Flat
350
2B
  3
FlatWithEdges
350
2C
  3
Gouraud
350
2D
  3
GouraudWithEdges
350
2E
  3
Linepattern
350
38
  3
Realistic
350
33
  3
Thicken
350
37
  0
LAYOUT
  5
1E
102
{ACAD_REACTORS
330
1A
102
}
330
1A
100
AcDbPlotSettings
  1

  2
none_device
  4

  6

 40
0.0
 41
0.0
 42
0.0
 43
0.0
 44
0.0
 45
0.0
 46
0.0
 47
0.0
 48
0.0
 49
0.0
140
0.0
141
0.0
142
1.0
143
1.0
 70
   688
 72
     0
 73
     0
 74
     5
  7

 75
    16
 76
     0
 77
     2
 78
   300
147
1.0
148
0.0
149
0.0
100
AcDbLayout
  1
Layout1
 70
     1
 71
     1
 10
0.0
 20
0.0
 11
12.0
 21
9.0
 12
0.0
 22
0.0
 32
0.0
 14
1.000000000000000E+20
 24
1.000000000000000E+20
 34
1.000000000000000E+20
 15
-1.000000000000000E+20
 25
-1.000000000000000E+20
 35
-1.000000000000000E+20
146
0.0
 13
0.0
 23
0.0
 33
0.0
 16
1.0
 26
0.0
 36
0.0
 17
0.0
 27
1.0
 37
0.0
 76
     0
330
1B
  0
LAYOUT
  5
26
102
{ACAD_REACTORS
330
1A
102
}
330
1A
100
AcDbPlotSettings
  1

  2
none_device
  4

  6

 40
0.0
 41
0.0
 42
0.0
 43
0.0
 44
0.0
 45
0.0
 46
0.0
 47
0.0
 48
0.0
 49
0.0
140
0.0
141
0.0
142
1.0
143
1.0
 70
   688
 72
     0
 73
     0
 74
     5
  7

 75
    16
 76
     0
 77
     2
 78
   300
147
1.0
148
0.0
149
0.0
100
AcDbLayout
  1
Layout2
 70
     1
 71
     2
 10
0.0
 20
0.0
 11
0.0
 21
0.0
 12
0.0
 22
0.0
 32
0.0
 14
0.0
 24
0.0
 34
0.0
 15
0.0
 25
0.0
 35
0.0
146
0.0
 13
0.0
 23
0.0
 33
0.0
 16
1.0
 26
0.0
 36
0.0
 17
0.0
 27
1.0
 37
0.0
 76
     0
330
23
  0
LAYOUT
  5
22
102
{ACAD_REACTORS
330
1A
102
}
330
1A
100
AcDbPlotSettings
  1

  2
none_device
  4

  6

 40
0.0
 41
0.0
 42
0.0
 43
0.0
 44
0.0
 45
0.0
 46
0.0
 47
0.0
 48
0.0
 49
0.0
140
0.0
141
0.0
142
1.0
143
1.0
 70
  1712
 72
     0
 73
     0
 74
     0
  7

 75
     0
 76
     0
 77
     2
 78
   300
147
1.0
148
0.0
149
0.0
100
AcDbLayout
  1
Model
 70
     1
 71
     0
 10
0.0
 20
0.0
 11
12.0
 21
9.0
 12
0.0
 22
0.0
 32
0.0
 14
1.000000000000000E+20
 24
1.000000000000000E+20
 34
1.000000000000000E+20
 15
-1.000000000000000E+20
 25
-1.000000000000000E+20
 35
-1.000000000000000E+20
146
0.0
 13
0.0
 23
0.0
 33
0.0
 16
1.0
 26
0.0
 36
0.0
 17
0.0
 27
1.0
 37
0.0
 76
     0
330
1F
331
29
  0
MATERIAL
  5
3D
102
{ACAD_REACTORS
330
3B
102
}
330
3B
100
AcDbMaterial
  1
ByBlock
 72
     1
 94
      127
  0
MATERIAL
  5
3C
102
{ACAD_REACTORS
330
3B
102
}
330
3B
100
AcDbMaterial
  1
ByLayer
 72
     1
 94
      127
  0
MATERIAL
  5
3E
102
{ACAD_REACTORS
330
3B
102
}
330
3B
100
AcDbMaterial
  1
Global
 72
     1
 94
      127
  0
MLINESTYLE
  5
18
102
{ACAD_REACTORS
330
17
102
}
330
17
100
AcDbMlineStyle
  2
Standard
 70
     0
  3

 62
   256
 51
90.0
 52
90.0
 71
     2
 49
0.5
 62
   256
  6
BYLAYER
 49
-0.5
 62
   256
  6
BYLAYER
  0
ACDBPLACEHOLDER
  5
F
102
{ACAD_REACTORS
330
E
102
}
330
E
  0
VISUALSTYLE
  5
2F
102
{ACAD_REACTORS
330
2A
102
}
330
2A
100
AcDbVisualStyle
  2
2dWireframe
 70
     4
177
     2
291
     0
 71
     0
176
     1
 72
     2
176
     1
 73
     0
176
     1
 90
        0
176
     1
 40
-0.6
176
     1
 41
-30.0
176
     1
 62
     5
 63
     7
421
 16777215
176
     1
 74
     1
176
     1
 91
        4
176
     1
 64
     7
176
     1
 65
   257
176
     1
 75
     1
176
     1
175
     1
176
     1
 42
1.0
176
     1
 92
        0
176
     1
 66
   257
176
     1
 43
1.0
176
     1
 76
     1
176
     1
 77
     6
176
     1
 78
     2
176
     1
 67
     7
176
     1
 79
     5
176
     1
170
     0
176
     1
171
     0
176
     1
290
     0
176
     1
 93
        1
176
     1
 44
0.0
176
     1
173
     0
176
     1
  0
VISUALSTYLE
  5
31
102
{ACAD_REACTORS
330
2A
102
}
330
2A
100
AcDbVisualStyle
  2
3D Hidden
 70
     6
177
     2
291
     0
 71
     1
176
     1
 72
     2
176
     1
 73
     2
176
     1
 90
        0
176
     1
 40
-0.6
176
     1
 41
-30.0
176
     1
 62
     5
 63
     7
421
 16777215
176
     1
 74
     2
176
     1
 91
        2
176
     1
 64
     7
176
     1
 65
   257
176
     1
 75
     2
176
     1
175
     1
176
     1
 42
40.0
176
     1
 92
        0
176
     1
 66
   257
176
     1
 43
1.0
176
     1
 76
     1
176
     1
 77
     6
176
     1
 78
     2
176
     1
 67
     7
176
     1
 79
     3
176
     1
170
     0
176
     1
171
     0
176
     1
290
     0
176
     1
 93
        1
176
     1
 44
0.0
176
     1
173
     0
176
     1
  0
VISUALSTYLE
  5
30
102
{ACAD_REACTORS
330
2A
102
}
330
2A
100
AcDbVisualStyle
  2
3dWireframe
 70
     5
177
     2
291
     0
 71
     0
176
     1
 72
     2
176
     1
 73
     0
176
     1
 90
        0
176
     1
 40
-0.6
176
     1
 41
-30.0
176
     1
 62
     5
 63
     7
421
 16777215
176
     1
 74
     1
176
     1
 91
        4
176
     1
 64
     7
176
     1
 65
   257
176
     1
 75
     1
176
     1
175
     1
176
     1
 42
1.0
176
     1
 92
        0
176
     1
 66
   257
176
     1
 43
1.0
176
     1
 76
     1
176
     1
 77
     6
176
     1
 78
     2
176
     1
 67
     7
176
     1
 79
     5
176
     1
170
     0
176
     1
171
     0
176
     1
290
     0
176
     1
 93
        1
176
     1
 44
0.0
176
     1
173
     0
176
     1
  0
VISUALSTYLE
  5
32
102
{ACAD_REACTORS
330
2A
102
}
330
2A
100
AcDbVisualStyle
  2
Basic
 70
     7
177
     2
291
     1
 71
     1
176
     1
 72
     0
176
     1
 73
     1
176
     1
 90
        0
176
     1
 40
-0.6
176
     1
 41
-30.0
176
     1
 62
     5
 63
     7
421
 16777215
176
     1
 74
     0
176
     1
 91
        4
176
     1
 64
     7
176
     1
 65
   257
176
     1
 75
     1
176
     1
175
     1
176
     1
 42
1.0
176
     1
 92
        8
176
     1
 66
     7
176
     1
 43
1.0
176
     1
 76
     1
176
     1
 77
     6
176
     1
 78
     2
176
     1
 67
     7
176
     1
 79
     5
176
     1
170
     0
176
     1
171
     0
176
     1
290
     0
176
     1
 93
        1
176
     1
 44
0.0
176
     1
173
     0
176
     1
  0
VISUALSTYLE
  5
36
102
{ACAD_REACTORS
330
2A
102
}
330
2A
100
AcDbVisualStyle
  2
Brighten
 70
    12
177
     2
291
     1
 71
     2
176
     1
 72
     2
176
     1
 73
     0
176
     1
 90
        0
176
     1
 40
-0.6
176
     1
 41
-30.0
176
     1
 62
     5
 63
     7
421
 16777215
176
     1
 74
     1
176
     1
 91
        4
176
     1
 64
     7
176
     1
 65
   257
176
     1
 75
     1
176
     1
175
     1
176
     1
 42
1.0
176
     1
 92
        8
176
     1
 66
     7
176
     1
 43
1.0
176
     1
 76
     1
176
     1
 77
     6
176
     1
 78
     2
176
     1
 67
     7
176
     1
 79
     5
176
     1
170
     0
176
     1
171
     0
176
     1
290
     0
176
     1
 93
        1
176
     1
 44
50.0
176
     1
173
     0
176
     1
  0
VISUALSTYLE
  5
3A
102
{ACAD_REACTORS
330
2A
102
}
330
2A
100
AcDbVisualStyle
  2
ColorChange
 70
    16
177
     2
291
     1
 71
     2
176
     1
 72
     2
176
     1
 73
     3
176
     1
 90
        0
176
     1
 40
-0.6
176
     1
 41
-30.0
176
     1
 62
     5
 63
     8
421
  8421504
176
     1
 74
     1
176
     1
 91
        4
176
     1
 64
     7
176
     1
 65
   257
176
     1
 75
     1
176
     1
175
     1
176
     1
 42
1.0
176
     1
 92
        8
176
     1
 66
     8
424
  8421504
176
     1
 43
1.0
176
     1
 76
     1
176
     1
 77
     6
176
     1
 78
     2
176
     1
 67
     7
176
     1
 79
     5
176
     1
170
     0
176
     1
171
     0
176
     1
290
     0
176
     1
 93
        1
176
     1
 44
0.0
176
     1
173
     0
176
     1
  0
VISUALSTYLE
  5
34
102
{ACAD_REACTORS
330
2A
102
}
330
2A
100
AcDbVisualStyle
  2
Conceptual
 70
     9
177
     2
291
     0
 71
     3
176
     1
 72
     2
176
     1
 73
     0
176
     1
 90
        0
176
     1
 40
-0.6
176
     1
 41
-30.0
176
     1
 62
     5
 63
     7
421
 16777215
176
     1
 74
     2
176
     1
 91
        2
176
     1
 64
     7
176
     1
 65
   257
176
     1
 75
     1
176
     1
175
     1
176
     1
 42
40.0
176
     1
 92
        8
176
     1
 66
     7
176
     1
 43
1.0
176
     1
 76
     1
176
     1
 77
     6
176
     1
 78
     2
176
     1
 67
     7
176
     1
 79
     3
176
     1
170
     0
176
     1
171
     0
176
     1
290
     0
176
     1
 93
        1
176
     1
 44
0.0
176
     1
173
     0
176
     1
  0
VISUALSTYLE
  5
35
102
{ACAD_REACTORS
330
2A
102
}
330
2A
100
AcDbVisualStyle
  2
Dim
 70
    11
177
     2
291
     1
 71
     2
176
     1
 72
     2
176
     1
 73
     0
176
     1
 90
        0
176
     1
 40
-0.6
176
     1
 41
-30.0
176
     1
 62
     5
 63
     7
421
 16777215
176
     1
 74
     1
176
     1
 91
        4
176
     1
 64
     7
176
     1
 65
   257
176
     1
 75
     1
176
     1
175
     1
176
     1
 42
1.0
176
     1
 92
        8
176
     1
 66
     7
176
     1
 43
1.0
176
     1
 76
     1
176
     1
 77
     6
176
     1
 78
     2
176
     1
 67
     7
176
     1
 79
     5
176
     1
170
     0
176
     1
171
     0
176
     1
290
     0
176
     1
 93
        1
176
     1
 44
-50.0
176
     1
173
     0
176
     1
  0
VISUALSTYLE
  5
39
102
{ACAD_REACTORS
330
2A
102
}
330
2A
100
AcDbVisualStyle
  2
Facepattern
 70
    15
177
     2
291
     1
 71
     2
176
     1
 72
     2
176
     1
 73
     0
176
     1
 90
        0
176
     1
 40
-0.6
176
     1
 41
-30.0
176
     1
 62
     5
 63
     7
421
 16777215
176
     1
 74
     1
176
     1
 91
        4
176
     1
 64
     7
176
     1
 65
   257
176
     1
 75
     1
176
     1
175
     1
176
     1
 42
1.0
176
     1
 92
        8
176
     1
 66
     7
176
     1
 43
1.0
176
     1
 76
     1
176
     1
 77
     6
176
     1
 78
     2
176
     1
 67
     7
176
     1
 79
     5
176
     1
170
     0
176
     1
171
     0
176
     1
290
     0
176
     1
 93
        1
176
     1
 44
0.0
176
     1
173
     0
176
     1
  0
VISUALSTYLE
  5
2B
102
{ACAD_REACTORS
330
2A
102
}
330
2A
100
AcDbVisualStyle
  2
Flat
 70
     0
177
     2
291
     1
 71
     2
176
     1
 72
     1
176
     1
 73
     1
176
     1
 90
        2
176
     1
 40
-0.6
176
     1
 41
30.0
176
     1
 62
     5
 63
     7
421
 16777215
176
     1
 74
     0
176
     1
 91
        4
176
     1
 64
     7
176
     1
 65
   257
176
     1
 75
     1
176
     1
175
     1
176
     1
 42
1.0
176
     1
 92
        8
176
     1
 66
     7
176
     1
 43
1.0
176
     1
 76
     1
176
     1
 77
     6
176
     1
 78
     2
176
     1
 67
     7
176
     1
 79
     5
176
     1
170
     0
176
     1
171
     0
176
     1
290
     0
176
     1
 93
       13
176
     1
 44
0.0
176
     1
173
     0
176
     1
  0
VISUALSTYLE
  5
2C
102
{ACAD_REACTORS
330
2A
102
}
330
2A
100
AcDbVisualStyle
  2
FlatWithEdges
 70
     1
177
     2
291
     1
 71
     2
176
     1
 72
     1
176
     1
 73
     1
176
     1
 90
        2
176
     1
 40
-0.6
176
     1
 41
30.0
176
     1
 62
     5
 63
     7
421
 16777215
176
     1
 74
     1
176
     1
 91
        4
176
     1
 64
     7
176
     1
 65
   257
176
     1
 75
     1
176
     1
175
     1
176
     1
 42
1.0
176
     1
 92
        0
176
     1
 66
   257
176
     1
 43
1.0
176
     1
 76
     1
176
     1
 77
     6
176
     1
 78
     2
176
     1
 67
     7
176
     1
 79
     5
176
     1
170
     0
176
     1
171
     0
176
     1
290
     0
176
     1
 93
       13
176
     1
 44
0.0
176
     1
173
     0
176
     1
  0
VISUALSTYLE
  5
2D
102
{ACAD_REACTORS
330
2A
102
}
330
2A
100
AcDbVisualStyle
  2
Gouraud
 70
     2
177
     2
291
     1
 71
     2
176
     1
 72
     2
176
     1
 73
     1
176
     1
 90
        2
176
     1
 40
-0.6
176
     1
 41
30.0
176
     1
 62
     5
 63
     7
421
 16777215
176
     1
 74
     0
176
     1
 91
        4
176
     1
 64
     7
176
     1
 65
   257
176
     1
 75
     1
176
     1
175
     1
176
     1
 42
1.0
176
     1
 92
        0
176
     1
 66
     7
176
     1
 43
1.0
176
     1
 76
     1
176
     1
 77
     6
176
     1
 78
     2
176
     1
 67
     7
176
     1
 79
     5
176
     1
170
     0
176
     1
171
     0
176
     1
290
     0
176
     1
 93
       13
176
     1
 44
0.0
176
     1
173
     0
176
     1
  0
VISUALSTYLE
  5
2E
102
{ACAD_REACTORS
330
2A
102
}
330
2A
100
AcDbVisualStyle
  2
GouraudWithEdges
 70
     3
177
     2
291
     1
 71
     2
176
     1
 72
     2
176
     1
 73
     1
176
     1
 90
        2
176
     1
 40
-0.6
176
     1
 41
30.0
176
     1
 62
     5
 63
     7
421
 16777215
176
     1
 74
     1
176
     1
 91
        4
176
     1
 64
     7
176
     1
 65
   257
176
     1
 75
     1
176
     1
175
     1
176
     1
 42
1.0
176
     1
 92
        0
176
     1
 66
   257
176
     1
 43
1.0
176
     1
 76
     1
176
     1
 77
     6
176
     1
 78
     2
176
     1
 67
     7
176
     1
 79
     5
176
     1
170
     0
176
     1
171
     0
176
     1
290
     0
176
     1
 93
       13
176
     1
 44
0.0
176
     1
173
     0
176
     1
  0
VISUALSTYLE
  5
38
102
{ACAD_REACTORS
330
2A
102
}
330
2A
100
AcDbVisualStyle
  2
Linepattern
 70
    14
177
     2
291
     1
 71
     2
176
     1
 72
     2
176
     1
 73
     0
176
     1
 90
        0
176
     1
 40
-0.6
176
     1
 41
-30.0
176
     1
 62
     5
 63
     7
421
 16777215
176
     1
 74
     1
176
     1
 91
        4
176
     1
 64
     7
176
     1
 65
   257
176
     1
 75
     7
176
     1
175
     7
176
     1
 42
1.0
176
     1
 92
        8
176
     1
 66
     7
176
     1
 43
1.0
176
     1
 76
     1
176
     1
 77
     6
176
     1
 78
     2
176
     1
 67
     7
176
     1
 79
     5
176
     1
170
     0
176
     1
171
     0
176
     1
290
     0
176
     1
 93
        1
176
     1
 44
0.0
176
     1
173
     0
176
     1
  0
VISUALSTYLE
  5
33
102
{ACAD_REACTORS
330
2A
102
}
330
2A
100
AcDbVisualStyle
  2
Realistic
 70
     8
177
     2
291
     0
 71
     2
176
     1
 72
     2
176
     1
 73
     0
176
     1
 90
        0
176
     1
 40
-0.6
176
     1
 41
-30.0
176
     1
 62
     5
 63
     7
421
 16777215
176
     1
 74
     1
176
     1
 91
        0
176
     1
 64
     7
176
     1
 65
   257
176
     1
 75
     1
176
     1
175
     1
176
     1
 42
1.0
176
     1
 92
        8
176
     1
 66
     8
424
  7895160
176
     1
 43
1.0
176
     1
 76
     1
176
     1
 77
     6
176
     1
 78
     2
176
     1
 67
     7
176
     1
 79
     5
176
     1
170
     0
176
     1
171
     0
176
     1
290
     0
176
     1
 93
       13
176
     1
 44
0.0
176
     1
173
     0
176
     1
  0
VISUALSTYLE
  5
37
102
{ACAD_REACTORS
330
2A
102
}
330
2A
100
AcDbVisualStyle
  2
Thicken
 70
    13
177
     2
291
     1
 71
     2
176
     1
 72
     2
176
     1
 73
     0
176
     1
 90
        0
176
     1
 40
-0.6
176
     1
 41
-30.0
176
     1
 62
     5
 63
     7
421
 16777215
176
     1
 74
     1
176
     1
 91
        4
176
     1
 64
     7
176
     1
 65
   257
176
     1
 75
     1
176
     1
175
     1
176
     1
 42
1.0
176
     1
 92
       12
176
     1
 66
     7
176
     1
 43
1.0
176
     1
 76
     1
176
     1
 77
     6
176
     1
 78
     2
176
     1
 67
     7
176
     1
 79
     5
176
     1
170
     0
176
     1
171
     0
176
     1
290
     0
176
     1
 93
        1
176
     1
 44
0.0
176
     1
173
     0
176
     1
  0
ENDSEC
  0
EOF
