%FSLAX33Y33*%
%MOMM*%
%AMRect-W4059999-H1520000-RO1.000*
21,1,4.059999,1.52,0.,0.,180*%
%AMRect-W1300000-H1300000-RO0.500*
21,1,1.3,1.3,0.,0.,270*%
%AMRect-W1950000-H1950000-RO0.500*
21,1,1.95,1.95,0.,0.,270*%
%ADD10C,0.0508*%
%ADD11C,0.254*%
%ADD12C,0.635*%
%ADD13C,4.572*%
%ADD14C,0.762*%
%ADD15Rect-W4059999-H1520000-RO1.000*%
%ADD16R,1.55X1.55*%
%ADD17C,1.55*%
%ADD18C,1.3*%
%ADD19Rect-W1300000-H1300000-RO0.500*%
%ADD20C,1.524*%
%ADD21R,4.059999X1.52*%
%ADD22C,1.95*%
%ADD23Rect-W1950000-H1950000-RO0.500*%
%ADD24C,0.2032*%
D10*
%LNpour fill*%
G01*
X98600Y48600D02*
X98600Y48600D01*
X44459Y48600*
X44500Y48500*
X44500Y48500*
X44508Y48469*
X44508Y48469*
X44510Y48437*
X44510Y48437*
X44510Y46659*
X44510Y46659*
X44508Y46628*
X44508Y46628*
X44500Y46597*
X44500Y46597*
X44488Y46567*
X44488Y46567*
X44471Y46540*
X44471Y46540*
X44451Y46516*
X44451Y46516*
X44426Y46495*
X44426Y46495*
X44399Y46478*
X44399Y46478*
X44370Y46466*
X44370Y46466*
X44339Y46458*
X44339Y46458*
X44307Y46456*
X44307Y46456*
X39300Y46456*
X39300Y46456*
X39268Y46458*
X39268Y46458*
X39237Y46466*
X39237Y46466*
X39208Y46478*
X39208Y46478*
X39180Y46495*
X39180Y46495*
X39156Y46516*
X39156Y46516*
X39135Y46540*
X39135Y46540*
X39119Y46567*
X39119Y46567*
X39107Y46597*
X39106Y46597*
X39099Y46628*
X39099Y46628*
X39097Y46659*
X39097Y46659*
X39097Y48437*
X39097Y48437*
X39099Y48469*
X39099Y48469*
X39106Y48500*
X39107Y48500*
X39148Y48600*
X23369Y48600*
X23333Y48535*
X23351Y48505*
X23351Y48505*
X23363Y48475*
X23363Y48475*
X23371Y48444*
X23371Y48444*
X23373Y48412*
X23373Y48412*
X23373Y46634*
X23373Y46634*
X23371Y46603*
X23371Y46603*
X23363Y46572*
X23363Y46572*
X23351Y46542*
X23351Y46542*
X23334Y46515*
X23334Y46515*
X23314Y46491*
X23314Y46491*
X23289Y46470*
X23289Y46470*
X23262Y46453*
X23262Y46453*
X23233Y46441*
X23233Y46441*
X23202Y46433*
X23202Y46433*
X23170Y46431*
X23170Y46431*
X8550Y46431*
X8550Y46431*
X8518Y46433*
X8518Y46433*
X8487Y46441*
X8487Y46441*
X8458Y46453*
X8458Y46453*
X8430Y46470*
X8430Y46470*
X8406Y46491*
X8406Y46491*
X8385Y46515*
X8385Y46515*
X8369Y46542*
X8369Y46542*
X8357Y46572*
X8356Y46572*
X8349Y46603*
X8349Y46603*
X8347Y46634*
X8347Y46634*
X8347Y48412*
X8347Y48412*
X8349Y48444*
X8349Y48444*
X8356Y48475*
X8357Y48475*
X8369Y48505*
X8369Y48505*
X8387Y48535*
X8351Y48600*
X0400Y48600*
X0400Y0400*
X98600Y0400*
X98600Y48600*
X51980Y45964D02*
X49589Y45964D01*
X49589Y48355*
X50054Y48303*
X50580Y48119*
X51053Y47822*
X51447Y47428*
X51744Y46955*
X51928Y46429*
X51980Y45964*
X5605Y45964D02*
X3214Y45964D01*
X3214Y48355*
X3679Y48303*
X4205Y48119*
X4678Y47822*
X5072Y47428*
X5369Y46955*
X5553Y46429*
X5605Y45964*
X98355Y45964D02*
X95964Y45964D01*
X95964Y48355*
X96429Y48303*
X96955Y48119*
X97428Y47822*
X97822Y47428*
X98119Y46955*
X98303Y46429*
X98355Y45964*
X3036Y45964D02*
X0645Y45964D01*
X0697Y46429*
X0881Y46955*
X1178Y47428*
X1572Y47822*
X2045Y48119*
X2571Y48303*
X3036Y48355*
X3036Y45964*
X49411Y45964D02*
X47020Y45964D01*
X47072Y46429*
X47256Y46955*
X47553Y47428*
X47947Y47822*
X48420Y48119*
X48946Y48303*
X49411Y48355*
X49411Y45964*
X95786Y45964D02*
X93395Y45964D01*
X93447Y46429*
X93631Y46955*
X93928Y47428*
X94322Y47822*
X94795Y48119*
X95321Y48303*
X95786Y48355*
X95786Y45964*
X95964Y43395D02*
X95964Y45786D01*
X98355Y45786*
X98303Y45321*
X98119Y44795*
X97822Y44322*
X97428Y43928*
X96955Y43631*
X96429Y43447*
X95964Y43395*
X95786Y43395D02*
X95321Y43447D01*
X94795Y43631*
X94322Y43928*
X93928Y44322*
X93631Y44795*
X93447Y45321*
X93395Y45786*
X95786Y45786*
X95786Y43395*
X49589Y43395D02*
X49589Y45786D01*
X51980Y45786*
X51928Y45321*
X51744Y44795*
X51447Y44322*
X51053Y43928*
X50580Y43631*
X50054Y43447*
X49589Y43395*
X49411Y43395D02*
X48946Y43447D01*
X48420Y43631*
X47947Y43928*
X47553Y44322*
X47256Y44795*
X47072Y45321*
X47020Y45786*
X49411Y45786*
X49411Y43395*
X3214Y43395D02*
X3214Y45786D01*
X5605Y45786*
X5553Y45321*
X5369Y44795*
X5072Y44322*
X4678Y43928*
X4205Y43631*
X3679Y43447*
X3214Y43395*
X3036Y43395D02*
X2571Y43447D01*
X2045Y43631*
X1572Y43928*
X1178Y44322*
X0881Y44795*
X0697Y45321*
X0645Y45786*
X3036Y45786*
X3036Y43395*
X78710Y40896D02*
X76760Y40896D01*
X76728Y40898*
X76697Y40906*
X76667Y40918*
X76640Y40935*
X76616Y40956*
X76595Y40980*
X76578Y41007*
X76566Y41037*
X76558Y41068*
X76556Y41100*
X76556Y43050*
X76558Y43082*
X76566Y43113*
X76578Y43143*
X76595Y43170*
X76616Y43194*
X76640Y43215*
X76667Y43232*
X76697Y43244*
X76728Y43252*
X76760Y43254*
X78710Y43254*
X78742Y43252*
X78773Y43244*
X78803Y43232*
X78830Y43215*
X78854Y43194*
X78875Y43170*
X78892Y43143*
X78904Y43113*
X78912Y43082*
X78914Y43050*
X78914Y41100*
X78912Y41068*
X78904Y41037*
X78892Y41007*
X78875Y40980*
X78854Y40956*
X78830Y40935*
X78803Y40918*
X78773Y40906*
X78742Y40898*
X78710Y40896*
X82957Y40904D02*
X82673Y40904D01*
X82397Y40972*
X82145Y41105*
X81932Y41293*
X81771Y41527*
X81670Y41793*
X81636Y42075*
X81670Y42357*
X81771Y42623*
X81932Y42857*
X82145Y43045*
X82397Y43178*
X82673Y43246*
X82957Y43246*
X83233Y43178*
X83485Y43045*
X83698Y42857*
X83859Y42623*
X83960Y42357*
X83994Y42075*
X83960Y41793*
X83859Y41527*
X83698Y41293*
X83485Y41105*
X83233Y40972*
X82957Y40904*
X81430Y42275D02*
X80475Y42275D01*
X80475Y43231*
X80693Y43178*
X80945Y43045*
X81158Y42857*
X81319Y42623*
X81420Y42357*
X81430Y42275*
X80075Y42275D02*
X79120Y42275D01*
X79130Y42357*
X79231Y42623*
X79392Y42857*
X79605Y43045*
X79857Y43178*
X80075Y43231*
X80075Y42275*
X7025Y40203D02*
X5542Y40203D01*
X5510Y40206*
X5479Y40213*
X5449Y40225*
X5422Y40242*
X5398Y40263*
X5377Y40287*
X5361Y40314*
X5348Y40344*
X5341Y40375*
X5338Y40406*
X5338Y42946*
X5341Y42978*
X5348Y43009*
X5361Y43039*
X5377Y43066*
X5398Y43090*
X5422Y43111*
X5449Y43127*
X5479Y43140*
X5510Y43147*
X5542Y43150*
X7025Y43150*
X7057Y43147*
X7088Y43140*
X7117Y43127*
X7144Y43111*
X7169Y43090*
X7189Y43066*
X7206Y43039*
X7218Y43009*
X7226Y42978*
X7228Y42946*
X7228Y40406*
X7226Y40375*
X7218Y40344*
X7206Y40314*
X7189Y40287*
X7169Y40263*
X7144Y40242*
X7117Y40225*
X7088Y40213*
X7057Y40206*
X7025Y40203*
X80475Y40919D02*
X80475Y41875D01*
X81430Y41875*
X81420Y41793*
X81319Y41527*
X81158Y41293*
X80945Y41105*
X80693Y40972*
X80475Y40919*
X80075Y40919D02*
X79857Y40972D01*
X79605Y41105*
X79392Y41293*
X79231Y41527*
X79130Y41793*
X79120Y41875*
X80075Y41875*
X80075Y40919*
X3950Y38411D02*
X2400Y38411D01*
X2368Y38413*
X2337Y38421*
X2307Y38433*
X2280Y38450*
X2256Y38471*
X2235Y38495*
X2218Y38522*
X2206Y38552*
X2198Y38583*
X2196Y38615*
X2196Y40165*
X2198Y40197*
X2206Y40228*
X2218Y40258*
X2235Y40285*
X2256Y40309*
X2280Y40330*
X2307Y40347*
X2337Y40359*
X2368Y40367*
X2400Y40369*
X3950Y40369*
X3982Y40367*
X4013Y40359*
X4043Y40347*
X4070Y40330*
X4094Y40309*
X4115Y40285*
X4132Y40258*
X4144Y40228*
X4152Y40197*
X4154Y40165*
X4154Y38615*
X4152Y38583*
X4144Y38552*
X4132Y38522*
X4115Y38495*
X4094Y38471*
X4070Y38450*
X4043Y38433*
X4013Y38421*
X3982Y38413*
X3950Y38411*
X3073Y36952D02*
X2208Y36952D01*
X2224Y37084*
X2308Y37305*
X2442Y37499*
X2619Y37656*
X2828Y37766*
X3057Y37822*
X3073Y37822*
X3073Y36952*
X4142Y36952D02*
X3277Y36952D01*
X3277Y37822*
X3293Y37822*
X3522Y37766*
X3731Y37656*
X3908Y37499*
X4042Y37305*
X4126Y37084*
X4142Y36952*
X3293Y35878D02*
X3277Y35878D01*
X3277Y36748*
X4142Y36748*
X4126Y36616*
X4042Y36395*
X3908Y36201*
X3731Y36044*
X3522Y35934*
X3293Y35878*
X3073Y35878D02*
X3057Y35878D01*
X2828Y35934*
X2619Y36044*
X2442Y36201*
X2308Y36395*
X2224Y36616*
X2208Y36748*
X3073Y36748*
X3073Y35878*
X57389Y33118D02*
X57157Y33118D01*
X56930Y33174*
X56724Y33282*
X56550Y33436*
X56417Y33628*
X56335Y33846*
X56307Y34077*
X56335Y34308*
X56417Y34526*
X56550Y34718*
X56724Y34872*
X56930Y34980*
X57157Y35036*
X57389Y35036*
X57616Y34980*
X57822Y34872*
X57996Y34718*
X58129Y34526*
X58211Y34308*
X58239Y34077*
X58211Y33846*
X58129Y33628*
X57996Y33436*
X57822Y33282*
X57616Y33174*
X57389Y33118*
X76693Y33118D02*
X76461Y33118D01*
X76234Y33174*
X76028Y33282*
X75854Y33436*
X75721Y33628*
X75639Y33846*
X75611Y34077*
X75639Y34308*
X75721Y34526*
X75854Y34718*
X76028Y34872*
X76234Y34980*
X76461Y35036*
X76693Y35036*
X76920Y34980*
X77126Y34872*
X77300Y34718*
X77433Y34526*
X77515Y34308*
X77543Y34077*
X77515Y33846*
X77433Y33628*
X77300Y33436*
X77126Y33282*
X76920Y33174*
X76693Y33118*
X24614Y33093D02*
X24382Y33093D01*
X24155Y33149*
X23949Y33257*
X23775Y33411*
X23642Y33603*
X23560Y33821*
X23532Y34052*
X23560Y34283*
X23642Y34501*
X23775Y34693*
X23949Y34847*
X24155Y34955*
X24382Y35011*
X24614Y35011*
X24841Y34955*
X25047Y34847*
X25221Y34693*
X25354Y34501*
X25436Y34283*
X25464Y34052*
X25436Y33821*
X25354Y33603*
X25221Y33411*
X25047Y33257*
X24841Y33149*
X24614Y33093*
X43918Y33093D02*
X43686Y33093D01*
X43459Y33149*
X43253Y33257*
X43079Y33411*
X42946Y33603*
X42864Y33821*
X42836Y34052*
X42864Y34283*
X42946Y34501*
X43079Y34693*
X43253Y34847*
X43459Y34955*
X43686Y35011*
X43918Y35011*
X44145Y34955*
X44351Y34847*
X44525Y34693*
X44658Y34501*
X44740Y34283*
X44768Y34052*
X44740Y33821*
X44658Y33603*
X44525Y33411*
X44351Y33257*
X44145Y33149*
X43918Y33093*
X60691Y23466D02*
X60459Y23466D01*
X60232Y23522*
X60026Y23630*
X59852Y23784*
X59719Y23976*
X59637Y24194*
X59609Y24425*
X59637Y24656*
X59719Y24874*
X59852Y25066*
X60026Y25220*
X60232Y25328*
X60459Y25384*
X60691Y25384*
X60918Y25328*
X61124Y25220*
X61298Y25066*
X61431Y24874*
X61513Y24656*
X61541Y24425*
X61513Y24194*
X61431Y23976*
X61298Y23784*
X61124Y23630*
X60918Y23522*
X60691Y23466*
X73391Y23466D02*
X73159Y23466D01*
X72932Y23522*
X72726Y23630*
X72552Y23784*
X72419Y23976*
X72337Y24194*
X72309Y24425*
X72337Y24656*
X72419Y24874*
X72552Y25066*
X72726Y25220*
X72932Y25328*
X73159Y25384*
X73391Y25384*
X73618Y25328*
X73824Y25220*
X73998Y25066*
X74131Y24874*
X74213Y24656*
X74241Y24425*
X74213Y24194*
X74131Y23976*
X73998Y23784*
X73824Y23630*
X73618Y23522*
X73391Y23466*
X27916Y23441D02*
X27684Y23441D01*
X27457Y23497*
X27251Y23605*
X27077Y23759*
X26944Y23951*
X26862Y24169*
X26834Y24400*
X26862Y24631*
X26944Y24849*
X27077Y25041*
X27251Y25195*
X27457Y25303*
X27684Y25359*
X27916Y25359*
X28143Y25303*
X28349Y25195*
X28523Y25041*
X28656Y24849*
X28738Y24631*
X28766Y24400*
X28738Y24169*
X28656Y23951*
X28523Y23759*
X28349Y23605*
X28143Y23497*
X27916Y23441*
X40616Y23441D02*
X40384Y23441D01*
X40157Y23497*
X39951Y23605*
X39777Y23759*
X39644Y23951*
X39562Y24169*
X39534Y24400*
X39562Y24631*
X39644Y24849*
X39777Y25041*
X39951Y25195*
X40157Y25303*
X40384Y25359*
X40616Y25359*
X40843Y25303*
X41049Y25195*
X41223Y25041*
X41356Y24849*
X41438Y24631*
X41466Y24400*
X41438Y24169*
X41356Y23951*
X41223Y23759*
X41049Y23605*
X40843Y23497*
X40616Y23441*
X82738Y14082D02*
X82612Y14082D01*
X82490Y14112*
X82379Y14171*
X82285Y14254*
X82213Y14358*
X82168Y14475*
X82153Y14600*
X82168Y14725*
X82213Y14842*
X82285Y14946*
X82379Y15029*
X82490Y15088*
X82612Y15118*
X82738Y15118*
X82860Y15088*
X82971Y15029*
X83082Y14931*
X85088Y14931*
X86584Y16427*
X86578Y16475*
X86593Y16600*
X86638Y16717*
X86710Y16821*
X86804Y16904*
X86915Y16963*
X87037Y16993*
X87163Y16993*
X87285Y16963*
X87396Y16904*
X87490Y16821*
X87562Y16717*
X87607Y16600*
X87622Y16475*
X87607Y16350*
X87562Y16233*
X87490Y16129*
X87396Y16046*
X87285Y15987*
X87163Y15957*
X87050Y15957*
X85459Y14366*
X85409Y14325*
X85352Y14294*
X85290Y14275*
X85225Y14269*
X83082Y14269*
X82971Y14171*
X82860Y14112*
X82738Y14082*
X57389Y13814D02*
X57157Y13814D01*
X56930Y13870*
X56724Y13978*
X56550Y14132*
X56417Y14324*
X56335Y14542*
X56307Y14773*
X56335Y15004*
X56417Y15222*
X56550Y15414*
X56724Y15568*
X56930Y15676*
X57157Y15732*
X57389Y15732*
X57616Y15676*
X57822Y15568*
X57996Y15414*
X58129Y15222*
X58211Y15004*
X58239Y14773*
X58211Y14542*
X58129Y14324*
X57996Y14132*
X57822Y13978*
X57616Y13870*
X57389Y13814*
X76693Y13814D02*
X76461Y13814D01*
X76234Y13870*
X76028Y13978*
X75854Y14132*
X75721Y14324*
X75639Y14542*
X75611Y14773*
X75639Y15004*
X75721Y15222*
X75854Y15414*
X76028Y15568*
X76234Y15676*
X76461Y15732*
X76693Y15732*
X76920Y15676*
X77126Y15568*
X77300Y15414*
X77433Y15222*
X77515Y15004*
X77543Y14773*
X77515Y14542*
X77433Y14324*
X77300Y14132*
X77126Y13978*
X76920Y13870*
X76693Y13814*
X24614Y13789D02*
X24382Y13789D01*
X24155Y13845*
X23949Y13953*
X23775Y14107*
X23642Y14299*
X23560Y14517*
X23532Y14748*
X23560Y14979*
X23642Y15197*
X23775Y15389*
X23949Y15543*
X24155Y15651*
X24382Y15707*
X24614Y15707*
X24841Y15651*
X25047Y15543*
X25221Y15389*
X25354Y15197*
X25436Y14979*
X25464Y14748*
X25436Y14517*
X25354Y14299*
X25221Y14107*
X25047Y13953*
X24841Y13845*
X24614Y13789*
X43918Y13789D02*
X43686Y13789D01*
X43459Y13845*
X43253Y13953*
X43079Y14107*
X42946Y14299*
X42864Y14517*
X42836Y14748*
X42864Y14979*
X42946Y15197*
X43079Y15389*
X43253Y15543*
X43459Y15651*
X43686Y15707*
X43918Y15707*
X44145Y15651*
X44351Y15543*
X44525Y15389*
X44658Y15197*
X44740Y14979*
X44768Y14748*
X44740Y14517*
X44658Y14299*
X44525Y14107*
X44351Y13953*
X44145Y13845*
X43918Y13789*
X91700Y12241D02*
X90400Y12241D01*
X90368Y12243*
X90337Y12251*
X90307Y12263*
X90280Y12280*
X90256Y12301*
X90235Y12325*
X90218Y12352*
X90206Y12382*
X90198Y12413*
X90196Y12445*
X90196Y13745*
X90198Y13777*
X90206Y13808*
X90218Y13838*
X90235Y13865*
X90256Y13889*
X90280Y13910*
X90307Y13927*
X90337Y13939*
X90368Y13947*
X90400Y13949*
X91700Y13949*
X91732Y13947*
X91763Y13939*
X91793Y13927*
X91820Y13910*
X91844Y13889*
X91865Y13865*
X91882Y13838*
X91894Y13808*
X91902Y13777*
X91904Y13745*
X91904Y12445*
X91902Y12413*
X91894Y12382*
X91882Y12352*
X91865Y12325*
X91844Y12301*
X91820Y12280*
X91793Y12263*
X91763Y12251*
X91732Y12243*
X91700Y12241*
X91153Y9707D02*
X90947Y9707D01*
X90747Y9756*
X90565Y9852*
X90411Y9989*
X90294Y10158*
X90221Y10351*
X90196Y10555*
X90221Y10759*
X90294Y10952*
X90411Y11121*
X90565Y11258*
X90747Y11354*
X90947Y11403*
X91153Y11403*
X91353Y11354*
X91535Y11258*
X91689Y11121*
X91806Y10952*
X91879Y10759*
X91904Y10555*
X91879Y10351*
X91806Y10158*
X91689Y9989*
X91535Y9852*
X91353Y9756*
X91153Y9707*
X51980Y3214D02*
X49589Y3214D01*
X49589Y5605*
X50054Y5553*
X50580Y5369*
X51053Y5072*
X51447Y4678*
X51744Y4205*
X51928Y3679*
X51980Y3214*
X5605Y3214D02*
X3214Y3214D01*
X3214Y5605*
X3679Y5553*
X4205Y5369*
X4678Y5072*
X5072Y4678*
X5369Y4205*
X5553Y3679*
X5605Y3214*
X98355Y3214D02*
X95964Y3214D01*
X95964Y5605*
X96429Y5553*
X96955Y5369*
X97428Y5072*
X97822Y4678*
X98119Y4205*
X98303Y3679*
X98355Y3214*
X3036Y3214D02*
X0645Y3214D01*
X0697Y3679*
X0881Y4205*
X1178Y4678*
X1572Y5072*
X2045Y5369*
X2571Y5553*
X3036Y5605*
X3036Y3214*
X49411Y3214D02*
X47020Y3214D01*
X47072Y3679*
X47256Y4205*
X47553Y4678*
X47947Y5072*
X48420Y5369*
X48946Y5553*
X49411Y5605*
X49411Y3214*
X95786Y3214D02*
X93395Y3214D01*
X93447Y3679*
X93631Y4205*
X93928Y4678*
X94322Y5072*
X94795Y5369*
X95321Y5553*
X95786Y5605*
X95786Y3214*
X95964Y0645D02*
X95964Y3036D01*
X98355Y3036*
X98303Y2571*
X98119Y2045*
X97822Y1572*
X97428Y1178*
X96955Y0881*
X96429Y0697*
X95964Y0645*
X95786Y0645D02*
X95321Y0697D01*
X94795Y0881*
X94322Y1178*
X93928Y1572*
X93631Y2045*
X93447Y2571*
X93395Y3036*
X95786Y3036*
X95786Y0645*
X49589Y0645D02*
X49589Y3036D01*
X51980Y3036*
X51928Y2571*
X51744Y2045*
X51447Y1572*
X51053Y1178*
X50580Y0881*
X50054Y0697*
X49589Y0645*
X49411Y0645D02*
X48946Y0697D01*
X48420Y0881*
X47947Y1178*
X47553Y1572*
X47256Y2045*
X47072Y2571*
X47020Y3036*
X49411Y3036*
X49411Y0645*
X3214Y0645D02*
X3214Y3036D01*
X5605Y3036*
X5553Y2571*
X5369Y2045*
X5072Y1572*
X4678Y1178*
X4205Y0881*
X3679Y0697*
X3214Y0645*
X3036Y0645D02*
X2571Y0697D01*
X2045Y0881*
X1572Y1178*
X1178Y1572*
X0881Y2045*
X0697Y2571*
X0645Y3036*
X3036Y3036*
X3036Y0645*
X0400Y0450D02*
X98600Y0450D01*
X0400Y0499D02*
X98600Y0499D01*
X0400Y0549D02*
X98600Y0549D01*
X0400Y0598D02*
X98600Y0598D01*
X0400Y0648D02*
X3009Y0648D01*
X3036Y0648D02*
X3214Y0648D01*
X3241Y0648D02*
X49384Y0648D01*
X49411Y0648D02*
X49589Y0648D01*
X49616Y0648D02*
X95759Y0648D01*
X95786Y0648D02*
X95964Y0648D01*
X95991Y0648D02*
X98600Y0648D01*
X0400Y0697D02*
X2570Y0697D01*
X3036Y0697D02*
X3214Y0697D01*
X3680Y0697D02*
X48945Y0697D01*
X49411Y0697D02*
X49589Y0697D01*
X50055Y0697D02*
X95320Y0697D01*
X95786Y0697D02*
X95964Y0697D01*
X96430Y0697D02*
X98600Y0697D01*
X0400Y0747D02*
X2429Y0747D01*
X3036Y0747D02*
X3214Y0747D01*
X3821Y0747D02*
X48804Y0747D01*
X49411Y0747D02*
X49589Y0747D01*
X50196Y0747D02*
X95179Y0747D01*
X95786Y0747D02*
X95964Y0747D01*
X96571Y0747D02*
X98600Y0747D01*
X0400Y0796D02*
X2287Y0796D01*
X3036Y0796D02*
X3214Y0796D01*
X3963Y0796D02*
X48662Y0796D01*
X49411Y0796D02*
X49589Y0796D01*
X50338Y0796D02*
X95037Y0796D01*
X95786Y0796D02*
X95964Y0796D01*
X96713Y0796D02*
X98600Y0796D01*
X0400Y0846D02*
X2146Y0846D01*
X3036Y0846D02*
X3214Y0846D01*
X4104Y0846D02*
X48521Y0846D01*
X49411Y0846D02*
X49589Y0846D01*
X50479Y0846D02*
X94896Y0846D01*
X95786Y0846D02*
X95964Y0846D01*
X96854Y0846D02*
X98600Y0846D01*
X0400Y0895D02*
X2022Y0895D01*
X3036Y0895D02*
X3214Y0895D01*
X4228Y0895D02*
X48397Y0895D01*
X49411Y0895D02*
X49589Y0895D01*
X50603Y0895D02*
X94772Y0895D01*
X95786Y0895D02*
X95964Y0895D01*
X96978Y0895D02*
X98600Y0895D01*
X0400Y0945D02*
X1943Y0945D01*
X3036Y0945D02*
X3214Y0945D01*
X4307Y0945D02*
X48318Y0945D01*
X49411Y0945D02*
X49589Y0945D01*
X50682Y0945D02*
X94693Y0945D01*
X95786Y0945D02*
X95964Y0945D01*
X97057Y0945D02*
X98600Y0945D01*
X0400Y0994D02*
X1864Y0994D01*
X3036Y0994D02*
X3214Y0994D01*
X4386Y0994D02*
X48239Y0994D01*
X49411Y0994D02*
X49589Y0994D01*
X50761Y0994D02*
X94614Y0994D01*
X95786Y0994D02*
X95964Y0994D01*
X97136Y0994D02*
X98600Y0994D01*
X0400Y1044D02*
X1785Y1044D01*
X3036Y1044D02*
X3214Y1044D01*
X4465Y1044D02*
X48160Y1044D01*
X49411Y1044D02*
X49589Y1044D01*
X50840Y1044D02*
X94535Y1044D01*
X95786Y1044D02*
X95964Y1044D01*
X97215Y1044D02*
X98600Y1044D01*
X0400Y1093D02*
X1707Y1093D01*
X3036Y1093D02*
X3214Y1093D01*
X4543Y1093D02*
X48082Y1093D01*
X49411Y1093D02*
X49589Y1093D01*
X50918Y1093D02*
X94457Y1093D01*
X95786Y1093D02*
X95964Y1093D01*
X97293Y1093D02*
X98600Y1093D01*
X0400Y1143D02*
X1628Y1143D01*
X3036Y1143D02*
X3214Y1143D01*
X4622Y1143D02*
X48003Y1143D01*
X49411Y1143D02*
X49589Y1143D01*
X50997Y1143D02*
X94378Y1143D01*
X95786Y1143D02*
X95964Y1143D01*
X97372Y1143D02*
X98600Y1143D01*
X0400Y1192D02*
X1558Y1192D01*
X3036Y1192D02*
X3214Y1192D01*
X4692Y1192D02*
X47933Y1192D01*
X49411Y1192D02*
X49589Y1192D01*
X51067Y1192D02*
X94308Y1192D01*
X95786Y1192D02*
X95964Y1192D01*
X97442Y1192D02*
X98600Y1192D01*
X0400Y1242D02*
X1508Y1242D01*
X3036Y1242D02*
X3214Y1242D01*
X4742Y1242D02*
X47883Y1242D01*
X49411Y1242D02*
X49589Y1242D01*
X51117Y1242D02*
X94258Y1242D01*
X95786Y1242D02*
X95964Y1242D01*
X97492Y1242D02*
X98600Y1242D01*
X0400Y1292D02*
X1459Y1292D01*
X3036Y1292D02*
X3214Y1292D01*
X4791Y1292D02*
X47834Y1292D01*
X49411Y1292D02*
X49589Y1292D01*
X51166Y1292D02*
X94209Y1292D01*
X95786Y1292D02*
X95964Y1292D01*
X97541Y1292D02*
X98600Y1292D01*
X0400Y1341D02*
X1409Y1341D01*
X3036Y1341D02*
X3214Y1341D01*
X4841Y1341D02*
X47784Y1341D01*
X49411Y1341D02*
X49589Y1341D01*
X51216Y1341D02*
X94159Y1341D01*
X95786Y1341D02*
X95964Y1341D01*
X97591Y1341D02*
X98600Y1341D01*
X0400Y1391D02*
X1360Y1391D01*
X3036Y1391D02*
X3214Y1391D01*
X4890Y1391D02*
X47735Y1391D01*
X49411Y1391D02*
X49589Y1391D01*
X51265Y1391D02*
X94110Y1391D01*
X95786Y1391D02*
X95964Y1391D01*
X97640Y1391D02*
X98600Y1391D01*
X0400Y1440D02*
X1310Y1440D01*
X3036Y1440D02*
X3214Y1440D01*
X4940Y1440D02*
X47685Y1440D01*
X49411Y1440D02*
X49589Y1440D01*
X51315Y1440D02*
X94060Y1440D01*
X95786Y1440D02*
X95964Y1440D01*
X97690Y1440D02*
X98600Y1440D01*
X0400Y1490D02*
X1260Y1490D01*
X3036Y1490D02*
X3214Y1490D01*
X4990Y1490D02*
X47635Y1490D01*
X49411Y1490D02*
X49589Y1490D01*
X51365Y1490D02*
X94010Y1490D01*
X95786Y1490D02*
X95964Y1490D01*
X97740Y1490D02*
X98600Y1490D01*
X0400Y1539D02*
X1211Y1539D01*
X3036Y1539D02*
X3214Y1539D01*
X5039Y1539D02*
X47586Y1539D01*
X49411Y1539D02*
X49589Y1539D01*
X51414Y1539D02*
X93961Y1539D01*
X95786Y1539D02*
X95964Y1539D01*
X97789Y1539D02*
X98600Y1539D01*
X0400Y1589D02*
X1168Y1589D01*
X3036Y1589D02*
X3214Y1589D01*
X5082Y1589D02*
X47543Y1589D01*
X49411Y1589D02*
X49589Y1589D01*
X51457Y1589D02*
X93918Y1589D01*
X95786Y1589D02*
X95964Y1589D01*
X97832Y1589D02*
X98600Y1589D01*
X0400Y1638D02*
X1136Y1638D01*
X3036Y1638D02*
X3214Y1638D01*
X5114Y1638D02*
X47511Y1638D01*
X49411Y1638D02*
X49589Y1638D01*
X51489Y1638D02*
X93886Y1638D01*
X95786Y1638D02*
X95964Y1638D01*
X97864Y1638D02*
X98600Y1638D01*
X0400Y1688D02*
X1105Y1688D01*
X3036Y1688D02*
X3214Y1688D01*
X5145Y1688D02*
X47480Y1688D01*
X49411Y1688D02*
X49589Y1688D01*
X51520Y1688D02*
X93855Y1688D01*
X95786Y1688D02*
X95964Y1688D01*
X97895Y1688D02*
X98600Y1688D01*
X0400Y1737D02*
X1074Y1737D01*
X3036Y1737D02*
X3214Y1737D01*
X5176Y1737D02*
X47449Y1737D01*
X49411Y1737D02*
X49589Y1737D01*
X51551Y1737D02*
X93824Y1737D01*
X95786Y1737D02*
X95964Y1737D01*
X97926Y1737D02*
X98600Y1737D01*
X0400Y1787D02*
X1043Y1787D01*
X3036Y1787D02*
X3214Y1787D01*
X5207Y1787D02*
X47418Y1787D01*
X49411Y1787D02*
X49589Y1787D01*
X51582Y1787D02*
X93793Y1787D01*
X95786Y1787D02*
X95964Y1787D01*
X97957Y1787D02*
X98600Y1787D01*
X0400Y1836D02*
X1012Y1836D01*
X3036Y1836D02*
X3214Y1836D01*
X5238Y1836D02*
X47387Y1836D01*
X49411Y1836D02*
X49589Y1836D01*
X51613Y1836D02*
X93762Y1836D01*
X95786Y1836D02*
X95964Y1836D01*
X97988Y1836D02*
X98600Y1836D01*
X0400Y1886D02*
X0981Y1886D01*
X3036Y1886D02*
X3214Y1886D01*
X5269Y1886D02*
X47356Y1886D01*
X49411Y1886D02*
X49589Y1886D01*
X51644Y1886D02*
X93731Y1886D01*
X95786Y1886D02*
X95964Y1886D01*
X98019Y1886D02*
X98600Y1886D01*
X0400Y1935D02*
X0950Y1935D01*
X3036Y1935D02*
X3214Y1935D01*
X5300Y1935D02*
X47325Y1935D01*
X49411Y1935D02*
X49589Y1935D01*
X51675Y1935D02*
X93700Y1935D01*
X95786Y1935D02*
X95964Y1935D01*
X98050Y1935D02*
X98600Y1935D01*
X0400Y1985D02*
X0919Y1985D01*
X3036Y1985D02*
X3214Y1985D01*
X5331Y1985D02*
X47294Y1985D01*
X49411Y1985D02*
X49589Y1985D01*
X51706Y1985D02*
X93669Y1985D01*
X95786Y1985D02*
X95964Y1985D01*
X98081Y1985D02*
X98600Y1985D01*
X0400Y2034D02*
X0887Y2034D01*
X3036Y2034D02*
X3214Y2034D01*
X5363Y2034D02*
X47262Y2034D01*
X49411Y2034D02*
X49589Y2034D01*
X51738Y2034D02*
X93637Y2034D01*
X95786Y2034D02*
X95964Y2034D01*
X98113Y2034D02*
X98600Y2034D01*
X0400Y2084D02*
X0867Y2084D01*
X3036Y2084D02*
X3214Y2084D01*
X5383Y2084D02*
X47242Y2084D01*
X49411Y2084D02*
X49589Y2084D01*
X51758Y2084D02*
X93617Y2084D01*
X95786Y2084D02*
X95964Y2084D01*
X98133Y2084D02*
X98600Y2084D01*
X0400Y2134D02*
X0850Y2134D01*
X3036Y2134D02*
X3214Y2134D01*
X5400Y2134D02*
X47225Y2134D01*
X49411Y2134D02*
X49589Y2134D01*
X51775Y2134D02*
X93600Y2134D01*
X95786Y2134D02*
X95964Y2134D01*
X98150Y2134D02*
X98600Y2134D01*
X0400Y2183D02*
X0833Y2183D01*
X3036Y2183D02*
X3214Y2183D01*
X5417Y2183D02*
X47208Y2183D01*
X49411Y2183D02*
X49589Y2183D01*
X51792Y2183D02*
X93583Y2183D01*
X95786Y2183D02*
X95964Y2183D01*
X98167Y2183D02*
X98600Y2183D01*
X0400Y2233D02*
X0815Y2233D01*
X3036Y2233D02*
X3214Y2233D01*
X5435Y2233D02*
X47190Y2233D01*
X49411Y2233D02*
X49589Y2233D01*
X51810Y2233D02*
X93565Y2233D01*
X95786Y2233D02*
X95964Y2233D01*
X98185Y2233D02*
X98600Y2233D01*
X0400Y2282D02*
X0798Y2282D01*
X3036Y2282D02*
X3214Y2282D01*
X5452Y2282D02*
X47173Y2282D01*
X49411Y2282D02*
X49589Y2282D01*
X51827Y2282D02*
X93548Y2282D01*
X95786Y2282D02*
X95964Y2282D01*
X98202Y2282D02*
X98600Y2282D01*
X0400Y2332D02*
X0781Y2332D01*
X3036Y2332D02*
X3214Y2332D01*
X5469Y2332D02*
X47156Y2332D01*
X49411Y2332D02*
X49589Y2332D01*
X51844Y2332D02*
X93531Y2332D01*
X95786Y2332D02*
X95964Y2332D01*
X98219Y2332D02*
X98600Y2332D01*
X0400Y2381D02*
X0763Y2381D01*
X3036Y2381D02*
X3214Y2381D01*
X5487Y2381D02*
X47138Y2381D01*
X49411Y2381D02*
X49589Y2381D01*
X51862Y2381D02*
X93513Y2381D01*
X95786Y2381D02*
X95964Y2381D01*
X98237Y2381D02*
X98600Y2381D01*
X0400Y2431D02*
X0746Y2431D01*
X3036Y2431D02*
X3214Y2431D01*
X5504Y2431D02*
X47121Y2431D01*
X49411Y2431D02*
X49589Y2431D01*
X51879Y2431D02*
X93496Y2431D01*
X95786Y2431D02*
X95964Y2431D01*
X98254Y2431D02*
X98600Y2431D01*
X0400Y2480D02*
X0729Y2480D01*
X3036Y2480D02*
X3214Y2480D01*
X5521Y2480D02*
X47104Y2480D01*
X49411Y2480D02*
X49589Y2480D01*
X51896Y2480D02*
X93479Y2480D01*
X95786Y2480D02*
X95964Y2480D01*
X98271Y2480D02*
X98600Y2480D01*
X0400Y2530D02*
X0711Y2530D01*
X3036Y2530D02*
X3214Y2530D01*
X5539Y2530D02*
X47086Y2530D01*
X49411Y2530D02*
X49589Y2530D01*
X51914Y2530D02*
X93461Y2530D01*
X95786Y2530D02*
X95964Y2530D01*
X98289Y2530D02*
X98600Y2530D01*
X0400Y2579D02*
X0696Y2579D01*
X3036Y2579D02*
X3214Y2579D01*
X5554Y2579D02*
X47071Y2579D01*
X49411Y2579D02*
X49589Y2579D01*
X51929Y2579D02*
X93446Y2579D01*
X95786Y2579D02*
X95964Y2579D01*
X98304Y2579D02*
X98600Y2579D01*
X0400Y2629D02*
X0690Y2629D01*
X3036Y2629D02*
X3214Y2629D01*
X5560Y2629D02*
X47065Y2629D01*
X49411Y2629D02*
X49589Y2629D01*
X51935Y2629D02*
X93440Y2629D01*
X95786Y2629D02*
X95964Y2629D01*
X98310Y2629D02*
X98600Y2629D01*
X0400Y2678D02*
X0685Y2678D01*
X3036Y2678D02*
X3214Y2678D01*
X5565Y2678D02*
X47060Y2678D01*
X49411Y2678D02*
X49589Y2678D01*
X51940Y2678D02*
X93435Y2678D01*
X95786Y2678D02*
X95964Y2678D01*
X98315Y2678D02*
X98600Y2678D01*
X0400Y2728D02*
X0679Y2728D01*
X3036Y2728D02*
X3214Y2728D01*
X5571Y2728D02*
X47054Y2728D01*
X49411Y2728D02*
X49589Y2728D01*
X51946Y2728D02*
X93429Y2728D01*
X95786Y2728D02*
X95964Y2728D01*
X98321Y2728D02*
X98600Y2728D01*
X0400Y2777D02*
X0674Y2777D01*
X3036Y2777D02*
X3214Y2777D01*
X5576Y2777D02*
X47049Y2777D01*
X49411Y2777D02*
X49589Y2777D01*
X51951Y2777D02*
X93424Y2777D01*
X95786Y2777D02*
X95964Y2777D01*
X98326Y2777D02*
X98600Y2777D01*
X0400Y2827D02*
X0668Y2827D01*
X3036Y2827D02*
X3214Y2827D01*
X5582Y2827D02*
X47043Y2827D01*
X49411Y2827D02*
X49589Y2827D01*
X51957Y2827D02*
X93418Y2827D01*
X95786Y2827D02*
X95964Y2827D01*
X98332Y2827D02*
X98600Y2827D01*
X0400Y2877D02*
X0663Y2877D01*
X3036Y2877D02*
X3214Y2877D01*
X5587Y2877D02*
X47038Y2877D01*
X49411Y2877D02*
X49589Y2877D01*
X51962Y2877D02*
X93413Y2877D01*
X95786Y2877D02*
X95964Y2877D01*
X98337Y2877D02*
X98600Y2877D01*
X0400Y2926D02*
X0657Y2926D01*
X3036Y2926D02*
X3214Y2926D01*
X5593Y2926D02*
X47032Y2926D01*
X49411Y2926D02*
X49589Y2926D01*
X51968Y2926D02*
X93407Y2926D01*
X95786Y2926D02*
X95964Y2926D01*
X98343Y2926D02*
X98600Y2926D01*
X0400Y2976D02*
X0651Y2976D01*
X3036Y2976D02*
X3214Y2976D01*
X5599Y2976D02*
X47026Y2976D01*
X49411Y2976D02*
X49589Y2976D01*
X51974Y2976D02*
X93401Y2976D01*
X95786Y2976D02*
X95964Y2976D01*
X98349Y2976D02*
X98600Y2976D01*
X0400Y3025D02*
X0646Y3025D01*
X3036Y3025D02*
X3214Y3025D01*
X5604Y3025D02*
X47021Y3025D01*
X49411Y3025D02*
X49589Y3025D01*
X51979Y3025D02*
X93396Y3025D01*
X95786Y3025D02*
X95964Y3025D01*
X98354Y3025D02*
X98600Y3025D01*
X0400Y3075D02*
X98600Y3075D01*
X0400Y3124D02*
X98600Y3124D01*
X0400Y3174D02*
X98600Y3174D01*
X0400Y3223D02*
X0646Y3223D01*
X3036Y3223D02*
X3214Y3223D01*
X5604Y3223D02*
X47021Y3223D01*
X49411Y3223D02*
X49589Y3223D01*
X51979Y3223D02*
X93396Y3223D01*
X95786Y3223D02*
X95964Y3223D01*
X98354Y3223D02*
X98600Y3223D01*
X0400Y3273D02*
X0651Y3273D01*
X3036Y3273D02*
X3214Y3273D01*
X5599Y3273D02*
X47026Y3273D01*
X49411Y3273D02*
X49589Y3273D01*
X51974Y3273D02*
X93401Y3273D01*
X95786Y3273D02*
X95964Y3273D01*
X98349Y3273D02*
X98600Y3273D01*
X0400Y3322D02*
X0657Y3322D01*
X3036Y3322D02*
X3214Y3322D01*
X5593Y3322D02*
X47032Y3322D01*
X49411Y3322D02*
X49589Y3322D01*
X51968Y3322D02*
X93407Y3322D01*
X95786Y3322D02*
X95964Y3322D01*
X98343Y3322D02*
X98600Y3322D01*
X0400Y3372D02*
X0662Y3372D01*
X3036Y3372D02*
X3214Y3372D01*
X5588Y3372D02*
X47037Y3372D01*
X49411Y3372D02*
X49589Y3372D01*
X51963Y3372D02*
X93412Y3372D01*
X95786Y3372D02*
X95964Y3372D01*
X98338Y3372D02*
X98600Y3372D01*
X0400Y3421D02*
X0668Y3421D01*
X3036Y3421D02*
X3214Y3421D01*
X5582Y3421D02*
X47043Y3421D01*
X49411Y3421D02*
X49589Y3421D01*
X51957Y3421D02*
X93418Y3421D01*
X95786Y3421D02*
X95964Y3421D01*
X98332Y3421D02*
X98600Y3421D01*
X0400Y3471D02*
X0674Y3471D01*
X3036Y3471D02*
X3214Y3471D01*
X5576Y3471D02*
X47049Y3471D01*
X49411Y3471D02*
X49589Y3471D01*
X51951Y3471D02*
X93424Y3471D01*
X95786Y3471D02*
X95964Y3471D01*
X98326Y3471D02*
X98600Y3471D01*
X0400Y3520D02*
X0679Y3520D01*
X3036Y3520D02*
X3214Y3520D01*
X5571Y3520D02*
X47054Y3520D01*
X49411Y3520D02*
X49589Y3520D01*
X51946Y3520D02*
X93429Y3520D01*
X95786Y3520D02*
X95964Y3520D01*
X98321Y3520D02*
X98600Y3520D01*
X0400Y3570D02*
X0685Y3570D01*
X3036Y3570D02*
X3214Y3570D01*
X5565Y3570D02*
X47060Y3570D01*
X49411Y3570D02*
X49589Y3570D01*
X51940Y3570D02*
X93435Y3570D01*
X95786Y3570D02*
X95964Y3570D01*
X98315Y3570D02*
X98600Y3570D01*
X0400Y3619D02*
X0690Y3619D01*
X3036Y3619D02*
X3214Y3619D01*
X5560Y3619D02*
X47065Y3619D01*
X49411Y3619D02*
X49589Y3619D01*
X51935Y3619D02*
X93440Y3619D01*
X95786Y3619D02*
X95964Y3619D01*
X98310Y3619D02*
X98600Y3619D01*
X0400Y3669D02*
X0696Y3669D01*
X3036Y3669D02*
X3214Y3669D01*
X5554Y3669D02*
X47071Y3669D01*
X49411Y3669D02*
X49589Y3669D01*
X51929Y3669D02*
X93446Y3669D01*
X95786Y3669D02*
X95964Y3669D01*
X98304Y3669D02*
X98600Y3669D01*
X0400Y3719D02*
X0711Y3719D01*
X3036Y3719D02*
X3214Y3719D01*
X5539Y3719D02*
X47086Y3719D01*
X49411Y3719D02*
X49589Y3719D01*
X51914Y3719D02*
X93461Y3719D01*
X95786Y3719D02*
X95964Y3719D01*
X98289Y3719D02*
X98600Y3719D01*
X0400Y3768D02*
X0728Y3768D01*
X3036Y3768D02*
X3214Y3768D01*
X5522Y3768D02*
X47103Y3768D01*
X49411Y3768D02*
X49589Y3768D01*
X51897Y3768D02*
X93478Y3768D01*
X95786Y3768D02*
X95964Y3768D01*
X98272Y3768D02*
X98600Y3768D01*
X0400Y3818D02*
X0745Y3818D01*
X3036Y3818D02*
X3214Y3818D01*
X5505Y3818D02*
X47120Y3818D01*
X49411Y3818D02*
X49589Y3818D01*
X51880Y3818D02*
X93495Y3818D01*
X95786Y3818D02*
X95964Y3818D01*
X98255Y3818D02*
X98600Y3818D01*
X0400Y3867D02*
X0763Y3867D01*
X3036Y3867D02*
X3214Y3867D01*
X5487Y3867D02*
X47138Y3867D01*
X49411Y3867D02*
X49589Y3867D01*
X51862Y3867D02*
X93513Y3867D01*
X95786Y3867D02*
X95964Y3867D01*
X98237Y3867D02*
X98600Y3867D01*
X0400Y3917D02*
X0780Y3917D01*
X3036Y3917D02*
X3214Y3917D01*
X5470Y3917D02*
X47155Y3917D01*
X49411Y3917D02*
X49589Y3917D01*
X51845Y3917D02*
X93530Y3917D01*
X95786Y3917D02*
X95964Y3917D01*
X98220Y3917D02*
X98600Y3917D01*
X0400Y3966D02*
X0797Y3966D01*
X3036Y3966D02*
X3214Y3966D01*
X5453Y3966D02*
X47172Y3966D01*
X49411Y3966D02*
X49589Y3966D01*
X51828Y3966D02*
X93547Y3966D01*
X95786Y3966D02*
X95964Y3966D01*
X98203Y3966D02*
X98600Y3966D01*
X0400Y4016D02*
X0815Y4016D01*
X3036Y4016D02*
X3214Y4016D01*
X5435Y4016D02*
X47190Y4016D01*
X49411Y4016D02*
X49589Y4016D01*
X51810Y4016D02*
X93565Y4016D01*
X95786Y4016D02*
X95964Y4016D01*
X98185Y4016D02*
X98600Y4016D01*
X0400Y4065D02*
X0832Y4065D01*
X3036Y4065D02*
X3214Y4065D01*
X5418Y4065D02*
X47207Y4065D01*
X49411Y4065D02*
X49589Y4065D01*
X51793Y4065D02*
X93582Y4065D01*
X95786Y4065D02*
X95964Y4065D01*
X98168Y4065D02*
X98600Y4065D01*
X0400Y4115D02*
X0849Y4115D01*
X3036Y4115D02*
X3214Y4115D01*
X5401Y4115D02*
X47224Y4115D01*
X49411Y4115D02*
X49589Y4115D01*
X51776Y4115D02*
X93599Y4115D01*
X95786Y4115D02*
X95964Y4115D01*
X98151Y4115D02*
X98600Y4115D01*
X0400Y4164D02*
X0867Y4164D01*
X3036Y4164D02*
X3214Y4164D01*
X5383Y4164D02*
X47242Y4164D01*
X49411Y4164D02*
X49589Y4164D01*
X51758Y4164D02*
X93617Y4164D01*
X95786Y4164D02*
X95964Y4164D01*
X98133Y4164D02*
X98600Y4164D01*
X0400Y4214D02*
X0886Y4214D01*
X3036Y4214D02*
X3214Y4214D01*
X5364Y4214D02*
X47261Y4214D01*
X49411Y4214D02*
X49589Y4214D01*
X51739Y4214D02*
X93636Y4214D01*
X95786Y4214D02*
X95964Y4214D01*
X98114Y4214D02*
X98600Y4214D01*
X0400Y4263D02*
X0917Y4263D01*
X3036Y4263D02*
X3214Y4263D01*
X5333Y4263D02*
X47292Y4263D01*
X49411Y4263D02*
X49589Y4263D01*
X51708Y4263D02*
X93667Y4263D01*
X95786Y4263D02*
X95964Y4263D01*
X98083Y4263D02*
X98600Y4263D01*
X0400Y4313D02*
X0949Y4313D01*
X3036Y4313D02*
X3214Y4313D01*
X5301Y4313D02*
X47324Y4313D01*
X49411Y4313D02*
X49589Y4313D01*
X51676Y4313D02*
X93699Y4313D01*
X95786Y4313D02*
X95964Y4313D01*
X98051Y4313D02*
X98600Y4313D01*
X0400Y4362D02*
X0980Y4362D01*
X3036Y4362D02*
X3214Y4362D01*
X5270Y4362D02*
X47355Y4362D01*
X49411Y4362D02*
X49589Y4362D01*
X51645Y4362D02*
X93730Y4362D01*
X95786Y4362D02*
X95964Y4362D01*
X98020Y4362D02*
X98600Y4362D01*
X0400Y4412D02*
X1011Y4412D01*
X3036Y4412D02*
X3214Y4412D01*
X5239Y4412D02*
X47386Y4412D01*
X49411Y4412D02*
X49589Y4412D01*
X51614Y4412D02*
X93761Y4412D01*
X95786Y4412D02*
X95964Y4412D01*
X97989Y4412D02*
X98600Y4412D01*
X0400Y4461D02*
X1042Y4461D01*
X3036Y4461D02*
X3214Y4461D01*
X5208Y4461D02*
X47417Y4461D01*
X49411Y4461D02*
X49589Y4461D01*
X51583Y4461D02*
X93792Y4461D01*
X95786Y4461D02*
X95964Y4461D01*
X97958Y4461D02*
X98600Y4461D01*
X0400Y4511D02*
X1073Y4511D01*
X3036Y4511D02*
X3214Y4511D01*
X5177Y4511D02*
X47448Y4511D01*
X49411Y4511D02*
X49589Y4511D01*
X51552Y4511D02*
X93823Y4511D01*
X95786Y4511D02*
X95964Y4511D01*
X97927Y4511D02*
X98600Y4511D01*
X0400Y4561D02*
X1104Y4561D01*
X3036Y4561D02*
X3214Y4561D01*
X5146Y4561D02*
X47479Y4561D01*
X49411Y4561D02*
X49589Y4561D01*
X51521Y4561D02*
X93854Y4561D01*
X95786Y4561D02*
X95964Y4561D01*
X97896Y4561D02*
X98600Y4561D01*
X0400Y4610D02*
X1135Y4610D01*
X3036Y4610D02*
X3214Y4610D01*
X5115Y4610D02*
X47510Y4610D01*
X49411Y4610D02*
X49589Y4610D01*
X51490Y4610D02*
X93885Y4610D01*
X95786Y4610D02*
X95964Y4610D01*
X97865Y4610D02*
X98600Y4610D01*
X0400Y4660D02*
X1166Y4660D01*
X3036Y4660D02*
X3214Y4660D01*
X5084Y4660D02*
X47541Y4660D01*
X49411Y4660D02*
X49589Y4660D01*
X51459Y4660D02*
X93916Y4660D01*
X95786Y4660D02*
X95964Y4660D01*
X97834Y4660D02*
X98600Y4660D01*
X0400Y4709D02*
X1209Y4709D01*
X3036Y4709D02*
X3214Y4709D01*
X5041Y4709D02*
X47584Y4709D01*
X49411Y4709D02*
X49589Y4709D01*
X51416Y4709D02*
X93959Y4709D01*
X95786Y4709D02*
X95964Y4709D01*
X97791Y4709D02*
X98600Y4709D01*
X0400Y4759D02*
X1259Y4759D01*
X3036Y4759D02*
X3214Y4759D01*
X4991Y4759D02*
X47634Y4759D01*
X49411Y4759D02*
X49589Y4759D01*
X51366Y4759D02*
X94009Y4759D01*
X95786Y4759D02*
X95964Y4759D01*
X97741Y4759D02*
X98600Y4759D01*
X0400Y4808D02*
X1308Y4808D01*
X3036Y4808D02*
X3214Y4808D01*
X4942Y4808D02*
X47683Y4808D01*
X49411Y4808D02*
X49589Y4808D01*
X51317Y4808D02*
X94058Y4808D01*
X95786Y4808D02*
X95964Y4808D01*
X97692Y4808D02*
X98600Y4808D01*
X0400Y4858D02*
X1358Y4858D01*
X3036Y4858D02*
X3214Y4858D01*
X4892Y4858D02*
X47733Y4858D01*
X49411Y4858D02*
X49589Y4858D01*
X51267Y4858D02*
X94108Y4858D01*
X95786Y4858D02*
X95964Y4858D01*
X97642Y4858D02*
X98600Y4858D01*
X0400Y4907D02*
X1407Y4907D01*
X3036Y4907D02*
X3214Y4907D01*
X4843Y4907D02*
X47782Y4907D01*
X49411Y4907D02*
X49589Y4907D01*
X51218Y4907D02*
X94157Y4907D01*
X95786Y4907D02*
X95964Y4907D01*
X97593Y4907D02*
X98600Y4907D01*
X0400Y4957D02*
X1457Y4957D01*
X3036Y4957D02*
X3214Y4957D01*
X4793Y4957D02*
X47832Y4957D01*
X49411Y4957D02*
X49589Y4957D01*
X51168Y4957D02*
X94207Y4957D01*
X95786Y4957D02*
X95964Y4957D01*
X97543Y4957D02*
X98600Y4957D01*
X0400Y5006D02*
X1506Y5006D01*
X3036Y5006D02*
X3214Y5006D01*
X4744Y5006D02*
X47881Y5006D01*
X49411Y5006D02*
X49589Y5006D01*
X51119Y5006D02*
X94256Y5006D01*
X95786Y5006D02*
X95964Y5006D01*
X97494Y5006D02*
X98600Y5006D01*
X0400Y5056D02*
X1556Y5056D01*
X3036Y5056D02*
X3214Y5056D01*
X4694Y5056D02*
X47931Y5056D01*
X49411Y5056D02*
X49589Y5056D01*
X51069Y5056D02*
X94306Y5056D01*
X95786Y5056D02*
X95964Y5056D01*
X97444Y5056D02*
X98600Y5056D01*
X0400Y5105D02*
X1625Y5105D01*
X3036Y5105D02*
X3214Y5105D01*
X4625Y5105D02*
X48000Y5105D01*
X49411Y5105D02*
X49589Y5105D01*
X51000Y5105D02*
X94375Y5105D01*
X95786Y5105D02*
X95964Y5105D01*
X97375Y5105D02*
X98600Y5105D01*
X0400Y5155D02*
X1704Y5155D01*
X3036Y5155D02*
X3214Y5155D01*
X4546Y5155D02*
X48079Y5155D01*
X49411Y5155D02*
X49589Y5155D01*
X50921Y5155D02*
X94454Y5155D01*
X95786Y5155D02*
X95964Y5155D01*
X97296Y5155D02*
X98600Y5155D01*
X0400Y5204D02*
X1783Y5204D01*
X3036Y5204D02*
X3214Y5204D01*
X4467Y5204D02*
X48158Y5204D01*
X49411Y5204D02*
X49589Y5204D01*
X50842Y5204D02*
X94533Y5204D01*
X95786Y5204D02*
X95964Y5204D01*
X97217Y5204D02*
X98600Y5204D01*
X0400Y5254D02*
X1862Y5254D01*
X3036Y5254D02*
X3214Y5254D01*
X4388Y5254D02*
X48237Y5254D01*
X49411Y5254D02*
X49589Y5254D01*
X50763Y5254D02*
X94612Y5254D01*
X95786Y5254D02*
X95964Y5254D01*
X97138Y5254D02*
X98600Y5254D01*
X0400Y5303D02*
X1940Y5303D01*
X3036Y5303D02*
X3214Y5303D01*
X4310Y5303D02*
X48315Y5303D01*
X49411Y5303D02*
X49589Y5303D01*
X50685Y5303D02*
X94690Y5303D01*
X95786Y5303D02*
X95964Y5303D01*
X97060Y5303D02*
X98600Y5303D01*
X0400Y5353D02*
X2019Y5353D01*
X3036Y5353D02*
X3214Y5353D01*
X4231Y5353D02*
X48394Y5353D01*
X49411Y5353D02*
X49589Y5353D01*
X50606Y5353D02*
X94769Y5353D01*
X95786Y5353D02*
X95964Y5353D01*
X96981Y5353D02*
X98600Y5353D01*
X0400Y5403D02*
X2141Y5403D01*
X3036Y5403D02*
X3214Y5403D01*
X4109Y5403D02*
X48516Y5403D01*
X49411Y5403D02*
X49589Y5403D01*
X50484Y5403D02*
X94891Y5403D01*
X95786Y5403D02*
X95964Y5403D01*
X96859Y5403D02*
X98600Y5403D01*
X0400Y5452D02*
X2282Y5452D01*
X3036Y5452D02*
X3214Y5452D01*
X3968Y5452D02*
X48657Y5452D01*
X49411Y5452D02*
X49589Y5452D01*
X50343Y5452D02*
X95032Y5452D01*
X95786Y5452D02*
X95964Y5452D01*
X96718Y5452D02*
X98600Y5452D01*
X0400Y5502D02*
X2424Y5502D01*
X3036Y5502D02*
X3214Y5502D01*
X3826Y5502D02*
X48799Y5502D01*
X49411Y5502D02*
X49589Y5502D01*
X50201Y5502D02*
X95174Y5502D01*
X95786Y5502D02*
X95964Y5502D01*
X96576Y5502D02*
X98600Y5502D01*
X0400Y5551D02*
X2565Y5551D01*
X3036Y5551D02*
X3214Y5551D01*
X3685Y5551D02*
X48940Y5551D01*
X49411Y5551D02*
X49589Y5551D01*
X50060Y5551D02*
X95315Y5551D01*
X95786Y5551D02*
X95964Y5551D01*
X96435Y5551D02*
X98600Y5551D01*
X0400Y5601D02*
X2994Y5601D01*
X3036Y5601D02*
X3214Y5601D01*
X3256Y5601D02*
X49369Y5601D01*
X49411Y5601D02*
X49589Y5601D01*
X49631Y5601D02*
X95744Y5601D01*
X95786Y5601D02*
X95964Y5601D01*
X96006Y5601D02*
X98600Y5601D01*
X0400Y5650D02*
X98600Y5650D01*
X0400Y5700D02*
X98600Y5700D01*
X0400Y5749D02*
X98600Y5749D01*
X0400Y5799D02*
X98600Y5799D01*
X0400Y5848D02*
X98600Y5848D01*
X0400Y5898D02*
X98600Y5898D01*
X0400Y5947D02*
X98600Y5947D01*
X0400Y5997D02*
X98600Y5997D01*
X0400Y6046D02*
X98600Y6046D01*
X0400Y6096D02*
X98600Y6096D01*
X0400Y6145D02*
X98600Y6145D01*
X0400Y6195D02*
X98600Y6195D01*
X0400Y6245D02*
X98600Y6245D01*
X0400Y6294D02*
X98600Y6294D01*
X0400Y6344D02*
X98600Y6344D01*
X0400Y6393D02*
X98600Y6393D01*
X0400Y6443D02*
X98600Y6443D01*
X0400Y6492D02*
X98600Y6492D01*
X0400Y6542D02*
X98600Y6542D01*
X0400Y6591D02*
X98600Y6591D01*
X0400Y6641D02*
X98600Y6641D01*
X0400Y6690D02*
X98600Y6690D01*
X0400Y6740D02*
X98600Y6740D01*
X0400Y6789D02*
X98600Y6789D01*
X0400Y6839D02*
X98600Y6839D01*
X0400Y6888D02*
X98600Y6888D01*
X0400Y6938D02*
X98600Y6938D01*
X0400Y6987D02*
X98600Y6987D01*
X0400Y7037D02*
X98600Y7037D01*
X0400Y7087D02*
X98600Y7087D01*
X0400Y7136D02*
X98600Y7136D01*
X0400Y7186D02*
X98600Y7186D01*
X0400Y7235D02*
X98600Y7235D01*
X0400Y7285D02*
X98600Y7285D01*
X0400Y7334D02*
X98600Y7334D01*
X0400Y7384D02*
X98600Y7384D01*
X0400Y7433D02*
X98600Y7433D01*
X0400Y7483D02*
X98600Y7483D01*
X0400Y7532D02*
X98600Y7532D01*
X0400Y7582D02*
X98600Y7582D01*
X0400Y7631D02*
X98600Y7631D01*
X0400Y7681D02*
X98600Y7681D01*
X0400Y7730D02*
X98600Y7730D01*
X0400Y7780D02*
X98600Y7780D01*
X0400Y7830D02*
X98600Y7830D01*
X0400Y7879D02*
X98600Y7879D01*
X0400Y7929D02*
X98600Y7929D01*
X0400Y7978D02*
X98600Y7978D01*
X0400Y8028D02*
X98600Y8028D01*
X0400Y8077D02*
X98600Y8077D01*
X0400Y8127D02*
X98600Y8127D01*
X0400Y8176D02*
X98600Y8176D01*
X0400Y8226D02*
X98600Y8226D01*
X0400Y8275D02*
X98600Y8275D01*
X0400Y8325D02*
X98600Y8325D01*
X0400Y8374D02*
X98600Y8374D01*
X0400Y8424D02*
X98600Y8424D01*
X0400Y8473D02*
X98600Y8473D01*
X0400Y8523D02*
X98600Y8523D01*
X0400Y8572D02*
X98600Y8572D01*
X0400Y8622D02*
X98600Y8622D01*
X0400Y8672D02*
X98600Y8672D01*
X0400Y8721D02*
X98600Y8721D01*
X0400Y8771D02*
X98600Y8771D01*
X0400Y8820D02*
X98600Y8820D01*
X0400Y8870D02*
X98600Y8870D01*
X0400Y8919D02*
X98600Y8919D01*
X0400Y8969D02*
X98600Y8969D01*
X0400Y9018D02*
X98600Y9018D01*
X0400Y9068D02*
X98600Y9068D01*
X0400Y9117D02*
X98600Y9117D01*
X0400Y9167D02*
X98600Y9167D01*
X0400Y9216D02*
X98600Y9216D01*
X0400Y9266D02*
X98600Y9266D01*
X0400Y9315D02*
X98600Y9315D01*
X0400Y9365D02*
X98600Y9365D01*
X0400Y9414D02*
X98600Y9414D01*
X0400Y9464D02*
X98600Y9464D01*
X0400Y9514D02*
X98600Y9514D01*
X0400Y9563D02*
X98600Y9563D01*
X0400Y9613D02*
X98600Y9613D01*
X0400Y9662D02*
X98600Y9662D01*
X0400Y9712D02*
X90927Y9712D01*
X91173Y9712D02*
X98600Y9712D01*
X0400Y9761D02*
X90737Y9761D01*
X91363Y9761D02*
X98600Y9761D01*
X0400Y9811D02*
X90643Y9811D01*
X91457Y9811D02*
X98600Y9811D01*
X0400Y9860D02*
X90555Y9860D01*
X91545Y9860D02*
X98600Y9860D01*
X0400Y9910D02*
X90499Y9910D01*
X91601Y9910D02*
X98600Y9910D01*
X0400Y9959D02*
X90443Y9959D01*
X91657Y9959D02*
X98600Y9959D01*
X0400Y10009D02*
X90396Y10009D01*
X91704Y10009D02*
X98600Y10009D01*
X0400Y10058D02*
X90362Y10058D01*
X91738Y10058D02*
X98600Y10058D01*
X0400Y10108D02*
X90328Y10108D01*
X91772Y10108D02*
X98600Y10108D01*
X0400Y10157D02*
X90294Y10157D01*
X91806Y10157D02*
X98600Y10157D01*
X0400Y10207D02*
X90275Y10207D01*
X91825Y10207D02*
X98600Y10207D01*
X0400Y10256D02*
X90256Y10256D01*
X91844Y10256D02*
X98600Y10256D01*
X0400Y10306D02*
X90237Y10306D01*
X91863Y10306D02*
X98600Y10306D01*
X0400Y10356D02*
X90220Y10356D01*
X91880Y10356D02*
X98600Y10356D01*
X0400Y10405D02*
X90214Y10405D01*
X91886Y10405D02*
X98600Y10405D01*
X0400Y10455D02*
X90208Y10455D01*
X91892Y10455D02*
X98600Y10455D01*
X0400Y10504D02*
X90202Y10504D01*
X91898Y10504D02*
X98600Y10504D01*
X0400Y10554D02*
X90196Y10554D01*
X91904Y10554D02*
X98600Y10554D01*
X0400Y10603D02*
X90201Y10603D01*
X91899Y10603D02*
X98600Y10603D01*
X0400Y10653D02*
X90207Y10653D01*
X91893Y10653D02*
X98600Y10653D01*
X0400Y10702D02*
X90213Y10702D01*
X91887Y10702D02*
X98600Y10702D01*
X0400Y10752D02*
X90219Y10752D01*
X91881Y10752D02*
X98600Y10752D01*
X0400Y10801D02*
X90236Y10801D01*
X91864Y10801D02*
X98600Y10801D01*
X0400Y10851D02*
X90255Y10851D01*
X91845Y10851D02*
X98600Y10851D01*
X0400Y10900D02*
X90274Y10900D01*
X91826Y10900D02*
X98600Y10900D01*
X0400Y10950D02*
X90293Y10950D01*
X91807Y10950D02*
X98600Y10950D01*
X0400Y10999D02*
X90326Y10999D01*
X91774Y10999D02*
X98600Y10999D01*
X0400Y11049D02*
X90360Y11049D01*
X91740Y11049D02*
X98600Y11049D01*
X0400Y11098D02*
X90394Y11098D01*
X91706Y11098D02*
X98600Y11098D01*
X0400Y11148D02*
X90440Y11148D01*
X91660Y11148D02*
X98600Y11148D01*
X0400Y11198D02*
X90496Y11198D01*
X91604Y11198D02*
X98600Y11198D01*
X0400Y11247D02*
X90552Y11247D01*
X91548Y11247D02*
X98600Y11247D01*
X0400Y11297D02*
X90638Y11297D01*
X91462Y11297D02*
X98600Y11297D01*
X0400Y11346D02*
X90732Y11346D01*
X91368Y11346D02*
X98600Y11346D01*
X0400Y11396D02*
X90916Y11396D01*
X91184Y11396D02*
X98600Y11396D01*
X0400Y11445D02*
X98600Y11445D01*
X0400Y11495D02*
X98600Y11495D01*
X0400Y11544D02*
X98600Y11544D01*
X0400Y11594D02*
X98600Y11594D01*
X0400Y11643D02*
X98600Y11643D01*
X0400Y11693D02*
X98600Y11693D01*
X0400Y11742D02*
X98600Y11742D01*
X0400Y11792D02*
X98600Y11792D01*
X0400Y11841D02*
X98600Y11841D01*
X0400Y11891D02*
X98600Y11891D01*
X0400Y11940D02*
X98600Y11940D01*
X0400Y11990D02*
X98600Y11990D01*
X0400Y12040D02*
X98600Y12040D01*
X0400Y12089D02*
X98600Y12089D01*
X0400Y12139D02*
X98600Y12139D01*
X0400Y12188D02*
X98600Y12188D01*
X0400Y12238D02*
X98600Y12238D01*
X0400Y12287D02*
X90271Y12287D01*
X91829Y12287D02*
X98600Y12287D01*
X0400Y12337D02*
X90227Y12337D01*
X91873Y12337D02*
X98600Y12337D01*
X0400Y12386D02*
X90204Y12386D01*
X91896Y12386D02*
X98600Y12386D01*
X0400Y12436D02*
X90196Y12436D01*
X91904Y12436D02*
X98600Y12436D01*
X0400Y12485D02*
X90196Y12485D01*
X91904Y12485D02*
X98600Y12485D01*
X0400Y12535D02*
X90196Y12535D01*
X91904Y12535D02*
X98600Y12535D01*
X0400Y12584D02*
X90196Y12584D01*
X91904Y12584D02*
X98600Y12584D01*
X0400Y12634D02*
X90196Y12634D01*
X91904Y12634D02*
X98600Y12634D01*
X0400Y12683D02*
X90196Y12683D01*
X91904Y12683D02*
X98600Y12683D01*
X0400Y12733D02*
X90196Y12733D01*
X91904Y12733D02*
X98600Y12733D01*
X0400Y12783D02*
X90196Y12783D01*
X91904Y12783D02*
X98600Y12783D01*
X0400Y12832D02*
X90196Y12832D01*
X91904Y12832D02*
X98600Y12832D01*
X0400Y12882D02*
X90196Y12882D01*
X91904Y12882D02*
X98600Y12882D01*
X0400Y12931D02*
X90196Y12931D01*
X91904Y12931D02*
X98600Y12931D01*
X0400Y12981D02*
X90196Y12981D01*
X91904Y12981D02*
X98600Y12981D01*
X0400Y13030D02*
X90196Y13030D01*
X91904Y13030D02*
X98600Y13030D01*
X0400Y13080D02*
X90196Y13080D01*
X91904Y13080D02*
X98600Y13080D01*
X0400Y13129D02*
X90196Y13129D01*
X91904Y13129D02*
X98600Y13129D01*
X0400Y13179D02*
X90196Y13179D01*
X91904Y13179D02*
X98600Y13179D01*
X0400Y13228D02*
X90196Y13228D01*
X91904Y13228D02*
X98600Y13228D01*
X0400Y13278D02*
X90196Y13278D01*
X91904Y13278D02*
X98600Y13278D01*
X0400Y13327D02*
X90196Y13327D01*
X91904Y13327D02*
X98600Y13327D01*
X0400Y13377D02*
X90196Y13377D01*
X91904Y13377D02*
X98600Y13377D01*
X0400Y13426D02*
X90196Y13426D01*
X91904Y13426D02*
X98600Y13426D01*
X0400Y13476D02*
X90196Y13476D01*
X91904Y13476D02*
X98600Y13476D01*
X0400Y13525D02*
X90196Y13525D01*
X91904Y13525D02*
X98600Y13525D01*
X0400Y13575D02*
X90196Y13575D01*
X91904Y13575D02*
X98600Y13575D01*
X0400Y13625D02*
X90196Y13625D01*
X91904Y13625D02*
X98600Y13625D01*
X0400Y13674D02*
X90196Y13674D01*
X91904Y13674D02*
X98600Y13674D01*
X0400Y13724D02*
X90196Y13724D01*
X91904Y13724D02*
X98600Y13724D01*
X0400Y13773D02*
X90198Y13773D01*
X91902Y13773D02*
X98600Y13773D01*
X0400Y13823D02*
X24243Y13823D01*
X24753Y13823D02*
X43547Y13823D01*
X44057Y13823D02*
X57120Y13823D01*
X57426Y13823D02*
X76424Y13823D01*
X76730Y13823D02*
X90212Y13823D01*
X91888Y13823D02*
X98600Y13823D01*
X0400Y13872D02*
X24102Y13872D01*
X24894Y13872D02*
X43406Y13872D01*
X44198Y13872D02*
X56925Y13872D01*
X57621Y13872D02*
X76229Y13872D01*
X76925Y13872D02*
X90241Y13872D01*
X91859Y13872D02*
X98600Y13872D01*
X0400Y13922D02*
X24008Y13922D01*
X24988Y13922D02*
X43312Y13922D01*
X44292Y13922D02*
X56831Y13922D01*
X57715Y13922D02*
X76135Y13922D01*
X77019Y13922D02*
X90298Y13922D01*
X91802Y13922D02*
X98600Y13922D01*
X0400Y13971D02*
X23928Y13971D01*
X25068Y13971D02*
X43232Y13971D01*
X44372Y13971D02*
X56736Y13971D01*
X57810Y13971D02*
X76040Y13971D01*
X77114Y13971D02*
X98600Y13971D01*
X0400Y14021D02*
X23872Y14021D01*
X25124Y14021D02*
X43176Y14021D01*
X44428Y14021D02*
X56675Y14021D01*
X57871Y14021D02*
X75979Y14021D01*
X77175Y14021D02*
X98600Y14021D01*
X0400Y14070D02*
X23816Y14070D01*
X25180Y14070D02*
X43120Y14070D01*
X44484Y14070D02*
X56619Y14070D01*
X57927Y14070D02*
X75923Y14070D01*
X77231Y14070D02*
X98600Y14070D01*
X0400Y14120D02*
X23766Y14120D01*
X25230Y14120D02*
X43070Y14120D01*
X44534Y14120D02*
X56563Y14120D01*
X57983Y14120D02*
X75867Y14120D01*
X77287Y14120D02*
X82475Y14120D01*
X82875Y14120D02*
X98600Y14120D01*
X0400Y14169D02*
X23732Y14169D01*
X25264Y14169D02*
X43036Y14169D01*
X44568Y14169D02*
X56524Y14169D01*
X58022Y14169D02*
X75828Y14169D01*
X77326Y14169D02*
X82381Y14169D01*
X82969Y14169D02*
X98600Y14169D01*
X0400Y14219D02*
X23697Y14219D01*
X25299Y14219D02*
X43001Y14219D01*
X44603Y14219D02*
X56490Y14219D01*
X58056Y14219D02*
X75794Y14219D01*
X77360Y14219D02*
X82324Y14219D01*
X83026Y14219D02*
X98600Y14219D01*
X0400Y14268D02*
X23663Y14268D01*
X25333Y14268D02*
X42967Y14268D01*
X44637Y14268D02*
X56456Y14268D01*
X58090Y14268D02*
X75760Y14268D01*
X77394Y14268D02*
X82274Y14268D01*
X83082Y14268D02*
X98600Y14268D01*
X0400Y14318D02*
X23635Y14318D01*
X25361Y14318D02*
X42939Y14318D01*
X44665Y14318D02*
X56421Y14318D01*
X58125Y14318D02*
X75725Y14318D01*
X77429Y14318D02*
X82240Y14318D01*
X85397Y14318D02*
X98600Y14318D01*
X0400Y14367D02*
X23616Y14367D01*
X25380Y14367D02*
X42920Y14367D01*
X44684Y14367D02*
X56401Y14367D01*
X58145Y14367D02*
X75705Y14367D01*
X77449Y14367D02*
X82209Y14367D01*
X85461Y14367D02*
X98600Y14367D01*
X0400Y14417D02*
X23597Y14417D01*
X25399Y14417D02*
X42901Y14417D01*
X44703Y14417D02*
X56382Y14417D01*
X58164Y14417D02*
X75686Y14417D01*
X77468Y14417D02*
X82190Y14417D01*
X85511Y14417D02*
X98600Y14417D01*
X0400Y14467D02*
X23579Y14467D01*
X25417Y14467D02*
X42883Y14467D01*
X44721Y14467D02*
X56363Y14467D01*
X58183Y14467D02*
X75667Y14467D01*
X77487Y14467D02*
X82171Y14467D01*
X85560Y14467D02*
X98600Y14467D01*
X0400Y14516D02*
X23560Y14516D01*
X25436Y14516D02*
X42864Y14516D01*
X44740Y14516D02*
X56344Y14516D01*
X58202Y14516D02*
X75648Y14516D01*
X77506Y14516D02*
X82163Y14516D01*
X85610Y14516D02*
X98600Y14516D01*
X0400Y14566D02*
X23554Y14566D01*
X25442Y14566D02*
X42858Y14566D01*
X44746Y14566D02*
X56332Y14566D01*
X58214Y14566D02*
X75636Y14566D01*
X77518Y14566D02*
X82157Y14566D01*
X85659Y14566D02*
X98600Y14566D01*
X0400Y14615D02*
X23548Y14615D01*
X25448Y14615D02*
X42852Y14615D01*
X44752Y14615D02*
X56326Y14615D01*
X58220Y14615D02*
X75630Y14615D01*
X77524Y14615D02*
X82155Y14615D01*
X85709Y14615D02*
X98600Y14615D01*
X0400Y14665D02*
X23542Y14665D01*
X25454Y14665D02*
X42846Y14665D01*
X44758Y14665D02*
X56320Y14665D01*
X58226Y14665D02*
X75624Y14665D01*
X77530Y14665D02*
X82161Y14665D01*
X85758Y14665D02*
X98600Y14665D01*
X0400Y14714D02*
X23536Y14714D01*
X25460Y14714D02*
X42840Y14714D01*
X44764Y14714D02*
X56314Y14714D01*
X58232Y14714D02*
X75618Y14714D01*
X77536Y14714D02*
X82167Y14714D01*
X85808Y14714D02*
X98600Y14714D01*
X0400Y14764D02*
X23533Y14764D01*
X25463Y14764D02*
X42837Y14764D01*
X44767Y14764D02*
X56308Y14764D01*
X58238Y14764D02*
X75612Y14764D01*
X77542Y14764D02*
X82183Y14764D01*
X85857Y14764D02*
X98600Y14764D01*
X0400Y14813D02*
X23539Y14813D01*
X25457Y14813D02*
X42843Y14813D01*
X44761Y14813D02*
X56311Y14813D01*
X58235Y14813D02*
X75615Y14813D01*
X77539Y14813D02*
X82202Y14813D01*
X85907Y14813D02*
X98600Y14813D01*
X0400Y14863D02*
X23545Y14863D01*
X25451Y14863D02*
X42849Y14863D01*
X44755Y14863D02*
X56317Y14863D01*
X58229Y14863D02*
X75621Y14863D01*
X77533Y14863D02*
X82227Y14863D01*
X85957Y14863D02*
X98600Y14863D01*
X0400Y14912D02*
X23551Y14912D01*
X25445Y14912D02*
X42855Y14912D01*
X44749Y14912D02*
X56323Y14912D01*
X58223Y14912D02*
X75627Y14912D01*
X77527Y14912D02*
X82261Y14912D01*
X86006Y14912D02*
X98600Y14912D01*
X0400Y14962D02*
X23558Y14962D01*
X25438Y14962D02*
X42862Y14962D01*
X44742Y14962D02*
X56329Y14962D01*
X58217Y14962D02*
X75633Y14962D01*
X77521Y14962D02*
X82302Y14962D01*
X83048Y14962D02*
X85118Y14962D01*
X86056Y14962D02*
X98600Y14962D01*
X0400Y15011D02*
X23572Y15011D01*
X25424Y15011D02*
X42876Y15011D01*
X44728Y15011D02*
X56337Y15011D01*
X58209Y15011D02*
X75641Y15011D01*
X77513Y15011D02*
X82358Y15011D01*
X82992Y15011D02*
X85168Y15011D01*
X86105Y15011D02*
X98600Y15011D01*
X0400Y15061D02*
X23591Y15061D01*
X25405Y15061D02*
X42895Y15061D01*
X44709Y15061D02*
X56356Y15061D01*
X58190Y15061D02*
X75660Y15061D01*
X77494Y15061D02*
X82438Y15061D01*
X82912Y15061D02*
X85217Y15061D01*
X86155Y15061D02*
X98600Y15061D01*
X0400Y15110D02*
X23609Y15110D01*
X25387Y15110D02*
X42913Y15110D01*
X44691Y15110D02*
X56375Y15110D01*
X58171Y15110D02*
X75679Y15110D01*
X77475Y15110D02*
X82581Y15110D01*
X82769Y15110D02*
X85267Y15110D01*
X86204Y15110D02*
X98600Y15110D01*
X0400Y15160D02*
X23628Y15160D01*
X25368Y15160D02*
X42932Y15160D01*
X44672Y15160D02*
X56394Y15160D01*
X58152Y15160D02*
X75698Y15160D01*
X77456Y15160D02*
X85316Y15160D01*
X86254Y15160D02*
X98600Y15160D01*
X0400Y15209D02*
X23651Y15209D01*
X25345Y15209D02*
X42955Y15209D01*
X44649Y15209D02*
X56412Y15209D01*
X58134Y15209D02*
X75716Y15209D01*
X77438Y15209D02*
X85366Y15209D01*
X86303Y15209D02*
X98600Y15209D01*
X0400Y15259D02*
X23685Y15259D01*
X25311Y15259D02*
X42989Y15259D01*
X44615Y15259D02*
X56443Y15259D01*
X58103Y15259D02*
X75747Y15259D01*
X77407Y15259D02*
X85415Y15259D01*
X86353Y15259D02*
X98600Y15259D01*
X0400Y15309D02*
X23719Y15309D01*
X25277Y15309D02*
X43023Y15309D01*
X44581Y15309D02*
X56477Y15309D01*
X58069Y15309D02*
X75781Y15309D01*
X77373Y15309D02*
X85465Y15309D01*
X86402Y15309D02*
X98600Y15309D01*
X0400Y15358D02*
X23753Y15358D01*
X25243Y15358D02*
X43057Y15358D01*
X44547Y15358D02*
X56511Y15358D01*
X58035Y15358D02*
X75815Y15358D01*
X77339Y15358D02*
X85514Y15358D01*
X86452Y15358D02*
X98600Y15358D01*
X0400Y15408D02*
X23796Y15408D01*
X25200Y15408D02*
X43100Y15408D01*
X44504Y15408D02*
X56545Y15408D01*
X58001Y15408D02*
X75849Y15408D01*
X77305Y15408D02*
X85564Y15408D01*
X86501Y15408D02*
X98600Y15408D01*
X0400Y15457D02*
X23852Y15457D01*
X25144Y15457D02*
X43156Y15457D01*
X44448Y15457D02*
X56598Y15457D01*
X57948Y15457D02*
X75902Y15457D01*
X77252Y15457D02*
X85613Y15457D01*
X86551Y15457D02*
X98600Y15457D01*
X0400Y15507D02*
X23908Y15507D01*
X25088Y15507D02*
X43212Y15507D01*
X44392Y15507D02*
X56654Y15507D01*
X57892Y15507D02*
X75958Y15507D01*
X77196Y15507D02*
X85663Y15507D01*
X86600Y15507D02*
X98600Y15507D01*
X0400Y15556D02*
X23973Y15556D01*
X25023Y15556D02*
X43277Y15556D01*
X44327Y15556D02*
X56710Y15556D01*
X57836Y15556D02*
X76014Y15556D01*
X77140Y15556D02*
X85712Y15556D01*
X86650Y15556D02*
X98600Y15556D01*
X0400Y15606D02*
X24068Y15606D01*
X24928Y15606D02*
X43372Y15606D01*
X44232Y15606D02*
X56795Y15606D01*
X57751Y15606D02*
X76099Y15606D01*
X77055Y15606D02*
X85762Y15606D01*
X86699Y15606D02*
X98600Y15606D01*
X0400Y15655D02*
X24170Y15655D01*
X24826Y15655D02*
X43474Y15655D01*
X44130Y15655D02*
X56889Y15655D01*
X57657Y15655D02*
X76193Y15655D01*
X76961Y15655D02*
X85811Y15655D01*
X86749Y15655D02*
X98600Y15655D01*
X0400Y15705D02*
X24371Y15705D01*
X24625Y15705D02*
X43675Y15705D01*
X43929Y15705D02*
X57044Y15705D01*
X57502Y15705D02*
X76348Y15705D01*
X76806Y15705D02*
X85861Y15705D01*
X86799Y15705D02*
X98600Y15705D01*
X0400Y15754D02*
X85911Y15754D01*
X86848Y15754D02*
X98600Y15754D01*
X0400Y15804D02*
X85960Y15804D01*
X86898Y15804D02*
X98600Y15804D01*
X0400Y15853D02*
X86010Y15853D01*
X86947Y15853D02*
X98600Y15853D01*
X0400Y15903D02*
X86059Y15903D01*
X86997Y15903D02*
X98600Y15903D01*
X0400Y15952D02*
X86109Y15952D01*
X87046Y15952D02*
X98600Y15952D01*
X0400Y16002D02*
X86158Y16002D01*
X87314Y16002D02*
X98600Y16002D01*
X0400Y16051D02*
X86208Y16051D01*
X87403Y16051D02*
X98600Y16051D01*
X0400Y16101D02*
X86257Y16101D01*
X87459Y16101D02*
X98600Y16101D01*
X0400Y16151D02*
X86307Y16151D01*
X87506Y16151D02*
X98600Y16151D01*
X0400Y16200D02*
X86356Y16200D01*
X87540Y16200D02*
X98600Y16200D01*
X0400Y16250D02*
X86406Y16250D01*
X87569Y16250D02*
X98600Y16250D01*
X0400Y16299D02*
X86455Y16299D01*
X87587Y16299D02*
X98600Y16299D01*
X0400Y16349D02*
X86505Y16349D01*
X87606Y16349D02*
X98600Y16349D01*
X0400Y16398D02*
X86554Y16398D01*
X87613Y16398D02*
X98600Y16398D01*
X0400Y16448D02*
X86581Y16448D01*
X87619Y16448D02*
X98600Y16448D01*
X0400Y16497D02*
X86581Y16497D01*
X87619Y16497D02*
X98600Y16497D01*
X0400Y16547D02*
X86587Y16547D01*
X87613Y16547D02*
X98600Y16547D01*
X0400Y16596D02*
X86593Y16596D01*
X87607Y16596D02*
X98600Y16596D01*
X0400Y16646D02*
X86611Y16646D01*
X87589Y16646D02*
X98600Y16646D01*
X0400Y16695D02*
X86629Y16695D01*
X87571Y16695D02*
X98600Y16695D01*
X0400Y16745D02*
X86657Y16745D01*
X87543Y16745D02*
X98600Y16745D01*
X0400Y16794D02*
X86691Y16794D01*
X87509Y16794D02*
X98600Y16794D01*
X0400Y16844D02*
X86735Y16844D01*
X87465Y16844D02*
X98600Y16844D01*
X0400Y16893D02*
X86791Y16893D01*
X87409Y16893D02*
X98600Y16893D01*
X0400Y16943D02*
X86877Y16943D01*
X87323Y16943D02*
X98600Y16943D01*
X0400Y16993D02*
X87035Y16993D01*
X87165Y16993D02*
X98600Y16993D01*
X0400Y17042D02*
X98600Y17042D01*
X0400Y17092D02*
X98600Y17092D01*
X0400Y17141D02*
X98600Y17141D01*
X0400Y17191D02*
X98600Y17191D01*
X0400Y17240D02*
X98600Y17240D01*
X0400Y17290D02*
X98600Y17290D01*
X0400Y17339D02*
X98600Y17339D01*
X0400Y17389D02*
X98600Y17389D01*
X0400Y17438D02*
X98600Y17438D01*
X0400Y17488D02*
X98600Y17488D01*
X0400Y17537D02*
X98600Y17537D01*
X0400Y17587D02*
X98600Y17587D01*
X0400Y17636D02*
X98600Y17636D01*
X0400Y17686D02*
X98600Y17686D01*
X0400Y17735D02*
X98600Y17735D01*
X0400Y17785D02*
X98600Y17785D01*
X0400Y17835D02*
X98600Y17835D01*
X0400Y17884D02*
X98600Y17884D01*
X0400Y17934D02*
X98600Y17934D01*
X0400Y17983D02*
X98600Y17983D01*
X0400Y18033D02*
X98600Y18033D01*
X0400Y18082D02*
X98600Y18082D01*
X0400Y18132D02*
X98600Y18132D01*
X0400Y18181D02*
X98600Y18181D01*
X0400Y18231D02*
X98600Y18231D01*
X0400Y18280D02*
X98600Y18280D01*
X0400Y18330D02*
X98600Y18330D01*
X0400Y18379D02*
X98600Y18379D01*
X0400Y18429D02*
X98600Y18429D01*
X0400Y18478D02*
X98600Y18478D01*
X0400Y18528D02*
X98600Y18528D01*
X0400Y18578D02*
X98600Y18578D01*
X0400Y18627D02*
X98600Y18627D01*
X0400Y18677D02*
X98600Y18677D01*
X0400Y18726D02*
X98600Y18726D01*
X0400Y18776D02*
X98600Y18776D01*
X0400Y18825D02*
X98600Y18825D01*
X0400Y18875D02*
X98600Y18875D01*
X0400Y18924D02*
X98600Y18924D01*
X0400Y18974D02*
X98600Y18974D01*
X0400Y19023D02*
X98600Y19023D01*
X0400Y19073D02*
X98600Y19073D01*
X0400Y19122D02*
X98600Y19122D01*
X0400Y19172D02*
X98600Y19172D01*
X0400Y19221D02*
X98600Y19221D01*
X0400Y19271D02*
X98600Y19271D01*
X0400Y19320D02*
X98600Y19320D01*
X0400Y19370D02*
X98600Y19370D01*
X0400Y19420D02*
X98600Y19420D01*
X0400Y19469D02*
X98600Y19469D01*
X0400Y19519D02*
X98600Y19519D01*
X0400Y19568D02*
X98600Y19568D01*
X0400Y19618D02*
X98600Y19618D01*
X0400Y19667D02*
X98600Y19667D01*
X0400Y19717D02*
X98600Y19717D01*
X0400Y19766D02*
X98600Y19766D01*
X0400Y19816D02*
X98600Y19816D01*
X0400Y19865D02*
X98600Y19865D01*
X0400Y19915D02*
X98600Y19915D01*
X0400Y19964D02*
X98600Y19964D01*
X0400Y20014D02*
X98600Y20014D01*
X0400Y20063D02*
X98600Y20063D01*
X0400Y20113D02*
X98600Y20113D01*
X0400Y20162D02*
X98600Y20162D01*
X0400Y20212D02*
X98600Y20212D01*
X0400Y20262D02*
X98600Y20262D01*
X0400Y20311D02*
X98600Y20311D01*
X0400Y20361D02*
X98600Y20361D01*
X0400Y20410D02*
X98600Y20410D01*
X0400Y20460D02*
X98600Y20460D01*
X0400Y20509D02*
X98600Y20509D01*
X0400Y20559D02*
X98600Y20559D01*
X0400Y20608D02*
X98600Y20608D01*
X0400Y20658D02*
X98600Y20658D01*
X0400Y20707D02*
X98600Y20707D01*
X0400Y20757D02*
X98600Y20757D01*
X0400Y20806D02*
X98600Y20806D01*
X0400Y20856D02*
X98600Y20856D01*
X0400Y20905D02*
X98600Y20905D01*
X0400Y20955D02*
X98600Y20955D01*
X0400Y21004D02*
X98600Y21004D01*
X0400Y21054D02*
X98600Y21054D01*
X0400Y21104D02*
X98600Y21104D01*
X0400Y21153D02*
X98600Y21153D01*
X0400Y21203D02*
X98600Y21203D01*
X0400Y21252D02*
X98600Y21252D01*
X0400Y21302D02*
X98600Y21302D01*
X0400Y21351D02*
X98600Y21351D01*
X0400Y21401D02*
X98600Y21401D01*
X0400Y21450D02*
X98600Y21450D01*
X0400Y21500D02*
X98600Y21500D01*
X0400Y21549D02*
X98600Y21549D01*
X0400Y21599D02*
X98600Y21599D01*
X0400Y21648D02*
X98600Y21648D01*
X0400Y21698D02*
X98600Y21698D01*
X0400Y21747D02*
X98600Y21747D01*
X0400Y21797D02*
X98600Y21797D01*
X0400Y21846D02*
X98600Y21846D01*
X0400Y21896D02*
X98600Y21896D01*
X0400Y21946D02*
X98600Y21946D01*
X0400Y21995D02*
X98600Y21995D01*
X0400Y22045D02*
X98600Y22045D01*
X0400Y22094D02*
X98600Y22094D01*
X0400Y22144D02*
X98600Y22144D01*
X0400Y22193D02*
X98600Y22193D01*
X0400Y22243D02*
X98600Y22243D01*
X0400Y22292D02*
X98600Y22292D01*
X0400Y22342D02*
X98600Y22342D01*
X0400Y22391D02*
X98600Y22391D01*
X0400Y22441D02*
X98600Y22441D01*
X0400Y22490D02*
X98600Y22490D01*
X0400Y22540D02*
X98600Y22540D01*
X0400Y22589D02*
X98600Y22589D01*
X0400Y22639D02*
X98600Y22639D01*
X0400Y22689D02*
X98600Y22689D01*
X0400Y22738D02*
X98600Y22738D01*
X0400Y22788D02*
X98600Y22788D01*
X0400Y22837D02*
X98600Y22837D01*
X0400Y22887D02*
X98600Y22887D01*
X0400Y22936D02*
X98600Y22936D01*
X0400Y22986D02*
X98600Y22986D01*
X0400Y23035D02*
X98600Y23035D01*
X0400Y23085D02*
X98600Y23085D01*
X0400Y23134D02*
X98600Y23134D01*
X0400Y23184D02*
X98600Y23184D01*
X0400Y23233D02*
X98600Y23233D01*
X0400Y23283D02*
X98600Y23283D01*
X0400Y23332D02*
X98600Y23332D01*
X0400Y23382D02*
X98600Y23382D01*
X0400Y23431D02*
X98600Y23431D01*
X0400Y23481D02*
X27520Y23481D01*
X28080Y23481D02*
X40220Y23481D01*
X40780Y23481D02*
X60396Y23481D01*
X60754Y23481D02*
X73096Y23481D01*
X73454Y23481D02*
X98600Y23481D01*
X0400Y23531D02*
X27392Y23531D01*
X28208Y23531D02*
X40092Y23531D01*
X40908Y23531D02*
X60215Y23531D01*
X60935Y23531D02*
X72915Y23531D01*
X73635Y23531D02*
X98600Y23531D01*
X0400Y23580D02*
X27298Y23580D01*
X28302Y23580D02*
X39998Y23580D01*
X41002Y23580D02*
X60120Y23580D01*
X61030Y23580D02*
X72820Y23580D01*
X73730Y23580D02*
X98600Y23580D01*
X0400Y23630D02*
X27223Y23630D01*
X28377Y23630D02*
X39923Y23630D01*
X41077Y23630D02*
X60026Y23630D01*
X61124Y23630D02*
X72726Y23630D01*
X73824Y23630D02*
X98600Y23630D01*
X0400Y23679D02*
X27167Y23679D01*
X28433Y23679D02*
X39867Y23679D01*
X41133Y23679D02*
X59970Y23679D01*
X61180Y23679D02*
X72670Y23679D01*
X73880Y23679D02*
X98600Y23679D01*
X0400Y23729D02*
X27111Y23729D01*
X28489Y23729D02*
X39811Y23729D01*
X41189Y23729D02*
X59914Y23729D01*
X61236Y23729D02*
X72614Y23729D01*
X73936Y23729D02*
X98600Y23729D01*
X0400Y23778D02*
X27063Y23778D01*
X28537Y23778D02*
X39763Y23778D01*
X41237Y23778D02*
X59858Y23778D01*
X61292Y23778D02*
X72558Y23778D01*
X73992Y23778D02*
X98600Y23778D01*
X0400Y23828D02*
X27029Y23828D01*
X28571Y23828D02*
X39729Y23828D01*
X41271Y23828D02*
X59822Y23828D01*
X61328Y23828D02*
X72522Y23828D01*
X74028Y23828D02*
X98600Y23828D01*
X0400Y23877D02*
X26995Y23877D01*
X28605Y23877D02*
X39695Y23877D01*
X41305Y23877D02*
X59787Y23877D01*
X61363Y23877D02*
X72487Y23877D01*
X74063Y23877D02*
X98600Y23877D01*
X0400Y23927D02*
X26961Y23927D01*
X28639Y23927D02*
X39661Y23927D01*
X41339Y23927D02*
X59753Y23927D01*
X61397Y23927D02*
X72453Y23927D01*
X74097Y23927D02*
X98600Y23927D01*
X0400Y23976D02*
X26935Y23976D01*
X28665Y23976D02*
X39635Y23976D01*
X41365Y23976D02*
X59719Y23976D01*
X61431Y23976D02*
X72419Y23976D01*
X74131Y23976D02*
X98600Y23976D01*
X0400Y24026D02*
X26916Y24026D01*
X28684Y24026D02*
X39616Y24026D01*
X41384Y24026D02*
X59700Y24026D01*
X61450Y24026D02*
X72400Y24026D01*
X74150Y24026D02*
X98600Y24026D01*
X0400Y24075D02*
X26897Y24075D01*
X28703Y24075D02*
X39597Y24075D01*
X41403Y24075D02*
X59682Y24075D01*
X61468Y24075D02*
X72382Y24075D01*
X74168Y24075D02*
X98600Y24075D01*
X0400Y24125D02*
X26878Y24125D01*
X28722Y24125D02*
X39578Y24125D01*
X41422Y24125D02*
X59663Y24125D01*
X61487Y24125D02*
X72363Y24125D01*
X74187Y24125D02*
X98600Y24125D01*
X0400Y24174D02*
X26861Y24174D01*
X28739Y24174D02*
X39561Y24174D01*
X41439Y24174D02*
X59644Y24174D01*
X61506Y24174D02*
X72344Y24174D01*
X74206Y24174D02*
X98600Y24174D01*
X0400Y24224D02*
X26855Y24224D01*
X28745Y24224D02*
X39555Y24224D01*
X41445Y24224D02*
X59633Y24224D01*
X61517Y24224D02*
X72333Y24224D01*
X74217Y24224D02*
X98600Y24224D01*
X0400Y24273D02*
X26849Y24273D01*
X28751Y24273D02*
X39549Y24273D01*
X41451Y24273D02*
X59627Y24273D01*
X61523Y24273D02*
X72327Y24273D01*
X74223Y24273D02*
X98600Y24273D01*
X0400Y24323D02*
X26843Y24323D01*
X28757Y24323D02*
X39543Y24323D01*
X41457Y24323D02*
X59621Y24323D01*
X61529Y24323D02*
X72321Y24323D01*
X74229Y24323D02*
X98600Y24323D01*
X0400Y24373D02*
X26837Y24373D01*
X28763Y24373D02*
X39537Y24373D01*
X41463Y24373D02*
X59615Y24373D01*
X61535Y24373D02*
X72315Y24373D01*
X74235Y24373D02*
X98600Y24373D01*
X0400Y24422D02*
X26836Y24422D01*
X28764Y24422D02*
X39536Y24422D01*
X41464Y24422D02*
X59609Y24422D01*
X61541Y24422D02*
X72309Y24422D01*
X74241Y24422D02*
X98600Y24422D01*
X0400Y24472D02*
X26842Y24472D01*
X28758Y24472D02*
X39542Y24472D01*
X41458Y24472D02*
X59614Y24472D01*
X61536Y24472D02*
X72314Y24472D01*
X74236Y24472D02*
X98600Y24472D01*
X0400Y24521D02*
X26848Y24521D01*
X28752Y24521D02*
X39548Y24521D01*
X41452Y24521D02*
X59620Y24521D01*
X61530Y24521D02*
X72320Y24521D01*
X74230Y24521D02*
X98600Y24521D01*
X0400Y24571D02*
X26854Y24571D01*
X28746Y24571D02*
X39554Y24571D01*
X41446Y24571D02*
X59626Y24571D01*
X61524Y24571D02*
X72326Y24571D01*
X74224Y24571D02*
X98600Y24571D01*
X0400Y24620D02*
X26860Y24620D01*
X28740Y24620D02*
X39560Y24620D01*
X41440Y24620D02*
X59632Y24620D01*
X61518Y24620D02*
X72332Y24620D01*
X74218Y24620D02*
X98600Y24620D01*
X0400Y24670D02*
X26876Y24670D01*
X28724Y24670D02*
X39576Y24670D01*
X41424Y24670D02*
X59642Y24670D01*
X61508Y24670D02*
X72342Y24670D01*
X74208Y24670D02*
X98600Y24670D01*
X0400Y24719D02*
X26895Y24719D01*
X28705Y24719D02*
X39595Y24719D01*
X41405Y24719D02*
X59660Y24719D01*
X61490Y24719D02*
X72360Y24719D01*
X74190Y24719D02*
X98600Y24719D01*
X0400Y24769D02*
X26914Y24769D01*
X28686Y24769D02*
X39614Y24769D01*
X41386Y24769D02*
X59679Y24769D01*
X61471Y24769D02*
X72379Y24769D01*
X74171Y24769D02*
X98600Y24769D01*
X0400Y24818D02*
X26933Y24818D01*
X28667Y24818D02*
X39633Y24818D01*
X41367Y24818D02*
X59698Y24818D01*
X61452Y24818D02*
X72398Y24818D01*
X74152Y24818D02*
X98600Y24818D01*
X0400Y24868D02*
X26957Y24868D01*
X28643Y24868D02*
X39657Y24868D01*
X41343Y24868D02*
X59717Y24868D01*
X61433Y24868D02*
X72417Y24868D01*
X74133Y24868D02*
X98600Y24868D01*
X0400Y24917D02*
X26991Y24917D01*
X28609Y24917D02*
X39691Y24917D01*
X41309Y24917D02*
X59749Y24917D01*
X61401Y24917D02*
X72449Y24917D01*
X74101Y24917D02*
X98600Y24917D01*
X0400Y24967D02*
X27026Y24967D01*
X28574Y24967D02*
X39726Y24967D01*
X41274Y24967D02*
X59783Y24967D01*
X61367Y24967D02*
X72483Y24967D01*
X74067Y24967D02*
X98600Y24967D01*
X0400Y25016D02*
X27060Y25016D01*
X28540Y25016D02*
X39760Y25016D01*
X41240Y25016D02*
X59817Y25016D01*
X61333Y25016D02*
X72517Y25016D01*
X74033Y25016D02*
X98600Y25016D01*
X0400Y25066D02*
X27105Y25066D01*
X28495Y25066D02*
X39805Y25066D01*
X41195Y25066D02*
X59852Y25066D01*
X61298Y25066D02*
X72552Y25066D01*
X73998Y25066D02*
X98600Y25066D01*
X0400Y25115D02*
X27161Y25115D01*
X28439Y25115D02*
X39861Y25115D01*
X41139Y25115D02*
X59908Y25115D01*
X61242Y25115D02*
X72608Y25115D01*
X73942Y25115D02*
X98600Y25115D01*
X0400Y25165D02*
X27217Y25165D01*
X28383Y25165D02*
X39917Y25165D01*
X41083Y25165D02*
X59963Y25165D01*
X61187Y25165D02*
X72663Y25165D01*
X73887Y25165D02*
X98600Y25165D01*
X0400Y25215D02*
X27287Y25215D01*
X28313Y25215D02*
X39987Y25215D01*
X41013Y25215D02*
X60019Y25215D01*
X61131Y25215D02*
X72719Y25215D01*
X73831Y25215D02*
X98600Y25215D01*
X0400Y25264D02*
X27382Y25264D01*
X28218Y25264D02*
X40082Y25264D01*
X40918Y25264D02*
X60109Y25264D01*
X61041Y25264D02*
X72809Y25264D01*
X73741Y25264D02*
X98600Y25264D01*
X0400Y25314D02*
X27498Y25314D01*
X28102Y25314D02*
X40198Y25314D01*
X40802Y25314D02*
X60204Y25314D01*
X60946Y25314D02*
X72904Y25314D01*
X73646Y25314D02*
X98600Y25314D01*
X0400Y25363D02*
X60372Y25363D01*
X60778Y25363D02*
X73072Y25363D01*
X73478Y25363D02*
X98600Y25363D01*
X0400Y25413D02*
X98600Y25413D01*
X0400Y25462D02*
X98600Y25462D01*
X0400Y25512D02*
X98600Y25512D01*
X0400Y25561D02*
X98600Y25561D01*
X0400Y25611D02*
X98600Y25611D01*
X0400Y25660D02*
X98600Y25660D01*
X0400Y25710D02*
X98600Y25710D01*
X0400Y25759D02*
X98600Y25759D01*
X0400Y25809D02*
X98600Y25809D01*
X0400Y25858D02*
X98600Y25858D01*
X0400Y25908D02*
X98600Y25908D01*
X0400Y25957D02*
X98600Y25957D01*
X0400Y26007D02*
X98600Y26007D01*
X0400Y26057D02*
X98600Y26057D01*
X0400Y26106D02*
X98600Y26106D01*
X0400Y26156D02*
X98600Y26156D01*
X0400Y26205D02*
X98600Y26205D01*
X0400Y26255D02*
X98600Y26255D01*
X0400Y26304D02*
X98600Y26304D01*
X0400Y26354D02*
X98600Y26354D01*
X0400Y26403D02*
X98600Y26403D01*
X0400Y26453D02*
X98600Y26453D01*
X0400Y26502D02*
X98600Y26502D01*
X0400Y26552D02*
X98600Y26552D01*
X0400Y26601D02*
X98600Y26601D01*
X0400Y26651D02*
X98600Y26651D01*
X0400Y26700D02*
X98600Y26700D01*
X0400Y26750D02*
X98600Y26750D01*
X0400Y26799D02*
X98600Y26799D01*
X0400Y26849D02*
X98600Y26849D01*
X0400Y26899D02*
X98600Y26899D01*
X0400Y26948D02*
X98600Y26948D01*
X0400Y26998D02*
X98600Y26998D01*
X0400Y27047D02*
X98600Y27047D01*
X0400Y27097D02*
X98600Y27097D01*
X0400Y27146D02*
X98600Y27146D01*
X0400Y27196D02*
X98600Y27196D01*
X0400Y27245D02*
X98600Y27245D01*
X0400Y27295D02*
X98600Y27295D01*
X0400Y27344D02*
X98600Y27344D01*
X0400Y27394D02*
X98600Y27394D01*
X0400Y27443D02*
X98600Y27443D01*
X0400Y27493D02*
X98600Y27493D01*
X0400Y27542D02*
X98600Y27542D01*
X0400Y27592D02*
X98600Y27592D01*
X0400Y27642D02*
X98600Y27642D01*
X0400Y27691D02*
X98600Y27691D01*
X0400Y27741D02*
X98600Y27741D01*
X0400Y27790D02*
X98600Y27790D01*
X0400Y27840D02*
X98600Y27840D01*
X0400Y27889D02*
X98600Y27889D01*
X0400Y27939D02*
X98600Y27939D01*
X0400Y27988D02*
X98600Y27988D01*
X0400Y28038D02*
X98600Y28038D01*
X0400Y28087D02*
X98600Y28087D01*
X0400Y28137D02*
X98600Y28137D01*
X0400Y28186D02*
X98600Y28186D01*
X0400Y28236D02*
X98600Y28236D01*
X0400Y28285D02*
X98600Y28285D01*
X0400Y28335D02*
X98600Y28335D01*
X0400Y28384D02*
X98600Y28384D01*
X0400Y28434D02*
X98600Y28434D01*
X0400Y28484D02*
X98600Y28484D01*
X0400Y28533D02*
X98600Y28533D01*
X0400Y28583D02*
X98600Y28583D01*
X0400Y28632D02*
X98600Y28632D01*
X0400Y28682D02*
X98600Y28682D01*
X0400Y28731D02*
X98600Y28731D01*
X0400Y28781D02*
X98600Y28781D01*
X0400Y28830D02*
X98600Y28830D01*
X0400Y28880D02*
X98600Y28880D01*
X0400Y28929D02*
X98600Y28929D01*
X0400Y28979D02*
X98600Y28979D01*
X0400Y29028D02*
X98600Y29028D01*
X0400Y29078D02*
X98600Y29078D01*
X0400Y29127D02*
X98600Y29127D01*
X0400Y29177D02*
X98600Y29177D01*
X0400Y29226D02*
X98600Y29226D01*
X0400Y29276D02*
X98600Y29276D01*
X0400Y29326D02*
X98600Y29326D01*
X0400Y29375D02*
X98600Y29375D01*
X0400Y29425D02*
X98600Y29425D01*
X0400Y29474D02*
X98600Y29474D01*
X0400Y29524D02*
X98600Y29524D01*
X0400Y29573D02*
X98600Y29573D01*
X0400Y29623D02*
X98600Y29623D01*
X0400Y29672D02*
X98600Y29672D01*
X0400Y29722D02*
X98600Y29722D01*
X0400Y29771D02*
X98600Y29771D01*
X0400Y29821D02*
X98600Y29821D01*
X0400Y29870D02*
X98600Y29870D01*
X0400Y29920D02*
X98600Y29920D01*
X0400Y29969D02*
X98600Y29969D01*
X0400Y30019D02*
X98600Y30019D01*
X0400Y30068D02*
X98600Y30068D01*
X0400Y30118D02*
X98600Y30118D01*
X0400Y30168D02*
X98600Y30168D01*
X0400Y30217D02*
X98600Y30217D01*
X0400Y30267D02*
X98600Y30267D01*
X0400Y30316D02*
X98600Y30316D01*
X0400Y30366D02*
X98600Y30366D01*
X0400Y30415D02*
X98600Y30415D01*
X0400Y30465D02*
X98600Y30465D01*
X0400Y30514D02*
X98600Y30514D01*
X0400Y30564D02*
X98600Y30564D01*
X0400Y30613D02*
X98600Y30613D01*
X0400Y30663D02*
X98600Y30663D01*
X0400Y30712D02*
X98600Y30712D01*
X0400Y30762D02*
X98600Y30762D01*
X0400Y30811D02*
X98600Y30811D01*
X0400Y30861D02*
X98600Y30861D01*
X0400Y30910D02*
X98600Y30910D01*
X0400Y30960D02*
X98600Y30960D01*
X0400Y31010D02*
X98600Y31010D01*
X0400Y31059D02*
X98600Y31059D01*
X0400Y31109D02*
X98600Y31109D01*
X0400Y31158D02*
X98600Y31158D01*
X0400Y31208D02*
X98600Y31208D01*
X0400Y31257D02*
X98600Y31257D01*
X0400Y31307D02*
X98600Y31307D01*
X0400Y31356D02*
X98600Y31356D01*
X0400Y31406D02*
X98600Y31406D01*
X0400Y31455D02*
X98600Y31455D01*
X0400Y31505D02*
X98600Y31505D01*
X0400Y31554D02*
X98600Y31554D01*
X0400Y31604D02*
X98600Y31604D01*
X0400Y31653D02*
X98600Y31653D01*
X0400Y31703D02*
X98600Y31703D01*
X0400Y31752D02*
X98600Y31752D01*
X0400Y31802D02*
X98600Y31802D01*
X0400Y31852D02*
X98600Y31852D01*
X0400Y31901D02*
X98600Y31901D01*
X0400Y31951D02*
X98600Y31951D01*
X0400Y32000D02*
X98600Y32000D01*
X0400Y32050D02*
X98600Y32050D01*
X0400Y32099D02*
X98600Y32099D01*
X0400Y32149D02*
X98600Y32149D01*
X0400Y32198D02*
X98600Y32198D01*
X0400Y32248D02*
X98600Y32248D01*
X0400Y32297D02*
X98600Y32297D01*
X0400Y32347D02*
X98600Y32347D01*
X0400Y32396D02*
X98600Y32396D01*
X0400Y32446D02*
X98600Y32446D01*
X0400Y32495D02*
X98600Y32495D01*
X0400Y32545D02*
X98600Y32545D01*
X0400Y32594D02*
X98600Y32594D01*
X0400Y32644D02*
X98600Y32644D01*
X0400Y32694D02*
X98600Y32694D01*
X0400Y32743D02*
X98600Y32743D01*
X0400Y32793D02*
X98600Y32793D01*
X0400Y32842D02*
X98600Y32842D01*
X0400Y32892D02*
X98600Y32892D01*
X0400Y32941D02*
X98600Y32941D01*
X0400Y32991D02*
X98600Y32991D01*
X0400Y33040D02*
X98600Y33040D01*
X0400Y33090D02*
X98600Y33090D01*
X0400Y33139D02*
X24192Y33139D01*
X24804Y33139D02*
X43496Y33139D01*
X44108Y33139D02*
X57068Y33139D01*
X57478Y33139D02*
X76372Y33139D01*
X76782Y33139D02*
X98600Y33139D01*
X0400Y33189D02*
X24078Y33189D01*
X24918Y33189D02*
X43382Y33189D01*
X44222Y33189D02*
X56901Y33189D01*
X57645Y33189D02*
X76205Y33189D01*
X76949Y33189D02*
X98600Y33189D01*
X0400Y33238D02*
X23984Y33238D01*
X25012Y33238D02*
X43288Y33238D01*
X44316Y33238D02*
X56806Y33238D01*
X57740Y33238D02*
X76110Y33238D01*
X77044Y33238D02*
X98600Y33238D01*
X0400Y33288D02*
X23914Y33288D01*
X25082Y33288D02*
X43218Y33288D01*
X44386Y33288D02*
X56717Y33288D01*
X57829Y33288D02*
X76021Y33288D01*
X77133Y33288D02*
X98600Y33288D01*
X0400Y33337D02*
X23858Y33337D01*
X25138Y33337D02*
X43162Y33337D01*
X44442Y33337D02*
X56661Y33337D01*
X57885Y33337D02*
X75965Y33337D01*
X77189Y33337D02*
X98600Y33337D01*
X0400Y33387D02*
X23802Y33387D01*
X25194Y33387D02*
X43106Y33387D01*
X44498Y33387D02*
X56605Y33387D01*
X57941Y33387D02*
X75909Y33387D01*
X77245Y33387D02*
X98600Y33387D01*
X0400Y33437D02*
X23757Y33437D01*
X25239Y33437D02*
X43061Y33437D01*
X44543Y33437D02*
X56549Y33437D01*
X57997Y33437D02*
X75853Y33437D01*
X77301Y33437D02*
X98600Y33437D01*
X0400Y33486D02*
X23723Y33486D01*
X25273Y33486D02*
X43027Y33486D01*
X44577Y33486D02*
X56515Y33486D01*
X58031Y33486D02*
X75819Y33486D01*
X77335Y33486D02*
X98600Y33486D01*
X0400Y33536D02*
X23689Y33536D01*
X25307Y33536D02*
X42993Y33536D01*
X44611Y33536D02*
X56481Y33536D01*
X58065Y33536D02*
X75785Y33536D01*
X77369Y33536D02*
X98600Y33536D01*
X0400Y33585D02*
X23655Y33585D01*
X25341Y33585D02*
X42959Y33585D01*
X44645Y33585D02*
X56447Y33585D01*
X58099Y33585D02*
X75751Y33585D01*
X77403Y33585D02*
X98600Y33585D01*
X0400Y33635D02*
X23630Y33635D01*
X25366Y33635D02*
X42934Y33635D01*
X44670Y33635D02*
X56415Y33635D01*
X58131Y33635D02*
X75719Y33635D01*
X77435Y33635D02*
X98600Y33635D01*
X0400Y33684D02*
X23611Y33684D01*
X25385Y33684D02*
X42915Y33684D01*
X44689Y33684D02*
X56396Y33684D01*
X58150Y33684D02*
X75700Y33684D01*
X77454Y33684D02*
X98600Y33684D01*
X0400Y33734D02*
X23593Y33734D01*
X25403Y33734D02*
X42897Y33734D01*
X44707Y33734D02*
X56377Y33734D01*
X58169Y33734D02*
X75681Y33734D01*
X77473Y33734D02*
X98600Y33734D01*
X0400Y33783D02*
X23574Y33783D01*
X25422Y33783D02*
X42878Y33783D01*
X44726Y33783D02*
X56358Y33783D01*
X58188Y33783D02*
X75662Y33783D01*
X77492Y33783D02*
X98600Y33783D01*
X0400Y33833D02*
X23558Y33833D01*
X25438Y33833D02*
X42862Y33833D01*
X44742Y33833D02*
X56340Y33833D01*
X58206Y33833D02*
X75644Y33833D01*
X77510Y33833D02*
X98600Y33833D01*
X0400Y33882D02*
X23552Y33882D01*
X25444Y33882D02*
X42856Y33882D01*
X44748Y33882D02*
X56330Y33882D01*
X58216Y33882D02*
X75634Y33882D01*
X77520Y33882D02*
X98600Y33882D01*
X0400Y33932D02*
X23546Y33932D01*
X25450Y33932D02*
X42850Y33932D01*
X44754Y33932D02*
X56324Y33932D01*
X58222Y33932D02*
X75628Y33932D01*
X77526Y33932D02*
X98600Y33932D01*
X0400Y33981D02*
X23540Y33981D01*
X25456Y33981D02*
X42844Y33981D01*
X44760Y33981D02*
X56318Y33981D01*
X58228Y33981D02*
X75622Y33981D01*
X77532Y33981D02*
X98600Y33981D01*
X0400Y34031D02*
X23534Y34031D01*
X25462Y34031D02*
X42838Y34031D01*
X44766Y34031D02*
X56312Y34031D01*
X58234Y34031D02*
X75616Y34031D01*
X77538Y34031D02*
X98600Y34031D01*
X0400Y34080D02*
X23535Y34080D01*
X25461Y34080D02*
X42839Y34080D01*
X44765Y34080D02*
X56307Y34080D01*
X58239Y34080D02*
X75611Y34080D01*
X77543Y34080D02*
X98600Y34080D01*
X0400Y34130D02*
X23541Y34130D01*
X25455Y34130D02*
X42845Y34130D01*
X44759Y34130D02*
X56313Y34130D01*
X58233Y34130D02*
X75617Y34130D01*
X77537Y34130D02*
X98600Y34130D01*
X0400Y34179D02*
X23547Y34179D01*
X25449Y34179D02*
X42851Y34179D01*
X44753Y34179D02*
X56319Y34179D01*
X58227Y34179D02*
X75623Y34179D01*
X77531Y34179D02*
X98600Y34179D01*
X0400Y34229D02*
X23553Y34229D01*
X25443Y34229D02*
X42857Y34229D01*
X44747Y34229D02*
X56325Y34229D01*
X58221Y34229D02*
X75629Y34229D01*
X77525Y34229D02*
X98600Y34229D01*
X0400Y34279D02*
X23559Y34279D01*
X25437Y34279D02*
X42863Y34279D01*
X44741Y34279D02*
X56331Y34279D01*
X58215Y34279D02*
X75635Y34279D01*
X77519Y34279D02*
X98600Y34279D01*
X0400Y34328D02*
X23577Y34328D01*
X25419Y34328D02*
X42881Y34328D01*
X44723Y34328D02*
X56342Y34328D01*
X58204Y34328D02*
X75646Y34328D01*
X77508Y34328D02*
X98600Y34328D01*
X0400Y34378D02*
X23595Y34378D01*
X25401Y34378D02*
X42899Y34378D01*
X44705Y34378D02*
X56361Y34378D01*
X58185Y34378D02*
X75665Y34378D01*
X77489Y34378D02*
X98600Y34378D01*
X0400Y34427D02*
X23614Y34427D01*
X25382Y34427D02*
X42918Y34427D01*
X44686Y34427D02*
X56380Y34427D01*
X58166Y34427D02*
X75684Y34427D01*
X77470Y34427D02*
X98600Y34427D01*
X0400Y34477D02*
X23633Y34477D01*
X25363Y34477D02*
X42937Y34477D01*
X44667Y34477D02*
X56398Y34477D01*
X58148Y34477D02*
X75702Y34477D01*
X77452Y34477D02*
X98600Y34477D01*
X0400Y34526D02*
X23660Y34526D01*
X25336Y34526D02*
X42964Y34526D01*
X44640Y34526D02*
X56417Y34526D01*
X58129Y34526D02*
X75721Y34526D01*
X77433Y34526D02*
X98600Y34526D01*
X0400Y34576D02*
X23694Y34576D01*
X25302Y34576D02*
X42998Y34576D01*
X44606Y34576D02*
X56451Y34576D01*
X58095Y34576D02*
X75755Y34576D01*
X77399Y34576D02*
X98600Y34576D01*
X0400Y34625D02*
X23728Y34625D01*
X25268Y34625D02*
X43032Y34625D01*
X44572Y34625D02*
X56486Y34625D01*
X58060Y34625D02*
X75790Y34625D01*
X77364Y34625D02*
X98600Y34625D01*
X0400Y34675D02*
X23762Y34675D01*
X25234Y34675D02*
X43066Y34675D01*
X44538Y34675D02*
X56520Y34675D01*
X58026Y34675D02*
X75824Y34675D01*
X77330Y34675D02*
X98600Y34675D01*
X0400Y34724D02*
X23810Y34724D01*
X25186Y34724D02*
X43114Y34724D01*
X44490Y34724D02*
X56557Y34724D01*
X57989Y34724D02*
X75861Y34724D01*
X77293Y34724D02*
X98600Y34724D01*
X0400Y34774D02*
X23866Y34774D01*
X25130Y34774D02*
X43170Y34774D01*
X44434Y34774D02*
X56613Y34774D01*
X57933Y34774D02*
X75917Y34774D01*
X77237Y34774D02*
X98600Y34774D01*
X0400Y34823D02*
X23922Y34823D01*
X25074Y34823D02*
X43226Y34823D01*
X44378Y34823D02*
X56669Y34823D01*
X57877Y34823D02*
X75973Y34823D01*
X77181Y34823D02*
X98600Y34823D01*
X0400Y34873D02*
X23998Y34873D01*
X24998Y34873D02*
X43302Y34873D01*
X44302Y34873D02*
X56725Y34873D01*
X57821Y34873D02*
X76029Y34873D01*
X77125Y34873D02*
X98600Y34873D01*
X0400Y34922D02*
X24092Y34922D01*
X24904Y34922D02*
X43396Y34922D01*
X44208Y34922D02*
X56819Y34922D01*
X57727Y34922D02*
X76123Y34922D01*
X77031Y34922D02*
X98600Y34922D01*
X0400Y34972D02*
X24221Y34972D01*
X24775Y34972D02*
X43525Y34972D01*
X44079Y34972D02*
X56914Y34972D01*
X57632Y34972D02*
X76218Y34972D01*
X76936Y34972D02*
X98600Y34972D01*
X0400Y35021D02*
X57096Y35021D01*
X57450Y35021D02*
X76400Y35021D01*
X76754Y35021D02*
X98600Y35021D01*
X0400Y35071D02*
X98600Y35071D01*
X0400Y35121D02*
X98600Y35121D01*
X0400Y35170D02*
X98600Y35170D01*
X0400Y35220D02*
X98600Y35220D01*
X0400Y35269D02*
X98600Y35269D01*
X0400Y35319D02*
X98600Y35319D01*
X0400Y35368D02*
X98600Y35368D01*
X0400Y35418D02*
X98600Y35418D01*
X0400Y35467D02*
X98600Y35467D01*
X0400Y35517D02*
X98600Y35517D01*
X0400Y35566D02*
X98600Y35566D01*
X0400Y35616D02*
X98600Y35616D01*
X0400Y35665D02*
X98600Y35665D01*
X0400Y35715D02*
X98600Y35715D01*
X0400Y35764D02*
X98600Y35764D01*
X0400Y35814D02*
X98600Y35814D01*
X0400Y35863D02*
X98600Y35863D01*
X0400Y35913D02*
X2914Y35913D01*
X3074Y35913D02*
X3276Y35913D01*
X3436Y35913D02*
X98600Y35913D01*
X0400Y35963D02*
X2774Y35963D01*
X3074Y35963D02*
X3276Y35963D01*
X3576Y35963D02*
X98600Y35963D01*
X0400Y36012D02*
X2679Y36012D01*
X3074Y36012D02*
X3276Y36012D01*
X3671Y36012D02*
X98600Y36012D01*
X0400Y36062D02*
X2599Y36062D01*
X3074Y36062D02*
X3276Y36062D01*
X3751Y36062D02*
X98600Y36062D01*
X0400Y36111D02*
X2543Y36111D01*
X3074Y36111D02*
X3276Y36111D01*
X3807Y36111D02*
X98600Y36111D01*
X0400Y36161D02*
X2487Y36161D01*
X3074Y36161D02*
X3276Y36161D01*
X3863Y36161D02*
X98600Y36161D01*
X0400Y36210D02*
X2435Y36210D01*
X3074Y36210D02*
X3276Y36210D01*
X3915Y36210D02*
X98600Y36210D01*
X0400Y36260D02*
X2401Y36260D01*
X3074Y36260D02*
X3276Y36260D01*
X3949Y36260D02*
X98600Y36260D01*
X0400Y36309D02*
X2367Y36309D01*
X3074Y36309D02*
X3276Y36309D01*
X3983Y36309D02*
X98600Y36309D01*
X0400Y36359D02*
X2333Y36359D01*
X3074Y36359D02*
X3276Y36359D01*
X4017Y36359D02*
X98600Y36359D01*
X0400Y36408D02*
X2303Y36408D01*
X3074Y36408D02*
X3276Y36408D01*
X4047Y36408D02*
X98600Y36408D01*
X0400Y36458D02*
X2284Y36458D01*
X3074Y36458D02*
X3276Y36458D01*
X4066Y36458D02*
X98600Y36458D01*
X0400Y36507D02*
X2265Y36507D01*
X3074Y36507D02*
X3276Y36507D01*
X4085Y36507D02*
X98600Y36507D01*
X0400Y36557D02*
X2246Y36557D01*
X3074Y36557D02*
X3276Y36557D01*
X4104Y36557D02*
X98600Y36557D01*
X0400Y36606D02*
X2227Y36606D01*
X3074Y36606D02*
X3276Y36606D01*
X4123Y36606D02*
X98600Y36606D01*
X0400Y36656D02*
X2219Y36656D01*
X3074Y36656D02*
X3276Y36656D01*
X4131Y36656D02*
X98600Y36656D01*
X0400Y36705D02*
X2213Y36705D01*
X3074Y36705D02*
X3276Y36705D01*
X4137Y36705D02*
X98600Y36705D01*
X0400Y36755D02*
X98600Y36755D01*
X0400Y36805D02*
X98600Y36805D01*
X0400Y36854D02*
X98600Y36854D01*
X0400Y36904D02*
X98600Y36904D01*
X0400Y36953D02*
X2208Y36953D01*
X3074Y36953D02*
X3276Y36953D01*
X4142Y36953D02*
X98600Y36953D01*
X0400Y37003D02*
X2214Y37003D01*
X3074Y37003D02*
X3276Y37003D01*
X4136Y37003D02*
X98600Y37003D01*
X0400Y37052D02*
X2220Y37052D01*
X3074Y37052D02*
X3276Y37052D01*
X4130Y37052D02*
X98600Y37052D01*
X0400Y37102D02*
X2231Y37102D01*
X3074Y37102D02*
X3276Y37102D01*
X4119Y37102D02*
X98600Y37102D01*
X0400Y37151D02*
X2249Y37151D01*
X3074Y37151D02*
X3276Y37151D01*
X4101Y37151D02*
X98600Y37151D01*
X0400Y37201D02*
X2268Y37201D01*
X3074Y37201D02*
X3276Y37201D01*
X4082Y37201D02*
X98600Y37201D01*
X0400Y37250D02*
X2287Y37250D01*
X3074Y37250D02*
X3276Y37250D01*
X4063Y37250D02*
X98600Y37250D01*
X0400Y37300D02*
X2306Y37300D01*
X3074Y37300D02*
X3276Y37300D01*
X4044Y37300D02*
X98600Y37300D01*
X0400Y37349D02*
X2338Y37349D01*
X3074Y37349D02*
X3276Y37349D01*
X4012Y37349D02*
X98600Y37349D01*
X0400Y37399D02*
X2372Y37399D01*
X3074Y37399D02*
X3276Y37399D01*
X3978Y37399D02*
X98600Y37399D01*
X0400Y37448D02*
X2407Y37448D01*
X3074Y37448D02*
X3276Y37448D01*
X3943Y37448D02*
X98600Y37448D01*
X0400Y37498D02*
X2441Y37498D01*
X3074Y37498D02*
X3276Y37498D01*
X3909Y37498D02*
X98600Y37498D01*
X0400Y37547D02*
X2496Y37547D01*
X3074Y37547D02*
X3276Y37547D01*
X3854Y37547D02*
X98600Y37547D01*
X0400Y37597D02*
X2552Y37597D01*
X3074Y37597D02*
X3276Y37597D01*
X3798Y37597D02*
X98600Y37597D01*
X0400Y37647D02*
X2608Y37647D01*
X3074Y37647D02*
X3276Y37647D01*
X3742Y37647D02*
X98600Y37647D01*
X0400Y37696D02*
X2695Y37696D01*
X3074Y37696D02*
X3276Y37696D01*
X3655Y37696D02*
X98600Y37696D01*
X0400Y37746D02*
X2789Y37746D01*
X3074Y37746D02*
X3276Y37746D01*
X3561Y37746D02*
X98600Y37746D01*
X0400Y37795D02*
X2947Y37795D01*
X3074Y37795D02*
X3276Y37795D01*
X3403Y37795D02*
X98600Y37795D01*
X0400Y37845D02*
X98600Y37845D01*
X0400Y37894D02*
X98600Y37894D01*
X0400Y37944D02*
X98600Y37944D01*
X0400Y37993D02*
X98600Y37993D01*
X0400Y38043D02*
X98600Y38043D01*
X0400Y38092D02*
X98600Y38092D01*
X0400Y38142D02*
X98600Y38142D01*
X0400Y38191D02*
X98600Y38191D01*
X0400Y38241D02*
X98600Y38241D01*
X0400Y38290D02*
X98600Y38290D01*
X0400Y38340D02*
X98600Y38340D01*
X0400Y38390D02*
X98600Y38390D01*
X0400Y38439D02*
X2297Y38439D01*
X4053Y38439D02*
X98600Y38439D01*
X0400Y38489D02*
X2240Y38489D01*
X4110Y38489D02*
X98600Y38489D01*
X0400Y38538D02*
X2211Y38538D01*
X4139Y38538D02*
X98600Y38538D01*
X0400Y38588D02*
X2198Y38588D01*
X4152Y38588D02*
X98600Y38588D01*
X0400Y38637D02*
X2196Y38637D01*
X4154Y38637D02*
X98600Y38637D01*
X0400Y38687D02*
X2196Y38687D01*
X4154Y38687D02*
X98600Y38687D01*
X0400Y38736D02*
X2196Y38736D01*
X4154Y38736D02*
X98600Y38736D01*
X0400Y38786D02*
X2196Y38786D01*
X4154Y38786D02*
X98600Y38786D01*
X0400Y38835D02*
X2196Y38835D01*
X4154Y38835D02*
X98600Y38835D01*
X0400Y38885D02*
X2196Y38885D01*
X4154Y38885D02*
X98600Y38885D01*
X0400Y38934D02*
X2196Y38934D01*
X4154Y38934D02*
X98600Y38934D01*
X0400Y38984D02*
X2196Y38984D01*
X4154Y38984D02*
X98600Y38984D01*
X0400Y39033D02*
X2196Y39033D01*
X4154Y39033D02*
X98600Y39033D01*
X0400Y39083D02*
X2196Y39083D01*
X4154Y39083D02*
X98600Y39083D01*
X0400Y39132D02*
X2196Y39132D01*
X4154Y39132D02*
X98600Y39132D01*
X0400Y39182D02*
X2196Y39182D01*
X4154Y39182D02*
X98600Y39182D01*
X0400Y39232D02*
X2196Y39232D01*
X4154Y39232D02*
X98600Y39232D01*
X0400Y39281D02*
X2196Y39281D01*
X4154Y39281D02*
X98600Y39281D01*
X0400Y39331D02*
X2196Y39331D01*
X4154Y39331D02*
X98600Y39331D01*
X0400Y39380D02*
X2196Y39380D01*
X4154Y39380D02*
X98600Y39380D01*
X0400Y39430D02*
X2196Y39430D01*
X4154Y39430D02*
X98600Y39430D01*
X0400Y39479D02*
X2196Y39479D01*
X4154Y39479D02*
X98600Y39479D01*
X0400Y39529D02*
X2196Y39529D01*
X4154Y39529D02*
X98600Y39529D01*
X0400Y39578D02*
X2196Y39578D01*
X4154Y39578D02*
X98600Y39578D01*
X0400Y39628D02*
X2196Y39628D01*
X4154Y39628D02*
X98600Y39628D01*
X0400Y39677D02*
X2196Y39677D01*
X4154Y39677D02*
X98600Y39677D01*
X0400Y39727D02*
X2196Y39727D01*
X4154Y39727D02*
X98600Y39727D01*
X0400Y39776D02*
X2196Y39776D01*
X4154Y39776D02*
X98600Y39776D01*
X0400Y39826D02*
X2196Y39826D01*
X4154Y39826D02*
X98600Y39826D01*
X0400Y39875D02*
X2196Y39875D01*
X4154Y39875D02*
X98600Y39875D01*
X0400Y39925D02*
X2196Y39925D01*
X4154Y39925D02*
X98600Y39925D01*
X0400Y39974D02*
X2196Y39974D01*
X4154Y39974D02*
X98600Y39974D01*
X0400Y40024D02*
X2196Y40024D01*
X4154Y40024D02*
X98600Y40024D01*
X0400Y40074D02*
X2196Y40074D01*
X4154Y40074D02*
X98600Y40074D01*
X0400Y40123D02*
X2196Y40123D01*
X4154Y40123D02*
X98600Y40123D01*
X0400Y40173D02*
X2196Y40173D01*
X4154Y40173D02*
X98600Y40173D01*
X0400Y40222D02*
X2204Y40222D01*
X4146Y40222D02*
X5457Y40222D01*
X7110Y40222D02*
X98600Y40222D01*
X0400Y40272D02*
X2226Y40272D01*
X4124Y40272D02*
X5390Y40272D01*
X7177Y40272D02*
X98600Y40272D01*
X0400Y40321D02*
X2269Y40321D01*
X4081Y40321D02*
X5357Y40321D01*
X7209Y40321D02*
X98600Y40321D01*
X0400Y40371D02*
X5342Y40371D01*
X7225Y40371D02*
X98600Y40371D01*
X0400Y40420D02*
X5338Y40420D01*
X7228Y40420D02*
X98600Y40420D01*
X0400Y40470D02*
X5338Y40470D01*
X7228Y40470D02*
X98600Y40470D01*
X0400Y40519D02*
X5338Y40519D01*
X7228Y40519D02*
X98600Y40519D01*
X0400Y40569D02*
X5338Y40569D01*
X7228Y40569D02*
X98600Y40569D01*
X0400Y40618D02*
X5338Y40618D01*
X7228Y40618D02*
X98600Y40618D01*
X0400Y40668D02*
X5338Y40668D01*
X7228Y40668D02*
X98600Y40668D01*
X0400Y40717D02*
X5338Y40717D01*
X7228Y40717D02*
X98600Y40717D01*
X0400Y40767D02*
X5338Y40767D01*
X7228Y40767D02*
X98600Y40767D01*
X0400Y40816D02*
X5338Y40816D01*
X7228Y40816D02*
X98600Y40816D01*
X0400Y40866D02*
X5338Y40866D01*
X7228Y40866D02*
X98600Y40866D01*
X0400Y40916D02*
X5338Y40916D01*
X7228Y40916D02*
X76673Y40916D01*
X78797Y40916D02*
X82627Y40916D01*
X83003Y40916D02*
X98600Y40916D01*
X0400Y40965D02*
X5338Y40965D01*
X7228Y40965D02*
X76607Y40965D01*
X78863Y40965D02*
X79886Y40965D01*
X80075Y40965D02*
X80475Y40965D01*
X80664Y40965D02*
X82426Y40965D01*
X83204Y40965D02*
X98600Y40965D01*
X0400Y41015D02*
X5338Y41015D01*
X7228Y41015D02*
X76575Y41015D01*
X78895Y41015D02*
X79776Y41015D01*
X80075Y41015D02*
X80475Y41015D01*
X80774Y41015D02*
X82316Y41015D01*
X83314Y41015D02*
X98600Y41015D01*
X0400Y41064D02*
X5338Y41064D01*
X7228Y41064D02*
X76559Y41064D01*
X78911Y41064D02*
X79682Y41064D01*
X80075Y41064D02*
X80475Y41064D01*
X80868Y41064D02*
X82222Y41064D01*
X83408Y41064D02*
X98600Y41064D01*
X0400Y41114D02*
X5338Y41114D01*
X7228Y41114D02*
X76556Y41114D01*
X78914Y41114D02*
X79594Y41114D01*
X80075Y41114D02*
X80475Y41114D01*
X80956Y41114D02*
X82134Y41114D01*
X83496Y41114D02*
X98600Y41114D01*
X0400Y41163D02*
X5338Y41163D01*
X7228Y41163D02*
X76556Y41163D01*
X78914Y41163D02*
X79539Y41163D01*
X80075Y41163D02*
X80475Y41163D01*
X81011Y41163D02*
X82079Y41163D01*
X83551Y41163D02*
X98600Y41163D01*
X0400Y41213D02*
X5338Y41213D01*
X7228Y41213D02*
X76556Y41213D01*
X78914Y41213D02*
X79483Y41213D01*
X80075Y41213D02*
X80475Y41213D01*
X81067Y41213D02*
X82023Y41213D01*
X83607Y41213D02*
X98600Y41213D01*
X0400Y41262D02*
X5338Y41262D01*
X7228Y41262D02*
X76556Y41262D01*
X78914Y41262D02*
X79427Y41262D01*
X80075Y41262D02*
X80475Y41262D01*
X81123Y41262D02*
X81967Y41262D01*
X83663Y41262D02*
X98600Y41262D01*
X0400Y41312D02*
X5338Y41312D01*
X7228Y41312D02*
X76556Y41312D01*
X78914Y41312D02*
X79379Y41312D01*
X80075Y41312D02*
X80475Y41312D01*
X81171Y41312D02*
X81919Y41312D01*
X83711Y41312D02*
X98600Y41312D01*
X0400Y41361D02*
X5338Y41361D01*
X7228Y41361D02*
X76556Y41361D01*
X78914Y41361D02*
X79345Y41361D01*
X80075Y41361D02*
X80475Y41361D01*
X81205Y41361D02*
X81885Y41361D01*
X83745Y41361D02*
X98600Y41361D01*
X0400Y41411D02*
X5338Y41411D01*
X7228Y41411D02*
X76556Y41411D01*
X78914Y41411D02*
X79311Y41411D01*
X80075Y41411D02*
X80475Y41411D01*
X81239Y41411D02*
X81851Y41411D01*
X83779Y41411D02*
X98600Y41411D01*
X0400Y41460D02*
X5338Y41460D01*
X7228Y41460D02*
X76556Y41460D01*
X78914Y41460D02*
X79277Y41460D01*
X80075Y41460D02*
X80475Y41460D01*
X81273Y41460D02*
X81817Y41460D01*
X83813Y41460D02*
X98600Y41460D01*
X0400Y41510D02*
X5338Y41510D01*
X7228Y41510D02*
X76556Y41510D01*
X78914Y41510D02*
X79242Y41510D01*
X80075Y41510D02*
X80475Y41510D01*
X81308Y41510D02*
X81782Y41510D01*
X83848Y41510D02*
X98600Y41510D01*
X0400Y41559D02*
X5338Y41559D01*
X7228Y41559D02*
X76556Y41559D01*
X78914Y41559D02*
X79218Y41559D01*
X80075Y41559D02*
X80475Y41559D01*
X81332Y41559D02*
X81758Y41559D01*
X83872Y41559D02*
X98600Y41559D01*
X0400Y41609D02*
X5338Y41609D01*
X7228Y41609D02*
X76556Y41609D01*
X78914Y41609D02*
X79200Y41609D01*
X80075Y41609D02*
X80475Y41609D01*
X81350Y41609D02*
X81740Y41609D01*
X83890Y41609D02*
X98600Y41609D01*
X0400Y41658D02*
X5338Y41658D01*
X7228Y41658D02*
X76556Y41658D01*
X78914Y41658D02*
X79181Y41658D01*
X80075Y41658D02*
X80475Y41658D01*
X81369Y41658D02*
X81721Y41658D01*
X83909Y41658D02*
X98600Y41658D01*
X0400Y41708D02*
X5338Y41708D01*
X7228Y41708D02*
X76556Y41708D01*
X78914Y41708D02*
X79162Y41708D01*
X80075Y41708D02*
X80475Y41708D01*
X81388Y41708D02*
X81702Y41708D01*
X83928Y41708D02*
X98600Y41708D01*
X0400Y41758D02*
X5338Y41758D01*
X7228Y41758D02*
X76556Y41758D01*
X78914Y41758D02*
X79143Y41758D01*
X80075Y41758D02*
X80475Y41758D01*
X81407Y41758D02*
X81683Y41758D01*
X83947Y41758D02*
X98600Y41758D01*
X0400Y41807D02*
X5338Y41807D01*
X7228Y41807D02*
X76556Y41807D01*
X78914Y41807D02*
X79128Y41807D01*
X80075Y41807D02*
X80475Y41807D01*
X81422Y41807D02*
X81668Y41807D01*
X83962Y41807D02*
X98600Y41807D01*
X0400Y41857D02*
X5338Y41857D01*
X7228Y41857D02*
X76556Y41857D01*
X78914Y41857D02*
X79122Y41857D01*
X80075Y41857D02*
X80475Y41857D01*
X81428Y41857D02*
X81662Y41857D01*
X83968Y41857D02*
X98600Y41857D01*
X0400Y41906D02*
X5338Y41906D01*
X7228Y41906D02*
X76556Y41906D01*
X78914Y41906D02*
X81656Y41906D01*
X83974Y41906D02*
X98600Y41906D01*
X0400Y41956D02*
X5338Y41956D01*
X7228Y41956D02*
X76556Y41956D01*
X78914Y41956D02*
X81650Y41956D01*
X83980Y41956D02*
X98600Y41956D01*
X0400Y42005D02*
X5338Y42005D01*
X7228Y42005D02*
X76556Y42005D01*
X78914Y42005D02*
X81644Y42005D01*
X83986Y42005D02*
X98600Y42005D01*
X0400Y42055D02*
X5338Y42055D01*
X7228Y42055D02*
X76556Y42055D01*
X78914Y42055D02*
X81638Y42055D01*
X83992Y42055D02*
X98600Y42055D01*
X0400Y42104D02*
X5338Y42104D01*
X7228Y42104D02*
X76556Y42104D01*
X78914Y42104D02*
X81639Y42104D01*
X83991Y42104D02*
X98600Y42104D01*
X0400Y42154D02*
X5338Y42154D01*
X7228Y42154D02*
X76556Y42154D01*
X78914Y42154D02*
X81645Y42154D01*
X83985Y42154D02*
X98600Y42154D01*
X0400Y42203D02*
X5338Y42203D01*
X7228Y42203D02*
X76556Y42203D01*
X78914Y42203D02*
X81651Y42203D01*
X83979Y42203D02*
X98600Y42203D01*
X0400Y42253D02*
X5338Y42253D01*
X7228Y42253D02*
X76556Y42253D01*
X78914Y42253D02*
X81657Y42253D01*
X83973Y42253D02*
X98600Y42253D01*
X0400Y42302D02*
X5338Y42302D01*
X7228Y42302D02*
X76556Y42302D01*
X78914Y42302D02*
X79123Y42302D01*
X80075Y42302D02*
X80475Y42302D01*
X81427Y42302D02*
X81663Y42302D01*
X83967Y42302D02*
X98600Y42302D01*
X0400Y42352D02*
X5338Y42352D01*
X7228Y42352D02*
X76556Y42352D01*
X78914Y42352D02*
X79129Y42352D01*
X80075Y42352D02*
X80475Y42352D01*
X81421Y42352D02*
X81669Y42352D01*
X83961Y42352D02*
X98600Y42352D01*
X0400Y42401D02*
X5338Y42401D01*
X7228Y42401D02*
X76556Y42401D01*
X78914Y42401D02*
X79147Y42401D01*
X80075Y42401D02*
X80475Y42401D01*
X81403Y42401D02*
X81687Y42401D01*
X83943Y42401D02*
X98600Y42401D01*
X0400Y42451D02*
X5338Y42451D01*
X7228Y42451D02*
X76556Y42451D01*
X78914Y42451D02*
X79165Y42451D01*
X80075Y42451D02*
X80475Y42451D01*
X81385Y42451D02*
X81705Y42451D01*
X83925Y42451D02*
X98600Y42451D01*
X0400Y42501D02*
X5338Y42501D01*
X7228Y42501D02*
X76556Y42501D01*
X78914Y42501D02*
X79184Y42501D01*
X80075Y42501D02*
X80475Y42501D01*
X81366Y42501D02*
X81724Y42501D01*
X83906Y42501D02*
X98600Y42501D01*
X0400Y42550D02*
X5338Y42550D01*
X7228Y42550D02*
X76556Y42550D01*
X78914Y42550D02*
X79203Y42550D01*
X80075Y42550D02*
X80475Y42550D01*
X81347Y42550D02*
X81743Y42550D01*
X83887Y42550D02*
X98600Y42550D01*
X0400Y42600D02*
X5338Y42600D01*
X7228Y42600D02*
X76556Y42600D01*
X78914Y42600D02*
X79222Y42600D01*
X80075Y42600D02*
X80475Y42600D01*
X81328Y42600D02*
X81762Y42600D01*
X83868Y42600D02*
X98600Y42600D01*
X0400Y42649D02*
X5338Y42649D01*
X7228Y42649D02*
X76556Y42649D01*
X78914Y42649D02*
X79249Y42649D01*
X80075Y42649D02*
X80475Y42649D01*
X81301Y42649D02*
X81789Y42649D01*
X83841Y42649D02*
X98600Y42649D01*
X0400Y42699D02*
X5338Y42699D01*
X7228Y42699D02*
X76556Y42699D01*
X78914Y42699D02*
X79283Y42699D01*
X80075Y42699D02*
X80475Y42699D01*
X81267Y42699D02*
X81823Y42699D01*
X83807Y42699D02*
X98600Y42699D01*
X0400Y42748D02*
X5338Y42748D01*
X7228Y42748D02*
X76556Y42748D01*
X78914Y42748D02*
X79317Y42748D01*
X80075Y42748D02*
X80475Y42748D01*
X81233Y42748D02*
X81857Y42748D01*
X83773Y42748D02*
X98600Y42748D01*
X0400Y42798D02*
X5338Y42798D01*
X7228Y42798D02*
X76556Y42798D01*
X78914Y42798D02*
X79351Y42798D01*
X80075Y42798D02*
X80475Y42798D01*
X81199Y42798D02*
X81891Y42798D01*
X83739Y42798D02*
X98600Y42798D01*
X0400Y42847D02*
X5338Y42847D01*
X7228Y42847D02*
X76556Y42847D01*
X78914Y42847D02*
X79385Y42847D01*
X80075Y42847D02*
X80475Y42847D01*
X81165Y42847D02*
X81925Y42847D01*
X83705Y42847D02*
X98600Y42847D01*
X0400Y42897D02*
X5338Y42897D01*
X7228Y42897D02*
X76556Y42897D01*
X78914Y42897D02*
X79437Y42897D01*
X80075Y42897D02*
X80475Y42897D01*
X81113Y42897D02*
X81977Y42897D01*
X83653Y42897D02*
X98600Y42897D01*
X0400Y42946D02*
X5338Y42946D01*
X7228Y42946D02*
X76556Y42946D01*
X78914Y42946D02*
X79493Y42946D01*
X80075Y42946D02*
X80475Y42946D01*
X81057Y42946D02*
X82033Y42946D01*
X83597Y42946D02*
X98600Y42946D01*
X0400Y42996D02*
X5345Y42996D01*
X7222Y42996D02*
X76556Y42996D01*
X78914Y42996D02*
X79549Y42996D01*
X80075Y42996D02*
X80475Y42996D01*
X81001Y42996D02*
X82089Y42996D01*
X83541Y42996D02*
X98600Y42996D01*
X0400Y43045D02*
X5364Y43045D01*
X7202Y43045D02*
X76556Y43045D01*
X78914Y43045D02*
X79605Y43045D01*
X80075Y43045D02*
X80475Y43045D01*
X80945Y43045D02*
X82145Y43045D01*
X83485Y43045D02*
X98600Y43045D01*
X0400Y43095D02*
X5403Y43095D01*
X7163Y43095D02*
X76561Y43095D01*
X78909Y43095D02*
X79699Y43095D01*
X80075Y43095D02*
X80475Y43095D01*
X80851Y43095D02*
X82239Y43095D01*
X83391Y43095D02*
X98600Y43095D01*
X0400Y43144D02*
X5498Y43144D01*
X7069Y43144D02*
X76579Y43144D01*
X78891Y43144D02*
X79793Y43144D01*
X80075Y43144D02*
X80475Y43144D01*
X80757Y43144D02*
X82333Y43144D01*
X83297Y43144D02*
X98600Y43144D01*
X0400Y43194D02*
X76615Y43194D01*
X78855Y43194D02*
X79922Y43194D01*
X80075Y43194D02*
X80475Y43194D01*
X80628Y43194D02*
X82462Y43194D01*
X83168Y43194D02*
X98600Y43194D01*
X0400Y43243D02*
X76694Y43243D01*
X78776Y43243D02*
X82663Y43243D01*
X82967Y43243D02*
X98600Y43243D01*
X0400Y43293D02*
X98600Y43293D01*
X0400Y43343D02*
X98600Y43343D01*
X0400Y43392D02*
X98600Y43392D01*
X0400Y43442D02*
X2619Y43442D01*
X3036Y43442D02*
X3214Y43442D01*
X3631Y43442D02*
X48994Y43442D01*
X49411Y43442D02*
X49589Y43442D01*
X50006Y43442D02*
X95369Y43442D01*
X95786Y43442D02*
X95964Y43442D01*
X96381Y43442D02*
X98600Y43442D01*
X0400Y43491D02*
X2445Y43491D01*
X3036Y43491D02*
X3214Y43491D01*
X3805Y43491D02*
X48820Y43491D01*
X49411Y43491D02*
X49589Y43491D01*
X50180Y43491D02*
X95195Y43491D01*
X95786Y43491D02*
X95964Y43491D01*
X96555Y43491D02*
X98600Y43491D01*
X0400Y43541D02*
X2303Y43541D01*
X3036Y43541D02*
X3214Y43541D01*
X3947Y43541D02*
X48678Y43541D01*
X49411Y43541D02*
X49589Y43541D01*
X50322Y43541D02*
X95053Y43541D01*
X95786Y43541D02*
X95964Y43541D01*
X96697Y43541D02*
X98600Y43541D01*
X0400Y43590D02*
X2162Y43590D01*
X3036Y43590D02*
X3214Y43590D01*
X4088Y43590D02*
X48537Y43590D01*
X49411Y43590D02*
X49589Y43590D01*
X50463Y43590D02*
X94912Y43590D01*
X95786Y43590D02*
X95964Y43590D01*
X96838Y43590D02*
X98600Y43590D01*
X0400Y43640D02*
X2031Y43640D01*
X3036Y43640D02*
X3214Y43640D01*
X4219Y43640D02*
X48406Y43640D01*
X49411Y43640D02*
X49589Y43640D01*
X50594Y43640D02*
X94781Y43640D01*
X95786Y43640D02*
X95964Y43640D01*
X96969Y43640D02*
X98600Y43640D01*
X0400Y43689D02*
X1952Y43689D01*
X3036Y43689D02*
X3214Y43689D01*
X4298Y43689D02*
X48327Y43689D01*
X49411Y43689D02*
X49589Y43689D01*
X50673Y43689D02*
X94702Y43689D01*
X95786Y43689D02*
X95964Y43689D01*
X97048Y43689D02*
X98600Y43689D01*
X0400Y43739D02*
X1873Y43739D01*
X3036Y43739D02*
X3214Y43739D01*
X4377Y43739D02*
X48248Y43739D01*
X49411Y43739D02*
X49589Y43739D01*
X50752Y43739D02*
X94623Y43739D01*
X95786Y43739D02*
X95964Y43739D01*
X97127Y43739D02*
X98600Y43739D01*
X0400Y43788D02*
X1794Y43788D01*
X3036Y43788D02*
X3214Y43788D01*
X4456Y43788D02*
X48169Y43788D01*
X49411Y43788D02*
X49589Y43788D01*
X50831Y43788D02*
X94544Y43788D01*
X95786Y43788D02*
X95964Y43788D01*
X97206Y43788D02*
X98600Y43788D01*
X0400Y43838D02*
X1716Y43838D01*
X3036Y43838D02*
X3214Y43838D01*
X4534Y43838D02*
X48091Y43838D01*
X49411Y43838D02*
X49589Y43838D01*
X50909Y43838D02*
X94466Y43838D01*
X95786Y43838D02*
X95964Y43838D01*
X97284Y43838D02*
X98600Y43838D01*
X0400Y43887D02*
X1637Y43887D01*
X3036Y43887D02*
X3214Y43887D01*
X4613Y43887D02*
X48012Y43887D01*
X49411Y43887D02*
X49589Y43887D01*
X50988Y43887D02*
X94387Y43887D01*
X95786Y43887D02*
X95964Y43887D01*
X97363Y43887D02*
X98600Y43887D01*
X0400Y43937D02*
X1563Y43937D01*
X3036Y43937D02*
X3214Y43937D01*
X4687Y43937D02*
X47938Y43937D01*
X49411Y43937D02*
X49589Y43937D01*
X51062Y43937D02*
X94313Y43937D01*
X95786Y43937D02*
X95964Y43937D01*
X97437Y43937D02*
X98600Y43937D01*
X0400Y43986D02*
X1514Y43986D01*
X3036Y43986D02*
X3214Y43986D01*
X4736Y43986D02*
X47889Y43986D01*
X49411Y43986D02*
X49589Y43986D01*
X51111Y43986D02*
X94264Y43986D01*
X95786Y43986D02*
X95964Y43986D01*
X97486Y43986D02*
X98600Y43986D01*
X0400Y44036D02*
X1464Y44036D01*
X3036Y44036D02*
X3214Y44036D01*
X4786Y44036D02*
X47839Y44036D01*
X49411Y44036D02*
X49589Y44036D01*
X51161Y44036D02*
X94214Y44036D01*
X95786Y44036D02*
X95964Y44036D01*
X97536Y44036D02*
X98600Y44036D01*
X0400Y44085D02*
X1415Y44085D01*
X3036Y44085D02*
X3214Y44085D01*
X4835Y44085D02*
X47790Y44085D01*
X49411Y44085D02*
X49589Y44085D01*
X51210Y44085D02*
X94165Y44085D01*
X95786Y44085D02*
X95964Y44085D01*
X97585Y44085D02*
X98600Y44085D01*
X0400Y44135D02*
X1365Y44135D01*
X3036Y44135D02*
X3214Y44135D01*
X4885Y44135D02*
X47740Y44135D01*
X49411Y44135D02*
X49589Y44135D01*
X51260Y44135D02*
X94115Y44135D01*
X95786Y44135D02*
X95964Y44135D01*
X97635Y44135D02*
X98600Y44135D01*
X0400Y44185D02*
X1316Y44185D01*
X3036Y44185D02*
X3214Y44185D01*
X4934Y44185D02*
X47691Y44185D01*
X49411Y44185D02*
X49589Y44185D01*
X51309Y44185D02*
X94066Y44185D01*
X95786Y44185D02*
X95964Y44185D01*
X97684Y44185D02*
X98600Y44185D01*
X0400Y44234D02*
X1266Y44234D01*
X3036Y44234D02*
X3214Y44234D01*
X4984Y44234D02*
X47641Y44234D01*
X49411Y44234D02*
X49589Y44234D01*
X51359Y44234D02*
X94016Y44234D01*
X95786Y44234D02*
X95964Y44234D01*
X97734Y44234D02*
X98600Y44234D01*
X0400Y44284D02*
X1217Y44284D01*
X3036Y44284D02*
X3214Y44284D01*
X5033Y44284D02*
X47592Y44284D01*
X49411Y44284D02*
X49589Y44284D01*
X51408Y44284D02*
X93967Y44284D01*
X95786Y44284D02*
X95964Y44284D01*
X97783Y44284D02*
X98600Y44284D01*
X0400Y44333D02*
X1171Y44333D01*
X3036Y44333D02*
X3214Y44333D01*
X5079Y44333D02*
X47546Y44333D01*
X49411Y44333D02*
X49589Y44333D01*
X51454Y44333D02*
X93921Y44333D01*
X95786Y44333D02*
X95964Y44333D01*
X97829Y44333D02*
X98600Y44333D01*
X0400Y44383D02*
X1140Y44383D01*
X3036Y44383D02*
X3214Y44383D01*
X5110Y44383D02*
X47515Y44383D01*
X49411Y44383D02*
X49589Y44383D01*
X51485Y44383D02*
X93890Y44383D01*
X95786Y44383D02*
X95964Y44383D01*
X97860Y44383D02*
X98600Y44383D01*
X0400Y44432D02*
X1109Y44432D01*
X3036Y44432D02*
X3214Y44432D01*
X5141Y44432D02*
X47484Y44432D01*
X49411Y44432D02*
X49589Y44432D01*
X51516Y44432D02*
X93859Y44432D01*
X95786Y44432D02*
X95964Y44432D01*
X97891Y44432D02*
X98600Y44432D01*
X0400Y44482D02*
X1078Y44482D01*
X3036Y44482D02*
X3214Y44482D01*
X5172Y44482D02*
X47453Y44482D01*
X49411Y44482D02*
X49589Y44482D01*
X51547Y44482D02*
X93828Y44482D01*
X95786Y44482D02*
X95964Y44482D01*
X97922Y44482D02*
X98600Y44482D01*
X0400Y44531D02*
X1047Y44531D01*
X3036Y44531D02*
X3214Y44531D01*
X5203Y44531D02*
X47422Y44531D01*
X49411Y44531D02*
X49589Y44531D01*
X51578Y44531D02*
X93797Y44531D01*
X95786Y44531D02*
X95964Y44531D01*
X97953Y44531D02*
X98600Y44531D01*
X0400Y44581D02*
X1015Y44581D01*
X3036Y44581D02*
X3214Y44581D01*
X5235Y44581D02*
X47390Y44581D01*
X49411Y44581D02*
X49589Y44581D01*
X51610Y44581D02*
X93765Y44581D01*
X95786Y44581D02*
X95964Y44581D01*
X97985Y44581D02*
X98600Y44581D01*
X0400Y44630D02*
X0984Y44630D01*
X3036Y44630D02*
X3214Y44630D01*
X5266Y44630D02*
X47359Y44630D01*
X49411Y44630D02*
X49589Y44630D01*
X51641Y44630D02*
X93734Y44630D01*
X95786Y44630D02*
X95964Y44630D01*
X98016Y44630D02*
X98600Y44630D01*
X0400Y44680D02*
X0953Y44680D01*
X3036Y44680D02*
X3214Y44680D01*
X5297Y44680D02*
X47328Y44680D01*
X49411Y44680D02*
X49589Y44680D01*
X51672Y44680D02*
X93703Y44680D01*
X95786Y44680D02*
X95964Y44680D01*
X98047Y44680D02*
X98600Y44680D01*
X0400Y44729D02*
X0922Y44729D01*
X3036Y44729D02*
X3214Y44729D01*
X5328Y44729D02*
X47297Y44729D01*
X49411Y44729D02*
X49589Y44729D01*
X51703Y44729D02*
X93672Y44729D01*
X95786Y44729D02*
X95964Y44729D01*
X98078Y44729D02*
X98600Y44729D01*
X0400Y44779D02*
X0891Y44779D01*
X3036Y44779D02*
X3214Y44779D01*
X5359Y44779D02*
X47266Y44779D01*
X49411Y44779D02*
X49589Y44779D01*
X51734Y44779D02*
X93641Y44779D01*
X95786Y44779D02*
X95964Y44779D01*
X98109Y44779D02*
X98600Y44779D01*
X0400Y44828D02*
X0869Y44828D01*
X3036Y44828D02*
X3214Y44828D01*
X5381Y44828D02*
X47244Y44828D01*
X49411Y44828D02*
X49589Y44828D01*
X51756Y44828D02*
X93619Y44828D01*
X95786Y44828D02*
X95964Y44828D01*
X98131Y44828D02*
X98600Y44828D01*
X0400Y44878D02*
X0852Y44878D01*
X3036Y44878D02*
X3214Y44878D01*
X5398Y44878D02*
X47227Y44878D01*
X49411Y44878D02*
X49589Y44878D01*
X51773Y44878D02*
X93602Y44878D01*
X95786Y44878D02*
X95964Y44878D01*
X98148Y44878D02*
X98600Y44878D01*
X0400Y44927D02*
X0835Y44927D01*
X3036Y44927D02*
X3214Y44927D01*
X5415Y44927D02*
X47210Y44927D01*
X49411Y44927D02*
X49589Y44927D01*
X51790Y44927D02*
X93585Y44927D01*
X95786Y44927D02*
X95964Y44927D01*
X98165Y44927D02*
X98600Y44927D01*
X0400Y44977D02*
X0817Y44977D01*
X3036Y44977D02*
X3214Y44977D01*
X5433Y44977D02*
X47192Y44977D01*
X49411Y44977D02*
X49589Y44977D01*
X51808Y44977D02*
X93567Y44977D01*
X95786Y44977D02*
X95964Y44977D01*
X98183Y44977D02*
X98600Y44977D01*
X0400Y45027D02*
X0800Y45027D01*
X3036Y45027D02*
X3214Y45027D01*
X5450Y45027D02*
X47175Y45027D01*
X49411Y45027D02*
X49589Y45027D01*
X51825Y45027D02*
X93550Y45027D01*
X95786Y45027D02*
X95964Y45027D01*
X98200Y45027D02*
X98600Y45027D01*
X0400Y45076D02*
X0783Y45076D01*
X3036Y45076D02*
X3214Y45076D01*
X5467Y45076D02*
X47158Y45076D01*
X49411Y45076D02*
X49589Y45076D01*
X51842Y45076D02*
X93533Y45076D01*
X95786Y45076D02*
X95964Y45076D01*
X98217Y45076D02*
X98600Y45076D01*
X0400Y45126D02*
X0765Y45126D01*
X3036Y45126D02*
X3214Y45126D01*
X5485Y45126D02*
X47140Y45126D01*
X49411Y45126D02*
X49589Y45126D01*
X51860Y45126D02*
X93515Y45126D01*
X95786Y45126D02*
X95964Y45126D01*
X98235Y45126D02*
X98600Y45126D01*
X0400Y45175D02*
X0748Y45175D01*
X3036Y45175D02*
X3214Y45175D01*
X5502Y45175D02*
X47123Y45175D01*
X49411Y45175D02*
X49589Y45175D01*
X51877Y45175D02*
X93498Y45175D01*
X95786Y45175D02*
X95964Y45175D01*
X98252Y45175D02*
X98600Y45175D01*
X0400Y45225D02*
X0731Y45225D01*
X3036Y45225D02*
X3214Y45225D01*
X5519Y45225D02*
X47106Y45225D01*
X49411Y45225D02*
X49589Y45225D01*
X51894Y45225D02*
X93481Y45225D01*
X95786Y45225D02*
X95964Y45225D01*
X98269Y45225D02*
X98600Y45225D01*
X0400Y45274D02*
X0713Y45274D01*
X3036Y45274D02*
X3214Y45274D01*
X5537Y45274D02*
X47088Y45274D01*
X49411Y45274D02*
X49589Y45274D01*
X51912Y45274D02*
X93463Y45274D01*
X95786Y45274D02*
X95964Y45274D01*
X98287Y45274D02*
X98600Y45274D01*
X0400Y45324D02*
X0697Y45324D01*
X3036Y45324D02*
X3214Y45324D01*
X5553Y45324D02*
X47072Y45324D01*
X49411Y45324D02*
X49589Y45324D01*
X51928Y45324D02*
X93447Y45324D01*
X95786Y45324D02*
X95964Y45324D01*
X98303Y45324D02*
X98600Y45324D01*
X0400Y45373D02*
X0691Y45373D01*
X3036Y45373D02*
X3214Y45373D01*
X5559Y45373D02*
X47066Y45373D01*
X49411Y45373D02*
X49589Y45373D01*
X51934Y45373D02*
X93441Y45373D01*
X95786Y45373D02*
X95964Y45373D01*
X98309Y45373D02*
X98600Y45373D01*
X0400Y45423D02*
X0685Y45423D01*
X3036Y45423D02*
X3214Y45423D01*
X5565Y45423D02*
X47060Y45423D01*
X49411Y45423D02*
X49589Y45423D01*
X51940Y45423D02*
X93435Y45423D01*
X95786Y45423D02*
X95964Y45423D01*
X98315Y45423D02*
X98600Y45423D01*
X0400Y45472D02*
X0680Y45472D01*
X3036Y45472D02*
X3214Y45472D01*
X5570Y45472D02*
X47055Y45472D01*
X49411Y45472D02*
X49589Y45472D01*
X51945Y45472D02*
X93430Y45472D01*
X95786Y45472D02*
X95964Y45472D01*
X98320Y45472D02*
X98600Y45472D01*
X0400Y45522D02*
X0674Y45522D01*
X3036Y45522D02*
X3214Y45522D01*
X5576Y45522D02*
X47049Y45522D01*
X49411Y45522D02*
X49589Y45522D01*
X51951Y45522D02*
X93424Y45522D01*
X95786Y45522D02*
X95964Y45522D01*
X98326Y45522D02*
X98600Y45522D01*
X0400Y45571D02*
X0669Y45571D01*
X3036Y45571D02*
X3214Y45571D01*
X5581Y45571D02*
X47044Y45571D01*
X49411Y45571D02*
X49589Y45571D01*
X51956Y45571D02*
X93419Y45571D01*
X95786Y45571D02*
X95964Y45571D01*
X98331Y45571D02*
X98600Y45571D01*
X0400Y45621D02*
X0663Y45621D01*
X3036Y45621D02*
X3214Y45621D01*
X5587Y45621D02*
X47038Y45621D01*
X49411Y45621D02*
X49589Y45621D01*
X51962Y45621D02*
X93413Y45621D01*
X95786Y45621D02*
X95964Y45621D01*
X98337Y45621D02*
X98600Y45621D01*
X0400Y45670D02*
X0658Y45670D01*
X3036Y45670D02*
X3214Y45670D01*
X5592Y45670D02*
X47033Y45670D01*
X49411Y45670D02*
X49589Y45670D01*
X51967Y45670D02*
X93408Y45670D01*
X95786Y45670D02*
X95964Y45670D01*
X98342Y45670D02*
X98600Y45670D01*
X0400Y45720D02*
X0652Y45720D01*
X3036Y45720D02*
X3214Y45720D01*
X5598Y45720D02*
X47027Y45720D01*
X49411Y45720D02*
X49589Y45720D01*
X51973Y45720D02*
X93402Y45720D01*
X95786Y45720D02*
X95964Y45720D01*
X98348Y45720D02*
X98600Y45720D01*
X0400Y45769D02*
X0646Y45769D01*
X3036Y45769D02*
X3214Y45769D01*
X5604Y45769D02*
X47021Y45769D01*
X49411Y45769D02*
X49589Y45769D01*
X51979Y45769D02*
X93396Y45769D01*
X95786Y45769D02*
X95964Y45769D01*
X98354Y45769D02*
X98600Y45769D01*
X0400Y45819D02*
X98600Y45819D01*
X0400Y45869D02*
X98600Y45869D01*
X0400Y45918D02*
X98600Y45918D01*
X0400Y45968D02*
X0645Y45968D01*
X3036Y45968D02*
X3214Y45968D01*
X5605Y45968D02*
X47020Y45968D01*
X49411Y45968D02*
X49589Y45968D01*
X51980Y45968D02*
X93395Y45968D01*
X95786Y45968D02*
X95964Y45968D01*
X98355Y45968D02*
X98600Y45968D01*
X0400Y46017D02*
X0651Y46017D01*
X3036Y46017D02*
X3214Y46017D01*
X5599Y46017D02*
X47026Y46017D01*
X49411Y46017D02*
X49589Y46017D01*
X51974Y46017D02*
X93401Y46017D01*
X95786Y46017D02*
X95964Y46017D01*
X98349Y46017D02*
X98600Y46017D01*
X0400Y46067D02*
X0656Y46067D01*
X3036Y46067D02*
X3214Y46067D01*
X5594Y46067D02*
X47031Y46067D01*
X49411Y46067D02*
X49589Y46067D01*
X51969Y46067D02*
X93406Y46067D01*
X95786Y46067D02*
X95964Y46067D01*
X98344Y46067D02*
X98600Y46067D01*
X0400Y46116D02*
X0662Y46116D01*
X3036Y46116D02*
X3214Y46116D01*
X5588Y46116D02*
X47037Y46116D01*
X49411Y46116D02*
X49589Y46116D01*
X51963Y46116D02*
X93412Y46116D01*
X95786Y46116D02*
X95964Y46116D01*
X98338Y46116D02*
X98600Y46116D01*
X0400Y46166D02*
X0667Y46166D01*
X3036Y46166D02*
X3214Y46166D01*
X5583Y46166D02*
X47042Y46166D01*
X49411Y46166D02*
X49589Y46166D01*
X51958Y46166D02*
X93417Y46166D01*
X95786Y46166D02*
X95964Y46166D01*
X98333Y46166D02*
X98600Y46166D01*
X0400Y46215D02*
X0673Y46215D01*
X3036Y46215D02*
X3214Y46215D01*
X5577Y46215D02*
X47048Y46215D01*
X49411Y46215D02*
X49589Y46215D01*
X51952Y46215D02*
X93423Y46215D01*
X95786Y46215D02*
X95964Y46215D01*
X98327Y46215D02*
X98600Y46215D01*
X0400Y46265D02*
X0678Y46265D01*
X3036Y46265D02*
X3214Y46265D01*
X5572Y46265D02*
X47053Y46265D01*
X49411Y46265D02*
X49589Y46265D01*
X51947Y46265D02*
X93428Y46265D01*
X95786Y46265D02*
X95964Y46265D01*
X98322Y46265D02*
X98600Y46265D01*
X0400Y46314D02*
X0684Y46314D01*
X3036Y46314D02*
X3214Y46314D01*
X5566Y46314D02*
X47059Y46314D01*
X49411Y46314D02*
X49589Y46314D01*
X51941Y46314D02*
X93434Y46314D01*
X95786Y46314D02*
X95964Y46314D01*
X98316Y46314D02*
X98600Y46314D01*
X0400Y46364D02*
X0690Y46364D01*
X3036Y46364D02*
X3214Y46364D01*
X5560Y46364D02*
X47065Y46364D01*
X49411Y46364D02*
X49589Y46364D01*
X51935Y46364D02*
X93440Y46364D01*
X95786Y46364D02*
X95964Y46364D01*
X98310Y46364D02*
X98600Y46364D01*
X0400Y46413D02*
X0695Y46413D01*
X3036Y46413D02*
X3214Y46413D01*
X5555Y46413D02*
X47070Y46413D01*
X49411Y46413D02*
X49589Y46413D01*
X51930Y46413D02*
X93445Y46413D01*
X95786Y46413D02*
X95964Y46413D01*
X98305Y46413D02*
X98600Y46413D01*
X0400Y46463D02*
X0709Y46463D01*
X3036Y46463D02*
X3214Y46463D01*
X5541Y46463D02*
X8442Y46463D01*
X23278Y46463D02*
X39251Y46463D01*
X44356Y46463D02*
X47084Y46463D01*
X49411Y46463D02*
X49589Y46463D01*
X51916Y46463D02*
X93459Y46463D01*
X95786Y46463D02*
X95964Y46463D01*
X98291Y46463D02*
X98600Y46463D01*
X0400Y46512D02*
X0726Y46512D01*
X3036Y46512D02*
X3214Y46512D01*
X5524Y46512D02*
X8388Y46512D01*
X23332Y46512D02*
X39160Y46512D01*
X44447Y46512D02*
X47101Y46512D01*
X49411Y46512D02*
X49589Y46512D01*
X51899Y46512D02*
X93476Y46512D01*
X95786Y46512D02*
X95964Y46512D01*
X98274Y46512D02*
X98600Y46512D01*
X0400Y46562D02*
X0743Y46562D01*
X3036Y46562D02*
X3214Y46562D01*
X5507Y46562D02*
X8361Y46562D01*
X23359Y46562D02*
X39122Y46562D01*
X44485Y46562D02*
X47118Y46562D01*
X49411Y46562D02*
X49589Y46562D01*
X51882Y46562D02*
X93493Y46562D01*
X95786Y46562D02*
X95964Y46562D01*
X98257Y46562D02*
X98600Y46562D01*
X0400Y46611D02*
X0761Y46611D01*
X3036Y46611D02*
X3214Y46611D01*
X5489Y46611D02*
X8349Y46611D01*
X23371Y46611D02*
X39103Y46611D01*
X44504Y46611D02*
X47136Y46611D01*
X49411Y46611D02*
X49589Y46611D01*
X51864Y46611D02*
X93511Y46611D01*
X95786Y46611D02*
X95964Y46611D01*
X98239Y46611D02*
X98600Y46611D01*
X0400Y46661D02*
X0778Y46661D01*
X3036Y46661D02*
X3214Y46661D01*
X5472Y46661D02*
X8347Y46661D01*
X23373Y46661D02*
X39097Y46661D01*
X44510Y46661D02*
X47153Y46661D01*
X49411Y46661D02*
X49589Y46661D01*
X51847Y46661D02*
X93528Y46661D01*
X95786Y46661D02*
X95964Y46661D01*
X98222Y46661D02*
X98600Y46661D01*
X0400Y46711D02*
X0795Y46711D01*
X3036Y46711D02*
X3214Y46711D01*
X5455Y46711D02*
X8347Y46711D01*
X23373Y46711D02*
X39097Y46711D01*
X44510Y46711D02*
X47170Y46711D01*
X49411Y46711D02*
X49589Y46711D01*
X51830Y46711D02*
X93545Y46711D01*
X95786Y46711D02*
X95964Y46711D01*
X98205Y46711D02*
X98600Y46711D01*
X0400Y46760D02*
X0813Y46760D01*
X3036Y46760D02*
X3214Y46760D01*
X5437Y46760D02*
X8347Y46760D01*
X23373Y46760D02*
X39097Y46760D01*
X44510Y46760D02*
X47188Y46760D01*
X49411Y46760D02*
X49589Y46760D01*
X51812Y46760D02*
X93563Y46760D01*
X95786Y46760D02*
X95964Y46760D01*
X98187Y46760D02*
X98600Y46760D01*
X0400Y46810D02*
X0830Y46810D01*
X3036Y46810D02*
X3214Y46810D01*
X5420Y46810D02*
X8347Y46810D01*
X23373Y46810D02*
X39097Y46810D01*
X44510Y46810D02*
X47205Y46810D01*
X49411Y46810D02*
X49589Y46810D01*
X51795Y46810D02*
X93580Y46810D01*
X95786Y46810D02*
X95964Y46810D01*
X98170Y46810D02*
X98600Y46810D01*
X0400Y46859D02*
X0847Y46859D01*
X3036Y46859D02*
X3214Y46859D01*
X5403Y46859D02*
X8347Y46859D01*
X23373Y46859D02*
X39097Y46859D01*
X44510Y46859D02*
X47222Y46859D01*
X49411Y46859D02*
X49589Y46859D01*
X51778Y46859D02*
X93597Y46859D01*
X95786Y46859D02*
X95964Y46859D01*
X98153Y46859D02*
X98600Y46859D01*
X0400Y46909D02*
X0865Y46909D01*
X3036Y46909D02*
X3214Y46909D01*
X5385Y46909D02*
X8347Y46909D01*
X23373Y46909D02*
X39097Y46909D01*
X44510Y46909D02*
X47240Y46909D01*
X49411Y46909D02*
X49589Y46909D01*
X51760Y46909D02*
X93615Y46909D01*
X95786Y46909D02*
X95964Y46909D01*
X98135Y46909D02*
X98600Y46909D01*
X0400Y46958D02*
X0883Y46958D01*
X3036Y46958D02*
X3214Y46958D01*
X5367Y46958D02*
X8347Y46958D01*
X23373Y46958D02*
X39097Y46958D01*
X44510Y46958D02*
X47258Y46958D01*
X49411Y46958D02*
X49589Y46958D01*
X51742Y46958D02*
X93633Y46958D01*
X95786Y46958D02*
X95964Y46958D01*
X98117Y46958D02*
X98600Y46958D01*
X0400Y47008D02*
X0914Y47008D01*
X3036Y47008D02*
X3214Y47008D01*
X5336Y47008D02*
X8347Y47008D01*
X23373Y47008D02*
X39097Y47008D01*
X44510Y47008D02*
X47289Y47008D01*
X49411Y47008D02*
X49589Y47008D01*
X51711Y47008D02*
X93664Y47008D01*
X95786Y47008D02*
X95964Y47008D01*
X98086Y47008D02*
X98600Y47008D01*
X0400Y47057D02*
X0945Y47057D01*
X3036Y47057D02*
X3214Y47057D01*
X5305Y47057D02*
X8347Y47057D01*
X23373Y47057D02*
X39097Y47057D01*
X44510Y47057D02*
X47320Y47057D01*
X49411Y47057D02*
X49589Y47057D01*
X51680Y47057D02*
X93695Y47057D01*
X95786Y47057D02*
X95964Y47057D01*
X98055Y47057D02*
X98600Y47057D01*
X0400Y47107D02*
X0976Y47107D01*
X3036Y47107D02*
X3214Y47107D01*
X5274Y47107D02*
X8347Y47107D01*
X23373Y47107D02*
X39097Y47107D01*
X44510Y47107D02*
X47351Y47107D01*
X49411Y47107D02*
X49589Y47107D01*
X51649Y47107D02*
X93726Y47107D01*
X95786Y47107D02*
X95964Y47107D01*
X98024Y47107D02*
X98600Y47107D01*
X0400Y47156D02*
X1007Y47156D01*
X3036Y47156D02*
X3214Y47156D01*
X5243Y47156D02*
X8347Y47156D01*
X23373Y47156D02*
X39097Y47156D01*
X44510Y47156D02*
X47382Y47156D01*
X49411Y47156D02*
X49589Y47156D01*
X51618Y47156D02*
X93757Y47156D01*
X95786Y47156D02*
X95964Y47156D01*
X97993Y47156D02*
X98600Y47156D01*
X0400Y47206D02*
X1038Y47206D01*
X3036Y47206D02*
X3214Y47206D01*
X5212Y47206D02*
X8347Y47206D01*
X23373Y47206D02*
X39097Y47206D01*
X44510Y47206D02*
X47413Y47206D01*
X49411Y47206D02*
X49589Y47206D01*
X51587Y47206D02*
X93788Y47206D01*
X95786Y47206D02*
X95964Y47206D01*
X97962Y47206D02*
X98600Y47206D01*
X0400Y47255D02*
X1070Y47255D01*
X3036Y47255D02*
X3214Y47255D01*
X5180Y47255D02*
X8347Y47255D01*
X23373Y47255D02*
X39097Y47255D01*
X44510Y47255D02*
X47445Y47255D01*
X49411Y47255D02*
X49589Y47255D01*
X51555Y47255D02*
X93820Y47255D01*
X95786Y47255D02*
X95964Y47255D01*
X97930Y47255D02*
X98600Y47255D01*
X0400Y47305D02*
X1101Y47305D01*
X3036Y47305D02*
X3214Y47305D01*
X5149Y47305D02*
X8347Y47305D01*
X23373Y47305D02*
X39097Y47305D01*
X44510Y47305D02*
X47476Y47305D01*
X49411Y47305D02*
X49589Y47305D01*
X51524Y47305D02*
X93851Y47305D01*
X95786Y47305D02*
X95964Y47305D01*
X97899Y47305D02*
X98600Y47305D01*
X0400Y47354D02*
X1132Y47354D01*
X3036Y47354D02*
X3214Y47354D01*
X5118Y47354D02*
X8347Y47354D01*
X23373Y47354D02*
X39097Y47354D01*
X44510Y47354D02*
X47507Y47354D01*
X49411Y47354D02*
X49589Y47354D01*
X51493Y47354D02*
X93882Y47354D01*
X95786Y47354D02*
X95964Y47354D01*
X97868Y47354D02*
X98600Y47354D01*
X0400Y47404D02*
X1163Y47404D01*
X3036Y47404D02*
X3214Y47404D01*
X5087Y47404D02*
X8347Y47404D01*
X23373Y47404D02*
X39097Y47404D01*
X44510Y47404D02*
X47538Y47404D01*
X49411Y47404D02*
X49589Y47404D01*
X51462Y47404D02*
X93913Y47404D01*
X95786Y47404D02*
X95964Y47404D01*
X97837Y47404D02*
X98600Y47404D01*
X0400Y47453D02*
X1204Y47453D01*
X3036Y47453D02*
X3214Y47453D01*
X5046Y47453D02*
X8347Y47453D01*
X23373Y47453D02*
X39097Y47453D01*
X44510Y47453D02*
X47579Y47453D01*
X49411Y47453D02*
X49589Y47453D01*
X51421Y47453D02*
X93954Y47453D01*
X95786Y47453D02*
X95964Y47453D01*
X97796Y47453D02*
X98600Y47453D01*
X0400Y47503D02*
X1253Y47503D01*
X3036Y47503D02*
X3214Y47503D01*
X4997Y47503D02*
X8347Y47503D01*
X23373Y47503D02*
X39097Y47503D01*
X44510Y47503D02*
X47628Y47503D01*
X49411Y47503D02*
X49589Y47503D01*
X51372Y47503D02*
X94003Y47503D01*
X95786Y47503D02*
X95964Y47503D01*
X97747Y47503D02*
X98600Y47503D01*
X0400Y47553D02*
X1303Y47553D01*
X3036Y47553D02*
X3214Y47553D01*
X4947Y47553D02*
X8347Y47553D01*
X23373Y47553D02*
X39097Y47553D01*
X44510Y47553D02*
X47678Y47553D01*
X49411Y47553D02*
X49589Y47553D01*
X51322Y47553D02*
X94053Y47553D01*
X95786Y47553D02*
X95964Y47553D01*
X97697Y47553D02*
X98600Y47553D01*
X0400Y47602D02*
X1352Y47602D01*
X3036Y47602D02*
X3214Y47602D01*
X4898Y47602D02*
X8347Y47602D01*
X23373Y47602D02*
X39097Y47602D01*
X44510Y47602D02*
X47727Y47602D01*
X49411Y47602D02*
X49589Y47602D01*
X51273Y47602D02*
X94102Y47602D01*
X95786Y47602D02*
X95964Y47602D01*
X97648Y47602D02*
X98600Y47602D01*
X0400Y47652D02*
X1402Y47652D01*
X3036Y47652D02*
X3214Y47652D01*
X4848Y47652D02*
X8347Y47652D01*
X23373Y47652D02*
X39097Y47652D01*
X44510Y47652D02*
X47777Y47652D01*
X49411Y47652D02*
X49589Y47652D01*
X51223Y47652D02*
X94152Y47652D01*
X95786Y47652D02*
X95964Y47652D01*
X97598Y47652D02*
X98600Y47652D01*
X0400Y47701D02*
X1451Y47701D01*
X3036Y47701D02*
X3214Y47701D01*
X4799Y47701D02*
X8347Y47701D01*
X23373Y47701D02*
X39097Y47701D01*
X44510Y47701D02*
X47826Y47701D01*
X49411Y47701D02*
X49589Y47701D01*
X51174Y47701D02*
X94201Y47701D01*
X95786Y47701D02*
X95964Y47701D01*
X97549Y47701D02*
X98600Y47701D01*
X0400Y47751D02*
X1501Y47751D01*
X3036Y47751D02*
X3214Y47751D01*
X4749Y47751D02*
X8347Y47751D01*
X23373Y47751D02*
X39097Y47751D01*
X44510Y47751D02*
X47876Y47751D01*
X49411Y47751D02*
X49589Y47751D01*
X51124Y47751D02*
X94251Y47751D01*
X95786Y47751D02*
X95964Y47751D01*
X97499Y47751D02*
X98600Y47751D01*
X0400Y47800D02*
X1550Y47800D01*
X3036Y47800D02*
X3214Y47800D01*
X4700Y47800D02*
X8347Y47800D01*
X23373Y47800D02*
X39097Y47800D01*
X44510Y47800D02*
X47925Y47800D01*
X49411Y47800D02*
X49589Y47800D01*
X51075Y47800D02*
X94300Y47800D01*
X95786Y47800D02*
X95964Y47800D01*
X97450Y47800D02*
X98600Y47800D01*
X0400Y47850D02*
X1616Y47850D01*
X3036Y47850D02*
X3214Y47850D01*
X4634Y47850D02*
X8347Y47850D01*
X23373Y47850D02*
X39097Y47850D01*
X44510Y47850D02*
X47991Y47850D01*
X49411Y47850D02*
X49589Y47850D01*
X51009Y47850D02*
X94366Y47850D01*
X95786Y47850D02*
X95964Y47850D01*
X97384Y47850D02*
X98600Y47850D01*
X0400Y47899D02*
X1695Y47899D01*
X3036Y47899D02*
X3214Y47899D01*
X4555Y47899D02*
X8347Y47899D01*
X23373Y47899D02*
X39097Y47899D01*
X44510Y47899D02*
X48070Y47899D01*
X49411Y47899D02*
X49589Y47899D01*
X50930Y47899D02*
X94445Y47899D01*
X95786Y47899D02*
X95964Y47899D01*
X97305Y47899D02*
X98600Y47899D01*
X0400Y47949D02*
X1774Y47949D01*
X3036Y47949D02*
X3214Y47949D01*
X4476Y47949D02*
X8347Y47949D01*
X23373Y47949D02*
X39097Y47949D01*
X44510Y47949D02*
X48149Y47949D01*
X49411Y47949D02*
X49589Y47949D01*
X50851Y47949D02*
X94524Y47949D01*
X95786Y47949D02*
X95964Y47949D01*
X97226Y47949D02*
X98600Y47949D01*
X0400Y47998D02*
X1853Y47998D01*
X3036Y47998D02*
X3214Y47998D01*
X4397Y47998D02*
X8347Y47998D01*
X23373Y47998D02*
X39097Y47998D01*
X44510Y47998D02*
X48228Y47998D01*
X49411Y47998D02*
X49589Y47998D01*
X50772Y47998D02*
X94603Y47998D01*
X95786Y47998D02*
X95964Y47998D01*
X97147Y47998D02*
X98600Y47998D01*
X0400Y48048D02*
X1931Y48048D01*
X3036Y48048D02*
X3214Y48048D01*
X4319Y48048D02*
X8347Y48048D01*
X23373Y48048D02*
X39097Y48048D01*
X44510Y48048D02*
X48306Y48048D01*
X49411Y48048D02*
X49589Y48048D01*
X50694Y48048D02*
X94681Y48048D01*
X95786Y48048D02*
X95964Y48048D01*
X97069Y48048D02*
X98600Y48048D01*
X0400Y48097D02*
X2010Y48097D01*
X3036Y48097D02*
X3214Y48097D01*
X4240Y48097D02*
X8347Y48097D01*
X23373Y48097D02*
X39097Y48097D01*
X44510Y48097D02*
X48385Y48097D01*
X49411Y48097D02*
X49589Y48097D01*
X50615Y48097D02*
X94760Y48097D01*
X95786Y48097D02*
X95964Y48097D01*
X96990Y48097D02*
X98600Y48097D01*
X0400Y48147D02*
X2125Y48147D01*
X3036Y48147D02*
X3214Y48147D01*
X4125Y48147D02*
X8347Y48147D01*
X23373Y48147D02*
X39097Y48147D01*
X44510Y48147D02*
X48500Y48147D01*
X49411Y48147D02*
X49589Y48147D01*
X50500Y48147D02*
X94875Y48147D01*
X95786Y48147D02*
X95964Y48147D01*
X96875Y48147D02*
X98600Y48147D01*
X0400Y48196D02*
X2266Y48196D01*
X3036Y48196D02*
X3214Y48196D01*
X3984Y48196D02*
X8347Y48196D01*
X23373Y48196D02*
X39097Y48196D01*
X44510Y48196D02*
X48641Y48196D01*
X49411Y48196D02*
X49589Y48196D01*
X50359Y48196D02*
X95016Y48196D01*
X95786Y48196D02*
X95964Y48196D01*
X96734Y48196D02*
X98600Y48196D01*
X0400Y48246D02*
X2408Y48246D01*
X3036Y48246D02*
X3214Y48246D01*
X3842Y48246D02*
X8347Y48246D01*
X23373Y48246D02*
X39097Y48246D01*
X44510Y48246D02*
X48783Y48246D01*
X49411Y48246D02*
X49589Y48246D01*
X50217Y48246D02*
X95158Y48246D01*
X95786Y48246D02*
X95964Y48246D01*
X96592Y48246D02*
X98600Y48246D01*
X0400Y48296D02*
X2549Y48296D01*
X3036Y48296D02*
X3214Y48296D01*
X3701Y48296D02*
X8347Y48296D01*
X23373Y48296D02*
X39097Y48296D01*
X44510Y48296D02*
X48924Y48296D01*
X49411Y48296D02*
X49589Y48296D01*
X50076Y48296D02*
X95299Y48296D01*
X95786Y48296D02*
X95964Y48296D01*
X96451Y48296D02*
X98600Y48296D01*
X0400Y48345D02*
X2944Y48345D01*
X3036Y48345D02*
X3214Y48345D01*
X3306Y48345D02*
X8347Y48345D01*
X23373Y48345D02*
X39097Y48345D01*
X44510Y48345D02*
X49319Y48345D01*
X49411Y48345D02*
X49589Y48345D01*
X49681Y48345D02*
X95694Y48345D01*
X95786Y48345D02*
X95964Y48345D01*
X96056Y48345D02*
X98600Y48345D01*
X0400Y48395D02*
X8347Y48395D01*
X23373Y48395D02*
X39097Y48395D01*
X44510Y48395D02*
X98600Y48395D01*
X0400Y48444D02*
X8349Y48444D01*
X23371Y48444D02*
X39097Y48444D01*
X44509Y48444D02*
X98600Y48444D01*
X0400Y48494D02*
X8364Y48494D01*
X23355Y48494D02*
X39105Y48494D01*
X44502Y48494D02*
X98600Y48494D01*
X0400Y48543D02*
X8383Y48543D01*
X23337Y48543D02*
X39125Y48543D01*
X44482Y48543D02*
X98600Y48543D01*
X0400Y48593D02*
X8355Y48593D01*
X23365Y48593D02*
X39145Y48593D01*
X44462Y48593D02*
X98600Y48593D01*
%LNbottom copper_traces*%
D11*
X85225Y14600D02*
X82675Y14600D01*
X87100Y16475D02*
X85225Y14600D01*
D12*
X82660Y24130D03*
X69475Y16325D03*
X19750Y16925D03*
X4950Y17125D03*
X6450Y34100D03*
X88650Y8250D03*
X19750Y13125D03*
X47065Y36802D03*
D13*
X3125Y3125D03*
D12*
X93400Y1150D03*
X83910Y24760D03*
X42050Y16550D03*
X8975Y34200D03*
X8125Y14950D03*
X93850Y27550D03*
X17550Y7275D03*
X66075Y19725D03*
X9150Y7200D03*
X52350Y7150D03*
X14143Y28375D03*
X16575Y34150D03*
X14650Y1050D03*
X46000Y13600D03*
X78925Y4400D03*
X18713Y27333D03*
X82675Y14600D03*
X33125Y13250D03*
X22000Y9800D03*
X15450Y3950D03*
X24750Y8600D03*
X96925Y12050D03*
X12325Y3950D03*
D14*
X20257Y29600D03*
D12*
X18250Y1050D03*
D13*
X49500Y45875D03*
D12*
X84510Y23530D03*
X85075Y1000D03*
X44475Y0950D03*
X1200Y5675D03*
X97525Y5950D03*
X1175Y28325D03*
X43450Y11475D03*
X25750Y10950D03*
X83260Y23530D03*
X93475Y8850D03*
X12675Y45200D03*
X60050Y4675D03*
X51725Y19475D03*
X5250Y28075D03*
D14*
X45800Y29650D03*
D12*
X2925Y28325D03*
X1200Y8625D03*
X40125Y19875D03*
X26775Y36325D03*
X1200Y11425D03*
X87775Y19825D03*
X97750Y30600D03*
D13*
X95875Y3125D03*
D12*
X83525Y4750D03*
X74125Y3325D03*
X20257Y23150D03*
X71675Y14075D03*
X61800Y1075D03*
X93925Y11275D03*
X19525Y19850D03*
X57150Y1075D03*
X39325Y14350D03*
X10150Y11550D03*
X83910Y25360D03*
X21250Y6350D03*
X82660Y24760D03*
X89275Y1000D03*
X10650Y28375D03*
X40950Y0950D03*
X32075Y4650D03*
X90575Y27975D03*
X4150Y34100D03*
X62925Y13950D03*
X47675Y15400D03*
X97875Y33100D03*
X87100Y16475D03*
X91275Y33150D03*
X97725Y17800D03*
X97725Y14800D03*
X49000Y36802D03*
X63475Y9050D03*
D14*
X47175Y27725D03*
D13*
X49500Y3125D03*
D12*
X83910Y23530D03*
X82050Y8075D03*
X75000Y10600D03*
X21710Y27333D03*
X71400Y8950D03*
X3775Y30800D03*
X16575Y31650D03*
X32525Y19875D03*
X16475Y29300D03*
X70000Y4950D03*
X29150Y19875D03*
X90650Y30725D03*
X11675Y20950D03*
X13725Y11250D03*
X82660Y23530D03*
X67550Y12875D03*
X95650Y7350D03*
X59350Y10525D03*
X36125Y19875D03*
X84510Y24130D03*
X11075Y18075D03*
X41450Y7350D03*
X8450Y1050D03*
X67550Y8650D03*
X26550Y34950D03*
X25250Y19875D03*
X65250Y5050D03*
X78200Y8075D03*
X34850Y8475D03*
X11650Y1050D03*
X48025Y29650D03*
X30950Y16525D03*
X88100Y33150D03*
X83300Y24760D03*
D14*
X43500Y29550D03*
D12*
X1200Y17125D03*
X1225Y31225D03*
X83910Y24130D03*
X88250Y4400D03*
X93925Y17600D03*
X49125Y18950D03*
X22450Y36200D03*
X15375Y19750D03*
X93925Y14550D03*
X16875Y10400D03*
X5050Y12125D03*
D13*
X95875Y45875D03*
D12*
X23925Y35529D03*
X61875Y19725D03*
X71200Y1075D03*
D14*
X43950Y27825D03*
D12*
X26875Y0950D03*
X13525Y7950D03*
X5525Y1050D03*
X45950Y6475D03*
X27875Y6675D03*
X53525Y10650D03*
X97750Y28300D03*
X21075Y3950D03*
X95050Y33100D03*
X52400Y1075D03*
X37150Y17000D03*
D13*
X3125Y45875D03*
D12*
X44407Y19875D03*
X84510Y25360D03*
X94025Y30150D03*
X37250Y5200D03*
X74750Y6925D03*
X8975Y32250D03*
X22125Y14075D03*
X66250Y1075D03*
X7350Y4275D03*
X76600Y1000D03*
X12375Y14575D03*
D14*
X21986Y28950D03*
D12*
X83260Y24130D03*
X42875Y4150D03*
X1225Y34100D03*
X15900Y13325D03*
X93925Y20850D03*
X1200Y20450D03*
X21075Y0950D03*
X96075Y28300D03*
X57400Y7150D03*
X83260Y25360D03*
X97950Y9600D03*
X8975Y29850D03*
X3250Y20350D03*
X1200Y14425D03*
X5400Y7750D03*
X53525Y36375D03*
X25275Y35975D03*
X6350Y31225D03*
X48275Y10150D03*
X17225Y27775D03*
X59475Y16350D03*
X89425Y14400D03*
X92125Y5675D03*
X50650Y13350D03*
X56000Y13000D03*
X50050Y36150D03*
X82660Y25360D03*
X88250Y27975D03*
X97725Y20550D03*
X50925Y36802D03*
X29950Y0950D03*
X95875Y20325D03*
X81150Y1000D03*
X52000Y36500D03*
X95875Y16275D03*
X48100Y36150D03*
X28325Y36225D03*
X45550Y23075D03*
X24000Y5200D03*
X33650Y0950D03*
X56675Y19875D03*
X5175Y21090D03*
D14*
X18950Y28950D03*
D12*
X8950Y20950D03*
X28000Y3475D03*
X27275Y15525D03*
X30275Y8925D03*
X7540Y27850D03*
X65125Y16875D03*
X39475Y9475D03*
X37150Y0950D03*
X86100Y8250D03*
X24000Y0950D03*
X53325Y15800D03*
X88250Y30390D03*
X15900Y16450D03*
X84510Y24760D03*
%LNbottom copper component aeb48a4b1f8da947*%
D15*
X96570Y27040D03*
X96570Y21960D03*
%LNbottom copper component 31ef27b915e3d59f*%
D16*
X3175Y39390D03*
D17*
X3175Y36850D03*
%LNbottom copper component 71e9bb1bca40385d*%
D18*
X91050Y10555D03*
D19*
X91050Y13095D03*
%LNbottom copper component e4f571294357a45e*%
D20*
X24498Y14748D03*
X43802Y14748D03*
X43802Y34052D03*
X24498Y34052D03*
X27800Y24400D03*
X40500Y24400D03*
%LNbottom copper component 0a39ebfe723b63b2*%
X57273Y14773D03*
X76577Y14773D03*
X76577Y34077D03*
X57273Y34077D03*
X60575Y24425D03*
X73275Y24425D03*
%LNbottom copper component 2e5a51aab9dd6953*%
D21*
X2455Y21850D03*
X2455Y26930D03*
%LNbottom copper component 30800a0eeb3590a6*%
D22*
X80275Y42075D03*
X82815Y42075D03*
D23*
X77735Y42075D03*
%LNtext*%
D24*
X39658Y47585D02*
X39658Y47585D01*
X39658Y47584*
X39854Y47584*
X39854Y47584*
X39884Y47585*
X39884Y47585*
X39910Y47586*
X39910Y47586*
X39931Y47588*
X39931Y47588*
X39947Y47590*
X39947Y47590*
X39967Y47596*
X39967Y47596*
X39986Y47604*
X39986Y47604*
X40005Y47613*
X40005Y47613*
X40024Y47624*
X40024Y47624*
X40044Y47639*
X40044Y47639*
X40065Y47658*
X40065Y47658*
X40087Y47681*
X40087Y47681*
X40110Y47710*
X40110Y47710*
X40136Y47743*
X40136Y47743*
X40164Y47784*
X40164Y47784*
X40196Y47831*
X40196Y47831*
X40232Y47885*
X40232Y47885*
X40400Y48149*
X40611Y48149*
X40390Y47804*
X40356Y47755*
X40322Y47711*
X40286Y47671*
X40250Y47635*
X40231Y47619*
X40207Y47603*
X40180Y47587*
X40148Y47571*
X40148Y47571*
X40234Y47554*
X40308Y47528*
X40369Y47495*
X40419Y47453*
X40458Y47403*
X40485Y47349*
X40501Y47290*
X40507Y47225*
X40503Y47173*
X40494Y47124*
X40477Y47077*
X40454Y47033*
X40425Y46993*
X40392Y46959*
X40355Y46932*
X40313Y46912*
X40263Y46897*
X40204Y46886*
X40134Y46880*
X40054Y46878*
X39490Y46878*
X39490Y48149*
X39658Y48149*
X39658Y47585*
X39658Y47439D02*
X39658Y47439D01*
X40020Y47439*
X40075Y47437*
X40123Y47433*
X40165Y47426*
X40201Y47415*
X40231Y47401*
X40258Y47384*
X40281Y47363*
X40300Y47339*
X40315Y47312*
X40325Y47284*
X40332Y47255*
X40334Y47225*
X40330Y47181*
X40317Y47142*
X40297Y47107*
X40268Y47076*
X40231Y47051*
X40184Y47032*
X40127Y47022*
X40061Y47018*
X39658Y47018*
X39658Y47439*
X41215Y48165D02*
X41215Y48165D01*
X41285Y48151*
X41347Y48126*
X41402Y48092*
X41450Y48049*
X41489Y47998*
X41520Y47940*
X41543Y47873*
X41383Y47854*
X41363Y47899*
X41363Y47899*
X41341Y47939*
X41341Y47939*
X41315Y47972*
X41315Y47972*
X41286Y47998*
X41286Y47998*
X41254Y48017*
X41254Y48017*
X41219Y48032*
X41219Y48032*
X41181Y48040*
X41181Y48040*
X41139Y48043*
X41139Y48043*
X41084Y48038*
X41084Y48038*
X41033Y48023*
X41033Y48023*
X40987Y47997*
X40987Y47997*
X40946Y47962*
X40946Y47962*
X40912Y47917*
X40912Y47917*
X40886Y47863*
X40886Y47863*
X40869Y47801*
X40869Y47801*
X40860Y47729*
X40860Y47728*
X41548Y47728*
X41548Y47716*
X41548Y47705*
X41549Y47695*
X41549Y47687*
X41541Y47580*
X41519Y47485*
X41483Y47403*
X41431Y47333*
X41369Y47278*
X41298Y47239*
X41218Y47216*
X41130Y47208*
X41039Y47216*
X40957Y47240*
X40884Y47280*
X40819Y47336*
X40767Y47407*
X40730Y47490*
X40707Y47587*
X40700Y47697*
X40707Y47803*
X40729Y47896*
X40766Y47977*
X40818Y48046*
X40882Y48100*
X40957Y48139*
X41043Y48163*
X41138Y48170*
X41215Y48165*
X40869Y47600D02*
X40869Y47600D01*
X41384Y47600*
X41377Y47546*
X41364Y47499*
X41347Y47459*
X41325Y47426*
X41285Y47386*
X41239Y47358*
X41188Y47341*
X41131Y47336*
X41080Y47340*
X41032Y47354*
X40989Y47376*
X40950Y47408*
X40918Y47447*
X40894Y47492*
X40877Y47543*
X40869Y47600*
X42490Y47229D02*
X42490Y47229D01*
X42331Y47229*
X42126Y47791*
X42108Y47840*
X42093Y47886*
X42079Y47928*
X42068Y47966*
X42067Y47966*
X42053Y47918*
X42039Y47871*
X42024Y47825*
X42008Y47780*
X41810Y47229*
X41646Y47229*
X41997Y48149*
X42142Y48149*
X42490Y47229*
X42719Y47973D02*
X42719Y47973D01*
X42542Y47973*
X42542Y48149*
X42719Y48149*
X42719Y47973*
X43923Y48167D02*
X43923Y48167D01*
X43984Y48152*
X44039Y48129*
X44088Y48096*
X44131Y48055*
X44168Y48006*
X44199Y47949*
X44225Y47884*
X44245Y47810*
X44260Y47725*
X44268Y47629*
X44271Y47522*
X44269Y47433*
X44264Y47353*
X44255Y47282*
X44242Y47222*
X44227Y47168*
X44208Y47119*
X44187Y47073*
X44164Y47033*
X44137Y46996*
X44107Y46964*
X44073Y46937*
X44036Y46914*
X43996Y46896*
X43953Y46883*
X43906Y46875*
X43857Y46873*
X43790Y46877*
X43730Y46891*
X43675Y46915*
X43626Y46947*
X43584Y46988*
X43546Y47037*
X43515Y47094*
X43489Y47159*
X43468Y47233*
X43454Y47319*
X43445Y47415*
X43442Y47522*
X43450Y47689*
X43474Y47831*
X43513Y47948*
X43568Y48039*
X43625Y48097*
X43693Y48138*
X43770Y48163*
X43857Y48171*
X43923Y48167*
X43602Y47522D02*
X43602Y47522D01*
X43607Y47666*
X43621Y47783*
X43644Y47874*
X43676Y47939*
X43714Y47985*
X43758Y48017*
X43805Y48037*
X43857Y48043*
X43908Y48037*
X43956Y48017*
X43999Y47985*
X44038Y47939*
X44070Y47874*
X44093Y47783*
X44106Y47666*
X44111Y47522*
X44106Y47378*
X44093Y47261*
X44070Y47170*
X44038Y47105*
X43999Y47060*
X43955Y47027*
X43907Y47008*
X43855Y47001*
X43804Y47007*
X43758Y47024*
X43718Y47053*
X43683Y47093*
X43648Y47163*
X43622Y47258*
X43607Y47378*
X43602Y47522*
X9125Y47443D02*
X9125Y47443D01*
X9125Y47443*
X9658Y46928*
X9431Y46928*
X8799Y47559*
X8798Y47559*
X8798Y46928*
X8631Y46928*
X8631Y48199*
X8798Y48199*
X8798Y47759*
X8798Y47759*
X9007Y47555*
X9007Y47555*
X9460Y48199*
X9681Y48199*
X9125Y47443*
X10000Y47622D02*
X10000Y47622D01*
X10000Y47621*
X10597Y47621*
X10597Y47472*
X10000Y47472*
X10000Y47472*
X10000Y47077*
X10000Y47077*
X10690Y47077*
X10690Y46928*
X9832Y46928*
X9832Y48199*
X10000Y48199*
X10000Y47622*
X11502Y47895D02*
X11502Y47895D01*
X11503Y47895*
X11674Y47895*
X11674Y47753*
X11503Y47753*
X11502Y47752*
X11502Y46928*
X11376Y46928*
X10795Y47752*
X10795Y47895*
X11347Y47895*
X11347Y47895*
X11347Y48199*
X11502Y48199*
X11502Y47895*
X11346Y47180D02*
X11346Y47180D01*
X10949Y47752*
X11346Y47752*
X11346Y47180*
X13107Y46928D02*
X13107Y46928D01*
X12881Y46928*
X12577Y47813*
X12555Y47876*
X12537Y47931*
X12521Y47978*
X12509Y48017*
X12508Y48017*
X12497Y47982*
X12483Y47939*
X12466Y47888*
X12447Y47829*
X12146Y46928*
X11893Y46928*
X11893Y48199*
X12055Y48199*
X12055Y47116*
X12055Y47116*
X12424Y48199*
X12575Y48199*
X12945Y47134*
X12946Y47134*
X12946Y48199*
X13107Y48199*
X13107Y46928*
X14018Y48216D02*
X14018Y48216D01*
X14097Y48202*
X14172Y48177*
X14245Y48143*
X14313Y48099*
X14372Y48046*
X14423Y47983*
X14466Y47912*
X14501Y47833*
X14525Y47749*
X14540Y47660*
X14545Y47565*
X14540Y47472*
X14526Y47385*
X14503Y47302*
X14470Y47224*
X14429Y47153*
X14379Y47090*
X14321Y47036*
X14255Y46989*
X14182Y46953*
X14105Y46926*
X14023Y46910*
X13937Y46905*
X13809Y46916*
X13693Y46950*
X13590Y47006*
X13498Y47084*
X13424Y47182*
X13371Y47298*
X13339Y47430*
X13328Y47580*
X13333Y47663*
X13347Y47743*
X13369Y47822*
X13401Y47898*
X13442Y47969*
X13491Y48032*
X13549Y48087*
X13616Y48134*
X13689Y48172*
X13766Y48200*
X13849Y48216*
X13936Y48221*
X14018Y48216*
X13502Y47583D02*
X13502Y47583D01*
X13509Y47692*
X13532Y47788*
X13571Y47873*
X13625Y47945*
X13691Y48003*
X13765Y48044*
X13846Y48069*
X13936Y48078*
X14026Y48069*
X14109Y48044*
X14183Y48002*
X14249Y47944*
X14302Y47870*
X14341Y47782*
X14364Y47680*
X14371Y47565*
X14368Y47489*
X14358Y47419*
X14342Y47354*
X14319Y47293*
X14290Y47239*
X14254Y47190*
X14213Y47149*
X14165Y47113*
X14113Y47086*
X14058Y47066*
X14000Y47054*
X13938Y47050*
X13852Y47057*
X13772Y47080*
X13698Y47119*
X13630Y47173*
X13574Y47244*
X13534Y47337*
X13510Y47449*
X13502Y47583*
X15254Y47077D02*
X15254Y47077D01*
X15254Y47077*
X15675Y47077*
X15675Y46928*
X14667Y46928*
X14667Y47077*
X15086Y47077*
X15086Y47077*
X15086Y48199*
X15254Y48199*
X15254Y47077*
X16756Y48212D02*
X16756Y48212D01*
X16845Y48183*
X16923Y48134*
X16989Y48067*
X17033Y48001*
X17065Y47929*
X17084Y47852*
X17090Y47769*
X17083Y47682*
X17061Y47604*
X17026Y47534*
X16976Y47472*
X16915Y47422*
X16848Y47385*
X16775Y47364*
X16695Y47357*
X16632Y47362*
X16572Y47377*
X16512Y47402*
X16454Y47437*
X16454Y47436*
X16522Y47094*
X16523Y47093*
X17030Y47093*
X17030Y46945*
X16398Y46945*
X16275Y47598*
X16421Y47617*
X16440Y47591*
X16440Y47591*
X16462Y47568*
X16462Y47567*
X16488Y47546*
X16488Y47546*
X16516Y47528*
X16516Y47528*
X16548Y47513*
X16548Y47513*
X16581Y47502*
X16581Y47502*
X16616Y47496*
X16616Y47496*
X16653Y47494*
X16653Y47494*
X16711Y47499*
X16711Y47499*
X16763Y47513*
X16763Y47513*
X16809Y47537*
X16809Y47537*
X16850Y47571*
X16850Y47571*
X16883Y47613*
X16883Y47613*
X16906Y47663*
X16906Y47663*
X16921Y47719*
X16921Y47719*
X16925Y47782*
X16925Y47782*
X16920Y47849*
X16920Y47849*
X16906Y47909*
X16906Y47909*
X16881Y47962*
X16881Y47962*
X16847Y48008*
X16847Y48008*
X16806Y48046*
X16806Y48046*
X16760Y48072*
X16760Y48072*
X16710Y48088*
X16710Y48088*
X16656Y48094*
X16656Y48094*
X16610Y48090*
X16610Y48090*
X16568Y48079*
X16568Y48079*
X16530Y48060*
X16530Y48060*
X16495Y48033*
X16495Y48033*
X16465Y47999*
X16465Y47999*
X16441Y47958*
X16441Y47958*
X16422Y47909*
X16422Y47909*
X16410Y47853*
X16247Y47867*
X16261Y47943*
X16286Y48011*
X16324Y48072*
X16372Y48124*
X16431Y48167*
X16498Y48197*
X16573Y48215*
X16656Y48221*
X16756Y48212*
X17944Y48214D02*
X17944Y48214D01*
X18032Y48194*
X18112Y48160*
X18185Y48112*
X18248Y48052*
X18301Y47979*
X18343Y47894*
X18375Y47797*
X18207Y47754*
X18186Y47829*
X18186Y47829*
X18157Y47895*
X18157Y47895*
X18120Y47951*
X18120Y47951*
X18075Y47996*
X18074Y47996*
X18023Y48032*
X18023Y48032*
X17965Y48058*
X17965Y48058*
X17903Y48073*
X17903Y48073*
X17835Y48078*
X17835Y48078*
X17777Y48074*
X17777Y48074*
X17722Y48063*
X17722Y48063*
X17669Y48044*
X17669Y48044*
X17618Y48018*
X17618Y48018*
X17571Y47984*
X17571Y47984*
X17531Y47943*
X17531Y47943*
X17498Y47894*
X17498Y47894*
X17471Y47837*
X17471Y47837*
X17450Y47774*
X17450Y47774*
X17435Y47705*
X17435Y47705*
X17426Y47632*
X17426Y47632*
X17423Y47553*
X17423Y47553*
X17426Y47491*
X17426Y47491*
X17433Y47429*
X17433Y47429*
X17446Y47368*
X17446Y47368*
X17463Y47309*
X17463Y47309*
X17487Y47252*
X17487Y47252*
X17518Y47202*
X17518Y47202*
X17556Y47158*
X17556Y47158*
X17602Y47120*
X17602Y47120*
X17654Y47089*
X17654Y47089*
X17713Y47067*
X17713Y47067*
X17777Y47054*
X17777Y47054*
X17848Y47049*
X17848Y47049*
X17909Y47053*
X17909Y47053*
X17964Y47065*
X17965Y47065*
X18015Y47085*
X18015Y47085*
X18060Y47113*
X18060Y47113*
X18099Y47149*
X18099Y47149*
X18134Y47195*
X18134Y47195*
X18164Y47250*
X18164Y47250*
X18188Y47315*
X18353Y47276*
X18323Y47193*
X18282Y47120*
X18232Y47057*
X18172Y47003*
X18103Y46961*
X18027Y46930*
X17943Y46912*
X17851Y46906*
X17769Y46911*
X17690Y46925*
X17614Y46949*
X17543Y46983*
X17477Y47026*
X17419Y47077*
X17369Y47138*
X17327Y47207*
X17293Y47285*
X17270Y47368*
X17256Y47458*
X17251Y47554*
X17255Y47644*
X17268Y47730*
X17289Y47814*
X17318Y47895*
X17355Y47970*
X17401Y48035*
X17454Y48091*
X17514Y48137*
X17583Y48174*
X17662Y48200*
X17750Y48216*
X17848Y48221*
X17944Y48214*
X19792Y46928D02*
X19792Y46928D01*
X19566Y46928*
X19261Y47813*
X19240Y47876*
X19222Y47931*
X19206Y47978*
X19194Y48017*
X19193Y48017*
X19182Y47982*
X19168Y47939*
X19151Y47888*
X19132Y47829*
X18831Y46928*
X18578Y46928*
X18578Y48199*
X18740Y48199*
X18740Y47116*
X18740Y47116*
X19109Y48199*
X19260Y48199*
X19630Y47134*
X19630Y47134*
X19630Y48199*
X19792Y48199*
X19792Y46928*
X21083Y46923D02*
X21083Y46923D01*
X20983Y46923*
X20959Y46964*
X20959Y46964*
X20928Y47006*
X20928Y47006*
X20889Y47049*
X20889Y47049*
X20844Y47093*
X20844Y47093*
X20793Y47135*
X20793Y47135*
X20738Y47174*
X20738Y47174*
X20678Y47210*
X20678Y47210*
X20615Y47242*
X20615Y47392*
X20652Y47377*
X20692Y47359*
X20734Y47337*
X20779Y47311*
X20822Y47285*
X20861Y47258*
X20896Y47231*
X20927Y47204*
X20927Y47204*
X20927Y48199*
X21083Y48199*
X21083Y46923*
X23067Y46928D02*
X23067Y46928D01*
X22899Y46928*
X22699Y47745*
X22699Y47745*
X22681Y47821*
X22664Y47893*
X22649Y47960*
X22636Y48023*
X22635Y48023*
X22617Y47915*
X22595Y47804*
X22568Y47690*
X22536Y47572*
X22354Y46928*
X22151Y46928*
X21909Y47787*
X21903Y47813*
X21891Y47861*
X21874Y47931*
X21852Y48023*
X21851Y48023*
X21839Y47957*
X21826Y47892*
X21812Y47827*
X21797Y47762*
X21604Y46928*
X21432Y46928*
X21770Y48199*
X21941Y48199*
X22211Y47230*
X22219Y47198*
X22229Y47162*
X22238Y47123*
X22248Y47080*
X22249Y47080*
X22254Y47101*
X22262Y47132*
X22274Y47175*
X22289Y47230*
X22289Y47230*
X22557Y48199*
X22718Y48199*
X23067Y46928*
X6228Y41468D02*
X6228Y41468D01*
X6228Y41468*
X5734Y41468*
X5734Y41675*
X6228Y41675*
X6228Y41676*
X6228Y42170*
X6438Y42170*
X6438Y41676*
X6439Y41675*
X6933Y41675*
X6933Y41468*
X6439Y41468*
X6438Y41468*
X6438Y40969*
X6228Y40969*
X6228Y41468*
M02*