%FSLAX33Y33*%
%MOMM*%
%AMRect-W1050000-H1600000-RO1.500*
21,1,1.05,1.6,0.,0.,90*%
%AMRect-W4059999-H1520000-RO1.000*
21,1,4.059999,1.52,0.,0.,180*%
%AMRect-W891421-H1741421-RO0.500*
21,1,0.891421,1.741421,0.,0.,270*%
%AMRect-W800000-H1320710-RO0.500*
21,1,0.8,1.32071,0.,0.,270*%
%AMRect-W711200-H711200-RO0.250*
21,1,0.7112,0.7112,0.,0.,315*%
%AMRect-W1300000-H1300000-RO0.500*
21,1,1.3,1.3,0.,0.,270*%
%AMRect-W900000-H1200000-RO1.000*
21,1,0.9,1.2,0.,0.,180*%
%AMRect-W1300000-H1600000-RO0.500*
21,1,1.3,1.6,0.,0.,270*%
%AMRect-W1300000-H1600000-RO1.500*
21,1,1.3,1.6,0.,0.,90*%
%AMRect-W670710-H1320710-RO1.000*
21,1,0.67071,1.32071,0.,0.,180*%
%AMRect-W950000-H1350000-RO0.500*
21,1,0.95,1.35,0.,0.,270*%
%AMRect-W670710-H1320710-RO0.500*
21,1,0.67071,1.32071,0.,0.,270*%
%AMRect-W1050000-H1600000-RO1.000*
21,1,1.05,1.6,0.,0.,180*%
%AMRR-H240710-W520710-R120355-RO0.000*
21,1,0.28,0.24071,0.,0.,360*
1,1,0.24071,-0.14,0.*
1,1,0.24071,0.14,0.*
1,1,0.24071,0.14,-0.*
1,1,0.24071,-0.14,0.*%
%AMRR-H520710-W240710-R120355-RO0.000*
21,1,0.24071,0.28,0.,0.,360*
1,1,0.24071,0.,0.14*
1,1,0.24071,0.,0.14*
1,1,0.24071,0.,-0.14*
1,1,0.24071,-0.,-0.14*%
%AMRect-W670710-H1320710-RO1.500*
21,1,0.67071,1.32071,0.,0.,90*%
%AMRect-W5499999-H5699999-RO1.000*
21,1,5.499999,5.699999,0.,0.,180*%
%AMRect-W1000001-H1599999-RO1.000*
21,1,1.000001,1.599999,0.,0.,180*%
%AMRect-W1000000-H1250000-RO1.500*
21,1,1.,1.25,0.,0.,90*%
%AMRect-W650001-H1100000-RO1.500*
21,1,0.650001,1.1,0.,0.,90*%
%AMRect-W1950000-H1950000-RO0.500*
21,1,1.95,1.95,0.,0.,270*%
%AMRect-W700000-H1300000-RO1.000*
21,1,0.7,1.3,0.,0.,180*%
%AMRR-H637228-W1771339-R318614-RO0.000*
21,1,1.134111,0.637228,0.,0.,360*
1,1,0.637228,-0.5670555,0.*
1,1,0.637228,0.5670555,0.*
1,1,0.637228,0.5670555,-0.*
1,1,0.637228,-0.5670555,0.*%
%ADD10C,0.0508*%
%ADD11C,0.635*%
%ADD12C,0.254*%
%ADD13C,0.5334*%
%ADD14C,2.921*%
%ADD15C,4.572*%
%ADD16C,0.762*%
%ADD17Rect-W1050000-H1600000-RO1.500*%
%ADD18Rect-W4059999-H1520000-RO1.000*%
%ADD19R,1.55X1.55*%
%ADD20C,1.55*%
%ADD21Rect-W891421-H1741421-RO0.500*%
%ADD22Rect-W800000-H1320710-RO0.500*%
%ADD23R,0.508X2.4384*%
%ADD24R,0.914399X5.334*%
%ADD25R,0.7112X1.4986*%
%ADD26Rect-W711200-H711200-RO0.250*%
%ADD27C,1.3*%
%ADD28Rect-W1300000-H1300000-RO0.500*%
%ADD29Rect-W900000-H1200000-RO1.000*%
%ADD30Rect-W1300000-H1600000-RO0.500*%
%ADD31Rect-W1300000-H1600000-RO1.500*%
%ADD32Rect-W670710-H1320710-RO1.000*%
%ADD33Rect-W950000-H1350000-RO0.500*%
%ADD34Rect-W670710-H1320710-RO0.500*%
%ADD35C,1.524*%
%ADD36Rect-W1050000-H1600000-RO1.000*%
%ADD37R,1.3X1.6*%
%ADD38R,0.52071X0.24071*%
%ADD39R,2.5X2.5*%
%ADD40RR-H240710-W520710-R120355-RO0.000*%
%ADD41RR-H520710-W240710-R120355-RO0.000*%
%ADD42R,1.05X1.6*%
%ADD43Rect-W670710-H1320710-RO1.500*%
%ADD44Rect-W5499999-H5699999-RO1.000*%
%ADD45Rect-W1000001-H1599999-RO1.000*%
%ADD46Rect-W1000000-H1250000-RO1.500*%
%ADD47Rect-W650001-H1100000-RO1.500*%
%ADD48R,0.7X1.3*%
%ADD49R,4.059999X1.52*%
%ADD50C,1.95*%
%ADD51Rect-W1950000-H1950000-RO0.500*%
%ADD52Rect-W700000-H1300000-RO1.000*%
%ADD53R,1.771339X0.637228*%
%ADD54RR-H637228-W1771339-R318614-RO0.000*%
D10*
%LNpour fill*%
G01*
X98308Y22600D02*
X98308Y22600D01*
X94660Y22600*
X93425Y21365*
X93425Y19225*
X98308Y19225*
X98308Y22600*
X93425Y19275D02*
X98308Y19275D01*
X93425Y19324D02*
X98308Y19324D01*
X93425Y19374D02*
X98308Y19374D01*
X93425Y19423D02*
X98308Y19423D01*
X93425Y19473D02*
X98308Y19473D01*
X93425Y19522D02*
X98308Y19522D01*
X93425Y19572D02*
X98308Y19572D01*
X93425Y19621D02*
X98308Y19621D01*
X93425Y19671D02*
X98308Y19671D01*
X93425Y19720D02*
X98308Y19720D01*
X93425Y19770D02*
X98308Y19770D01*
X93425Y19819D02*
X98308Y19819D01*
X93425Y19869D02*
X98308Y19869D01*
X93425Y19918D02*
X98308Y19918D01*
X93425Y19968D02*
X98308Y19968D01*
X93425Y20017D02*
X98308Y20017D01*
X93425Y20067D02*
X98308Y20067D01*
X93425Y20117D02*
X98308Y20117D01*
X93425Y20166D02*
X98308Y20166D01*
X93425Y20216D02*
X98308Y20216D01*
X93425Y20265D02*
X98308Y20265D01*
X93425Y20315D02*
X98308Y20315D01*
X93425Y20364D02*
X98308Y20364D01*
X93425Y20414D02*
X98308Y20414D01*
X93425Y20463D02*
X98308Y20463D01*
X93425Y20513D02*
X98308Y20513D01*
X93425Y20562D02*
X98308Y20562D01*
X93425Y20612D02*
X98308Y20612D01*
X93425Y20661D02*
X98308Y20661D01*
X93425Y20711D02*
X98308Y20711D01*
X93425Y20760D02*
X98308Y20760D01*
X93425Y20810D02*
X98308Y20810D01*
X93425Y20859D02*
X98308Y20859D01*
X93425Y20909D02*
X98308Y20909D01*
X93425Y20959D02*
X98308Y20959D01*
X93425Y21008D02*
X98308Y21008D01*
X93425Y21058D02*
X98308Y21058D01*
X93425Y21107D02*
X98308Y21107D01*
X93425Y21157D02*
X98308Y21157D01*
X93425Y21206D02*
X98308Y21206D01*
X93425Y21256D02*
X98308Y21256D01*
X93425Y21305D02*
X98308Y21305D01*
X93425Y21355D02*
X98308Y21355D01*
X93464Y21404D02*
X98308Y21404D01*
X93514Y21454D02*
X98308Y21454D01*
X93563Y21503D02*
X98308Y21503D01*
X93613Y21553D02*
X98308Y21553D01*
X93662Y21602D02*
X98308Y21602D01*
X93712Y21652D02*
X98308Y21652D01*
X93762Y21701D02*
X98308Y21701D01*
X93811Y21751D02*
X98308Y21751D01*
X93861Y21801D02*
X98308Y21801D01*
X93910Y21850D02*
X98308Y21850D01*
X93960Y21900D02*
X98308Y21900D01*
X94009Y21949D02*
X98308Y21949D01*
X94059Y21999D02*
X98308Y21999D01*
X94108Y22048D02*
X98308Y22048D01*
X94158Y22098D02*
X98308Y22098D01*
X94207Y22147D02*
X98308Y22147D01*
X94257Y22197D02*
X98308Y22197D01*
X94306Y22246D02*
X98308Y22246D01*
X94356Y22296D02*
X98308Y22296D01*
X94405Y22345D02*
X98308Y22345D01*
X94455Y22395D02*
X98308Y22395D01*
X94504Y22444D02*
X98308Y22444D01*
X94554Y22494D02*
X98308Y22494D01*
X94604Y22544D02*
X98308Y22544D01*
X94653Y22593D02*
X98308Y22593D01*
%LNpour fill*%
X98308Y19470D02*
X98308Y19470D01*
X93350Y19470*
X93350Y9650*
X93350Y9650*
X92675Y8975*
X92675Y8975*
X77775Y8975*
X77775Y8975*
X66300Y20450*
X14845Y20450*
X14845Y20450*
X13610Y21685*
X4910Y21685*
X4910Y21685*
X4200Y22395*
X0692Y22395*
X0692Y0567*
X98308Y0567*
X98308Y19470*
X0692Y0616D02*
X98308Y0616D01*
X0692Y0666D02*
X98308Y0666D01*
X0692Y0715D02*
X98308Y0715D01*
X0692Y0765D02*
X98308Y0765D01*
X0692Y0814D02*
X98308Y0814D01*
X0692Y0864D02*
X98308Y0864D01*
X0692Y0913D02*
X98308Y0913D01*
X0692Y0963D02*
X98308Y0963D01*
X0692Y1012D02*
X98308Y1012D01*
X0692Y1062D02*
X98308Y1062D01*
X0692Y1111D02*
X98308Y1111D01*
X0692Y1161D02*
X98308Y1161D01*
X0692Y1210D02*
X98308Y1210D01*
X0692Y1260D02*
X98308Y1260D01*
X0692Y1309D02*
X98308Y1309D01*
X0692Y1359D02*
X98308Y1359D01*
X0692Y1409D02*
X98308Y1409D01*
X0692Y1458D02*
X98308Y1458D01*
X0692Y1508D02*
X98308Y1508D01*
X0692Y1557D02*
X98308Y1557D01*
X0692Y1607D02*
X98308Y1607D01*
X0692Y1656D02*
X98308Y1656D01*
X0692Y1706D02*
X98308Y1706D01*
X0692Y1755D02*
X98308Y1755D01*
X0692Y1805D02*
X98308Y1805D01*
X0692Y1854D02*
X98308Y1854D01*
X0692Y1904D02*
X98308Y1904D01*
X0692Y1953D02*
X98308Y1953D01*
X0692Y2003D02*
X98308Y2003D01*
X0692Y2052D02*
X98308Y2052D01*
X0692Y2102D02*
X98308Y2102D01*
X0692Y2151D02*
X98308Y2151D01*
X0692Y2201D02*
X98308Y2201D01*
X0692Y2251D02*
X98308Y2251D01*
X0692Y2300D02*
X98308Y2300D01*
X0692Y2350D02*
X98308Y2350D01*
X0692Y2399D02*
X98308Y2399D01*
X0692Y2449D02*
X98308Y2449D01*
X0692Y2498D02*
X98308Y2498D01*
X0692Y2548D02*
X98308Y2548D01*
X0692Y2597D02*
X98308Y2597D01*
X0692Y2647D02*
X98308Y2647D01*
X0692Y2696D02*
X98308Y2696D01*
X0692Y2746D02*
X98308Y2746D01*
X0692Y2795D02*
X98308Y2795D01*
X0692Y2845D02*
X98308Y2845D01*
X0692Y2894D02*
X98308Y2894D01*
X0692Y2944D02*
X98308Y2944D01*
X0692Y2993D02*
X98308Y2993D01*
X0692Y3043D02*
X98308Y3043D01*
X0692Y3093D02*
X98308Y3093D01*
X0692Y3142D02*
X98308Y3142D01*
X0692Y3192D02*
X98308Y3192D01*
X0692Y3241D02*
X98308Y3241D01*
X0692Y3291D02*
X98308Y3291D01*
X0692Y3340D02*
X98308Y3340D01*
X0692Y3390D02*
X98308Y3390D01*
X0692Y3439D02*
X98308Y3439D01*
X0692Y3489D02*
X98308Y3489D01*
X0692Y3538D02*
X98308Y3538D01*
X0692Y3588D02*
X98308Y3588D01*
X0692Y3637D02*
X98308Y3637D01*
X0692Y3687D02*
X98308Y3687D01*
X0692Y3736D02*
X98308Y3736D01*
X0692Y3786D02*
X98308Y3786D01*
X0692Y3835D02*
X98308Y3835D01*
X0692Y3885D02*
X98308Y3885D01*
X0692Y3935D02*
X98308Y3935D01*
X0692Y3984D02*
X98308Y3984D01*
X0692Y4034D02*
X98308Y4034D01*
X0692Y4083D02*
X98308Y4083D01*
X0692Y4133D02*
X98308Y4133D01*
X0692Y4182D02*
X98308Y4182D01*
X0692Y4232D02*
X98308Y4232D01*
X0692Y4281D02*
X98308Y4281D01*
X0692Y4331D02*
X98308Y4331D01*
X0692Y4380D02*
X98308Y4380D01*
X0692Y4430D02*
X98308Y4430D01*
X0692Y4479D02*
X98308Y4479D01*
X0692Y4529D02*
X98308Y4529D01*
X0692Y4578D02*
X98308Y4578D01*
X0692Y4628D02*
X98308Y4628D01*
X0692Y4677D02*
X98308Y4677D01*
X0692Y4727D02*
X98308Y4727D01*
X0692Y4777D02*
X98308Y4777D01*
X0692Y4826D02*
X98308Y4826D01*
X0692Y4876D02*
X98308Y4876D01*
X0692Y4925D02*
X98308Y4925D01*
X0692Y4975D02*
X98308Y4975D01*
X0692Y5024D02*
X98308Y5024D01*
X0692Y5074D02*
X98308Y5074D01*
X0692Y5123D02*
X98308Y5123D01*
X0692Y5173D02*
X98308Y5173D01*
X0692Y5222D02*
X98308Y5222D01*
X0692Y5272D02*
X98308Y5272D01*
X0692Y5321D02*
X98308Y5321D01*
X0692Y5371D02*
X98308Y5371D01*
X0692Y5420D02*
X98308Y5420D01*
X0692Y5470D02*
X98308Y5470D01*
X0692Y5520D02*
X98308Y5520D01*
X0692Y5569D02*
X98308Y5569D01*
X0692Y5619D02*
X98308Y5619D01*
X0692Y5668D02*
X98308Y5668D01*
X0692Y5718D02*
X98308Y5718D01*
X0692Y5767D02*
X98308Y5767D01*
X0692Y5817D02*
X98308Y5817D01*
X0692Y5866D02*
X98308Y5866D01*
X0692Y5916D02*
X98308Y5916D01*
X0692Y5965D02*
X98308Y5965D01*
X0692Y6015D02*
X98308Y6015D01*
X0692Y6064D02*
X98308Y6064D01*
X0692Y6114D02*
X98308Y6114D01*
X0692Y6163D02*
X98308Y6163D01*
X0692Y6213D02*
X98308Y6213D01*
X0692Y6262D02*
X98308Y6262D01*
X0692Y6312D02*
X98308Y6312D01*
X0692Y6362D02*
X98308Y6362D01*
X0692Y6411D02*
X98308Y6411D01*
X0692Y6461D02*
X98308Y6461D01*
X0692Y6510D02*
X98308Y6510D01*
X0692Y6560D02*
X98308Y6560D01*
X0692Y6609D02*
X98308Y6609D01*
X0692Y6659D02*
X98308Y6659D01*
X0692Y6708D02*
X98308Y6708D01*
X0692Y6758D02*
X98308Y6758D01*
X0692Y6807D02*
X98308Y6807D01*
X0692Y6857D02*
X98308Y6857D01*
X0692Y6906D02*
X98308Y6906D01*
X0692Y6956D02*
X98308Y6956D01*
X0692Y7005D02*
X98308Y7005D01*
X0692Y7055D02*
X98308Y7055D01*
X0692Y7104D02*
X98308Y7104D01*
X0692Y7154D02*
X98308Y7154D01*
X0692Y7204D02*
X98308Y7204D01*
X0692Y7253D02*
X98308Y7253D01*
X0692Y7303D02*
X98308Y7303D01*
X0692Y7352D02*
X98308Y7352D01*
X0692Y7402D02*
X98308Y7402D01*
X0692Y7451D02*
X98308Y7451D01*
X0692Y7501D02*
X98308Y7501D01*
X0692Y7550D02*
X98308Y7550D01*
X0692Y7600D02*
X98308Y7600D01*
X0692Y7649D02*
X98308Y7649D01*
X0692Y7699D02*
X98308Y7699D01*
X0692Y7748D02*
X98308Y7748D01*
X0692Y7798D02*
X98308Y7798D01*
X0692Y7847D02*
X98308Y7847D01*
X0692Y7897D02*
X98308Y7897D01*
X0692Y7946D02*
X98308Y7946D01*
X0692Y7996D02*
X98308Y7996D01*
X0692Y8046D02*
X98308Y8046D01*
X0692Y8095D02*
X98308Y8095D01*
X0692Y8145D02*
X98308Y8145D01*
X0692Y8194D02*
X98308Y8194D01*
X0692Y8244D02*
X98308Y8244D01*
X0692Y8293D02*
X98308Y8293D01*
X0692Y8343D02*
X98308Y8343D01*
X0692Y8392D02*
X98308Y8392D01*
X0692Y8442D02*
X98308Y8442D01*
X0692Y8491D02*
X98308Y8491D01*
X0692Y8541D02*
X98308Y8541D01*
X0692Y8590D02*
X98308Y8590D01*
X0692Y8640D02*
X98308Y8640D01*
X0692Y8689D02*
X98308Y8689D01*
X0692Y8739D02*
X98308Y8739D01*
X0692Y8788D02*
X98308Y8788D01*
X0692Y8838D02*
X98308Y8838D01*
X0692Y8888D02*
X98308Y8888D01*
X0692Y8937D02*
X98308Y8937D01*
X0692Y8987D02*
X77763Y8987D01*
X92687Y8987D02*
X98308Y8987D01*
X0692Y9036D02*
X77714Y9036D01*
X92736Y9036D02*
X98308Y9036D01*
X0692Y9086D02*
X77664Y9086D01*
X92786Y9086D02*
X98308Y9086D01*
X0692Y9135D02*
X77615Y9135D01*
X92835Y9135D02*
X98308Y9135D01*
X0692Y9185D02*
X77565Y9185D01*
X92885Y9185D02*
X98308Y9185D01*
X0692Y9234D02*
X77516Y9234D01*
X92934Y9234D02*
X98308Y9234D01*
X0692Y9284D02*
X77466Y9284D01*
X92984Y9284D02*
X98308Y9284D01*
X0692Y9333D02*
X77417Y9333D01*
X93033Y9333D02*
X98308Y9333D01*
X0692Y9383D02*
X77367Y9383D01*
X93083Y9383D02*
X98308Y9383D01*
X0692Y9432D02*
X77318Y9432D01*
X93132Y9432D02*
X98308Y9432D01*
X0692Y9482D02*
X77268Y9482D01*
X93182Y9482D02*
X98308Y9482D01*
X0692Y9531D02*
X77219Y9531D01*
X93231Y9531D02*
X98308Y9531D01*
X0692Y9581D02*
X77169Y9581D01*
X93281Y9581D02*
X98308Y9581D01*
X0692Y9630D02*
X77120Y9630D01*
X93330Y9630D02*
X98308Y9630D01*
X0692Y9680D02*
X77070Y9680D01*
X93350Y9680D02*
X98308Y9680D01*
X0692Y9730D02*
X77020Y9730D01*
X93350Y9730D02*
X98308Y9730D01*
X0692Y9779D02*
X76971Y9779D01*
X93350Y9779D02*
X98308Y9779D01*
X0692Y9829D02*
X76921Y9829D01*
X93350Y9829D02*
X98308Y9829D01*
X0692Y9878D02*
X76872Y9878D01*
X93350Y9878D02*
X98308Y9878D01*
X0692Y9928D02*
X76822Y9928D01*
X93350Y9928D02*
X98308Y9928D01*
X0692Y9977D02*
X76773Y9977D01*
X93350Y9977D02*
X98308Y9977D01*
X0692Y10027D02*
X76723Y10027D01*
X93350Y10027D02*
X98308Y10027D01*
X0692Y10076D02*
X76674Y10076D01*
X93350Y10076D02*
X98308Y10076D01*
X0692Y10126D02*
X76624Y10126D01*
X93350Y10126D02*
X98308Y10126D01*
X0692Y10175D02*
X76575Y10175D01*
X93350Y10175D02*
X98308Y10175D01*
X0692Y10225D02*
X76525Y10225D01*
X93350Y10225D02*
X98308Y10225D01*
X0692Y10274D02*
X76476Y10274D01*
X93350Y10274D02*
X98308Y10274D01*
X0692Y10324D02*
X76426Y10324D01*
X93350Y10324D02*
X98308Y10324D01*
X0692Y10373D02*
X76377Y10373D01*
X93350Y10373D02*
X98308Y10373D01*
X0692Y10423D02*
X76327Y10423D01*
X93350Y10423D02*
X98308Y10423D01*
X0692Y10473D02*
X76277Y10473D01*
X93350Y10473D02*
X98308Y10473D01*
X0692Y10522D02*
X76228Y10522D01*
X93350Y10522D02*
X98308Y10522D01*
X0692Y10572D02*
X76178Y10572D01*
X93350Y10572D02*
X98308Y10572D01*
X0692Y10621D02*
X76129Y10621D01*
X93350Y10621D02*
X98308Y10621D01*
X0692Y10671D02*
X76079Y10671D01*
X93350Y10671D02*
X98308Y10671D01*
X0692Y10720D02*
X76030Y10720D01*
X93350Y10720D02*
X98308Y10720D01*
X0692Y10770D02*
X75980Y10770D01*
X93350Y10770D02*
X98308Y10770D01*
X0692Y10819D02*
X75931Y10819D01*
X93350Y10819D02*
X98308Y10819D01*
X0692Y10869D02*
X75881Y10869D01*
X93350Y10869D02*
X98308Y10869D01*
X0692Y10918D02*
X75832Y10918D01*
X93350Y10918D02*
X98308Y10918D01*
X0692Y10968D02*
X75782Y10968D01*
X93350Y10968D02*
X98308Y10968D01*
X0692Y11017D02*
X75733Y11017D01*
X93350Y11017D02*
X98308Y11017D01*
X0692Y11067D02*
X75683Y11067D01*
X93350Y11067D02*
X98308Y11067D01*
X0692Y11116D02*
X75634Y11116D01*
X93350Y11116D02*
X98308Y11116D01*
X0692Y11166D02*
X75584Y11166D01*
X93350Y11166D02*
X98308Y11166D01*
X0692Y11215D02*
X75535Y11215D01*
X93350Y11215D02*
X98308Y11215D01*
X0692Y11265D02*
X75485Y11265D01*
X93350Y11265D02*
X98308Y11265D01*
X0692Y11315D02*
X75435Y11315D01*
X93350Y11315D02*
X98308Y11315D01*
X0692Y11364D02*
X75386Y11364D01*
X93350Y11364D02*
X98308Y11364D01*
X0692Y11414D02*
X75336Y11414D01*
X93350Y11414D02*
X98308Y11414D01*
X0692Y11463D02*
X75287Y11463D01*
X93350Y11463D02*
X98308Y11463D01*
X0692Y11513D02*
X75237Y11513D01*
X93350Y11513D02*
X98308Y11513D01*
X0692Y11562D02*
X75188Y11562D01*
X93350Y11562D02*
X98308Y11562D01*
X0692Y11612D02*
X75138Y11612D01*
X93350Y11612D02*
X98308Y11612D01*
X0692Y11661D02*
X75089Y11661D01*
X93350Y11661D02*
X98308Y11661D01*
X0692Y11711D02*
X75039Y11711D01*
X93350Y11711D02*
X98308Y11711D01*
X0692Y11760D02*
X74990Y11760D01*
X93350Y11760D02*
X98308Y11760D01*
X0692Y11810D02*
X74940Y11810D01*
X93350Y11810D02*
X98308Y11810D01*
X0692Y11859D02*
X74891Y11859D01*
X93350Y11859D02*
X98308Y11859D01*
X0692Y11909D02*
X74841Y11909D01*
X93350Y11909D02*
X98308Y11909D01*
X0692Y11958D02*
X74792Y11958D01*
X93350Y11958D02*
X98308Y11958D01*
X0692Y12008D02*
X74742Y12008D01*
X93350Y12008D02*
X98308Y12008D01*
X0692Y12057D02*
X74693Y12057D01*
X93350Y12057D02*
X98308Y12057D01*
X0692Y12107D02*
X74643Y12107D01*
X93350Y12107D02*
X98308Y12107D01*
X0692Y12157D02*
X74593Y12157D01*
X93350Y12157D02*
X98308Y12157D01*
X0692Y12206D02*
X74544Y12206D01*
X93350Y12206D02*
X98308Y12206D01*
X0692Y12256D02*
X74494Y12256D01*
X93350Y12256D02*
X98308Y12256D01*
X0692Y12305D02*
X74445Y12305D01*
X93350Y12305D02*
X98308Y12305D01*
X0692Y12355D02*
X74395Y12355D01*
X93350Y12355D02*
X98308Y12355D01*
X0692Y12404D02*
X74346Y12404D01*
X93350Y12404D02*
X98308Y12404D01*
X0692Y12454D02*
X74296Y12454D01*
X93350Y12454D02*
X98308Y12454D01*
X0692Y12503D02*
X74247Y12503D01*
X93350Y12503D02*
X98308Y12503D01*
X0692Y12553D02*
X74197Y12553D01*
X93350Y12553D02*
X98308Y12553D01*
X0692Y12602D02*
X74148Y12602D01*
X93350Y12602D02*
X98308Y12602D01*
X0692Y12652D02*
X74098Y12652D01*
X93350Y12652D02*
X98308Y12652D01*
X0692Y12701D02*
X74049Y12701D01*
X93350Y12701D02*
X98308Y12701D01*
X0692Y12751D02*
X73999Y12751D01*
X93350Y12751D02*
X98308Y12751D01*
X0692Y12800D02*
X73950Y12800D01*
X93350Y12800D02*
X98308Y12800D01*
X0692Y12850D02*
X73900Y12850D01*
X93350Y12850D02*
X98308Y12850D01*
X0692Y12899D02*
X73851Y12899D01*
X93350Y12899D02*
X98308Y12899D01*
X0692Y12949D02*
X73801Y12949D01*
X93350Y12949D02*
X98308Y12949D01*
X0692Y12999D02*
X73751Y12999D01*
X93350Y12999D02*
X98308Y12999D01*
X0692Y13048D02*
X73702Y13048D01*
X93350Y13048D02*
X98308Y13048D01*
X0692Y13098D02*
X73652Y13098D01*
X93350Y13098D02*
X98308Y13098D01*
X0692Y13147D02*
X73603Y13147D01*
X93350Y13147D02*
X98308Y13147D01*
X0692Y13197D02*
X73553Y13197D01*
X93350Y13197D02*
X98308Y13197D01*
X0692Y13246D02*
X73504Y13246D01*
X93350Y13246D02*
X98308Y13246D01*
X0692Y13296D02*
X73454Y13296D01*
X93350Y13296D02*
X98308Y13296D01*
X0692Y13345D02*
X73405Y13345D01*
X93350Y13345D02*
X98308Y13345D01*
X0692Y13395D02*
X73355Y13395D01*
X93350Y13395D02*
X98308Y13395D01*
X0692Y13444D02*
X73306Y13444D01*
X93350Y13444D02*
X98308Y13444D01*
X0692Y13494D02*
X73256Y13494D01*
X93350Y13494D02*
X98308Y13494D01*
X0692Y13543D02*
X73207Y13543D01*
X93350Y13543D02*
X98308Y13543D01*
X0692Y13593D02*
X73157Y13593D01*
X93350Y13593D02*
X98308Y13593D01*
X0692Y13642D02*
X73108Y13642D01*
X93350Y13642D02*
X98308Y13642D01*
X0692Y13692D02*
X73058Y13692D01*
X93350Y13692D02*
X98308Y13692D01*
X0692Y13741D02*
X73009Y13741D01*
X93350Y13741D02*
X98308Y13741D01*
X0692Y13791D02*
X72959Y13791D01*
X93350Y13791D02*
X98308Y13791D01*
X0692Y13841D02*
X72909Y13841D01*
X93350Y13841D02*
X98308Y13841D01*
X0692Y13890D02*
X72860Y13890D01*
X93350Y13890D02*
X98308Y13890D01*
X0692Y13940D02*
X72810Y13940D01*
X93350Y13940D02*
X98308Y13940D01*
X0692Y13989D02*
X72761Y13989D01*
X93350Y13989D02*
X98308Y13989D01*
X0692Y14039D02*
X72711Y14039D01*
X93350Y14039D02*
X98308Y14039D01*
X0692Y14088D02*
X72662Y14088D01*
X93350Y14088D02*
X98308Y14088D01*
X0692Y14138D02*
X72612Y14138D01*
X93350Y14138D02*
X98308Y14138D01*
X0692Y14187D02*
X72563Y14187D01*
X93350Y14187D02*
X98308Y14187D01*
X0692Y14237D02*
X72513Y14237D01*
X93350Y14237D02*
X98308Y14237D01*
X0692Y14286D02*
X72464Y14286D01*
X93350Y14286D02*
X98308Y14286D01*
X0692Y14336D02*
X72414Y14336D01*
X93350Y14336D02*
X98308Y14336D01*
X0692Y14385D02*
X72365Y14385D01*
X93350Y14385D02*
X98308Y14385D01*
X0692Y14435D02*
X72315Y14435D01*
X93350Y14435D02*
X98308Y14435D01*
X0692Y14484D02*
X72266Y14484D01*
X93350Y14484D02*
X98308Y14484D01*
X0692Y14534D02*
X72216Y14534D01*
X93350Y14534D02*
X98308Y14534D01*
X0692Y14583D02*
X72167Y14583D01*
X93350Y14583D02*
X98308Y14583D01*
X0692Y14633D02*
X72117Y14633D01*
X93350Y14633D02*
X98308Y14633D01*
X0692Y14683D02*
X72067Y14683D01*
X93350Y14683D02*
X98308Y14683D01*
X0692Y14732D02*
X72018Y14732D01*
X93350Y14732D02*
X98308Y14732D01*
X0692Y14782D02*
X71968Y14782D01*
X93350Y14782D02*
X98308Y14782D01*
X0692Y14831D02*
X71919Y14831D01*
X93350Y14831D02*
X98308Y14831D01*
X0692Y14881D02*
X71869Y14881D01*
X93350Y14881D02*
X98308Y14881D01*
X0692Y14930D02*
X71820Y14930D01*
X93350Y14930D02*
X98308Y14930D01*
X0692Y14980D02*
X71770Y14980D01*
X93350Y14980D02*
X98308Y14980D01*
X0692Y15029D02*
X71721Y15029D01*
X93350Y15029D02*
X98308Y15029D01*
X0692Y15079D02*
X71671Y15079D01*
X93350Y15079D02*
X98308Y15079D01*
X0692Y15128D02*
X71622Y15128D01*
X93350Y15128D02*
X98308Y15128D01*
X0692Y15178D02*
X71572Y15178D01*
X93350Y15178D02*
X98308Y15178D01*
X0692Y15227D02*
X71523Y15227D01*
X93350Y15227D02*
X98308Y15227D01*
X0692Y15277D02*
X71473Y15277D01*
X93350Y15277D02*
X98308Y15277D01*
X0692Y15326D02*
X71424Y15326D01*
X93350Y15326D02*
X98308Y15326D01*
X0692Y15376D02*
X71374Y15376D01*
X93350Y15376D02*
X98308Y15376D01*
X0692Y15426D02*
X71324Y15426D01*
X93350Y15426D02*
X98308Y15426D01*
X0692Y15475D02*
X71275Y15475D01*
X93350Y15475D02*
X98308Y15475D01*
X0692Y15525D02*
X71225Y15525D01*
X93350Y15525D02*
X98308Y15525D01*
X0692Y15574D02*
X71176Y15574D01*
X93350Y15574D02*
X98308Y15574D01*
X0692Y15624D02*
X71126Y15624D01*
X93350Y15624D02*
X98308Y15624D01*
X0692Y15673D02*
X71077Y15673D01*
X93350Y15673D02*
X98308Y15673D01*
X0692Y15723D02*
X71027Y15723D01*
X93350Y15723D02*
X98308Y15723D01*
X0692Y15772D02*
X70978Y15772D01*
X93350Y15772D02*
X98308Y15772D01*
X0692Y15822D02*
X70928Y15822D01*
X93350Y15822D02*
X98308Y15822D01*
X0692Y15871D02*
X70879Y15871D01*
X93350Y15871D02*
X98308Y15871D01*
X0692Y15921D02*
X70829Y15921D01*
X93350Y15921D02*
X98308Y15921D01*
X0692Y15970D02*
X70780Y15970D01*
X93350Y15970D02*
X98308Y15970D01*
X0692Y16020D02*
X70730Y16020D01*
X93350Y16020D02*
X98308Y16020D01*
X0692Y16069D02*
X70681Y16069D01*
X93350Y16069D02*
X98308Y16069D01*
X0692Y16119D02*
X70631Y16119D01*
X93350Y16119D02*
X98308Y16119D01*
X0692Y16168D02*
X70582Y16168D01*
X93350Y16168D02*
X98308Y16168D01*
X0692Y16218D02*
X70532Y16218D01*
X93350Y16218D02*
X98308Y16218D01*
X0692Y16268D02*
X70482Y16268D01*
X93350Y16268D02*
X98308Y16268D01*
X0692Y16317D02*
X70433Y16317D01*
X93350Y16317D02*
X98308Y16317D01*
X0692Y16367D02*
X70383Y16367D01*
X93350Y16367D02*
X98308Y16367D01*
X0692Y16416D02*
X70334Y16416D01*
X93350Y16416D02*
X98308Y16416D01*
X0692Y16466D02*
X70284Y16466D01*
X93350Y16466D02*
X98308Y16466D01*
X0692Y16515D02*
X70235Y16515D01*
X93350Y16515D02*
X98308Y16515D01*
X0692Y16565D02*
X70185Y16565D01*
X93350Y16565D02*
X98308Y16565D01*
X0692Y16614D02*
X70136Y16614D01*
X93350Y16614D02*
X98308Y16614D01*
X0692Y16664D02*
X70086Y16664D01*
X93350Y16664D02*
X98308Y16664D01*
X0692Y16713D02*
X70037Y16713D01*
X93350Y16713D02*
X98308Y16713D01*
X0692Y16763D02*
X69987Y16763D01*
X93350Y16763D02*
X98308Y16763D01*
X0692Y16812D02*
X69938Y16812D01*
X93350Y16812D02*
X98308Y16812D01*
X0692Y16862D02*
X69888Y16862D01*
X93350Y16862D02*
X98308Y16862D01*
X0692Y16911D02*
X69839Y16911D01*
X93350Y16911D02*
X98308Y16911D01*
X0692Y16961D02*
X69789Y16961D01*
X93350Y16961D02*
X98308Y16961D01*
X0692Y17010D02*
X69740Y17010D01*
X93350Y17010D02*
X98308Y17010D01*
X0692Y17060D02*
X69690Y17060D01*
X93350Y17060D02*
X98308Y17060D01*
X0692Y17110D02*
X69640Y17110D01*
X93350Y17110D02*
X98308Y17110D01*
X0692Y17159D02*
X69591Y17159D01*
X93350Y17159D02*
X98308Y17159D01*
X0692Y17209D02*
X69541Y17209D01*
X93350Y17209D02*
X98308Y17209D01*
X0692Y17258D02*
X69492Y17258D01*
X93350Y17258D02*
X98308Y17258D01*
X0692Y17308D02*
X69442Y17308D01*
X93350Y17308D02*
X98308Y17308D01*
X0692Y17357D02*
X69393Y17357D01*
X93350Y17357D02*
X98308Y17357D01*
X0692Y17407D02*
X69343Y17407D01*
X93350Y17407D02*
X98308Y17407D01*
X0692Y17456D02*
X69294Y17456D01*
X93350Y17456D02*
X98308Y17456D01*
X0692Y17506D02*
X69244Y17506D01*
X93350Y17506D02*
X98308Y17506D01*
X0692Y17555D02*
X69195Y17555D01*
X93350Y17555D02*
X98308Y17555D01*
X0692Y17605D02*
X69145Y17605D01*
X93350Y17605D02*
X98308Y17605D01*
X0692Y17654D02*
X69096Y17654D01*
X93350Y17654D02*
X98308Y17654D01*
X0692Y17704D02*
X69046Y17704D01*
X93350Y17704D02*
X98308Y17704D01*
X0692Y17753D02*
X68997Y17753D01*
X93350Y17753D02*
X98308Y17753D01*
X0692Y17803D02*
X68947Y17803D01*
X93350Y17803D02*
X98308Y17803D01*
X0692Y17852D02*
X68898Y17852D01*
X93350Y17852D02*
X98308Y17852D01*
X0692Y17902D02*
X68848Y17902D01*
X93350Y17902D02*
X98308Y17902D01*
X0692Y17952D02*
X68798Y17952D01*
X93350Y17952D02*
X98308Y17952D01*
X0692Y18001D02*
X68749Y18001D01*
X93350Y18001D02*
X98308Y18001D01*
X0692Y18051D02*
X68699Y18051D01*
X93350Y18051D02*
X98308Y18051D01*
X0692Y18100D02*
X68650Y18100D01*
X93350Y18100D02*
X98308Y18100D01*
X0692Y18150D02*
X68600Y18150D01*
X93350Y18150D02*
X98308Y18150D01*
X0692Y18199D02*
X68551Y18199D01*
X93350Y18199D02*
X98308Y18199D01*
X0692Y18249D02*
X68501Y18249D01*
X93350Y18249D02*
X98308Y18249D01*
X0692Y18298D02*
X68452Y18298D01*
X93350Y18298D02*
X98308Y18298D01*
X0692Y18348D02*
X68402Y18348D01*
X93350Y18348D02*
X98308Y18348D01*
X0692Y18397D02*
X68353Y18397D01*
X93350Y18397D02*
X98308Y18397D01*
X0692Y18447D02*
X68303Y18447D01*
X93350Y18447D02*
X98308Y18447D01*
X0692Y18496D02*
X68254Y18496D01*
X93350Y18496D02*
X98308Y18496D01*
X0692Y18546D02*
X68204Y18546D01*
X93350Y18546D02*
X98308Y18546D01*
X0692Y18595D02*
X68155Y18595D01*
X93350Y18595D02*
X98308Y18595D01*
X0692Y18645D02*
X68105Y18645D01*
X93350Y18645D02*
X98308Y18645D01*
X0692Y18694D02*
X68056Y18694D01*
X93350Y18694D02*
X98308Y18694D01*
X0692Y18744D02*
X68006Y18744D01*
X93350Y18744D02*
X98308Y18744D01*
X0692Y18794D02*
X67956Y18794D01*
X93350Y18794D02*
X98308Y18794D01*
X0692Y18843D02*
X67907Y18843D01*
X93350Y18843D02*
X98308Y18843D01*
X0692Y18893D02*
X67857Y18893D01*
X93350Y18893D02*
X98308Y18893D01*
X0692Y18942D02*
X67808Y18942D01*
X93350Y18942D02*
X98308Y18942D01*
X0692Y18992D02*
X67758Y18992D01*
X93350Y18992D02*
X98308Y18992D01*
X0692Y19041D02*
X67709Y19041D01*
X93350Y19041D02*
X98308Y19041D01*
X0692Y19091D02*
X67659Y19091D01*
X93350Y19091D02*
X98308Y19091D01*
X0692Y19140D02*
X67610Y19140D01*
X93350Y19140D02*
X98308Y19140D01*
X0692Y19190D02*
X67560Y19190D01*
X93350Y19190D02*
X98308Y19190D01*
X0692Y19239D02*
X67511Y19239D01*
X93350Y19239D02*
X98308Y19239D01*
X0692Y19289D02*
X67461Y19289D01*
X93350Y19289D02*
X98308Y19289D01*
X0692Y19338D02*
X67412Y19338D01*
X93350Y19338D02*
X98308Y19338D01*
X0692Y19388D02*
X67362Y19388D01*
X93350Y19388D02*
X98308Y19388D01*
X0692Y19437D02*
X67313Y19437D01*
X93350Y19437D02*
X98308Y19437D01*
X0692Y19487D02*
X67263Y19487D01*
X0692Y19536D02*
X67214Y19536D01*
X0692Y19586D02*
X67164Y19586D01*
X0692Y19636D02*
X67114Y19636D01*
X0692Y19685D02*
X67065Y19685D01*
X0692Y19735D02*
X67015Y19735D01*
X0692Y19784D02*
X66966Y19784D01*
X0692Y19834D02*
X66916Y19834D01*
X0692Y19883D02*
X66867Y19883D01*
X0692Y19933D02*
X66817Y19933D01*
X0692Y19982D02*
X66768Y19982D01*
X0692Y20032D02*
X66718Y20032D01*
X0692Y20081D02*
X66669Y20081D01*
X0692Y20131D02*
X66619Y20131D01*
X0692Y20180D02*
X66570Y20180D01*
X0692Y20230D02*
X66520Y20230D01*
X0692Y20279D02*
X66471Y20279D01*
X0692Y20329D02*
X66421Y20329D01*
X0692Y20379D02*
X66371Y20379D01*
X0692Y20428D02*
X66322Y20428D01*
X0692Y20478D02*
X14817Y20478D01*
X0692Y20527D02*
X14768Y20527D01*
X0692Y20577D02*
X14718Y20577D01*
X0692Y20626D02*
X14669Y20626D01*
X0692Y20676D02*
X14619Y20676D01*
X0692Y20725D02*
X14570Y20725D01*
X0692Y20775D02*
X14520Y20775D01*
X0692Y20824D02*
X14471Y20824D01*
X0692Y20874D02*
X14421Y20874D01*
X0692Y20923D02*
X14372Y20923D01*
X0692Y20973D02*
X14322Y20973D01*
X0692Y21022D02*
X14273Y21022D01*
X0692Y21072D02*
X14223Y21072D01*
X0692Y21121D02*
X14174Y21121D01*
X0692Y21171D02*
X14124Y21171D01*
X0692Y21221D02*
X14074Y21221D01*
X0692Y21270D02*
X14025Y21270D01*
X0692Y21320D02*
X13975Y21320D01*
X0692Y21369D02*
X13926Y21369D01*
X0692Y21419D02*
X13876Y21419D01*
X0692Y21468D02*
X13827Y21468D01*
X0692Y21518D02*
X13777Y21518D01*
X0692Y21567D02*
X13728Y21567D01*
X0692Y21617D02*
X13678Y21617D01*
X0692Y21666D02*
X13629Y21666D01*
X0692Y21716D02*
X4879Y21716D01*
X0692Y21765D02*
X4830Y21765D01*
X0692Y21815D02*
X4780Y21815D01*
X0692Y21864D02*
X4731Y21864D01*
X0692Y21914D02*
X4681Y21914D01*
X0692Y21963D02*
X4632Y21963D01*
X0692Y22013D02*
X4582Y22013D01*
X0692Y22063D02*
X4532Y22063D01*
X0692Y22112D02*
X4483Y22112D01*
X0692Y22162D02*
X4433Y22162D01*
X0692Y22211D02*
X4384Y22211D01*
X0692Y22261D02*
X4334Y22261D01*
X0692Y22310D02*
X4285Y22310D01*
X0692Y22360D02*
X4235Y22360D01*
%LNpour fill*%
X5377Y27333D02*
X5377Y27333D01*
X5377Y27333*
X17759Y27333*
X17759Y27333*
X18250Y26842*
X23025Y26842*
X23025Y30075*
X18400Y30075*
X18400Y30075*
X17098Y31377*
X17098Y31377*
X17098Y34650*
X0692Y34650*
X0692Y26130*
X4174Y26130*
X5377Y27333*
X0692Y26180D02*
X4224Y26180D01*
X0692Y26229D02*
X4274Y26229D01*
X0692Y26279D02*
X4323Y26279D01*
X0692Y26328D02*
X4373Y26328D01*
X0692Y26378D02*
X4422Y26378D01*
X0692Y26427D02*
X4472Y26427D01*
X0692Y26477D02*
X4521Y26477D01*
X0692Y26526D02*
X4571Y26526D01*
X0692Y26576D02*
X4620Y26576D01*
X0692Y26625D02*
X4670Y26625D01*
X0692Y26675D02*
X4719Y26675D01*
X0692Y26724D02*
X4769Y26724D01*
X0692Y26774D02*
X4818Y26774D01*
X0692Y26823D02*
X4868Y26823D01*
X0692Y26873D02*
X4918Y26873D01*
X18219Y26873D02*
X23025Y26873D01*
X0692Y26922D02*
X4967Y26922D01*
X18169Y26922D02*
X23025Y26922D01*
X0692Y26972D02*
X5017Y26972D01*
X18120Y26972D02*
X23025Y26972D01*
X0692Y27022D02*
X5066Y27022D01*
X18070Y27022D02*
X23025Y27022D01*
X0692Y27071D02*
X5116Y27071D01*
X18021Y27071D02*
X23025Y27071D01*
X0692Y27121D02*
X5165Y27121D01*
X17971Y27121D02*
X23025Y27121D01*
X0692Y27170D02*
X5215Y27170D01*
X17921Y27170D02*
X23025Y27170D01*
X0692Y27220D02*
X5264Y27220D01*
X17872Y27220D02*
X23025Y27220D01*
X0692Y27269D02*
X5314Y27269D01*
X17822Y27269D02*
X23025Y27269D01*
X0692Y27319D02*
X5363Y27319D01*
X17773Y27319D02*
X23025Y27319D01*
X0692Y27368D02*
X23025Y27368D01*
X0692Y27418D02*
X23025Y27418D01*
X0692Y27467D02*
X23025Y27467D01*
X0692Y27517D02*
X23025Y27517D01*
X0692Y27566D02*
X23025Y27566D01*
X0692Y27616D02*
X23025Y27616D01*
X0692Y27665D02*
X23025Y27665D01*
X0692Y27715D02*
X23025Y27715D01*
X0692Y27764D02*
X23025Y27764D01*
X0692Y27814D02*
X23025Y27814D01*
X0692Y27864D02*
X23025Y27864D01*
X0692Y27913D02*
X23025Y27913D01*
X0692Y27963D02*
X23025Y27963D01*
X0692Y28012D02*
X23025Y28012D01*
X0692Y28062D02*
X23025Y28062D01*
X0692Y28111D02*
X23025Y28111D01*
X0692Y28161D02*
X23025Y28161D01*
X0692Y28210D02*
X23025Y28210D01*
X0692Y28260D02*
X23025Y28260D01*
X0692Y28309D02*
X23025Y28309D01*
X0692Y28359D02*
X23025Y28359D01*
X0692Y28408D02*
X23025Y28408D01*
X0692Y28458D02*
X23025Y28458D01*
X0692Y28507D02*
X23025Y28507D01*
X0692Y28557D02*
X23025Y28557D01*
X0692Y28607D02*
X23025Y28607D01*
X0692Y28656D02*
X23025Y28656D01*
X0692Y28706D02*
X23025Y28706D01*
X0692Y28755D02*
X23025Y28755D01*
X0692Y28805D02*
X23025Y28805D01*
X0692Y28854D02*
X23025Y28854D01*
X0692Y28904D02*
X23025Y28904D01*
X0692Y28953D02*
X23025Y28953D01*
X0692Y29003D02*
X23025Y29003D01*
X0692Y29052D02*
X23025Y29052D01*
X0692Y29102D02*
X23025Y29102D01*
X0692Y29151D02*
X23025Y29151D01*
X0692Y29201D02*
X23025Y29201D01*
X0692Y29250D02*
X23025Y29250D01*
X0692Y29300D02*
X23025Y29300D01*
X0692Y29349D02*
X23025Y29349D01*
X0692Y29399D02*
X23025Y29399D01*
X0692Y29449D02*
X23025Y29449D01*
X0692Y29498D02*
X23025Y29498D01*
X0692Y29548D02*
X23025Y29548D01*
X0692Y29597D02*
X23025Y29597D01*
X0692Y29647D02*
X23025Y29647D01*
X0692Y29696D02*
X23025Y29696D01*
X0692Y29746D02*
X23025Y29746D01*
X0692Y29795D02*
X23025Y29795D01*
X0692Y29845D02*
X23025Y29845D01*
X0692Y29894D02*
X23025Y29894D01*
X0692Y29944D02*
X23025Y29944D01*
X0692Y29993D02*
X23025Y29993D01*
X0692Y30043D02*
X23025Y30043D01*
X0692Y30092D02*
X18383Y30092D01*
X0692Y30142D02*
X18333Y30142D01*
X0692Y30191D02*
X18284Y30191D01*
X0692Y30241D02*
X18234Y30241D01*
X0692Y30291D02*
X18184Y30291D01*
X0692Y30340D02*
X18135Y30340D01*
X0692Y30390D02*
X18085Y30390D01*
X0692Y30439D02*
X18036Y30439D01*
X0692Y30489D02*
X17986Y30489D01*
X0692Y30538D02*
X17937Y30538D01*
X0692Y30588D02*
X17887Y30588D01*
X0692Y30637D02*
X17838Y30637D01*
X0692Y30687D02*
X17788Y30687D01*
X0692Y30736D02*
X17739Y30736D01*
X0692Y30786D02*
X17689Y30786D01*
X0692Y30835D02*
X17640Y30835D01*
X0692Y30885D02*
X17590Y30885D01*
X0692Y30934D02*
X17541Y30934D01*
X0692Y30984D02*
X17491Y30984D01*
X0692Y31033D02*
X17442Y31033D01*
X0692Y31083D02*
X17392Y31083D01*
X0692Y31133D02*
X17342Y31133D01*
X0692Y31182D02*
X17293Y31182D01*
X0692Y31232D02*
X17243Y31232D01*
X0692Y31281D02*
X17194Y31281D01*
X0692Y31331D02*
X17144Y31331D01*
X0692Y31380D02*
X17098Y31380D01*
X0692Y31430D02*
X17098Y31430D01*
X0692Y31479D02*
X17098Y31479D01*
X0692Y31529D02*
X17098Y31529D01*
X0692Y31578D02*
X17098Y31578D01*
X0692Y31628D02*
X17098Y31628D01*
X0692Y31677D02*
X17098Y31677D01*
X0692Y31727D02*
X17098Y31727D01*
X0692Y31776D02*
X17098Y31776D01*
X0692Y31826D02*
X17098Y31826D01*
X0692Y31875D02*
X17098Y31875D01*
X0692Y31925D02*
X17098Y31925D01*
X0692Y31975D02*
X17098Y31975D01*
X0692Y32024D02*
X17098Y32024D01*
X0692Y32074D02*
X17098Y32074D01*
X0692Y32123D02*
X17098Y32123D01*
X0692Y32173D02*
X17098Y32173D01*
X0692Y32222D02*
X17098Y32222D01*
X0692Y32272D02*
X17098Y32272D01*
X0692Y32321D02*
X17098Y32321D01*
X0692Y32371D02*
X17098Y32371D01*
X0692Y32420D02*
X17098Y32420D01*
X0692Y32470D02*
X17098Y32470D01*
X0692Y32519D02*
X17098Y32519D01*
X0692Y32569D02*
X17098Y32569D01*
X0692Y32618D02*
X17098Y32618D01*
X0692Y32668D02*
X17098Y32668D01*
X0692Y32717D02*
X17098Y32717D01*
X0692Y32767D02*
X17098Y32767D01*
X0692Y32817D02*
X17098Y32817D01*
X0692Y32866D02*
X17098Y32866D01*
X0692Y32916D02*
X17098Y32916D01*
X0692Y32965D02*
X17098Y32965D01*
X0692Y33015D02*
X17098Y33015D01*
X0692Y33064D02*
X17098Y33064D01*
X0692Y33114D02*
X17098Y33114D01*
X0692Y33163D02*
X17098Y33163D01*
X0692Y33213D02*
X17098Y33213D01*
X0692Y33262D02*
X17098Y33262D01*
X0692Y33312D02*
X17098Y33312D01*
X0692Y33361D02*
X17098Y33361D01*
X0692Y33411D02*
X17098Y33411D01*
X0692Y33460D02*
X17098Y33460D01*
X0692Y33510D02*
X17098Y33510D01*
X0692Y33559D02*
X17098Y33559D01*
X0692Y33609D02*
X17098Y33609D01*
X0692Y33659D02*
X17098Y33659D01*
X0692Y33708D02*
X17098Y33708D01*
X0692Y33758D02*
X17098Y33758D01*
X0692Y33807D02*
X17098Y33807D01*
X0692Y33857D02*
X17098Y33857D01*
X0692Y33906D02*
X17098Y33906D01*
X0692Y33956D02*
X17098Y33956D01*
X0692Y34005D02*
X17098Y34005D01*
X0692Y34055D02*
X17098Y34055D01*
X0692Y34104D02*
X17098Y34104D01*
X0692Y34154D02*
X17098Y34154D01*
X0692Y34203D02*
X17098Y34203D01*
X0692Y34253D02*
X17098Y34253D01*
X0692Y34302D02*
X17098Y34302D01*
X0692Y34352D02*
X17098Y34352D01*
X0692Y34402D02*
X17098Y34402D01*
X0692Y34451D02*
X17098Y34451D01*
X0692Y34501D02*
X17098Y34501D01*
X0692Y34550D02*
X17098Y34550D01*
X0692Y34600D02*
X17098Y34600D01*
X0692Y34649D02*
X17098Y34649D01*
%LNpour fill*%
X48550Y30235D02*
X48550Y30235D01*
X42686Y30235*
X42686Y27283*
X48550Y27283*
X48550Y30235*
X42685Y27332D02*
X48550Y27332D01*
X42685Y27382D02*
X48550Y27382D01*
X42685Y27431D02*
X48550Y27431D01*
X42685Y27481D02*
X48550Y27481D01*
X42685Y27531D02*
X48550Y27531D01*
X42685Y27580D02*
X48550Y27580D01*
X42685Y27630D02*
X48550Y27630D01*
X42685Y27679D02*
X48550Y27679D01*
X42685Y27729D02*
X48550Y27729D01*
X42685Y27778D02*
X48550Y27778D01*
X42685Y27828D02*
X48550Y27828D01*
X42685Y27877D02*
X48550Y27877D01*
X42685Y27927D02*
X48550Y27927D01*
X42685Y27976D02*
X48550Y27976D01*
X42685Y28026D02*
X48550Y28026D01*
X42685Y28075D02*
X48550Y28075D01*
X42685Y28125D02*
X48550Y28125D01*
X42685Y28174D02*
X48550Y28174D01*
X42685Y28224D02*
X48550Y28224D01*
X42685Y28273D02*
X48550Y28273D01*
X42685Y28323D02*
X48550Y28323D01*
X42685Y28373D02*
X48550Y28373D01*
X42685Y28422D02*
X48550Y28422D01*
X42685Y28472D02*
X48550Y28472D01*
X42685Y28521D02*
X48550Y28521D01*
X42685Y28571D02*
X48550Y28571D01*
X42685Y28620D02*
X48550Y28620D01*
X42685Y28670D02*
X48550Y28670D01*
X42685Y28719D02*
X48550Y28719D01*
X42685Y28769D02*
X48550Y28769D01*
X42685Y28818D02*
X48550Y28818D01*
X42685Y28868D02*
X48550Y28868D01*
X42685Y28917D02*
X48550Y28917D01*
X42685Y28967D02*
X48550Y28967D01*
X42685Y29016D02*
X48550Y29016D01*
X42685Y29066D02*
X48550Y29066D01*
X42685Y29116D02*
X48550Y29116D01*
X42685Y29165D02*
X48550Y29165D01*
X42685Y29215D02*
X48550Y29215D01*
X42685Y29264D02*
X48550Y29264D01*
X42685Y29314D02*
X48550Y29314D01*
X42685Y29363D02*
X48550Y29363D01*
X42685Y29413D02*
X48550Y29413D01*
X42685Y29462D02*
X48550Y29462D01*
X42685Y29512D02*
X48550Y29512D01*
X42685Y29561D02*
X48550Y29561D01*
X42685Y29611D02*
X48550Y29611D01*
X42685Y29660D02*
X48550Y29660D01*
X42685Y29710D02*
X48550Y29710D01*
X42685Y29759D02*
X48550Y29759D01*
X42685Y29809D02*
X48550Y29809D01*
X42685Y29858D02*
X48550Y29858D01*
X42685Y29908D02*
X48550Y29908D01*
X42685Y29958D02*
X48550Y29958D01*
X42685Y30007D02*
X48550Y30007D01*
X42685Y30057D02*
X48550Y30057D01*
X42685Y30106D02*
X48550Y30106D01*
X42685Y30156D02*
X48550Y30156D01*
X42685Y30205D02*
X48550Y30205D01*
%LNpour fill*%
X28800Y36735D02*
X28800Y36735D01*
X21940Y36735*
X21940Y34413*
X28800Y34413*
X28800Y36735*
X21940Y34462D02*
X28800Y34462D01*
X21940Y34511D02*
X28800Y34511D01*
X21940Y34561D02*
X28800Y34561D01*
X21940Y34610D02*
X28800Y34610D01*
X21940Y34660D02*
X28800Y34660D01*
X21940Y34710D02*
X28800Y34710D01*
X21940Y34759D02*
X28800Y34759D01*
X21940Y34809D02*
X28800Y34809D01*
X21940Y34858D02*
X28800Y34858D01*
X21940Y34908D02*
X28800Y34908D01*
X21940Y34957D02*
X28800Y34957D01*
X21940Y35007D02*
X28800Y35007D01*
X21940Y35056D02*
X28800Y35056D01*
X21940Y35106D02*
X28800Y35106D01*
X21940Y35155D02*
X28800Y35155D01*
X21940Y35205D02*
X28800Y35205D01*
X21940Y35254D02*
X28800Y35254D01*
X21940Y35304D02*
X28800Y35304D01*
X21940Y35353D02*
X28800Y35353D01*
X21940Y35403D02*
X28800Y35403D01*
X21940Y35452D02*
X28800Y35452D01*
X21940Y35502D02*
X28800Y35502D01*
X21940Y35552D02*
X28800Y35552D01*
X21940Y35601D02*
X28800Y35601D01*
X21940Y35651D02*
X28800Y35651D01*
X21940Y35700D02*
X28800Y35700D01*
X21940Y35750D02*
X28800Y35750D01*
X21940Y35799D02*
X28800Y35799D01*
X21940Y35849D02*
X28800Y35849D01*
X21940Y35898D02*
X28800Y35898D01*
X21940Y35948D02*
X28800Y35948D01*
X21940Y35997D02*
X28800Y35997D01*
X21940Y36047D02*
X28800Y36047D01*
X21940Y36096D02*
X28800Y36096D01*
X21940Y36146D02*
X28800Y36146D01*
X21940Y36195D02*
X28800Y36195D01*
X21940Y36245D02*
X28800Y36245D01*
X21940Y36294D02*
X28800Y36294D01*
X21940Y36344D02*
X28800Y36344D01*
X21940Y36394D02*
X28800Y36394D01*
X21940Y36443D02*
X28800Y36443D01*
X21940Y36493D02*
X28800Y36493D01*
X21940Y36542D02*
X28800Y36542D01*
X21940Y36592D02*
X28800Y36592D01*
X21940Y36641D02*
X28800Y36641D01*
X21940Y36691D02*
X28800Y36691D01*
%LNpour fill*%
X54210Y34475D02*
X54210Y34475D01*
X54210Y37389*
X46440Y37389*
X46440Y34436*
X54050Y34436*
X54050Y34436*
X54110Y34375*
X54210Y34475*
X54061Y34425D02*
X54160Y34425D01*
X46440Y34474D02*
X54209Y34474D01*
X46440Y34524D02*
X54210Y34524D01*
X46440Y34573D02*
X54210Y34573D01*
X46440Y34623D02*
X54210Y34623D01*
X46440Y34672D02*
X54210Y34672D01*
X46440Y34722D02*
X54210Y34722D01*
X46440Y34771D02*
X54210Y34771D01*
X46440Y34821D02*
X54210Y34821D01*
X46440Y34870D02*
X54210Y34870D01*
X46440Y34920D02*
X54210Y34920D01*
X46440Y34969D02*
X54210Y34969D01*
X46440Y35019D02*
X54210Y35019D01*
X46440Y35068D02*
X54210Y35068D01*
X46440Y35118D02*
X54210Y35118D01*
X46440Y35167D02*
X54210Y35167D01*
X46440Y35217D02*
X54210Y35217D01*
X46440Y35267D02*
X54210Y35267D01*
X46440Y35316D02*
X54210Y35316D01*
X46440Y35366D02*
X54210Y35366D01*
X46440Y35415D02*
X54210Y35415D01*
X46440Y35465D02*
X54210Y35465D01*
X46440Y35514D02*
X54210Y35514D01*
X46440Y35564D02*
X54210Y35564D01*
X46440Y35613D02*
X54210Y35613D01*
X46440Y35663D02*
X54210Y35663D01*
X46440Y35712D02*
X54210Y35712D01*
X46440Y35762D02*
X54210Y35762D01*
X46440Y35811D02*
X54210Y35811D01*
X46440Y35861D02*
X54210Y35861D01*
X46440Y35910D02*
X54210Y35910D01*
X46440Y35960D02*
X54210Y35960D01*
X46440Y36009D02*
X54210Y36009D01*
X46440Y36059D02*
X54210Y36059D01*
X46440Y36109D02*
X54210Y36109D01*
X46440Y36158D02*
X54210Y36158D01*
X46440Y36208D02*
X54210Y36208D01*
X46440Y36257D02*
X54210Y36257D01*
X46440Y36307D02*
X54210Y36307D01*
X46440Y36356D02*
X54210Y36356D01*
X46440Y36406D02*
X54210Y36406D01*
X46440Y36455D02*
X54210Y36455D01*
X46440Y36505D02*
X54210Y36505D01*
X46440Y36554D02*
X54210Y36554D01*
X46440Y36604D02*
X54210Y36604D01*
X46440Y36653D02*
X54210Y36653D01*
X46440Y36703D02*
X54210Y36703D01*
X46440Y36752D02*
X54210Y36752D01*
X46440Y36802D02*
X54210Y36802D01*
X46440Y36852D02*
X54210Y36852D01*
X46440Y36901D02*
X54210Y36901D01*
X46440Y36951D02*
X54210Y36951D01*
X46440Y37000D02*
X54210Y37000D01*
X46440Y37050D02*
X54210Y37050D01*
X46440Y37099D02*
X54210Y37099D01*
X46440Y37149D02*
X54210Y37149D01*
X46440Y37198D02*
X54210Y37198D01*
X46440Y37248D02*
X54210Y37248D01*
X46440Y37297D02*
X54210Y37297D01*
X46440Y37347D02*
X54210Y37347D01*
%LNpour fill*%
X98308Y33550D02*
X98308Y33550D01*
X87775Y33550*
X87775Y27550*
X93125Y27550*
X93125Y27550*
X94395Y26280*
X98308Y26280*
X98308Y33550*
X94345Y26330D02*
X98308Y26330D01*
X94296Y26379D02*
X98308Y26379D01*
X94246Y26429D02*
X98308Y26429D01*
X94197Y26478D02*
X98308Y26478D01*
X94147Y26528D02*
X98308Y26528D01*
X94098Y26577D02*
X98308Y26577D01*
X94048Y26627D02*
X98308Y26627D01*
X93999Y26676D02*
X98308Y26676D01*
X93949Y26726D02*
X98308Y26726D01*
X93900Y26775D02*
X98308Y26775D01*
X93850Y26825D02*
X98308Y26825D01*
X93801Y26874D02*
X98308Y26874D01*
X93751Y26924D02*
X98308Y26924D01*
X93702Y26973D02*
X98308Y26973D01*
X93652Y27023D02*
X98308Y27023D01*
X93603Y27072D02*
X98308Y27072D01*
X93553Y27122D02*
X98308Y27122D01*
X93503Y27172D02*
X98308Y27172D01*
X93454Y27221D02*
X98308Y27221D01*
X93404Y27271D02*
X98308Y27271D01*
X93355Y27320D02*
X98308Y27320D01*
X93305Y27370D02*
X98308Y27370D01*
X93256Y27419D02*
X98308Y27419D01*
X93206Y27469D02*
X98308Y27469D01*
X93157Y27518D02*
X98308Y27518D01*
X87775Y27568D02*
X98308Y27568D01*
X87775Y27617D02*
X98308Y27617D01*
X87775Y27667D02*
X98308Y27667D01*
X87775Y27716D02*
X98308Y27716D01*
X87775Y27766D02*
X98308Y27766D01*
X87775Y27815D02*
X98308Y27815D01*
X87775Y27865D02*
X98308Y27865D01*
X87775Y27914D02*
X98308Y27914D01*
X87775Y27964D02*
X98308Y27964D01*
X87775Y28014D02*
X98308Y28014D01*
X87775Y28063D02*
X98308Y28063D01*
X87775Y28113D02*
X98308Y28113D01*
X87775Y28162D02*
X98308Y28162D01*
X87775Y28212D02*
X98308Y28212D01*
X87775Y28261D02*
X98308Y28261D01*
X87775Y28311D02*
X98308Y28311D01*
X87775Y28360D02*
X98308Y28360D01*
X87775Y28410D02*
X98308Y28410D01*
X87775Y28459D02*
X98308Y28459D01*
X87775Y28509D02*
X98308Y28509D01*
X87775Y28558D02*
X98308Y28558D01*
X87775Y28608D02*
X98308Y28608D01*
X87775Y28657D02*
X98308Y28657D01*
X87775Y28707D02*
X98308Y28707D01*
X87775Y28756D02*
X98308Y28756D01*
X87775Y28806D02*
X98308Y28806D01*
X87775Y28856D02*
X98308Y28856D01*
X87775Y28905D02*
X98308Y28905D01*
X87775Y28955D02*
X98308Y28955D01*
X87775Y29004D02*
X98308Y29004D01*
X87775Y29054D02*
X98308Y29054D01*
X87775Y29103D02*
X98308Y29103D01*
X87775Y29153D02*
X98308Y29153D01*
X87775Y29202D02*
X98308Y29202D01*
X87775Y29252D02*
X98308Y29252D01*
X87775Y29301D02*
X98308Y29301D01*
X87775Y29351D02*
X98308Y29351D01*
X87775Y29400D02*
X98308Y29400D01*
X87775Y29450D02*
X98308Y29450D01*
X87775Y29499D02*
X98308Y29499D01*
X87775Y29549D02*
X98308Y29549D01*
X87775Y29599D02*
X98308Y29599D01*
X87775Y29648D02*
X98308Y29648D01*
X87775Y29698D02*
X98308Y29698D01*
X87775Y29747D02*
X98308Y29747D01*
X87775Y29797D02*
X98308Y29797D01*
X87775Y29846D02*
X98308Y29846D01*
X87775Y29896D02*
X98308Y29896D01*
X87775Y29945D02*
X98308Y29945D01*
X87775Y29995D02*
X98308Y29995D01*
X87775Y30044D02*
X98308Y30044D01*
X87775Y30094D02*
X98308Y30094D01*
X87775Y30143D02*
X98308Y30143D01*
X87775Y30193D02*
X98308Y30193D01*
X87775Y30242D02*
X98308Y30242D01*
X87775Y30292D02*
X98308Y30292D01*
X87775Y30341D02*
X98308Y30341D01*
X87775Y30391D02*
X98308Y30391D01*
X87775Y30441D02*
X98308Y30441D01*
X87775Y30490D02*
X98308Y30490D01*
X87775Y30540D02*
X98308Y30540D01*
X87775Y30589D02*
X98308Y30589D01*
X87775Y30639D02*
X98308Y30639D01*
X87775Y30688D02*
X98308Y30688D01*
X87775Y30738D02*
X98308Y30738D01*
X87775Y30787D02*
X98308Y30787D01*
X87775Y30837D02*
X98308Y30837D01*
X87775Y30886D02*
X98308Y30886D01*
X87775Y30936D02*
X98308Y30936D01*
X87775Y30985D02*
X98308Y30985D01*
X87775Y31035D02*
X98308Y31035D01*
X87775Y31084D02*
X98308Y31084D01*
X87775Y31134D02*
X98308Y31134D01*
X87775Y31183D02*
X98308Y31183D01*
X87775Y31233D02*
X98308Y31233D01*
X87775Y31283D02*
X98308Y31283D01*
X87775Y31332D02*
X98308Y31332D01*
X87775Y31382D02*
X98308Y31382D01*
X87775Y31431D02*
X98308Y31431D01*
X87775Y31481D02*
X98308Y31481D01*
X87775Y31530D02*
X98308Y31530D01*
X87775Y31580D02*
X98308Y31580D01*
X87775Y31629D02*
X98308Y31629D01*
X87775Y31679D02*
X98308Y31679D01*
X87775Y31728D02*
X98308Y31728D01*
X87775Y31778D02*
X98308Y31778D01*
X87775Y31827D02*
X98308Y31827D01*
X87775Y31877D02*
X98308Y31877D01*
X87775Y31926D02*
X98308Y31926D01*
X87775Y31976D02*
X98308Y31976D01*
X87775Y32025D02*
X98308Y32025D01*
X87775Y32075D02*
X98308Y32075D01*
X87775Y32125D02*
X98308Y32125D01*
X87775Y32174D02*
X98308Y32174D01*
X87775Y32224D02*
X98308Y32224D01*
X87775Y32273D02*
X98308Y32273D01*
X87775Y32323D02*
X98308Y32323D01*
X87775Y32372D02*
X98308Y32372D01*
X87775Y32422D02*
X98308Y32422D01*
X87775Y32471D02*
X98308Y32471D01*
X87775Y32521D02*
X98308Y32521D01*
X87775Y32570D02*
X98308Y32570D01*
X87775Y32620D02*
X98308Y32620D01*
X87775Y32669D02*
X98308Y32669D01*
X87775Y32719D02*
X98308Y32719D01*
X87775Y32768D02*
X98308Y32768D01*
X87775Y32818D02*
X98308Y32818D01*
X87775Y32867D02*
X98308Y32867D01*
X87775Y32917D02*
X98308Y32917D01*
X87775Y32967D02*
X98308Y32967D01*
X87775Y33016D02*
X98308Y33016D01*
X87775Y33066D02*
X98308Y33066D01*
X87775Y33115D02*
X98308Y33115D01*
X87775Y33165D02*
X98308Y33165D01*
X87775Y33214D02*
X98308Y33214D01*
X87775Y33264D02*
X98308Y33264D01*
X87775Y33313D02*
X98308Y33313D01*
X87775Y33363D02*
X98308Y33363D01*
X87775Y33412D02*
X98308Y33412D01*
X87775Y33462D02*
X98308Y33462D01*
X87775Y33511D02*
X98308Y33511D01*
%LNtop copper_traces*%
D11*
X21650Y33539D02*
X22450Y33539D01*
X49473Y39748D02*
X54850Y45125D01*
D12*
X86550Y12800D02*
X90575Y12800D01*
X84575Y13325D02*
X84575Y15525D01*
X82575Y22475D02*
X82575Y21655D01*
X85300Y16475D02*
X85625Y16800D01*
D11*
X77500Y44650D02*
X77500Y42700D01*
D12*
X84575Y22300D02*
X84575Y22000D01*
X89175Y24450D02*
X89550Y24450D01*
D11*
X78450Y30300D02*
X78450Y32685D01*
D12*
X85550Y24950D02*
X84195Y24950D01*
D11*
X7150Y39640D02*
X3860Y39640D01*
X82600Y10450D02*
X84525Y12375D01*
X20776Y35474D02*
X20776Y34412D01*
D12*
X79475Y15525D02*
X81625Y15525D01*
X84525Y17650D02*
X84525Y19325D01*
D11*
X18350Y39275D02*
X18500Y39125D01*
D12*
X79475Y18555D02*
X79475Y17650D01*
D13*
X16675Y24450D02*
X18713Y24450D01*
D12*
X83075Y16950D02*
X83075Y16000D01*
X81600Y23950D02*
X82575Y23950D01*
X78075Y16700D02*
X79250Y15525D01*
X83075Y26425D02*
X83075Y28675D01*
X83575Y20895D02*
X84020Y20450D01*
X89525Y19825D02*
X89525Y17425D01*
D11*
X15075Y38825D02*
X16225Y37675D01*
X21675Y40275D02*
X20350Y39275D01*
X47350Y33085D02*
X52325Y33085D01*
D12*
X82575Y21655D02*
X79475Y18555D01*
D13*
X25225Y25500D02*
X25275Y32627D01*
D12*
X84075Y22475D02*
X84075Y21500D01*
D11*
X67075Y21800D02*
X78425Y10450D01*
D14*
X12450Y24450D02*
X13225Y24450D01*
D12*
X45550Y23075D02*
X45550Y23950D01*
X85550Y23950D02*
X84695Y23950D01*
X84900Y16475D02*
X85300Y16475D01*
X83575Y26925D02*
X85200Y28550D01*
X83075Y20895D02*
X81600Y19420D01*
D11*
X45877Y33550D02*
X47150Y33550D01*
X12675Y45200D02*
X12675Y44100D01*
D12*
X85550Y23450D02*
X84775Y23450D01*
X81600Y22215D02*
X78075Y18690D01*
D14*
X8200Y24460D02*
X5410Y24450D01*
D12*
X81600Y19420D02*
X81600Y17650D01*
D11*
X24925Y32912D02*
X22725Y32912D01*
X19900Y39114D02*
X19775Y39100D01*
D12*
X85550Y25450D02*
X84695Y25450D01*
D11*
X9325Y37675D02*
X13650Y37675D01*
D14*
X27800Y24400D02*
X22575Y24375D01*
D12*
X84075Y26425D02*
X84075Y25450D01*
X84425Y21150D02*
X84425Y20025D01*
D11*
X13650Y37675D02*
X14675Y38700D01*
X80535Y31040D02*
X88100Y31040D01*
D12*
X84950Y21650D02*
X90150Y21500D01*
D11*
X15625Y41525D02*
X18350Y39275D01*
D12*
X84575Y26425D02*
X84575Y25450D01*
D11*
X78450Y30175D02*
X77625Y29350D01*
D12*
X87775Y19825D02*
X86925Y19825D01*
X20257Y23150D02*
X20257Y23975D01*
D14*
X73275Y24425D02*
X79600Y24425D01*
D12*
X83550Y15525D02*
X83075Y16000D01*
X83575Y26425D02*
X83575Y26925D01*
X81600Y23450D02*
X81600Y22215D01*
X83550Y17425D02*
X84525Y17425D01*
X84575Y22000D02*
X84950Y21650D01*
X82575Y26925D02*
X80825Y28675D01*
D11*
X18500Y39100D02*
X19625Y39125D01*
X20400Y35850D02*
X20776Y35474D01*
X45877Y33550D02*
X44700Y35000D01*
X13100Y41500D02*
X15625Y41525D01*
D12*
X85625Y16800D02*
X85625Y17925D01*
D11*
X80400Y29350D02*
X79400Y29350D01*
X78425Y10450D02*
X82600Y10450D01*
D12*
X83075Y16950D02*
X83550Y17425D01*
D11*
X16225Y37675D02*
X23050Y37700D01*
D12*
X82575Y26425D02*
X82575Y26925D01*
D11*
X49473Y39748D02*
X48425Y38700D01*
D14*
X40500Y24400D02*
X43200Y24400D01*
D11*
X69675Y29350D02*
X67075Y26750D01*
D14*
X93425Y24500D02*
X90100Y24490D01*
D12*
X85625Y17925D02*
X86250Y18550D01*
D11*
X25275Y32962D02*
X27675Y32962D01*
D12*
X86250Y18550D02*
X86250Y19325D01*
D14*
X60575Y24425D02*
X47925Y24425D01*
D12*
X90150Y21500D02*
X90650Y21250D01*
X82050Y15200D02*
X82675Y14600D01*
D11*
X44550Y40194D02*
X21675Y40275D01*
X24250Y38850D02*
X23125Y37800D01*
X3175Y36850D02*
X6775Y36850D01*
D12*
X81600Y24950D02*
X82695Y24950D01*
D11*
X82815Y42075D02*
X82815Y39050D01*
X80400Y29040D02*
X85675Y29040D01*
D12*
X92225Y11730D02*
X91050Y10555D01*
D11*
X67075Y26750D02*
X67075Y21800D01*
D12*
X85650Y24450D02*
X87035Y24450D01*
X79720Y24450D02*
X81625Y24450D01*
X87100Y16475D02*
X87100Y17280D01*
D11*
X79400Y29350D02*
X78450Y30300D01*
X7600Y39400D02*
X9325Y37675D01*
X20776Y34412D02*
X21650Y33539D01*
X44700Y35000D02*
X44650Y36550D01*
D12*
X90650Y21250D02*
X91450Y20050D01*
D11*
X80275Y39150D02*
X80275Y44650D01*
D13*
X50050Y25561D02*
X50050Y32750D01*
D12*
X83575Y22475D02*
X83575Y20895D01*
X78075Y18690D02*
X78075Y16700D01*
D11*
X48425Y38700D02*
X24250Y38850D01*
D12*
X92225Y16475D02*
X92225Y11730D01*
D11*
X82950Y37285D02*
X78450Y32785D01*
D12*
X84075Y21500D02*
X84425Y21150D01*
X89425Y14400D02*
X89425Y15425D01*
X84475Y15525D02*
X83550Y15525D01*
D11*
X52975Y43250D02*
X52975Y43250D01*
D12*
X83075Y22475D02*
X83075Y20895D01*
D11*
X77625Y29350D02*
X69675Y29350D01*
X77325Y45125D02*
X54850Y45125D01*
X10450Y39725D02*
X12250Y41500D01*
X82950Y38350D02*
X82950Y37285D01*
X82660Y24130D03*
X69475Y16325D03*
X19750Y16925D03*
X4950Y17125D03*
X6450Y34100D03*
X88650Y8250D03*
X19750Y13125D03*
X47065Y36802D03*
D15*
X3125Y3125D03*
D11*
X93400Y1150D03*
X83910Y24760D03*
X42050Y16550D03*
X8975Y34200D03*
X8125Y14950D03*
X93850Y27550D03*
X17550Y7275D03*
X66075Y19725D03*
X9150Y7200D03*
X52350Y7150D03*
X14143Y28375D03*
X16575Y34150D03*
X14650Y1050D03*
X46000Y13600D03*
X78925Y4400D03*
X18713Y27333D03*
X82675Y14600D03*
X33125Y13250D03*
X22000Y9800D03*
X15450Y3950D03*
X24750Y8600D03*
X96925Y12050D03*
X12325Y3950D03*
D16*
X20257Y29600D03*
D11*
X18250Y1050D03*
D15*
X49500Y45875D03*
D11*
X84510Y23530D03*
X85075Y1000D03*
X44475Y0950D03*
X1200Y5675D03*
X97525Y5950D03*
X1175Y28325D03*
X43450Y11475D03*
X25750Y10950D03*
X83260Y23530D03*
X93475Y8850D03*
X12675Y45200D03*
X60050Y4675D03*
X51725Y19475D03*
X5250Y28075D03*
D16*
X45800Y29650D03*
D11*
X2925Y28325D03*
X1200Y8625D03*
X40125Y19875D03*
X26775Y36325D03*
X1200Y11425D03*
X87775Y19825D03*
X97750Y30600D03*
D15*
X95875Y3125D03*
D11*
X83525Y4750D03*
X74125Y3325D03*
X20257Y23150D03*
X71675Y14075D03*
X61800Y1075D03*
X93925Y11275D03*
X19525Y19850D03*
X57150Y1075D03*
X39325Y14350D03*
X10150Y11550D03*
X83910Y25360D03*
X21250Y6350D03*
X82660Y24760D03*
X89275Y1000D03*
X10650Y28375D03*
X40950Y0950D03*
X32075Y4650D03*
X90575Y27975D03*
X4150Y34100D03*
X62925Y13950D03*
X47675Y15400D03*
X97875Y33100D03*
X87100Y16475D03*
X91275Y33150D03*
X97725Y17800D03*
X97725Y14800D03*
X49000Y36802D03*
X63475Y9050D03*
D16*
X47175Y27725D03*
D15*
X49500Y3125D03*
D11*
X83910Y23530D03*
X82050Y8075D03*
X75000Y10600D03*
X21710Y27333D03*
X71400Y8950D03*
X3775Y30800D03*
X16575Y31650D03*
X32525Y19875D03*
X16475Y29300D03*
X70000Y4950D03*
X29150Y19875D03*
X90650Y30725D03*
X11675Y20950D03*
X13725Y11250D03*
X82660Y23530D03*
X67550Y12875D03*
X95650Y7350D03*
X59350Y10525D03*
X36125Y19875D03*
X84510Y24130D03*
X11075Y18075D03*
X41450Y7350D03*
X8450Y1050D03*
X67550Y8650D03*
X26550Y34950D03*
X25250Y19875D03*
X65250Y5050D03*
X78200Y8075D03*
X34850Y8475D03*
X11650Y1050D03*
X48025Y29650D03*
X30950Y16525D03*
X88100Y33150D03*
X83300Y24760D03*
D16*
X43500Y29550D03*
D11*
X1200Y17125D03*
X1225Y31225D03*
X83910Y24130D03*
X88250Y4400D03*
X93925Y17600D03*
X49125Y18950D03*
X22450Y36200D03*
X15375Y19750D03*
X93925Y14550D03*
X16875Y10400D03*
X5050Y12125D03*
D15*
X95875Y45875D03*
D11*
X23925Y35529D03*
X61875Y19725D03*
X71200Y1075D03*
D16*
X43950Y27825D03*
D11*
X26875Y0950D03*
X13525Y7950D03*
X5525Y1050D03*
X45950Y6475D03*
X27875Y6675D03*
X53525Y10650D03*
X97750Y28300D03*
X21075Y3950D03*
X95050Y33100D03*
X52400Y1075D03*
X37150Y17000D03*
D15*
X3125Y45875D03*
D11*
X44407Y19875D03*
X84510Y25360D03*
X94025Y30150D03*
X37250Y5200D03*
X74750Y6925D03*
X8975Y32250D03*
X22125Y14075D03*
X66250Y1075D03*
X7350Y4275D03*
X76600Y1000D03*
X12375Y14575D03*
D16*
X21986Y28950D03*
D11*
X83260Y24130D03*
X42875Y4150D03*
X1225Y34100D03*
X15900Y13325D03*
X93925Y20850D03*
X1200Y20450D03*
X21075Y0950D03*
X96075Y28300D03*
X57400Y7150D03*
X83260Y25360D03*
X97950Y9600D03*
X8975Y29850D03*
X3250Y20350D03*
X1200Y14425D03*
X5400Y7750D03*
X53525Y36375D03*
X25275Y35975D03*
X6350Y31225D03*
X48275Y10150D03*
X17225Y27775D03*
X59475Y16350D03*
X89425Y14400D03*
X92125Y5675D03*
X50650Y13350D03*
X56000Y13000D03*
X50050Y36150D03*
X82660Y25360D03*
X88250Y27975D03*
X97725Y20550D03*
X50925Y36802D03*
X29950Y0950D03*
X95875Y20325D03*
X81150Y1000D03*
X52000Y36500D03*
X95875Y16275D03*
X48100Y36150D03*
X28325Y36225D03*
X45550Y23075D03*
X24000Y5200D03*
X33650Y0950D03*
X56675Y19875D03*
X5175Y21090D03*
D16*
X18950Y28950D03*
D11*
X8950Y20950D03*
X28000Y3475D03*
X27275Y15525D03*
X30275Y8925D03*
X7540Y27850D03*
X65125Y16875D03*
X39475Y9475D03*
X37150Y0950D03*
X86100Y8250D03*
X24000Y0950D03*
X53325Y15800D03*
X88250Y30390D03*
X15900Y16450D03*
X84510Y24760D03*
%LNtop copper component c352371e4a78303f*%
D17*
X7150Y36690D03*
X7150Y39640D03*
%LNtop copper component aeb48a4b1f8da947*%
D18*
X96570Y27040D03*
X96570Y21960D03*
X96570Y24500D03*
%LNtop copper component 31ef27b915e3d59f*%
D19*
X3175Y39390D03*
D20*
X3175Y36850D03*
%LNtop copper component d600ad72b416c561*%
D21*
X19900Y39114D03*
X19900Y35964D03*
%LNtop copper component d3c6387d7cf5135a*%
D22*
X7540Y23450D03*
X7540Y21450D03*
%LNtop copper component e9cbb1ce44a936f0*%
D23*
X20922Y27333D03*
X19500Y27333D03*
D24*
X20211Y26368D03*
D25*
X21710Y24450D03*
X18713Y24450D03*
D26*
X20668Y26114D03*
X19754Y26114D03*
X20668Y28552D03*
X19754Y28552D03*
%LNtop copper component 09ec8a2f37f188ab*%
D23*
X46261Y27283D03*
X44839Y27283D03*
D24*
X45550Y26318D03*
D25*
X47049Y24400D03*
X44051Y24400D03*
D26*
X46007Y26064D03*
X45093Y26064D03*
X46007Y28502D03*
X45093Y28502D03*
%LNtop copper component 71e9bb1bca40385d*%
D27*
X91050Y10555D03*
D28*
X91050Y13095D03*
%LNtop copper component 4d83de1512c22b92*%
D29*
X11225Y24450D03*
X9125Y24450D03*
%LNtop copper component e594bfb2108b30d0*%
D30*
X28000Y35062D03*
X28000Y33062D03*
%LNtop copper component fdde582b819cd8d9*%
D31*
X83110Y29040D03*
X83110Y31040D03*
%LNtop copper component 01d582d326ec605b*%
D32*
X89175Y24490D03*
X87075Y24490D03*
%LNtop copper component a408342c7ac72b8e*%
D33*
X23050Y34887D03*
X23050Y33387D03*
%LNtop copper component 3dae972a3f1e679e*%
D31*
X12675Y41800D03*
X12675Y43800D03*
%LNtop copper component 8bfdcfdcbd2adafb*%
D34*
X50050Y35185D03*
X50050Y33085D03*
%LNtop copper component 19e1a0fca253e45a*%
D31*
X85810Y29040D03*
X85810Y31040D03*
%LNtop copper component f3573f80bae85b1c*%
D33*
X47725Y34885D03*
X47725Y33385D03*
%LNtop copper component 08561076ccd842c1*%
D22*
X12950Y23450D03*
X12950Y21450D03*
%LNtop copper component 8224104cf6598585*%
D34*
X25275Y35062D03*
X25275Y32962D03*
%LNtop copper component e4f571294357a45e*%
D35*
X27800Y24400D03*
X40500Y24400D03*
%LNtop copper component 2f99703f0193b658*%
D36*
X80275Y45125D03*
X77325Y45125D03*
%LNtop copper component 0a39ebfe723b63b2*%
D35*
X60575Y24425D03*
X73275Y24425D03*
%LNtop copper component 6d85c627eee7c2ea*%
D30*
X80200Y10450D03*
X80200Y8450D03*
%LNtop copper component 76a276a0f06b50dd*%
D37*
X84560Y19825D03*
X86560Y19825D03*
%LNtop copper component fb13be85d48014ff*%
D38*
X81600Y25450D03*
D39*
X83575Y24450D03*
D40*
X81600Y24950D03*
X81600Y24450D03*
X81600Y23950D03*
X81600Y23450D03*
X85550Y23450D03*
X85550Y23950D03*
X85550Y24450D03*
X85550Y24950D03*
X85550Y25450D03*
D41*
X82575Y22475D03*
X83075Y22475D03*
X83575Y22475D03*
X84075Y22475D03*
X84575Y22475D03*
X84575Y26425D03*
X84075Y26425D03*
X83575Y26425D03*
X83075Y26425D03*
X82575Y26425D03*
%LNtop copper component a1e8fb290b8eb6fe*%
D42*
X80100Y38750D03*
X83050Y38750D03*
%LNtop copper component cae1136e676ce164*%
D43*
X91735Y25595D03*
X91735Y27695D03*
%LNtop copper component b021b47e5c9b40d3*%
D21*
X44650Y40194D03*
X44650Y37044D03*
%LNtop copper component 70a3b04ffb43faca*%
D31*
X80400Y29040D03*
X80400Y31040D03*
%LNtop copper component 591a2af3fa307e1a*%
D44*
X12565Y31875D03*
D45*
X10315Y39275D03*
X14885Y39275D03*
%LNtop copper component 19ccbc794673eff7*%
D46*
X79475Y15525D03*
X79475Y17525D03*
%LNtop copper component 999027b6d5737ba9*%
D30*
X52525Y35085D03*
X52525Y33085D03*
%LNtop copper component 03b293a0feb5f9bf*%
D46*
X81625Y15525D03*
X81625Y17525D03*
%LNtop copper component 1fd199a2c64ec8cf*%
D47*
X86925Y17425D03*
X86925Y15525D03*
X84525Y15525D03*
X84525Y16475D03*
X84525Y17425D03*
%LNtop copper component 3c80428743dcbac9*%
D32*
X16578Y24450D03*
X14478Y24450D03*
%LNtop copper component 747a6f21bc2acc76*%
D48*
X84550Y12800D03*
X86450Y12800D03*
%LNtop copper component 2e5a51aab9dd6953*%
D49*
X2455Y21850D03*
X2455Y26930D03*
X2455Y24390D03*
%LNtop copper component 30800a0eeb3590a6*%
D50*
X80275Y42075D03*
X82815Y42075D03*
D51*
X77735Y42075D03*
%LNtop copper component ef1c58f661e6cfba*%
D52*
X91425Y19975D03*
X89525Y19975D03*
%LNtop copper component 56334b3d3b6f7dd6*%
D53*
X89349Y17425D03*
D54*
X89349Y15525D03*
X91701Y16475D03*
M02*