%FSLAX33Y33*%
%MOMM*%
%ADD10C,0.15*%
%ADD11C,0.2032*%
%ADD12C,1.016*%
%ADD13C,0.5*%
%ADD14C,0.5*%
%ADD15C,0.2*%
%ADD16C,0.500001X0.000003*%
%ADD17C,0.500001X0.000003*%
D10*
%LNtop silkscreen_traces*%
%LNtop silkscreen component c352371e4a78303f*%
G01*
X6350Y38665D02*
X6350Y37665D01*
X7950Y37665D02*
X7950Y38665D01*
D11*
X6674Y40965D02*
X6674Y40965D01*
X6736Y40979*
X6794Y41004*
X6845Y41038*
X6891Y41081*
X6929Y41133*
X6959Y41194*
X6981Y41263*
X6862Y41293*
X6847Y41240*
X6847Y41240*
X6826Y41193*
X6826Y41193*
X6799Y41153*
X6799Y41153*
X6767Y41120*
X6767Y41120*
X6730Y41095*
X6730Y41095*
X6689Y41077*
X6689Y41077*
X6644Y41066*
X6644Y41066*
X6596Y41062*
X6596Y41062*
X6555Y41065*
X6555Y41065*
X6515Y41073*
X6515Y41073*
X6477Y41086*
X6477Y41086*
X6441Y41105*
X6441Y41105*
X6408Y41129*
X6408Y41129*
X6379Y41159*
X6379Y41159*
X6355Y41194*
X6355Y41194*
X6336Y41234*
X6336Y41234*
X6321Y41279*
X6321Y41279*
X6310Y41328*
X6310Y41328*
X6304Y41381*
X6304Y41381*
X6302Y41437*
X6302Y41437*
X6304Y41482*
X6304Y41482*
X6309Y41526*
X6309Y41526*
X6318Y41569*
X6318Y41569*
X6330Y41612*
X6330Y41612*
X6347Y41652*
X6347Y41652*
X6369Y41688*
X6369Y41688*
X6397Y41720*
X6397Y41720*
X6429Y41747*
X6429Y41747*
X6467Y41769*
X6467Y41769*
X6509Y41785*
X6509Y41785*
X6555Y41794*
X6555Y41794*
X6605Y41797*
X6605Y41797*
X6649Y41794*
X6649Y41794*
X6688Y41786*
X6688Y41786*
X6724Y41772*
X6724Y41772*
X6756Y41752*
X6757Y41752*
X6785Y41726*
X6785Y41726*
X6810Y41693*
X6810Y41693*
X6831Y41653*
X6831Y41653*
X6848Y41607*
X6966Y41635*
X6944Y41694*
X6915Y41746*
X6879Y41792*
X6837Y41830*
X6787Y41860*
X6733Y41882*
X6673Y41895*
X6607Y41899*
X6549Y41896*
X6492Y41885*
X6438Y41868*
X6387Y41844*
X6340Y41814*
X6299Y41777*
X6263Y41733*
X6233Y41684*
X6209Y41629*
X6192Y41569*
X6182Y41505*
X6179Y41436*
X6182Y41372*
X6191Y41310*
X6206Y41251*
X6227Y41193*
X6254Y41140*
X6286Y41093*
X6324Y41053*
X6367Y41020*
X6416Y40994*
X6472Y40975*
X6536Y40964*
X6606Y40960*
X6674Y40965*
X7505Y41887D02*
X7505Y41887D01*
X7434Y41887*
X7417Y41858*
X7417Y41858*
X7394Y41828*
X7394Y41828*
X7367Y41797*
X7367Y41797*
X7335Y41766*
X7334Y41766*
X7298Y41736*
X7298Y41736*
X7258Y41708*
X7258Y41708*
X7216Y41682*
X7216Y41682*
X7171Y41659*
X7171Y41552*
X7197Y41563*
X7226Y41576*
X7256Y41592*
X7288Y41610*
X7319Y41629*
X7347Y41648*
X7372Y41667*
X7394Y41687*
X7394Y41687*
X7394Y40976*
X7505Y40976*
X7505Y41887*
X8142Y40962D02*
X8142Y40962D01*
X8179Y40970*
X8215Y40982*
X8248Y40999*
X8278Y41021*
X8305Y41047*
X8329Y41077*
X8349Y41111*
X8365Y41149*
X8377Y41188*
X8384Y41228*
X8386Y41270*
X8381Y41332*
X8366Y41388*
X8342Y41438*
X8308Y41482*
X8266Y41518*
X8221Y41544*
X8172Y41559*
X8118Y41564*
X8086Y41562*
X8056Y41557*
X8026Y41548*
X7996Y41535*
X7968Y41518*
X7942Y41497*
X7919Y41472*
X7897Y41443*
X7897Y41443*
X7899Y41508*
X7899Y41508*
X7905Y41565*
X7905Y41565*
X7915Y41613*
X7915Y41613*
X7928Y41654*
X7928Y41654*
X7945Y41689*
X7945Y41689*
X7964Y41719*
X7964Y41719*
X7987Y41745*
X7987Y41745*
X8012Y41767*
X8012Y41767*
X8033Y41780*
X8033Y41780*
X8055Y41789*
X8055Y41789*
X8080Y41795*
X8080Y41795*
X8106Y41797*
X8106Y41797*
X8138Y41794*
X8138Y41794*
X8167Y41785*
X8167Y41785*
X8194Y41770*
X8194Y41770*
X8218Y41749*
X8218Y41749*
X8231Y41731*
X8231Y41731*
X8242Y41710*
X8242Y41710*
X8252Y41684*
X8252Y41684*
X8260Y41653*
X8370Y41662*
X8360Y41711*
X8343Y41756*
X8319Y41794*
X8288Y41827*
X8251Y41854*
X8210Y41872*
X8164Y41884*
X8112Y41887*
X8044Y41881*
X7983Y41861*
X7930Y41829*
X7884Y41783*
X7841Y41715*
X7811Y41628*
X7793Y41523*
X7787Y41400*
X7792Y41291*
X7809Y41198*
X7836Y41122*
X7875Y41062*
X7922Y41018*
X7975Y40986*
X8035Y40966*
X8102Y40960*
X8142Y40962*
X7915Y41270D02*
X7915Y41270D01*
X7916Y41241*
X7921Y41213*
X7928Y41186*
X7939Y41159*
X7953Y41134*
X7968Y41113*
X7987Y41094*
X8008Y41079*
X8030Y41067*
X8053Y41058*
X8076Y41053*
X8100Y41051*
X8134Y41055*
X8166Y41066*
X8195Y41083*
X8222Y41108*
X8244Y41139*
X8260Y41176*
X8269Y41217*
X8272Y41263*
X8269Y41308*
X8260Y41348*
X8244Y41382*
X8222Y41412*
X8195Y41436*
X8165Y41453*
X8132Y41463*
X8096Y41466*
X8059Y41463*
X8026Y41453*
X7995Y41436*
X7967Y41412*
X7944Y41383*
X7928Y41349*
X7918Y41311*
X7915Y41270*
%LNtop silkscreen component aeb48a4b1f8da947*%
D10*
X106250Y28650D02*
X106250Y20350D01*
X94415Y20350*
X94415Y28650*
X106250Y28650*
D11*
X95270Y18812D02*
X95270Y18812D01*
X95306Y18818*
X95340Y18828*
X95371Y18843*
X95399Y18861*
X95423Y18883*
X95443Y18909*
X95458Y18938*
X95470Y18973*
X95479Y19013*
X95484Y19061*
X95486Y19115*
X95486Y19734*
X95367Y19734*
X95367Y19108*
X95367Y19108*
X95366Y19071*
X95366Y19071*
X95364Y19040*
X95364Y19040*
X95360Y19014*
X95360Y19014*
X95354Y18994*
X95354Y18994*
X95347Y18977*
X95347Y18977*
X95337Y18962*
X95337Y18962*
X95324Y18949*
X95324Y18948*
X95309Y18937*
X95309Y18937*
X95291Y18928*
X95291Y18928*
X95273Y18921*
X95273Y18921*
X95252Y18918*
X95252Y18918*
X95230Y18916*
X95230Y18916*
X95201Y18919*
X95201Y18919*
X95175Y18926*
X95175Y18926*
X95153Y18938*
X95153Y18938*
X95134Y18955*
X95134Y18955*
X95118Y18978*
X95118Y18978*
X95107Y19010*
X95107Y19010*
X95099Y19050*
X95099Y19050*
X95095Y19097*
X94987Y19083*
X94990Y19019*
X95001Y18964*
X95020Y18917*
X95048Y18879*
X95083Y18849*
X95125Y18827*
X95175Y18814*
X95231Y18810*
X95270Y18812*
X96224Y18932D02*
X96224Y18932D01*
X95778Y18932*
X95778Y18932*
X95788Y18948*
X95788Y18948*
X95799Y18963*
X95799Y18963*
X95812Y18978*
X95812Y18978*
X95825Y18993*
X95825Y18993*
X95844Y19012*
X95844Y19012*
X95872Y19037*
X95872Y19037*
X95909Y19069*
X95909Y19069*
X95954Y19108*
X96010Y19156*
X96057Y19198*
X96096Y19236*
X96126Y19267*
X96150Y19296*
X96171Y19324*
X96187Y19352*
X96200Y19378*
X96210Y19405*
X96217Y19431*
X96221Y19458*
X96223Y19485*
X96218Y19537*
X96204Y19584*
X96180Y19627*
X96147Y19665*
X96105Y19697*
X96057Y19719*
X96002Y19733*
X95940Y19737*
X95878Y19733*
X95823Y19721*
X95775Y19700*
X95734Y19670*
X95699Y19633*
X95673Y19588*
X95655Y19535*
X95645Y19475*
X95759Y19464*
X95762Y19504*
X95762Y19504*
X95771Y19540*
X95771Y19540*
X95787Y19571*
X95787Y19571*
X95808Y19597*
X95808Y19597*
X95834Y19619*
X95834Y19619*
X95865Y19634*
X95865Y19634*
X95899Y19643*
X95899Y19643*
X95937Y19646*
X95937Y19646*
X95974Y19643*
X95974Y19643*
X96006Y19635*
X96007Y19634*
X96036Y19620*
X96036Y19620*
X96061Y19600*
X96061Y19600*
X96082Y19576*
X96082Y19576*
X96097Y19549*
X96097Y19549*
X96106Y19520*
X96106Y19520*
X96109Y19488*
X96109Y19488*
X96106Y19456*
X96106Y19456*
X96096Y19423*
X96096Y19423*
X96080Y19388*
X96080Y19388*
X96057Y19353*
X96057Y19353*
X96025Y19315*
X96025Y19315*
X95981Y19270*
X95981Y19270*
X95924Y19218*
X95924Y19218*
X95856Y19161*
X95856Y19161*
X95811Y19123*
X95772Y19087*
X95738Y19054*
X95710Y19023*
X95687Y18993*
X95667Y18963*
X95650Y18933*
X95637Y18902*
X95631Y18884*
X95627Y18864*
X95624Y18845*
X95624Y18826*
X96224Y18826*
X96224Y18932*
%LNtop silkscreen component 31ef27b915e3d59f*%
X2569Y33352D02*
X2569Y33352D01*
X2605Y33358*
X2639Y33368*
X2670Y33383*
X2698Y33401*
X2722Y33423*
X2742Y33449*
X2757Y33478*
X2769Y33513*
X2778Y33553*
X2783Y33601*
X2785Y33655*
X2785Y34274*
X2666Y34274*
X2666Y33648*
X2666Y33648*
X2665Y33611*
X2665Y33611*
X2663Y33580*
X2663Y33580*
X2659Y33554*
X2659Y33554*
X2653Y33534*
X2653Y33534*
X2646Y33517*
X2646Y33517*
X2636Y33502*
X2636Y33502*
X2623Y33489*
X2623Y33488*
X2608Y33477*
X2608Y33477*
X2590Y33468*
X2590Y33468*
X2572Y33461*
X2572Y33461*
X2551Y33458*
X2551Y33458*
X2529Y33456*
X2529Y33456*
X2500Y33459*
X2500Y33459*
X2474Y33466*
X2474Y33466*
X2452Y33478*
X2452Y33478*
X2433Y33495*
X2433Y33495*
X2417Y33518*
X2417Y33518*
X2406Y33550*
X2406Y33550*
X2398Y33590*
X2398Y33590*
X2394Y33637*
X2286Y33623*
X2289Y33559*
X2300Y33504*
X2319Y33457*
X2347Y33419*
X2382Y33389*
X2424Y33367*
X2474Y33354*
X2530Y33350*
X2569Y33352*
X3290Y33355D02*
X3290Y33355D01*
X3347Y33370*
X3399Y33396*
X3446Y33432*
X3483Y33476*
X3511Y33524*
X3527Y33576*
X3532Y33634*
X3529Y33676*
X3521Y33714*
X3507Y33749*
X3488Y33780*
X3463Y33807*
X3434Y33828*
X3401Y33845*
X3362Y33857*
X3362Y33858*
X3392Y33873*
X3417Y33891*
X3438Y33912*
X3456Y33935*
X3470Y33959*
X3480Y33985*
X3486Y34013*
X3488Y34042*
X3485Y34072*
X3479Y34102*
X3469Y34131*
X3454Y34158*
X3436Y34185*
X3414Y34208*
X3388Y34228*
X3359Y34245*
X3327Y34259*
X3293Y34269*
X3258Y34275*
X3222Y34277*
X3170Y34273*
X3123Y34262*
X3080Y34243*
X3042Y34216*
X3009Y34182*
X2982Y34142*
X2963Y34095*
X2949Y34043*
X3060Y34023*
X3068Y34061*
X3068Y34061*
X3080Y34094*
X3080Y34094*
X3096Y34122*
X3096Y34122*
X3116Y34145*
X3116Y34145*
X3139Y34163*
X3139Y34163*
X3165Y34176*
X3165Y34176*
X3193Y34184*
X3193Y34184*
X3224Y34187*
X3225Y34187*
X3256Y34184*
X3256Y34184*
X3284Y34176*
X3284Y34176*
X3310Y34164*
X3310Y34164*
X3332Y34146*
X3332Y34146*
X3350Y34125*
X3350Y34125*
X3363Y34100*
X3363Y34100*
X3371Y34074*
X3371Y34073*
X3374Y34044*
X3374Y34044*
X3370Y34008*
X3370Y34008*
X3360Y33976*
X3359Y33976*
X3342Y33950*
X3342Y33950*
X3317Y33929*
X3317Y33929*
X3287Y33913*
X3287Y33913*
X3256Y33901*
X3256Y33901*
X3223Y33894*
X3223Y33894*
X3188Y33892*
X3188Y33892*
X3184Y33892*
X3184Y33892*
X3180Y33892*
X3180Y33892*
X3175Y33892*
X3175Y33892*
X3170Y33893*
X3158Y33796*
X3180Y33801*
X3180Y33801*
X3201Y33805*
X3201Y33805*
X3219Y33807*
X3219Y33807*
X3236Y33808*
X3236Y33808*
X3273Y33805*
X3273Y33805*
X3307Y33796*
X3307Y33796*
X3337Y33780*
X3337Y33780*
X3364Y33758*
X3364Y33758*
X3386Y33732*
X3386Y33731*
X3402Y33701*
X3402Y33701*
X3412Y33668*
X3412Y33668*
X3415Y33631*
X3415Y33631*
X3411Y33592*
X3411Y33592*
X3401Y33557*
X3401Y33557*
X3384Y33524*
X3384Y33524*
X3360Y33496*
X3360Y33495*
X3332Y33472*
X3332Y33472*
X3300Y33454*
X3300Y33454*
X3265Y33444*
X3265Y33444*
X3227Y33441*
X3227Y33441*
X3195Y33443*
X3195Y33443*
X3165Y33451*
X3165Y33451*
X3139Y33464*
X3138Y33464*
X3114Y33483*
X3114Y33483*
X3093Y33507*
X3093Y33507*
X3075Y33538*
X3074Y33538*
X3060Y33576*
X3060Y33576*
X3049Y33619*
X2938Y33605*
X2948Y33551*
X2966Y33502*
X2993Y33459*
X3028Y33421*
X3070Y33389*
X3117Y33367*
X3169Y33354*
X3226Y33349*
X3290Y33355*
D10*
X1925Y35580D02*
X1925Y40660D01*
X4425Y40660*
X4425Y35580*
X1925Y35580*
D12*
X0875Y39393D03*
%LNtop silkscreen component d600ad72b416c561*%
D10*
X20950Y39810D02*
X20950Y35269D01*
X20950Y39810D02*
X18850Y39810D01*
X18850Y35269*
X20950Y35269*
D11*
X19537Y40954D02*
X19537Y40954D01*
X19537Y40954*
X19677Y40954*
X19677Y40954*
X19699Y40954*
X19699Y40954*
X19717Y40953*
X19717Y40953*
X19732Y40952*
X19732Y40952*
X19744Y40950*
X19744Y40950*
X19758Y40946*
X19758Y40946*
X19772Y40940*
X19772Y40940*
X19786Y40934*
X19786Y40934*
X19799Y40926*
X19799Y40926*
X19813Y40915*
X19813Y40915*
X19828Y40902*
X19828Y40902*
X19844Y40885*
X19844Y40885*
X19861Y40865*
X19861Y40865*
X19879Y40841*
X19879Y40841*
X19899Y40812*
X19899Y40812*
X19922Y40778*
X19922Y40778*
X19947Y40739*
X19947Y40739*
X20068Y40551*
X20218Y40551*
X20060Y40797*
X20036Y40832*
X20012Y40864*
X19986Y40892*
X19960Y40918*
X19946Y40929*
X19930Y40940*
X19910Y40952*
X19888Y40963*
X19888Y40964*
X19949Y40976*
X20002Y40994*
X20046Y41018*
X20081Y41048*
X20109Y41083*
X20128Y41122*
X20140Y41165*
X20144Y41211*
X20141Y41248*
X20134Y41283*
X20122Y41316*
X20106Y41348*
X20085Y41376*
X20062Y41400*
X20035Y41420*
X20005Y41434*
X19970Y41445*
X19927Y41452*
X19878Y41457*
X19820Y41459*
X19418Y41459*
X19418Y40551*
X19537Y40551*
X19537Y40954*
X19538Y41058D02*
X19538Y41058D01*
X19796Y41058*
X19835Y41059*
X19870Y41062*
X19900Y41067*
X19925Y41075*
X19947Y41085*
X19966Y41097*
X19982Y41112*
X19996Y41129*
X20007Y41149*
X20014Y41169*
X20019Y41189*
X20020Y41211*
X20017Y41242*
X20008Y41270*
X19994Y41295*
X19973Y41317*
X19947Y41335*
X19913Y41348*
X19873Y41356*
X19825Y41359*
X19538Y41359*
X19538Y41058*
X20707Y41462D02*
X20707Y41462D01*
X20636Y41462*
X20619Y41433*
X20619Y41433*
X20597Y41403*
X20597Y41403*
X20570Y41372*
X20570Y41372*
X20537Y41341*
X20537Y41341*
X20501Y41311*
X20500Y41311*
X20461Y41283*
X20461Y41283*
X20419Y41257*
X20419Y41257*
X20374Y41234*
X20374Y41127*
X20400Y41138*
X20428Y41151*
X20458Y41167*
X20490Y41185*
X20521Y41204*
X20549Y41223*
X20574Y41242*
X20596Y41262*
X20597Y41262*
X20597Y40551*
X20707Y40551*
X20707Y41462*
%LNtop silkscreen component d3c6387d7cf5135a*%
D10*
X6715Y23975D02*
X8365Y23975D01*
X8365Y20925*
X6715Y20925*
X6715Y23975*
D11*
X9645Y26729D02*
X9645Y26729D01*
X9645Y26729*
X9785Y26729*
X9785Y26729*
X9806Y26729*
X9806Y26729*
X9825Y26728*
X9825Y26728*
X9840Y26727*
X9840Y26727*
X9852Y26725*
X9852Y26725*
X9866Y26721*
X9866Y26721*
X9880Y26715*
X9880Y26715*
X9893Y26709*
X9893Y26709*
X9907Y26701*
X9907Y26701*
X9921Y26690*
X9921Y26690*
X9936Y26677*
X9936Y26677*
X9951Y26660*
X9951Y26660*
X9968Y26640*
X9968Y26640*
X9986Y26616*
X9986Y26616*
X10007Y26587*
X10007Y26587*
X10030Y26553*
X10030Y26553*
X10055Y26514*
X10055Y26514*
X10175Y26326*
X10325Y26326*
X10167Y26572*
X10144Y26607*
X10119Y26639*
X10094Y26667*
X10068Y26693*
X10054Y26704*
X10037Y26715*
X10018Y26727*
X9995Y26738*
X9995Y26739*
X10057Y26751*
X10109Y26769*
X10153Y26793*
X10189Y26823*
X10216Y26858*
X10235Y26897*
X10247Y26940*
X10251Y26986*
X10249Y27023*
X10242Y27058*
X10230Y27091*
X10213Y27123*
X10193Y27151*
X10169Y27175*
X10142Y27195*
X10113Y27209*
X10077Y27220*
X10035Y27227*
X9985Y27232*
X9928Y27234*
X9525Y27234*
X9525Y26326*
X9645Y26326*
X9645Y26729*
X9645Y26833D02*
X9645Y26833D01*
X9904Y26833*
X9943Y26834*
X9977Y26837*
X10007Y26842*
X10033Y26850*
X10055Y26860*
X10074Y26872*
X10090Y26887*
X10103Y26904*
X10114Y26924*
X10122Y26944*
X10126Y26964*
X10128Y26986*
X10125Y27017*
X10116Y27045*
X10101Y27070*
X10081Y27092*
X10054Y27110*
X10020Y27123*
X9980Y27131*
X9933Y27134*
X9645Y27134*
X9645Y26833*
X10759Y26317D02*
X10759Y26317D01*
X10822Y26338*
X10878Y26372*
X10925Y26420*
X10957Y26467*
X10979Y26518*
X10993Y26574*
X10997Y26633*
X10992Y26695*
X10977Y26751*
X10951Y26801*
X10915Y26845*
X10872Y26881*
X10824Y26907*
X10772Y26922*
X10715Y26927*
X10670Y26924*
X10627Y26913*
X10585Y26895*
X10543Y26870*
X10543Y26870*
X10592Y27115*
X10592Y27116*
X10954Y27116*
X10954Y27221*
X10503Y27221*
X10415Y26755*
X10519Y26742*
X10533Y26760*
X10533Y26760*
X10549Y26777*
X10549Y26777*
X10567Y26792*
X10567Y26792*
X10587Y26805*
X10587Y26805*
X10610Y26816*
X10610Y26816*
X10634Y26824*
X10634Y26824*
X10659Y26828*
X10659Y26828*
X10685Y26830*
X10685Y26830*
X10726Y26826*
X10727Y26826*
X10764Y26816*
X10764Y26816*
X10797Y26799*
X10797Y26799*
X10826Y26774*
X10826Y26774*
X10849Y26744*
X10849Y26744*
X10866Y26709*
X10866Y26709*
X10876Y26669*
X10876Y26669*
X10880Y26623*
X10880Y26623*
X10876Y26575*
X10876Y26575*
X10866Y26533*
X10866Y26533*
X10848Y26495*
X10848Y26495*
X10824Y26462*
X10824Y26462*
X10794Y26435*
X10794Y26435*
X10762Y26416*
X10762Y26416*
X10726Y26405*
X10726Y26405*
X10687Y26401*
X10687Y26401*
X10655Y26403*
X10655Y26403*
X10625Y26412*
X10625Y26412*
X10597Y26425*
X10597Y26425*
X10572Y26444*
X10572Y26444*
X10551Y26468*
X10551Y26468*
X10533Y26498*
X10533Y26498*
X10520Y26533*
X10520Y26533*
X10512Y26573*
X10395Y26563*
X10405Y26509*
X10423Y26460*
X10450Y26417*
X10485Y26379*
X10527Y26349*
X10574Y26327*
X10628Y26314*
X10687Y26310*
X10759Y26317*
D13*
X7590Y24400D03*
%LNtop silkscreen component e9cbb1ce44a936f0*%
D10*
X17711Y23576D02*
X17711Y29180D01*
X22711Y29180*
X22711Y23576*
X17711Y23576*
D11*
X17158Y29747D02*
X17158Y29747D01*
X17215Y29756*
X17264Y29772*
X17308Y29794*
X17345Y29821*
X17376Y29852*
X17401Y29887*
X17420Y29925*
X17433Y29969*
X17443Y30020*
X17449Y30078*
X17451Y30143*
X17451Y30667*
X17331Y30667*
X17331Y30143*
X17331Y30143*
X17328Y30064*
X17328Y30064*
X17317Y30000*
X17317Y30000*
X17300Y29949*
X17300Y29949*
X17275Y29912*
X17275Y29912*
X17242Y29885*
X17242Y29885*
X17199Y29866*
X17199Y29866*
X17147Y29855*
X17147Y29855*
X17085Y29851*
X17085Y29851*
X17048Y29853*
X17048Y29853*
X17014Y29859*
X17014Y29859*
X16982Y29868*
X16982Y29868*
X16954Y29882*
X16954Y29882*
X16929Y29898*
X16929Y29899*
X16908Y29919*
X16908Y29919*
X16891Y29942*
X16891Y29942*
X16878Y29968*
X16878Y29968*
X16868Y30000*
X16868Y30000*
X16861Y30040*
X16861Y30040*
X16857Y30088*
X16857Y30088*
X16856Y30143*
X16856Y30143*
X16856Y30667*
X16737Y30667*
X16737Y30143*
X16739Y30074*
X16745Y30013*
X16756Y29960*
X16771Y29915*
X16792Y29876*
X16818Y29841*
X16849Y29812*
X16887Y29788*
X16931Y29768*
X16980Y29755*
X17035Y29746*
X17096Y29744*
X17158Y29747*
X18026Y30671D02*
X18026Y30671D01*
X17955Y30671*
X17938Y30642*
X17938Y30642*
X17916Y30611*
X17916Y30611*
X17888Y30581*
X17888Y30581*
X17856Y30550*
X17856Y30550*
X17819Y30519*
X17819Y30519*
X17780Y30492*
X17780Y30492*
X17737Y30466*
X17737Y30466*
X17692Y30443*
X17692Y30336*
X17718Y30347*
X17747Y30360*
X17777Y30376*
X17809Y30394*
X17840Y30413*
X17868Y30432*
X17893Y30451*
X17915Y30471*
X17915Y30470*
X17915Y29759*
X18026Y29759*
X18026Y30671*
D14*
X18686Y23150D03*
%LNtop silkscreen component 09ec8a2f37f188ab*%
D10*
X43050Y23526D02*
X43050Y29130D01*
X48050Y29130*
X48050Y23526*
X43050Y23526*
D11*
X41422Y28125D02*
X41422Y28125D01*
X41478Y28135*
X41528Y28151*
X41572Y28173*
X41609Y28200*
X41640Y28231*
X41665Y28265*
X41683Y28304*
X41697Y28347*
X41707Y28398*
X41712Y28456*
X41714Y28521*
X41714Y29046*
X41595Y29046*
X41595Y28522*
X41595Y28522*
X41592Y28443*
X41592Y28443*
X41581Y28378*
X41581Y28378*
X41563Y28327*
X41563Y28327*
X41539Y28290*
X41539Y28290*
X41506Y28264*
X41505Y28264*
X41463Y28245*
X41463Y28245*
X41411Y28234*
X41411Y28234*
X41349Y28230*
X41349Y28230*
X41312Y28232*
X41312Y28232*
X41277Y28237*
X41277Y28237*
X41246Y28247*
X41246Y28247*
X41218Y28260*
X41218Y28260*
X41193Y28277*
X41193Y28277*
X41172Y28297*
X41172Y28297*
X41155Y28320*
X41155Y28321*
X41142Y28347*
X41142Y28347*
X41132Y28379*
X41132Y28379*
X41125Y28419*
X41125Y28419*
X41121Y28466*
X41121Y28466*
X41120Y28522*
X41120Y28522*
X41120Y29046*
X41000Y29046*
X41000Y28521*
X41003Y28453*
X41009Y28392*
X41020Y28339*
X41035Y28293*
X41055Y28254*
X41081Y28220*
X41113Y28191*
X41151Y28166*
X41194Y28147*
X41244Y28133*
X41299Y28125*
X41360Y28122*
X41422Y28125*
X42456Y28244D02*
X42456Y28244D01*
X42010Y28244*
X42010Y28245*
X42020Y28260*
X42020Y28260*
X42031Y28275*
X42031Y28275*
X42044Y28290*
X42044Y28290*
X42057Y28305*
X42058Y28305*
X42076Y28324*
X42076Y28324*
X42104Y28349*
X42104Y28349*
X42141Y28381*
X42141Y28381*
X42187Y28420*
X42242Y28468*
X42290Y28511*
X42328Y28548*
X42359Y28580*
X42383Y28609*
X42403Y28637*
X42420Y28664*
X42433Y28691*
X42442Y28717*
X42449Y28744*
X42453Y28771*
X42455Y28798*
X42450Y28849*
X42436Y28896*
X42412Y28939*
X42379Y28977*
X42337Y29009*
X42289Y29031*
X42234Y29045*
X42172Y29050*
X42111Y29045*
X42056Y29033*
X42007Y29012*
X41966Y28982*
X41932Y28945*
X41905Y28900*
X41887Y28847*
X41877Y28788*
X41991Y28776*
X41994Y28816*
X41994Y28816*
X42004Y28852*
X42004Y28852*
X42019Y28883*
X42019Y28883*
X42040Y28910*
X42040Y28910*
X42066Y28931*
X42066Y28931*
X42097Y28946*
X42097Y28946*
X42131Y28955*
X42131Y28955*
X42169Y28958*
X42170Y28958*
X42206Y28955*
X42206Y28955*
X42239Y28947*
X42239Y28947*
X42268Y28933*
X42268Y28932*
X42294Y28913*
X42294Y28912*
X42314Y28888*
X42314Y28888*
X42329Y28862*
X42329Y28862*
X42338Y28832*
X42338Y28832*
X42341Y28800*
X42341Y28800*
X42338Y28768*
X42338Y28768*
X42328Y28735*
X42328Y28735*
X42312Y28701*
X42312Y28701*
X42289Y28666*
X42289Y28666*
X42257Y28627*
X42257Y28627*
X42213Y28582*
X42213Y28582*
X42157Y28531*
X42157Y28531*
X42089Y28473*
X42089Y28473*
X42044Y28435*
X42004Y28400*
X41971Y28366*
X41943Y28335*
X41919Y28306*
X41899Y28275*
X41882Y28245*
X41869Y28215*
X41863Y28196*
X41859Y28177*
X41857Y28157*
X41856Y28138*
X42456Y28138*
X42456Y28244*
D14*
X44025Y23100D03*
%LNtop silkscreen component 71e9bb1bca40385d*%
D10*
X93075Y13850D02*
X93075Y9800D01*
X93075Y13850D02*
X89025Y13850D01*
X89025Y9800*
X93075Y9800*
D11*
X89453Y8121D02*
X89453Y8121D01*
X89491Y8124*
X89526Y8129*
X89559Y8136*
X89589Y8145*
X89618Y8155*
X89643Y8167*
X89667Y8182*
X89689Y8198*
X89710Y8217*
X89730Y8239*
X89750Y8264*
X89768Y8292*
X89784Y8323*
X89799Y8358*
X89812Y8396*
X89822Y8438*
X89830Y8482*
X89834Y8529*
X89836Y8580*
X89834Y8639*
X89827Y8694*
X89816Y8747*
X89800Y8795*
X89780Y8841*
X89756Y8881*
X89726Y8918*
X89693Y8951*
X89664Y8972*
X89632Y8990*
X89597Y9005*
X89560Y9016*
X89529Y9021*
X89491Y9025*
X89448Y9028*
X89398Y9029*
X89085Y9029*
X89085Y8121*
X89413Y8121*
X89453Y8121*
X89205Y8227D02*
X89205Y8227D01*
X89399Y8227*
X89442Y8228*
X89479Y8231*
X89512Y8237*
X89540Y8244*
X89565Y8253*
X89586Y8264*
X89605Y8277*
X89622Y8291*
X89642Y8314*
X89660Y8341*
X89675Y8372*
X89688Y8406*
X89699Y8444*
X89706Y8486*
X89711Y8532*
X89712Y8581*
X89709Y8649*
X89701Y8707*
X89686Y8758*
X89666Y8801*
X89641Y8836*
X89614Y8865*
X89584Y8887*
X89552Y8903*
X89524Y8911*
X89489Y8917*
X89446Y8921*
X89396Y8922*
X89205Y8922*
X89205Y8227*
X90377Y9032D02*
X90377Y9032D01*
X90305Y9032*
X90288Y9003*
X90288Y9003*
X90266Y8973*
X90266Y8973*
X90239Y8942*
X90239Y8942*
X90206Y8911*
X90206Y8911*
X90170Y8881*
X90170Y8881*
X90130Y8853*
X90130Y8853*
X90088Y8827*
X90088Y8827*
X90043Y8804*
X90043Y8697*
X90069Y8708*
X90097Y8721*
X90128Y8737*
X90159Y8755*
X90191Y8774*
X90219Y8793*
X90243Y8812*
X90265Y8832*
X90266Y8832*
X90266Y8121*
X90377Y8121*
X90377Y9032*
%LNtop silkscreen component 4d83de1512c22b92*%
D10*
X11175Y23450D02*
X9175Y23450D01*
X11175Y25450D02*
X9175Y25450D01*
D11*
X6970Y19729D02*
X6970Y19729D01*
X6970Y19729*
X7110Y19729*
X7110Y19729*
X7131Y19729*
X7131Y19729*
X7150Y19728*
X7150Y19728*
X7165Y19727*
X7165Y19727*
X7177Y19725*
X7177Y19725*
X7191Y19721*
X7191Y19721*
X7205Y19715*
X7205Y19715*
X7218Y19709*
X7218Y19709*
X7232Y19701*
X7232Y19701*
X7246Y19690*
X7246Y19690*
X7261Y19677*
X7261Y19677*
X7276Y19660*
X7276Y19660*
X7293Y19640*
X7293Y19640*
X7311Y19616*
X7311Y19616*
X7332Y19587*
X7332Y19587*
X7355Y19553*
X7355Y19553*
X7380Y19514*
X7380Y19514*
X7500Y19326*
X7650Y19326*
X7492Y19572*
X7469Y19607*
X7444Y19639*
X7419Y19667*
X7393Y19693*
X7379Y19704*
X7362Y19715*
X7343Y19727*
X7320Y19738*
X7320Y19739*
X7382Y19751*
X7434Y19769*
X7478Y19793*
X7514Y19823*
X7541Y19858*
X7560Y19897*
X7572Y19940*
X7576Y19986*
X7574Y20023*
X7567Y20058*
X7555Y20091*
X7538Y20123*
X7518Y20151*
X7494Y20175*
X7467Y20195*
X7438Y20209*
X7402Y20220*
X7360Y20227*
X7310Y20232*
X7253Y20234*
X6850Y20234*
X6850Y19326*
X6970Y19326*
X6970Y19729*
X6970Y19833D02*
X6970Y19833D01*
X7229Y19833*
X7268Y19834*
X7302Y19837*
X7332Y19842*
X7358Y19850*
X7380Y19860*
X7399Y19872*
X7415Y19887*
X7428Y19904*
X7439Y19924*
X7447Y19944*
X7451Y19964*
X7453Y19986*
X7450Y20017*
X7441Y20045*
X7426Y20070*
X7406Y20092*
X7379Y20110*
X7345Y20123*
X7305Y20131*
X7258Y20134*
X6970Y20134*
X6970Y19833*
X8073Y19315D02*
X8073Y19315D01*
X8131Y19330*
X8182Y19356*
X8229Y19392*
X8267Y19436*
X8294Y19484*
X8310Y19536*
X8315Y19594*
X8313Y19636*
X8304Y19674*
X8290Y19709*
X8271Y19740*
X8246Y19767*
X8217Y19788*
X8184Y19805*
X8145Y19817*
X8145Y19818*
X8175Y19833*
X8200Y19851*
X8221Y19872*
X8239Y19895*
X8253Y19919*
X8263Y19945*
X8269Y19973*
X8271Y20002*
X8269Y20032*
X8262Y20062*
X8252Y20091*
X8238Y20118*
X8219Y20145*
X8197Y20168*
X8171Y20188*
X8142Y20205*
X8110Y20219*
X8076Y20229*
X8042Y20235*
X8005Y20237*
X7953Y20233*
X7906Y20222*
X7863Y20203*
X7825Y20176*
X7792Y20142*
X7766Y20102*
X7746Y20055*
X7732Y20003*
X7843Y19983*
X7851Y20021*
X7851Y20021*
X7863Y20054*
X7863Y20054*
X7879Y20082*
X7879Y20082*
X7899Y20105*
X7899Y20105*
X7922Y20123*
X7922Y20123*
X7948Y20136*
X7948Y20136*
X7976Y20144*
X7976Y20144*
X8008Y20147*
X8008Y20147*
X8039Y20144*
X8039Y20144*
X8067Y20136*
X8067Y20136*
X8093Y20124*
X8093Y20124*
X8115Y20106*
X8115Y20106*
X8133Y20085*
X8133Y20085*
X8147Y20060*
X8147Y20060*
X8154Y20034*
X8154Y20033*
X8157Y20004*
X8157Y20004*
X8153Y19968*
X8153Y19968*
X8143Y19936*
X8143Y19936*
X8125Y19910*
X8125Y19910*
X8100Y19889*
X8100Y19889*
X8070Y19873*
X8070Y19873*
X8039Y19861*
X8039Y19861*
X8006Y19854*
X8006Y19854*
X7971Y19852*
X7971Y19852*
X7967Y19852*
X7967Y19852*
X7963Y19852*
X7963Y19852*
X7958Y19852*
X7958Y19852*
X7953Y19853*
X7941Y19756*
X7963Y19761*
X7963Y19761*
X7984Y19765*
X7984Y19765*
X8003Y19767*
X8003Y19767*
X8019Y19768*
X8019Y19768*
X8057Y19765*
X8057Y19765*
X8090Y19756*
X8090Y19756*
X8121Y19740*
X8121Y19740*
X8147Y19718*
X8148Y19718*
X8170Y19692*
X8170Y19691*
X8185Y19661*
X8185Y19661*
X8195Y19628*
X8195Y19628*
X8198Y19591*
X8198Y19591*
X8194Y19552*
X8194Y19552*
X8184Y19517*
X8184Y19517*
X8167Y19484*
X8167Y19484*
X8143Y19456*
X8143Y19455*
X8115Y19432*
X8115Y19432*
X8083Y19414*
X8083Y19414*
X8048Y19404*
X8048Y19404*
X8010Y19401*
X8010Y19401*
X7978Y19403*
X7978Y19403*
X7949Y19411*
X7949Y19411*
X7922Y19424*
X7922Y19424*
X7897Y19443*
X7897Y19443*
X7876Y19467*
X7876Y19467*
X7858Y19498*
X7858Y19498*
X7843Y19536*
X7843Y19536*
X7832Y19579*
X7721Y19565*
X7731Y19511*
X7749Y19462*
X7776Y19419*
X7811Y19381*
X7853Y19349*
X7900Y19327*
X7952Y19314*
X8009Y19309*
X8073Y19315*
%LNtop silkscreen component e594bfb2108b30d0*%
X27669Y30815D02*
X27669Y30815D01*
X27732Y30829*
X27789Y30854*
X27841Y30888*
X27886Y30931*
X27924Y30983*
X27954Y31044*
X27977Y31113*
X27857Y31143*
X27842Y31090*
X27842Y31090*
X27821Y31043*
X27821Y31043*
X27795Y31003*
X27795Y31003*
X27762Y30970*
X27762Y30970*
X27725Y30945*
X27725Y30945*
X27684Y30927*
X27684Y30927*
X27640Y30916*
X27640Y30916*
X27591Y30912*
X27591Y30912*
X27550Y30915*
X27550Y30915*
X27511Y30923*
X27511Y30923*
X27473Y30936*
X27473Y30936*
X27436Y30955*
X27436Y30955*
X27403Y30979*
X27403Y30979*
X27374Y31009*
X27374Y31009*
X27350Y31044*
X27350Y31044*
X27331Y31084*
X27331Y31084*
X27316Y31129*
X27316Y31129*
X27306Y31178*
X27306Y31178*
X27299Y31231*
X27299Y31231*
X27297Y31287*
X27297Y31287*
X27299Y31332*
X27299Y31332*
X27304Y31376*
X27304Y31376*
X27313Y31419*
X27313Y31419*
X27326Y31462*
X27326Y31462*
X27343Y31502*
X27343Y31502*
X27365Y31538*
X27365Y31538*
X27392Y31570*
X27392Y31570*
X27425Y31597*
X27425Y31597*
X27462Y31619*
X27462Y31619*
X27504Y31635*
X27504Y31635*
X27550Y31644*
X27550Y31644*
X27600Y31647*
X27600Y31647*
X27644Y31644*
X27644Y31644*
X27684Y31636*
X27684Y31636*
X27720Y31622*
X27720Y31622*
X27752Y31602*
X27752Y31602*
X27780Y31576*
X27780Y31576*
X27805Y31543*
X27805Y31543*
X27826Y31503*
X27826Y31503*
X27844Y31457*
X27961Y31485*
X27939Y31544*
X27911Y31596*
X27875Y31642*
X27832Y31680*
X27783Y31710*
X27728Y31732*
X27668Y31745*
X27603Y31749*
X27544Y31746*
X27488Y31735*
X27434Y31718*
X27383Y31694*
X27335Y31664*
X27294Y31627*
X27258Y31583*
X27228Y31534*
X27205Y31479*
X27188Y31419*
X27178Y31355*
X27174Y31286*
X27177Y31222*
X27186Y31160*
X27201Y31101*
X27222Y31043*
X27249Y30990*
X27281Y30943*
X27319Y30903*
X27362Y30870*
X27411Y30844*
X27468Y30825*
X27531Y30814*
X27601Y30810*
X27669Y30815*
X28433Y30815D02*
X28433Y30815D01*
X28491Y30830*
X28543Y30856*
X28589Y30892*
X28627Y30936*
X28654Y30984*
X28670Y31036*
X28676Y31094*
X28673Y31136*
X28665Y31174*
X28651Y31209*
X28631Y31240*
X28607Y31267*
X28578Y31288*
X28544Y31305*
X28506Y31317*
X28506Y31318*
X28535Y31333*
X28560Y31351*
X28582Y31372*
X28599Y31395*
X28613Y31419*
X28623Y31445*
X28629Y31473*
X28631Y31502*
X28629Y31532*
X28623Y31562*
X28612Y31591*
X28598Y31618*
X28580Y31645*
X28557Y31668*
X28532Y31688*
X28502Y31705*
X28470Y31719*
X28437Y31729*
X28402Y31735*
X28365Y31737*
X28314Y31733*
X28267Y31722*
X28224Y31703*
X28185Y31676*
X28152Y31642*
X28126Y31602*
X28106Y31555*
X28093Y31503*
X28203Y31483*
X28211Y31521*
X28211Y31521*
X28223Y31554*
X28223Y31554*
X28239Y31582*
X28239Y31582*
X28259Y31605*
X28259Y31605*
X28282Y31623*
X28282Y31623*
X28308Y31636*
X28308Y31636*
X28337Y31644*
X28337Y31644*
X28368Y31647*
X28368Y31647*
X28399Y31644*
X28399Y31644*
X28428Y31636*
X28428Y31636*
X28453Y31624*
X28453Y31624*
X28476Y31606*
X28476Y31606*
X28494Y31585*
X28494Y31585*
X28507Y31560*
X28507Y31560*
X28515Y31534*
X28515Y31533*
X28517Y31504*
X28517Y31504*
X28514Y31468*
X28514Y31468*
X28503Y31436*
X28503Y31436*
X28485Y31410*
X28485Y31410*
X28460Y31389*
X28460Y31389*
X28431Y31373*
X28431Y31373*
X28399Y31361*
X28399Y31361*
X28366Y31354*
X28366Y31354*
X28331Y31352*
X28331Y31352*
X28328Y31352*
X28328Y31352*
X28323Y31352*
X28323Y31352*
X28319Y31352*
X28319Y31352*
X28314Y31353*
X28302Y31256*
X28323Y31261*
X28323Y31261*
X28344Y31265*
X28344Y31265*
X28363Y31267*
X28363Y31267*
X28380Y31268*
X28380Y31268*
X28417Y31265*
X28417Y31265*
X28451Y31256*
X28451Y31256*
X28481Y31240*
X28481Y31240*
X28508Y31218*
X28508Y31218*
X28530Y31192*
X28530Y31191*
X28546Y31161*
X28546Y31161*
X28555Y31128*
X28555Y31128*
X28558Y31091*
X28558Y31091*
X28555Y31052*
X28555Y31052*
X28545Y31017*
X28545Y31017*
X28528Y30984*
X28528Y30984*
X28504Y30956*
X28504Y30955*
X28475Y30932*
X28475Y30932*
X28443Y30914*
X28443Y30914*
X28408Y30904*
X28408Y30904*
X28370Y30901*
X28370Y30901*
X28338Y30903*
X28338Y30903*
X28309Y30911*
X28309Y30911*
X28282Y30924*
X28282Y30924*
X28258Y30943*
X28258Y30943*
X28236Y30967*
X28236Y30967*
X28218Y30998*
X28218Y30998*
X28203Y31036*
X28203Y31036*
X28192Y31079*
X28081Y31065*
X28091Y31011*
X28109Y30962*
X28136Y30919*
X28171Y30881*
X28213Y30849*
X28260Y30827*
X28313Y30814*
X28370Y30809*
X28433Y30815*
D10*
X29200Y35062D02*
X29200Y33062D01*
X26800Y35062D02*
X26800Y33062D01*
%LNtop silkscreen component fdde582b819cd8d9*%
D11*
X82519Y32690D02*
X82519Y32690D01*
X82582Y32704*
X82639Y32729*
X82691Y32763*
X82736Y32806*
X82774Y32858*
X82804Y32919*
X82827Y32988*
X82707Y33018*
X82692Y32965*
X82692Y32965*
X82671Y32918*
X82671Y32918*
X82645Y32878*
X82645Y32878*
X82612Y32845*
X82612Y32845*
X82575Y32820*
X82575Y32820*
X82534Y32802*
X82534Y32802*
X82490Y32791*
X82490Y32791*
X82441Y32787*
X82441Y32787*
X82400Y32790*
X82400Y32790*
X82361Y32798*
X82361Y32798*
X82323Y32811*
X82323Y32811*
X82286Y32830*
X82286Y32830*
X82253Y32854*
X82253Y32854*
X82224Y32884*
X82224Y32884*
X82200Y32919*
X82200Y32919*
X82181Y32959*
X82181Y32959*
X82166Y33004*
X82166Y33004*
X82156Y33053*
X82156Y33053*
X82149Y33106*
X82149Y33106*
X82147Y33162*
X82147Y33162*
X82149Y33207*
X82149Y33207*
X82154Y33251*
X82154Y33251*
X82163Y33294*
X82163Y33294*
X82176Y33337*
X82176Y33337*
X82193Y33377*
X82193Y33377*
X82215Y33413*
X82215Y33413*
X82242Y33445*
X82242Y33445*
X82275Y33472*
X82275Y33472*
X82312Y33494*
X82312Y33494*
X82354Y33510*
X82354Y33510*
X82400Y33519*
X82400Y33519*
X82450Y33522*
X82450Y33522*
X82494Y33519*
X82494Y33519*
X82534Y33511*
X82534Y33511*
X82570Y33497*
X82570Y33497*
X82602Y33477*
X82602Y33477*
X82630Y33451*
X82630Y33451*
X82655Y33418*
X82655Y33418*
X82676Y33378*
X82676Y33378*
X82694Y33332*
X82811Y33360*
X82789Y33419*
X82761Y33471*
X82725Y33517*
X82682Y33555*
X82633Y33585*
X82578Y33607*
X82518Y33620*
X82453Y33624*
X82394Y33621*
X82338Y33610*
X82284Y33593*
X82233Y33569*
X82185Y33539*
X82144Y33502*
X82108Y33458*
X82078Y33409*
X82055Y33354*
X82038Y33294*
X82028Y33230*
X82024Y33161*
X82027Y33097*
X82036Y33035*
X82051Y32976*
X82072Y32918*
X82099Y32865*
X82131Y32818*
X82169Y32778*
X82212Y32745*
X82261Y32719*
X82318Y32700*
X82381Y32689*
X82451Y32685*
X82519Y32690*
X83350Y33612D02*
X83350Y33612D01*
X83279Y33612*
X83262Y33583*
X83262Y33583*
X83240Y33553*
X83240Y33553*
X83212Y33522*
X83212Y33522*
X83180Y33491*
X83180Y33491*
X83143Y33461*
X83143Y33461*
X83104Y33433*
X83104Y33433*
X83061Y33407*
X83061Y33407*
X83016Y33384*
X83016Y33277*
X83042Y33288*
X83071Y33301*
X83101Y33317*
X83133Y33335*
X83164Y33354*
X83192Y33373*
X83217Y33392*
X83239Y33412*
X83240Y33412*
X83240Y32701*
X83350Y32701*
X83350Y33612*
X83962Y33612D02*
X83962Y33612D01*
X83891Y33612*
X83874Y33583*
X83874Y33583*
X83852Y33553*
X83852Y33553*
X83824Y33522*
X83824Y33522*
X83792Y33491*
X83792Y33491*
X83755Y33461*
X83755Y33461*
X83716Y33433*
X83716Y33433*
X83673Y33407*
X83673Y33407*
X83628Y33384*
X83628Y33277*
X83655Y33288*
X83683Y33301*
X83713Y33317*
X83745Y33335*
X83776Y33354*
X83804Y33373*
X83829Y33392*
X83851Y33412*
X83852Y33412*
X83852Y32701*
X83962Y32701*
X83962Y33612*
D10*
X81910Y29040D02*
X81910Y31040D01*
X84310Y29040D02*
X84310Y31040D01*
%LNtop silkscreen component 01d582d326ec605b*%
X88540Y25115D02*
X87710Y25115D01*
X88540Y23865D02*
X87710Y23865D01*
D11*
X87682Y25865D02*
X87682Y25865D01*
X87745Y25879*
X87802Y25904*
X87854Y25938*
X87899Y25981*
X87937Y26033*
X87967Y26094*
X87990Y26163*
X87871Y26193*
X87855Y26140*
X87855Y26140*
X87835Y26093*
X87835Y26093*
X87808Y26053*
X87808Y26053*
X87776Y26020*
X87776Y26020*
X87739Y25995*
X87739Y25995*
X87698Y25977*
X87698Y25977*
X87653Y25966*
X87653Y25966*
X87604Y25962*
X87604Y25962*
X87563Y25965*
X87563Y25965*
X87524Y25973*
X87524Y25973*
X87486Y25986*
X87486Y25986*
X87450Y26005*
X87450Y26005*
X87416Y26029*
X87416Y26029*
X87387Y26059*
X87387Y26059*
X87363Y26094*
X87363Y26094*
X87344Y26134*
X87344Y26134*
X87329Y26179*
X87329Y26179*
X87319Y26228*
X87319Y26228*
X87312Y26281*
X87312Y26281*
X87310Y26337*
X87310Y26337*
X87312Y26382*
X87312Y26382*
X87318Y26426*
X87318Y26426*
X87326Y26469*
X87326Y26469*
X87339Y26512*
X87339Y26512*
X87356Y26552*
X87356Y26552*
X87378Y26588*
X87378Y26588*
X87405Y26620*
X87405Y26620*
X87438Y26647*
X87438Y26647*
X87475Y26669*
X87475Y26669*
X87517Y26685*
X87517Y26685*
X87563Y26694*
X87563Y26694*
X87613Y26697*
X87614Y26697*
X87657Y26694*
X87657Y26694*
X87697Y26686*
X87697Y26686*
X87733Y26672*
X87733Y26672*
X87765Y26652*
X87765Y26652*
X87793Y26626*
X87793Y26626*
X87818Y26593*
X87818Y26593*
X87839Y26553*
X87839Y26553*
X87857Y26507*
X87974Y26535*
X87953Y26594*
X87924Y26646*
X87888Y26692*
X87845Y26730*
X87796Y26760*
X87741Y26782*
X87681Y26795*
X87616Y26799*
X87557Y26796*
X87501Y26785*
X87447Y26768*
X87396Y26744*
X87349Y26714*
X87307Y26677*
X87272Y26633*
X87242Y26584*
X87218Y26529*
X87201Y26469*
X87191Y26405*
X87187Y26336*
X87190Y26272*
X87199Y26210*
X87214Y26151*
X87235Y26093*
X87262Y26040*
X87294Y25993*
X87332Y25953*
X87375Y25920*
X87425Y25894*
X87481Y25875*
X87544Y25864*
X87614Y25860*
X87682Y25865*
X88680Y25982D02*
X88680Y25982D01*
X88234Y25982*
X88234Y25982*
X88244Y25998*
X88244Y25998*
X88255Y26013*
X88255Y26013*
X88267Y26028*
X88267Y26028*
X88281Y26043*
X88281Y26043*
X88300Y26062*
X88300Y26062*
X88328Y26087*
X88328Y26087*
X88364Y26119*
X88364Y26119*
X88410Y26158*
X88466Y26206*
X88513Y26248*
X88552Y26286*
X88582Y26317*
X88606Y26346*
X88626Y26374*
X88643Y26402*
X88656Y26428*
X88666Y26455*
X88673Y26481*
X88677Y26508*
X88678Y26535*
X88674Y26587*
X88659Y26634*
X88636Y26677*
X88602Y26715*
X88561Y26747*
X88513Y26769*
X88457Y26783*
X88395Y26787*
X88334Y26783*
X88279Y26771*
X88231Y26750*
X88189Y26720*
X88155Y26683*
X88129Y26638*
X88111Y26585*
X88101Y26525*
X88215Y26514*
X88218Y26554*
X88218Y26554*
X88227Y26590*
X88227Y26590*
X88242Y26621*
X88242Y26621*
X88264Y26647*
X88264Y26647*
X88290Y26669*
X88290Y26669*
X88320Y26684*
X88320Y26684*
X88355Y26693*
X88355Y26693*
X88393Y26696*
X88393Y26696*
X88429Y26693*
X88429Y26693*
X88462Y26685*
X88462Y26684*
X88491Y26670*
X88491Y26670*
X88517Y26650*
X88517Y26650*
X88538Y26626*
X88538Y26626*
X88553Y26599*
X88553Y26599*
X88562Y26570*
X88562Y26570*
X88565Y26538*
X88565Y26538*
X88561Y26506*
X88561Y26506*
X88552Y26473*
X88552Y26473*
X88535Y26438*
X88535Y26438*
X88512Y26403*
X88512Y26403*
X88480Y26365*
X88480Y26365*
X88436Y26320*
X88436Y26320*
X88380Y26268*
X88380Y26268*
X88312Y26211*
X88312Y26211*
X88267Y26173*
X88228Y26137*
X88194Y26104*
X88166Y26073*
X88143Y26043*
X88123Y26013*
X88106Y25983*
X88093Y25952*
X88087Y25934*
X88082Y25914*
X88080Y25895*
X88080Y25876*
X88680Y25876*
X88680Y25982*
%LNtop silkscreen component a408342c7ac72b8e*%
X21934Y31115D02*
X21934Y31115D01*
X21996Y31129*
X22054Y31154*
X22105Y31188*
X22151Y31231*
X22189Y31283*
X22219Y31344*
X22241Y31413*
X22122Y31443*
X22107Y31390*
X22107Y31390*
X22086Y31343*
X22086Y31343*
X22059Y31303*
X22059Y31303*
X22027Y31270*
X22027Y31270*
X21990Y31245*
X21990Y31245*
X21949Y31227*
X21949Y31227*
X21904Y31216*
X21904Y31216*
X21856Y31212*
X21856Y31212*
X21815Y31215*
X21815Y31215*
X21775Y31223*
X21775Y31223*
X21737Y31236*
X21737Y31236*
X21701Y31255*
X21701Y31255*
X21668Y31279*
X21668Y31279*
X21639Y31309*
X21639Y31309*
X21615Y31344*
X21615Y31344*
X21596Y31384*
X21596Y31384*
X21581Y31429*
X21581Y31429*
X21570Y31478*
X21570Y31478*
X21564Y31531*
X21564Y31531*
X21562Y31587*
X21562Y31587*
X21564Y31632*
X21564Y31632*
X21569Y31676*
X21569Y31676*
X21578Y31719*
X21578Y31719*
X21590Y31762*
X21590Y31762*
X21607Y31802*
X21607Y31802*
X21629Y31838*
X21629Y31838*
X21657Y31870*
X21657Y31870*
X21689Y31897*
X21689Y31897*
X21727Y31919*
X21727Y31919*
X21769Y31935*
X21769Y31935*
X21815Y31944*
X21815Y31944*
X21865Y31947*
X21865Y31947*
X21909Y31944*
X21909Y31944*
X21948Y31936*
X21948Y31936*
X21984Y31922*
X21984Y31922*
X22016Y31902*
X22017Y31902*
X22045Y31876*
X22045Y31876*
X22070Y31843*
X22070Y31843*
X22091Y31803*
X22091Y31803*
X22108Y31757*
X22226Y31785*
X22204Y31844*
X22175Y31896*
X22139Y31942*
X22097Y31980*
X22047Y32010*
X21993Y32032*
X21933Y32045*
X21867Y32049*
X21809Y32046*
X21752Y32035*
X21698Y32018*
X21647Y31994*
X21600Y31964*
X21559Y31927*
X21523Y31883*
X21493Y31834*
X21469Y31779*
X21452Y31719*
X21442Y31655*
X21439Y31586*
X21442Y31522*
X21451Y31460*
X21466Y31401*
X21487Y31343*
X21514Y31290*
X21546Y31243*
X21584Y31203*
X21627Y31170*
X21676Y31144*
X21732Y31125*
X21796Y31114*
X21866Y31110*
X21934Y31115*
X22931Y31232D02*
X22931Y31232D01*
X22485Y31232*
X22485Y31232*
X22495Y31248*
X22495Y31248*
X22506Y31263*
X22506Y31263*
X22519Y31278*
X22519Y31278*
X22532Y31293*
X22532Y31293*
X22551Y31312*
X22551Y31312*
X22579Y31337*
X22579Y31337*
X22616Y31369*
X22616Y31369*
X22661Y31408*
X22717Y31456*
X22765Y31498*
X22803Y31536*
X22833Y31567*
X22857Y31596*
X22878Y31624*
X22894Y31652*
X22907Y31678*
X22917Y31705*
X22924Y31731*
X22928Y31758*
X22930Y31785*
X22925Y31837*
X22911Y31884*
X22887Y31927*
X22854Y31965*
X22812Y31997*
X22764Y32019*
X22709Y32033*
X22647Y32037*
X22585Y32033*
X22531Y32021*
X22482Y32000*
X22441Y31970*
X22406Y31933*
X22380Y31888*
X22362Y31835*
X22352Y31775*
X22466Y31764*
X22469Y31804*
X22469Y31804*
X22478Y31840*
X22479Y31840*
X22494Y31871*
X22494Y31871*
X22515Y31897*
X22515Y31897*
X22541Y31919*
X22541Y31919*
X22572Y31934*
X22572Y31934*
X22606Y31943*
X22606Y31943*
X22644Y31946*
X22644Y31946*
X22681Y31943*
X22681Y31943*
X22714Y31935*
X22714Y31934*
X22743Y31920*
X22743Y31920*
X22768Y31900*
X22768Y31900*
X22789Y31876*
X22789Y31876*
X22804Y31849*
X22804Y31849*
X22813Y31820*
X22813Y31820*
X22816Y31788*
X22816Y31788*
X22813Y31756*
X22813Y31756*
X22803Y31723*
X22803Y31723*
X22787Y31688*
X22787Y31688*
X22764Y31653*
X22764Y31653*
X22732Y31615*
X22732Y31615*
X22688Y31570*
X22688Y31570*
X22632Y31518*
X22632Y31518*
X22563Y31461*
X22563Y31461*
X22519Y31423*
X22479Y31387*
X22446Y31354*
X22418Y31323*
X22394Y31293*
X22374Y31263*
X22357Y31233*
X22344Y31202*
X22338Y31184*
X22334Y31164*
X22331Y31145*
X22331Y31126*
X22931Y31126*
X22931Y31232*
X23395Y31113D02*
X23395Y31113D01*
X23439Y31123*
X23478Y31140*
X23513Y31164*
X23543Y31193*
X23570Y31228*
X23592Y31269*
X23611Y31315*
X23625Y31368*
X23635Y31429*
X23641Y31497*
X23644Y31573*
X23642Y31637*
X23638Y31695*
X23632Y31745*
X23623Y31788*
X23612Y31826*
X23599Y31862*
X23584Y31894*
X23567Y31923*
X23548Y31949*
X23526Y31972*
X23502Y31992*
X23476Y32008*
X23447Y32021*
X23416Y32030*
X23383Y32035*
X23348Y32037*
X23300Y32034*
X23257Y32024*
X23218Y32007*
X23183Y31984*
X23153Y31955*
X23126Y31920*
X23103Y31879*
X23085Y31833*
X23070Y31780*
X23060Y31719*
X23054Y31650*
X23052Y31573*
X23057Y31454*
X23074Y31353*
X23102Y31270*
X23142Y31204*
X23182Y31163*
X23230Y31134*
X23286Y31116*
X23348Y31110*
X23395Y31113*
X23166Y31573D02*
X23166Y31573D01*
X23169Y31471*
X23179Y31387*
X23195Y31322*
X23218Y31275*
X23246Y31243*
X23277Y31220*
X23311Y31206*
X23348Y31201*
X23385Y31206*
X23418Y31220*
X23449Y31243*
X23477Y31276*
X23500Y31322*
X23516Y31387*
X23526Y31471*
X23529Y31573*
X23526Y31676*
X23516Y31760*
X23500Y31825*
X23477Y31872*
X23449Y31904*
X23418Y31927*
X23384Y31941*
X23346Y31945*
X23310Y31941*
X23277Y31929*
X23248Y31909*
X23224Y31880*
X23198Y31830*
X23180Y31762*
X23170Y31676*
X23166Y31573*
D10*
X22000Y35137D02*
X22000Y33137D01*
X24100Y35137D02*
X24100Y33137D01*
%LNtop silkscreen component 3dae972a3f1e679e*%
D11*
X9194Y43615D02*
X9194Y43615D01*
X9257Y43629*
X9314Y43654*
X9366Y43688*
X9411Y43731*
X9449Y43783*
X9479Y43844*
X9502Y43913*
X9382Y43943*
X9367Y43890*
X9367Y43890*
X9346Y43843*
X9346Y43843*
X9320Y43803*
X9320Y43803*
X9287Y43770*
X9287Y43770*
X9250Y43745*
X9250Y43745*
X9209Y43727*
X9209Y43727*
X9165Y43716*
X9165Y43716*
X9116Y43712*
X9116Y43712*
X9075Y43715*
X9075Y43715*
X9036Y43723*
X9036Y43723*
X8998Y43736*
X8998Y43736*
X8961Y43755*
X8961Y43755*
X8928Y43779*
X8928Y43779*
X8899Y43809*
X8899Y43809*
X8875Y43844*
X8875Y43844*
X8856Y43884*
X8856Y43884*
X8841Y43929*
X8841Y43929*
X8831Y43978*
X8831Y43978*
X8824Y44031*
X8824Y44031*
X8822Y44087*
X8822Y44087*
X8824Y44132*
X8824Y44132*
X8829Y44176*
X8829Y44176*
X8838Y44219*
X8838Y44219*
X8851Y44262*
X8851Y44262*
X8868Y44302*
X8868Y44302*
X8890Y44338*
X8890Y44338*
X8917Y44370*
X8917Y44370*
X8950Y44397*
X8950Y44397*
X8987Y44419*
X8987Y44419*
X9029Y44435*
X9029Y44435*
X9075Y44444*
X9075Y44444*
X9125Y44447*
X9125Y44447*
X9169Y44444*
X9169Y44444*
X9209Y44436*
X9209Y44436*
X9245Y44422*
X9245Y44422*
X9277Y44402*
X9277Y44402*
X9305Y44376*
X9305Y44376*
X9330Y44343*
X9330Y44343*
X9351Y44303*
X9351Y44303*
X9369Y44257*
X9486Y44285*
X9464Y44344*
X9436Y44396*
X9400Y44442*
X9357Y44480*
X9308Y44510*
X9253Y44532*
X9193Y44545*
X9128Y44549*
X9069Y44546*
X9013Y44535*
X8959Y44518*
X8908Y44494*
X8860Y44464*
X8819Y44427*
X8783Y44383*
X8753Y44334*
X8730Y44279*
X8713Y44219*
X8703Y44155*
X8699Y44086*
X8702Y44022*
X8711Y43960*
X8726Y43901*
X8747Y43843*
X8774Y43790*
X8806Y43743*
X8844Y43703*
X8887Y43670*
X8936Y43644*
X8993Y43625*
X9056Y43614*
X9126Y43610*
X9194Y43615*
X9967Y43615D02*
X9967Y43615D01*
X10025Y43630*
X10076Y43655*
X10120Y43689*
X10156Y43731*
X10182Y43778*
X10197Y43829*
X10203Y43885*
X10200Y43925*
X10192Y43963*
X10178Y43998*
X10159Y44030*
X10135Y44058*
X10105Y44082*
X10071Y44102*
X10031Y44118*
X10031Y44118*
X10063Y44132*
X10091Y44149*
X10114Y44169*
X10132Y44191*
X10147Y44215*
X10157Y44241*
X10163Y44270*
X10165Y44300*
X10161Y44348*
X10147Y44392*
X10125Y44432*
X10093Y44468*
X10054Y44498*
X10009Y44520*
X9958Y44533*
X9902Y44537*
X9845Y44533*
X9795Y44520*
X9751Y44499*
X9712Y44470*
X9681Y44434*
X9659Y44395*
X9646Y44351*
X9641Y44303*
X9643Y44272*
X9649Y44242*
X9660Y44215*
X9674Y44191*
X9693Y44169*
X9717Y44149*
X9745Y44133*
X9778Y44118*
X9777Y44118*
X9738Y44104*
X9704Y44086*
X9674Y44064*
X9649Y44036*
X9630Y44004*
X9616Y43969*
X9607Y43930*
X9604Y43888*
X9610Y43831*
X9625Y43779*
X9651Y43732*
X9687Y43690*
X9731Y43655*
X9782Y43630*
X9840Y43615*
X9904Y43610*
X9967Y43615*
X9755Y44307D02*
X9755Y44307D01*
X9757Y44276*
X9765Y44249*
X9778Y44224*
X9796Y44202*
X9819Y44184*
X9844Y44171*
X9872Y44163*
X9904Y44161*
X9935Y44163*
X9963Y44171*
X9988Y44184*
X10010Y44201*
X10028Y44223*
X10041Y44247*
X10049Y44273*
X10051Y44301*
X10048Y44330*
X10040Y44357*
X10027Y44382*
X10009Y44404*
X9986Y44422*
X9961Y44436*
X9933Y44443*
X9903Y44446*
X9872Y44443*
X9844Y44436*
X9819Y44423*
X9797Y44405*
X9778Y44384*
X9765Y44360*
X9757Y44335*
X9755Y44307*
X9719Y43887D02*
X9719Y43887D01*
X9720Y43864*
X9724Y43840*
X9731Y43817*
X9741Y43795*
X9754Y43774*
X9769Y43755*
X9788Y43739*
X9809Y43726*
X9831Y43715*
X9855Y43707*
X9879Y43703*
X9905Y43701*
X9943Y43704*
X9978Y43714*
X10009Y43730*
X10037Y43753*
X10060Y43780*
X10076Y43811*
X10086Y43846*
X10089Y43884*
X10086Y43922*
X10076Y43957*
X10059Y43989*
X10035Y44017*
X10007Y44040*
X9975Y44056*
X9940Y44066*
X9901Y44070*
X9863Y44066*
X9829Y44057*
X9798Y44040*
X9770Y44018*
X9748Y43990*
X9732Y43959*
X9722Y43925*
X9719Y43887*
D10*
X11475Y41800D02*
X11475Y43800D01*
X13875Y41800D02*
X13875Y43800D01*
%LNtop silkscreen component 8bfdcfdcbd2adafb*%
X49425Y34550D02*
X49425Y33721D01*
X50675Y34550D02*
X50675Y33721D01*
D11*
X49819Y31065D02*
X49819Y31065D01*
X49882Y31079*
X49939Y31104*
X49991Y31138*
X50036Y31181*
X50074Y31233*
X50104Y31294*
X50127Y31363*
X50007Y31393*
X49992Y31340*
X49992Y31340*
X49971Y31293*
X49971Y31293*
X49945Y31253*
X49945Y31253*
X49912Y31220*
X49912Y31220*
X49875Y31195*
X49875Y31195*
X49834Y31177*
X49834Y31177*
X49790Y31166*
X49790Y31166*
X49741Y31162*
X49741Y31162*
X49700Y31165*
X49700Y31165*
X49661Y31173*
X49661Y31173*
X49623Y31186*
X49623Y31186*
X49586Y31205*
X49586Y31205*
X49553Y31229*
X49553Y31229*
X49524Y31259*
X49524Y31259*
X49500Y31294*
X49500Y31294*
X49481Y31334*
X49481Y31334*
X49466Y31379*
X49466Y31379*
X49456Y31428*
X49456Y31428*
X49449Y31481*
X49449Y31481*
X49447Y31537*
X49447Y31537*
X49449Y31582*
X49449Y31582*
X49454Y31626*
X49454Y31626*
X49463Y31669*
X49463Y31669*
X49476Y31712*
X49476Y31712*
X49493Y31752*
X49493Y31752*
X49515Y31788*
X49515Y31788*
X49542Y31820*
X49542Y31820*
X49575Y31847*
X49575Y31847*
X49612Y31869*
X49612Y31869*
X49654Y31885*
X49654Y31885*
X49700Y31894*
X49700Y31894*
X49750Y31897*
X49750Y31897*
X49794Y31894*
X49794Y31894*
X49834Y31886*
X49834Y31886*
X49870Y31872*
X49870Y31872*
X49902Y31852*
X49902Y31852*
X49930Y31826*
X49930Y31826*
X49955Y31793*
X49955Y31793*
X49976Y31753*
X49976Y31753*
X49994Y31707*
X50111Y31735*
X50089Y31794*
X50061Y31846*
X50025Y31892*
X49982Y31930*
X49933Y31960*
X49878Y31982*
X49818Y31995*
X49753Y31999*
X49694Y31996*
X49638Y31985*
X49584Y31968*
X49533Y31944*
X49485Y31914*
X49444Y31877*
X49408Y31833*
X49378Y31784*
X49355Y31729*
X49338Y31669*
X49328Y31605*
X49324Y31536*
X49327Y31472*
X49336Y31410*
X49351Y31351*
X49372Y31293*
X49399Y31240*
X49431Y31193*
X49469Y31153*
X49512Y31120*
X49561Y31094*
X49618Y31075*
X49681Y31064*
X49751Y31060*
X49819Y31065*
X50485Y31142D02*
X50485Y31142D01*
X50485Y31142*
X50494Y31205*
X50494Y31205*
X50507Y31267*
X50507Y31267*
X50522Y31325*
X50522Y31325*
X50547Y31405*
X50548Y31405*
X50578Y31485*
X50578Y31485*
X50613Y31563*
X50613Y31563*
X50654Y31640*
X50654Y31640*
X50696Y31713*
X50696Y31713*
X50739Y31778*
X50739Y31778*
X50782Y31836*
X50782Y31836*
X50826Y31886*
X50826Y31972*
X50238Y31972*
X50238Y31866*
X50683Y31866*
X50684Y31865*
X50641Y31814*
X50601Y31757*
X50561Y31695*
X50523Y31627*
X50488Y31556*
X50456Y31483*
X50430Y31409*
X50407Y31334*
X50390Y31261*
X50377Y31193*
X50369Y31131*
X50365Y31076*
X50479Y31076*
X50485Y31142*
%LNtop silkscreen component 19e1a0fca253e45a*%
X85194Y32665D02*
X85194Y32665D01*
X85257Y32679*
X85314Y32704*
X85366Y32738*
X85411Y32781*
X85449Y32833*
X85479Y32894*
X85502Y32963*
X85382Y32993*
X85367Y32940*
X85367Y32940*
X85346Y32893*
X85346Y32893*
X85320Y32853*
X85320Y32853*
X85287Y32820*
X85287Y32820*
X85250Y32795*
X85250Y32795*
X85209Y32777*
X85209Y32777*
X85165Y32766*
X85165Y32766*
X85116Y32762*
X85116Y32762*
X85075Y32765*
X85075Y32765*
X85036Y32773*
X85036Y32773*
X84998Y32786*
X84998Y32786*
X84961Y32805*
X84961Y32805*
X84928Y32829*
X84928Y32829*
X84899Y32859*
X84899Y32859*
X84875Y32894*
X84875Y32894*
X84856Y32934*
X84856Y32934*
X84841Y32979*
X84841Y32979*
X84831Y33028*
X84831Y33028*
X84824Y33081*
X84824Y33081*
X84822Y33137*
X84822Y33137*
X84824Y33182*
X84824Y33182*
X84829Y33226*
X84829Y33226*
X84838Y33269*
X84838Y33269*
X84851Y33312*
X84851Y33312*
X84868Y33352*
X84868Y33352*
X84890Y33388*
X84890Y33388*
X84917Y33420*
X84917Y33420*
X84950Y33447*
X84950Y33447*
X84987Y33469*
X84987Y33469*
X85029Y33485*
X85029Y33485*
X85075Y33494*
X85075Y33494*
X85125Y33497*
X85125Y33497*
X85169Y33494*
X85169Y33494*
X85209Y33486*
X85209Y33486*
X85245Y33472*
X85245Y33472*
X85277Y33452*
X85277Y33452*
X85305Y33426*
X85305Y33426*
X85330Y33393*
X85330Y33393*
X85351Y33353*
X85351Y33353*
X85369Y33307*
X85486Y33335*
X85464Y33394*
X85436Y33446*
X85400Y33492*
X85357Y33530*
X85308Y33560*
X85253Y33582*
X85193Y33595*
X85128Y33599*
X85069Y33596*
X85013Y33585*
X84959Y33568*
X84908Y33544*
X84860Y33514*
X84819Y33477*
X84783Y33433*
X84753Y33384*
X84730Y33329*
X84713Y33269*
X84703Y33205*
X84699Y33136*
X84702Y33072*
X84711Y33010*
X84726Y32951*
X84747Y32893*
X84774Y32840*
X84806Y32793*
X84844Y32753*
X84887Y32720*
X84936Y32694*
X84993Y32675*
X85056Y32664*
X85126Y32660*
X85194Y32665*
X86025Y33587D02*
X86025Y33587D01*
X85954Y33587*
X85937Y33558*
X85937Y33558*
X85915Y33528*
X85915Y33528*
X85887Y33497*
X85887Y33497*
X85855Y33466*
X85855Y33466*
X85818Y33436*
X85818Y33436*
X85779Y33408*
X85779Y33408*
X85736Y33382*
X85736Y33382*
X85691Y33359*
X85691Y33252*
X85717Y33263*
X85746Y33276*
X85776Y33292*
X85808Y33310*
X85839Y33329*
X85867Y33348*
X85892Y33367*
X85914Y33387*
X85915Y33387*
X85915Y32676*
X86025Y32676*
X86025Y33587*
X86898Y32782D02*
X86898Y32782D01*
X86452Y32782*
X86452Y32782*
X86462Y32798*
X86462Y32798*
X86473Y32813*
X86473Y32813*
X86485Y32828*
X86485Y32828*
X86499Y32843*
X86499Y32843*
X86518Y32862*
X86518Y32862*
X86546Y32887*
X86546Y32887*
X86582Y32919*
X86582Y32919*
X86628Y32958*
X86684Y33006*
X86731Y33048*
X86770Y33086*
X86800Y33117*
X86824Y33146*
X86845Y33174*
X86861Y33202*
X86874Y33228*
X86884Y33255*
X86891Y33281*
X86895Y33308*
X86896Y33335*
X86892Y33387*
X86877Y33434*
X86854Y33477*
X86820Y33515*
X86779Y33547*
X86731Y33569*
X86675Y33583*
X86614Y33587*
X86552Y33583*
X86497Y33571*
X86449Y33550*
X86407Y33520*
X86373Y33483*
X86347Y33438*
X86329Y33385*
X86319Y33325*
X86433Y33314*
X86436Y33354*
X86436Y33354*
X86445Y33390*
X86445Y33390*
X86460Y33421*
X86460Y33421*
X86482Y33447*
X86482Y33447*
X86508Y33469*
X86508Y33469*
X86538Y33484*
X86538Y33484*
X86573Y33493*
X86573Y33493*
X86611Y33496*
X86611Y33496*
X86647Y33493*
X86648Y33493*
X86680Y33485*
X86680Y33484*
X86710Y33470*
X86710Y33470*
X86735Y33450*
X86735Y33450*
X86756Y33426*
X86756Y33426*
X86771Y33399*
X86771Y33399*
X86780Y33370*
X86780Y33370*
X86783Y33338*
X86783Y33338*
X86779Y33306*
X86779Y33306*
X86770Y33273*
X86770Y33273*
X86753Y33238*
X86753Y33238*
X86731Y33203*
X86731Y33203*
X86698Y33165*
X86698Y33165*
X86654Y33120*
X86654Y33120*
X86598Y33068*
X86598Y33068*
X86530Y33011*
X86530Y33011*
X86485Y32973*
X86446Y32937*
X86412Y32904*
X86384Y32873*
X86361Y32843*
X86341Y32813*
X86324Y32783*
X86311Y32752*
X86305Y32734*
X86300Y32714*
X86298Y32695*
X86298Y32676*
X86898Y32676*
X86898Y32782*
D10*
X84610Y29040D02*
X84610Y31040D01*
X87010Y29040D02*
X87010Y31040D01*
%LNtop silkscreen component f3573f80bae85b1c*%
D11*
X46584Y31740D02*
X46584Y31740D01*
X46646Y31754*
X46704Y31779*
X46755Y31813*
X46801Y31856*
X46839Y31908*
X46869Y31969*
X46891Y32038*
X46772Y32068*
X46757Y32015*
X46757Y32015*
X46736Y31968*
X46736Y31968*
X46709Y31928*
X46709Y31928*
X46677Y31895*
X46677Y31895*
X46640Y31870*
X46640Y31870*
X46599Y31852*
X46599Y31852*
X46554Y31841*
X46554Y31841*
X46506Y31837*
X46506Y31837*
X46465Y31840*
X46465Y31840*
X46425Y31848*
X46425Y31848*
X46387Y31861*
X46387Y31861*
X46351Y31880*
X46351Y31880*
X46318Y31904*
X46318Y31904*
X46289Y31934*
X46289Y31934*
X46265Y31969*
X46265Y31969*
X46246Y32009*
X46246Y32009*
X46231Y32054*
X46231Y32054*
X46220Y32103*
X46220Y32103*
X46214Y32156*
X46214Y32156*
X46212Y32212*
X46212Y32212*
X46214Y32257*
X46214Y32257*
X46219Y32301*
X46219Y32301*
X46228Y32344*
X46228Y32344*
X46240Y32387*
X46240Y32387*
X46257Y32427*
X46257Y32427*
X46279Y32463*
X46279Y32463*
X46307Y32495*
X46307Y32495*
X46339Y32522*
X46339Y32522*
X46377Y32544*
X46377Y32544*
X46419Y32560*
X46419Y32560*
X46465Y32569*
X46465Y32569*
X46515Y32572*
X46515Y32572*
X46559Y32569*
X46559Y32569*
X46598Y32561*
X46598Y32561*
X46634Y32547*
X46634Y32547*
X46666Y32527*
X46667Y32527*
X46695Y32501*
X46695Y32501*
X46720Y32468*
X46720Y32468*
X46741Y32428*
X46741Y32428*
X46758Y32382*
X46876Y32410*
X46854Y32469*
X46825Y32521*
X46789Y32567*
X46747Y32605*
X46697Y32635*
X46643Y32657*
X46583Y32670*
X46517Y32674*
X46459Y32671*
X46402Y32660*
X46348Y32643*
X46297Y32619*
X46250Y32589*
X46209Y32552*
X46173Y32508*
X46143Y32459*
X46119Y32404*
X46102Y32344*
X46092Y32280*
X46089Y32211*
X46092Y32147*
X46101Y32085*
X46116Y32026*
X46137Y31968*
X46164Y31915*
X46196Y31868*
X46234Y31828*
X46277Y31795*
X46326Y31769*
X46382Y31750*
X46446Y31739*
X46516Y31735*
X46584Y31740*
X47359Y31742D02*
X47359Y31742D01*
X47422Y31763*
X47478Y31797*
X47525Y31845*
X47557Y31892*
X47579Y31943*
X47593Y31999*
X47597Y32058*
X47592Y32120*
X47577Y32176*
X47551Y32226*
X47515Y32270*
X47472Y32306*
X47424Y32332*
X47372Y32347*
X47315Y32352*
X47270Y32349*
X47227Y32338*
X47185Y32320*
X47143Y32295*
X47143Y32295*
X47192Y32540*
X47192Y32541*
X47554Y32541*
X47554Y32646*
X47103Y32646*
X47015Y32180*
X47119Y32167*
X47133Y32185*
X47133Y32185*
X47149Y32202*
X47149Y32202*
X47167Y32217*
X47167Y32217*
X47187Y32230*
X47187Y32230*
X47210Y32241*
X47210Y32241*
X47234Y32249*
X47234Y32249*
X47259Y32253*
X47259Y32253*
X47285Y32255*
X47285Y32255*
X47326Y32251*
X47327Y32251*
X47364Y32241*
X47364Y32241*
X47397Y32224*
X47397Y32224*
X47426Y32199*
X47426Y32199*
X47449Y32169*
X47449Y32169*
X47466Y32134*
X47466Y32134*
X47476Y32094*
X47476Y32094*
X47480Y32048*
X47480Y32048*
X47476Y32000*
X47476Y32000*
X47466Y31958*
X47466Y31958*
X47448Y31920*
X47448Y31920*
X47424Y31887*
X47424Y31887*
X47394Y31860*
X47394Y31860*
X47362Y31841*
X47362Y31841*
X47326Y31830*
X47326Y31830*
X47287Y31826*
X47287Y31826*
X47255Y31828*
X47255Y31828*
X47225Y31837*
X47225Y31837*
X47197Y31850*
X47197Y31850*
X47172Y31869*
X47172Y31869*
X47151Y31893*
X47151Y31893*
X47133Y31923*
X47133Y31923*
X47120Y31958*
X47120Y31958*
X47112Y31998*
X46995Y31988*
X47005Y31934*
X47023Y31885*
X47050Y31842*
X47085Y31804*
X47127Y31774*
X47174Y31752*
X47228Y31739*
X47287Y31735*
X47359Y31742*
D10*
X46675Y35135D02*
X46675Y33135D01*
X48775Y35135D02*
X48775Y33135D01*
%LNtop silkscreen component 08561076ccd842c1*%
X12125Y23975D02*
X13775Y23975D01*
X13775Y20925*
X12125Y20925*
X12125Y23975*
D11*
X12395Y19754D02*
X12395Y19754D01*
X12395Y19754*
X12535Y19754*
X12535Y19754*
X12556Y19754*
X12556Y19754*
X12575Y19753*
X12575Y19753*
X12590Y19752*
X12590Y19752*
X12602Y19750*
X12602Y19750*
X12616Y19746*
X12616Y19746*
X12630Y19740*
X12630Y19740*
X12643Y19734*
X12643Y19734*
X12657Y19726*
X12657Y19726*
X12671Y19715*
X12671Y19715*
X12686Y19702*
X12686Y19702*
X12701Y19685*
X12701Y19685*
X12718Y19665*
X12718Y19665*
X12736Y19641*
X12736Y19641*
X12757Y19612*
X12757Y19612*
X12780Y19578*
X12780Y19578*
X12805Y19539*
X12805Y19539*
X12925Y19351*
X13075Y19351*
X12917Y19597*
X12894Y19632*
X12869Y19664*
X12844Y19692*
X12818Y19718*
X12804Y19729*
X12787Y19740*
X12768Y19752*
X12745Y19763*
X12745Y19764*
X12807Y19776*
X12859Y19794*
X12903Y19818*
X12939Y19848*
X12966Y19883*
X12985Y19922*
X12997Y19965*
X13001Y20011*
X12999Y20048*
X12992Y20083*
X12980Y20116*
X12963Y20148*
X12943Y20176*
X12919Y20200*
X12892Y20220*
X12863Y20234*
X12827Y20245*
X12785Y20252*
X12735Y20257*
X12678Y20259*
X12275Y20259*
X12275Y19351*
X12395Y19351*
X12395Y19754*
X12395Y19858D02*
X12395Y19858D01*
X12654Y19858*
X12693Y19859*
X12727Y19862*
X12757Y19867*
X12783Y19875*
X12805Y19885*
X12824Y19897*
X12840Y19912*
X12853Y19929*
X12864Y19949*
X12872Y19969*
X12876Y19989*
X12878Y20011*
X12875Y20042*
X12866Y20070*
X12851Y20095*
X12831Y20117*
X12804Y20135*
X12770Y20148*
X12730Y20156*
X12683Y20159*
X12395Y20159*
X12395Y19858*
X13614Y19568D02*
X13614Y19568D01*
X13614Y19568*
X13737Y19568*
X13737Y19669*
X13614Y19669*
X13614Y19670*
X13614Y20259*
X13523Y20259*
X13109Y19670*
X13109Y19568*
X13503Y19568*
X13503Y19568*
X13503Y19351*
X13614Y19351*
X13614Y19568*
X13502Y20078D02*
X13502Y20078D01*
X13219Y19670*
X13502Y19670*
X13502Y20078*
D13*
X13000Y24400D03*
%LNtop silkscreen component 8224104cf6598585*%
D10*
X24650Y34427D02*
X24650Y33598D01*
X25900Y34427D02*
X25900Y33598D01*
D11*
X24919Y31165D02*
X24919Y31165D01*
X24982Y31179*
X25039Y31204*
X25091Y31238*
X25136Y31281*
X25174Y31333*
X25204Y31394*
X25227Y31463*
X25107Y31493*
X25092Y31440*
X25092Y31440*
X25071Y31393*
X25071Y31393*
X25045Y31353*
X25045Y31353*
X25012Y31320*
X25012Y31320*
X24975Y31295*
X24975Y31295*
X24934Y31277*
X24934Y31277*
X24890Y31266*
X24890Y31266*
X24841Y31262*
X24841Y31262*
X24800Y31265*
X24800Y31265*
X24761Y31273*
X24761Y31273*
X24723Y31286*
X24723Y31286*
X24686Y31305*
X24686Y31305*
X24653Y31329*
X24653Y31329*
X24624Y31359*
X24624Y31359*
X24600Y31394*
X24600Y31394*
X24581Y31434*
X24581Y31434*
X24566Y31479*
X24566Y31479*
X24556Y31528*
X24556Y31528*
X24549Y31581*
X24549Y31581*
X24547Y31637*
X24547Y31637*
X24549Y31682*
X24549Y31682*
X24554Y31726*
X24554Y31726*
X24563Y31769*
X24563Y31769*
X24576Y31812*
X24576Y31812*
X24593Y31852*
X24593Y31852*
X24615Y31888*
X24615Y31888*
X24642Y31920*
X24642Y31920*
X24675Y31947*
X24675Y31947*
X24712Y31969*
X24712Y31969*
X24754Y31985*
X24754Y31985*
X24800Y31994*
X24800Y31994*
X24850Y31997*
X24850Y31997*
X24894Y31994*
X24894Y31994*
X24934Y31986*
X24934Y31986*
X24970Y31972*
X24970Y31972*
X25002Y31952*
X25002Y31952*
X25030Y31926*
X25030Y31926*
X25055Y31893*
X25055Y31893*
X25076Y31853*
X25076Y31853*
X25094Y31807*
X25211Y31835*
X25189Y31894*
X25161Y31946*
X25125Y31992*
X25082Y32030*
X25033Y32060*
X24978Y32082*
X24918Y32095*
X24853Y32099*
X24794Y32096*
X24738Y32085*
X24684Y32068*
X24633Y32044*
X24585Y32014*
X24544Y31977*
X24508Y31933*
X24478Y31884*
X24455Y31829*
X24438Y31769*
X24428Y31705*
X24424Y31636*
X24427Y31572*
X24436Y31510*
X24451Y31451*
X24472Y31393*
X24499Y31340*
X24531Y31293*
X24569Y31253*
X24612Y31220*
X24661Y31194*
X24718Y31175*
X24781Y31164*
X24851Y31160*
X24919Y31165*
X25681Y31162D02*
X25681Y31162D01*
X25718Y31170*
X25754Y31182*
X25787Y31199*
X25817Y31221*
X25844Y31247*
X25868Y31277*
X25888Y31311*
X25904Y31349*
X25916Y31388*
X25923Y31428*
X25925Y31470*
X25920Y31532*
X25905Y31588*
X25881Y31638*
X25847Y31682*
X25806Y31718*
X25760Y31744*
X25711Y31759*
X25657Y31764*
X25626Y31762*
X25595Y31757*
X25565Y31748*
X25535Y31735*
X25507Y31718*
X25481Y31697*
X25458Y31672*
X25436Y31643*
X25436Y31643*
X25438Y31708*
X25438Y31708*
X25444Y31765*
X25444Y31765*
X25454Y31813*
X25454Y31813*
X25467Y31854*
X25467Y31854*
X25484Y31889*
X25484Y31889*
X25503Y31919*
X25503Y31919*
X25526Y31945*
X25526Y31945*
X25551Y31967*
X25551Y31967*
X25572Y31980*
X25572Y31980*
X25594Y31989*
X25594Y31989*
X25619Y31995*
X25619Y31995*
X25645Y31997*
X25645Y31997*
X25677Y31994*
X25677Y31994*
X25706Y31985*
X25706Y31985*
X25733Y31970*
X25733Y31970*
X25757Y31949*
X25757Y31949*
X25770Y31931*
X25770Y31931*
X25781Y31910*
X25781Y31910*
X25791Y31884*
X25791Y31884*
X25799Y31853*
X25909Y31862*
X25899Y31911*
X25882Y31956*
X25858Y31994*
X25827Y32027*
X25790Y32054*
X25749Y32072*
X25703Y32084*
X25651Y32087*
X25583Y32081*
X25523Y32061*
X25469Y32029*
X25423Y31983*
X25380Y31915*
X25350Y31828*
X25332Y31723*
X25326Y31600*
X25331Y31491*
X25348Y31398*
X25375Y31322*
X25414Y31262*
X25461Y31218*
X25514Y31186*
X25574Y31166*
X25641Y31160*
X25681Y31162*
X25454Y31470D02*
X25454Y31470D01*
X25455Y31441*
X25460Y31413*
X25467Y31386*
X25478Y31359*
X25492Y31334*
X25508Y31313*
X25526Y31294*
X25547Y31279*
X25569Y31267*
X25592Y31258*
X25615Y31253*
X25639Y31251*
X25673Y31255*
X25705Y31266*
X25734Y31283*
X25761Y31308*
X25783Y31339*
X25799Y31376*
X25808Y31417*
X25811Y31463*
X25808Y31508*
X25799Y31548*
X25783Y31582*
X25761Y31612*
X25734Y31636*
X25704Y31653*
X25671Y31663*
X25635Y31666*
X25598Y31663*
X25565Y31653*
X25534Y31636*
X25506Y31612*
X25483Y31583*
X25467Y31549*
X25457Y31511*
X25454Y31470*
%LNtop silkscreen component 2f99703f0193b658*%
D10*
X78300Y44325D02*
X79300Y44325D01*
X79300Y45925D02*
X78300Y45925D01*
D11*
X74434Y44765D02*
X74434Y44765D01*
X74496Y44779*
X74554Y44804*
X74605Y44838*
X74651Y44881*
X74689Y44933*
X74719Y44994*
X74741Y45063*
X74622Y45093*
X74607Y45040*
X74607Y45040*
X74586Y44993*
X74586Y44993*
X74559Y44953*
X74559Y44953*
X74527Y44920*
X74527Y44920*
X74490Y44895*
X74490Y44895*
X74449Y44877*
X74449Y44877*
X74404Y44866*
X74404Y44866*
X74356Y44862*
X74356Y44862*
X74315Y44865*
X74315Y44865*
X74275Y44873*
X74275Y44873*
X74237Y44886*
X74237Y44886*
X74201Y44905*
X74201Y44905*
X74168Y44929*
X74168Y44929*
X74139Y44959*
X74139Y44959*
X74115Y44994*
X74115Y44994*
X74096Y45034*
X74096Y45034*
X74081Y45079*
X74081Y45079*
X74070Y45128*
X74070Y45128*
X74064Y45181*
X74064Y45181*
X74062Y45237*
X74062Y45237*
X74064Y45282*
X74064Y45282*
X74069Y45326*
X74069Y45326*
X74078Y45369*
X74078Y45369*
X74090Y45412*
X74090Y45412*
X74107Y45452*
X74107Y45452*
X74129Y45488*
X74129Y45488*
X74157Y45520*
X74157Y45520*
X74189Y45547*
X74189Y45547*
X74227Y45569*
X74227Y45569*
X74269Y45585*
X74269Y45585*
X74315Y45594*
X74315Y45594*
X74365Y45597*
X74365Y45597*
X74409Y45594*
X74409Y45594*
X74448Y45586*
X74448Y45586*
X74484Y45572*
X74484Y45572*
X74516Y45552*
X74517Y45552*
X74545Y45526*
X74545Y45526*
X74570Y45493*
X74570Y45493*
X74591Y45453*
X74591Y45453*
X74608Y45407*
X74726Y45435*
X74704Y45494*
X74675Y45546*
X74639Y45592*
X74597Y45630*
X74547Y45660*
X74493Y45682*
X74433Y45695*
X74367Y45699*
X74309Y45696*
X74252Y45685*
X74198Y45668*
X74147Y45644*
X74100Y45614*
X74059Y45577*
X74023Y45533*
X73993Y45484*
X73969Y45429*
X73952Y45369*
X73942Y45305*
X73939Y45236*
X73942Y45172*
X73951Y45110*
X73966Y45051*
X73987Y44993*
X74014Y44940*
X74046Y44893*
X74084Y44853*
X74127Y44820*
X74176Y44794*
X74232Y44775*
X74296Y44764*
X74366Y44760*
X74434Y44765*
X75265Y45687D02*
X75265Y45687D01*
X75194Y45687*
X75177Y45658*
X75177Y45658*
X75154Y45628*
X75154Y45628*
X75127Y45597*
X75127Y45597*
X75095Y45566*
X75094Y45566*
X75058Y45536*
X75058Y45536*
X75018Y45508*
X75018Y45508*
X74976Y45482*
X74976Y45482*
X74931Y45459*
X74931Y45352*
X74957Y45363*
X74986Y45376*
X75016Y45392*
X75048Y45410*
X75079Y45429*
X75107Y45448*
X75132Y45467*
X75154Y45487*
X75154Y45487*
X75154Y44776*
X75265Y44776*
X75265Y45687*
X75915Y44767D02*
X75915Y44767D01*
X75978Y44788*
X76034Y44822*
X76082Y44870*
X76113Y44917*
X76135Y44968*
X76149Y45024*
X76153Y45083*
X76148Y45145*
X76133Y45201*
X76107Y45251*
X76072Y45295*
X76029Y45331*
X75981Y45357*
X75928Y45372*
X75871Y45377*
X75827Y45374*
X75783Y45363*
X75741Y45345*
X75699Y45320*
X75699Y45320*
X75748Y45565*
X75748Y45566*
X76111Y45566*
X76111Y45671*
X75660Y45671*
X75572Y45205*
X75676Y45192*
X75689Y45210*
X75689Y45210*
X75705Y45227*
X75705Y45227*
X75723Y45242*
X75723Y45242*
X75744Y45255*
X75744Y45255*
X75766Y45266*
X75766Y45266*
X75790Y45274*
X75790Y45274*
X75815Y45278*
X75815Y45278*
X75841Y45280*
X75841Y45280*
X75883Y45276*
X75883Y45276*
X75920Y45266*
X75920Y45266*
X75953Y45249*
X75953Y45249*
X75982Y45224*
X75982Y45224*
X76006Y45194*
X76006Y45194*
X76023Y45159*
X76023Y45159*
X76033Y45119*
X76033Y45119*
X76036Y45073*
X76036Y45073*
X76033Y45025*
X76033Y45025*
X76022Y44983*
X76022Y44983*
X76005Y44945*
X76005Y44945*
X75980Y44912*
X75980Y44912*
X75951Y44885*
X75951Y44885*
X75918Y44866*
X75918Y44866*
X75882Y44855*
X75882Y44855*
X75843Y44851*
X75843Y44851*
X75811Y44853*
X75811Y44853*
X75781Y44862*
X75781Y44862*
X75754Y44875*
X75754Y44875*
X75729Y44894*
X75728Y44894*
X75707Y44918*
X75707Y44918*
X75690Y44948*
X75690Y44948*
X75677Y44983*
X75677Y44983*
X75668Y45023*
X75552Y45013*
X75561Y44959*
X75580Y44910*
X75606Y44867*
X75641Y44829*
X75683Y44799*
X75731Y44777*
X75784Y44764*
X75843Y44760*
X75915Y44767*
%LNtop silkscreen component 6d85c627eee7c2ea*%
X80019Y6015D02*
X80019Y6015D01*
X80082Y6029*
X80139Y6054*
X80191Y6088*
X80236Y6131*
X80274Y6183*
X80304Y6244*
X80327Y6313*
X80207Y6343*
X80192Y6290*
X80192Y6290*
X80171Y6243*
X80171Y6243*
X80145Y6203*
X80145Y6203*
X80112Y6170*
X80112Y6170*
X80075Y6145*
X80075Y6145*
X80034Y6127*
X80034Y6127*
X79990Y6116*
X79990Y6116*
X79941Y6112*
X79941Y6112*
X79900Y6115*
X79900Y6115*
X79861Y6123*
X79861Y6123*
X79823Y6136*
X79823Y6136*
X79786Y6155*
X79786Y6155*
X79753Y6179*
X79753Y6179*
X79724Y6209*
X79724Y6209*
X79700Y6244*
X79700Y6244*
X79681Y6284*
X79681Y6284*
X79666Y6329*
X79666Y6329*
X79656Y6378*
X79656Y6378*
X79649Y6431*
X79649Y6431*
X79647Y6487*
X79647Y6487*
X79649Y6532*
X79649Y6532*
X79654Y6576*
X79654Y6576*
X79663Y6619*
X79663Y6619*
X79676Y6662*
X79676Y6662*
X79693Y6702*
X79693Y6702*
X79715Y6738*
X79715Y6738*
X79742Y6770*
X79742Y6770*
X79775Y6797*
X79775Y6797*
X79812Y6819*
X79812Y6819*
X79854Y6835*
X79854Y6835*
X79900Y6844*
X79900Y6844*
X79950Y6847*
X79950Y6847*
X79994Y6844*
X79994Y6844*
X80034Y6836*
X80034Y6836*
X80070Y6822*
X80070Y6822*
X80102Y6802*
X80102Y6802*
X80130Y6776*
X80130Y6776*
X80155Y6743*
X80155Y6743*
X80176Y6703*
X80176Y6703*
X80194Y6657*
X80311Y6685*
X80289Y6744*
X80261Y6796*
X80225Y6842*
X80182Y6880*
X80133Y6910*
X80078Y6932*
X80018Y6945*
X79953Y6949*
X79894Y6946*
X79838Y6935*
X79784Y6918*
X79733Y6894*
X79685Y6864*
X79644Y6827*
X79608Y6783*
X79578Y6734*
X79555Y6679*
X79538Y6619*
X79528Y6555*
X79524Y6486*
X79527Y6422*
X79536Y6360*
X79551Y6301*
X79572Y6243*
X79599Y6190*
X79631Y6143*
X79669Y6103*
X79712Y6070*
X79761Y6044*
X79818Y6025*
X79881Y6014*
X79951Y6010*
X80019Y6015*
X80850Y6937D02*
X80850Y6937D01*
X80779Y6937*
X80762Y6908*
X80762Y6908*
X80740Y6878*
X80740Y6878*
X80712Y6847*
X80712Y6847*
X80680Y6816*
X80680Y6816*
X80643Y6786*
X80643Y6786*
X80604Y6758*
X80604Y6758*
X80561Y6732*
X80561Y6732*
X80516Y6709*
X80516Y6602*
X80542Y6613*
X80571Y6626*
X80601Y6642*
X80633Y6660*
X80664Y6679*
X80692Y6698*
X80717Y6717*
X80739Y6737*
X80740Y6737*
X80740Y6026*
X80850Y6026*
X80850Y6937*
X81499Y6015D02*
X81499Y6015D01*
X81556Y6030*
X81607Y6055*
X81652Y6089*
X81688Y6131*
X81713Y6178*
X81729Y6229*
X81734Y6285*
X81731Y6325*
X81723Y6363*
X81709Y6398*
X81690Y6430*
X81666Y6458*
X81637Y6482*
X81602Y6502*
X81563Y6518*
X81563Y6518*
X81595Y6532*
X81622Y6549*
X81645Y6569*
X81664Y6591*
X81678Y6615*
X81688Y6641*
X81695Y6670*
X81697Y6700*
X81692Y6748*
X81679Y6792*
X81656Y6832*
X81624Y6868*
X81585Y6898*
X81540Y6920*
X81490Y6933*
X81433Y6937*
X81377Y6933*
X81326Y6920*
X81282Y6899*
X81244Y6870*
X81212Y6834*
X81190Y6795*
X81177Y6751*
X81172Y6703*
X81174Y6672*
X81181Y6642*
X81191Y6615*
X81206Y6591*
X81225Y6569*
X81248Y6549*
X81276Y6533*
X81309Y6518*
X81309Y6518*
X81269Y6504*
X81235Y6486*
X81205Y6464*
X81181Y6436*
X81161Y6404*
X81147Y6369*
X81139Y6330*
X81136Y6288*
X81141Y6231*
X81156Y6179*
X81182Y6132*
X81218Y6090*
X81263Y6055*
X81313Y6030*
X81371Y6015*
X81435Y6010*
X81499Y6015*
X81286Y6707D02*
X81286Y6707D01*
X81289Y6676*
X81296Y6649*
X81309Y6624*
X81328Y6602*
X81350Y6584*
X81375Y6571*
X81404Y6563*
X81435Y6561*
X81466Y6563*
X81494Y6571*
X81519Y6584*
X81541Y6601*
X81559Y6623*
X81572Y6647*
X81580Y6673*
X81582Y6701*
X81580Y6730*
X81572Y6757*
X81559Y6782*
X81540Y6804*
X81517Y6822*
X81492Y6836*
X81465Y6843*
X81434Y6846*
X81404Y6843*
X81376Y6836*
X81351Y6823*
X81328Y6805*
X81310Y6784*
X81297Y6760*
X81289Y6735*
X81286Y6707*
X81250Y6287D02*
X81250Y6287D01*
X81251Y6264*
X81256Y6240*
X81263Y6217*
X81273Y6195*
X81285Y6174*
X81301Y6155*
X81319Y6139*
X81340Y6126*
X81363Y6115*
X81386Y6107*
X81411Y6103*
X81436Y6101*
X81474Y6104*
X81509Y6114*
X81540Y6130*
X81568Y6153*
X81591Y6180*
X81607Y6211*
X81617Y6246*
X81620Y6284*
X81617Y6322*
X81607Y6357*
X81590Y6389*
X81567Y6417*
X81538Y6440*
X81506Y6456*
X81471Y6466*
X81432Y6470*
X81395Y6466*
X81360Y6457*
X81329Y6440*
X81302Y6418*
X81279Y6390*
X81263Y6359*
X81253Y6325*
X81250Y6287*
D10*
X81400Y10450D02*
X81400Y8450D01*
X79000Y10450D02*
X79000Y8450D01*
%LNtop silkscreen component 76a276a0f06b50dd*%
D11*
X81444Y20240D02*
X81444Y20240D01*
X81507Y20254*
X81564Y20279*
X81616Y20313*
X81661Y20356*
X81699Y20408*
X81729Y20469*
X81752Y20538*
X81632Y20568*
X81617Y20515*
X81617Y20515*
X81596Y20468*
X81596Y20468*
X81570Y20428*
X81570Y20428*
X81537Y20395*
X81537Y20395*
X81500Y20370*
X81500Y20370*
X81459Y20352*
X81459Y20352*
X81415Y20341*
X81415Y20341*
X81366Y20337*
X81366Y20337*
X81325Y20340*
X81325Y20340*
X81286Y20348*
X81286Y20348*
X81248Y20361*
X81248Y20361*
X81211Y20380*
X81211Y20380*
X81178Y20404*
X81178Y20404*
X81149Y20434*
X81149Y20434*
X81125Y20469*
X81125Y20469*
X81106Y20509*
X81106Y20509*
X81091Y20554*
X81091Y20554*
X81081Y20603*
X81081Y20603*
X81074Y20656*
X81074Y20656*
X81072Y20712*
X81072Y20712*
X81074Y20757*
X81074Y20757*
X81079Y20801*
X81079Y20801*
X81088Y20844*
X81088Y20844*
X81101Y20887*
X81101Y20887*
X81118Y20927*
X81118Y20927*
X81140Y20963*
X81140Y20963*
X81167Y20995*
X81167Y20995*
X81200Y21022*
X81200Y21022*
X81237Y21044*
X81237Y21044*
X81279Y21060*
X81279Y21060*
X81325Y21069*
X81325Y21069*
X81375Y21072*
X81375Y21072*
X81419Y21069*
X81419Y21069*
X81459Y21061*
X81459Y21061*
X81495Y21047*
X81495Y21047*
X81527Y21027*
X81527Y21027*
X81555Y21001*
X81555Y21001*
X81580Y20968*
X81580Y20968*
X81601Y20928*
X81601Y20928*
X81619Y20882*
X81736Y20910*
X81714Y20969*
X81686Y21021*
X81650Y21067*
X81607Y21105*
X81558Y21135*
X81503Y21157*
X81443Y21170*
X81378Y21174*
X81319Y21171*
X81263Y21160*
X81209Y21143*
X81158Y21119*
X81110Y21089*
X81069Y21052*
X81033Y21008*
X81003Y20959*
X80980Y20904*
X80963Y20844*
X80953Y20780*
X80949Y20711*
X80952Y20647*
X80961Y20585*
X80976Y20526*
X80997Y20468*
X81024Y20415*
X81056Y20368*
X81094Y20328*
X81137Y20295*
X81186Y20269*
X81243Y20250*
X81306Y20239*
X81376Y20235*
X81444Y20240*
X82275Y21162D02*
X82275Y21162D01*
X82204Y21162*
X82187Y21133*
X82187Y21133*
X82165Y21103*
X82165Y21103*
X82137Y21072*
X82137Y21072*
X82105Y21041*
X82105Y21041*
X82068Y21011*
X82068Y21011*
X82029Y20983*
X82029Y20983*
X81986Y20957*
X81986Y20957*
X81941Y20934*
X81941Y20827*
X81967Y20838*
X81996Y20851*
X82026Y20867*
X82058Y20885*
X82089Y20904*
X82117Y20923*
X82142Y20942*
X82164Y20962*
X82165Y20962*
X82165Y20251*
X82275Y20251*
X82275Y21162*
X82882Y20238D02*
X82882Y20238D01*
X82928Y20248*
X82970Y20265*
X83009Y20289*
X83044Y20319*
X83074Y20355*
X83100Y20397*
X83121Y20446*
X83138Y20502*
X83149Y20567*
X83156Y20640*
X83159Y20723*
X83156Y20802*
X83149Y20871*
X83137Y20930*
X83121Y20979*
X83099Y21020*
X83074Y21057*
X83044Y21088*
X83009Y21115*
X82972Y21135*
X82932Y21150*
X82891Y21159*
X82847Y21162*
X82789Y21157*
X82735Y21141*
X82687Y21115*
X82643Y21078*
X82608Y21033*
X82582Y20980*
X82567Y20922*
X82562Y20856*
X82567Y20792*
X82582Y20735*
X82606Y20685*
X82640Y20640*
X82681Y20605*
X82727Y20579*
X82777Y20564*
X82831Y20559*
X82864Y20561*
X82896Y20567*
X82926Y20577*
X82956Y20592*
X82983Y20610*
X83008Y20630*
X83029Y20653*
X83048Y20678*
X83048Y20678*
X83049Y20671*
X83049Y20671*
X83049Y20665*
X83049Y20665*
X83049Y20660*
X83049Y20660*
X83049Y20656*
X83049Y20656*
X83048Y20621*
X83048Y20621*
X83045Y20587*
X83045Y20587*
X83039Y20553*
X83039Y20553*
X83032Y20519*
X83032Y20519*
X83023Y20487*
X83023Y20487*
X83013Y20459*
X83013Y20459*
X83002Y20434*
X83002Y20434*
X82990Y20413*
X82990Y20412*
X82977Y20394*
X82977Y20394*
X82962Y20377*
X82962Y20377*
X82945Y20362*
X82945Y20362*
X82927Y20349*
X82927Y20349*
X82907Y20339*
X82906Y20339*
X82885Y20332*
X82885Y20332*
X82861Y20327*
X82861Y20327*
X82836Y20326*
X82836Y20326*
X82807Y20328*
X82807Y20328*
X82781Y20334*
X82781Y20334*
X82758Y20345*
X82758Y20345*
X82737Y20360*
X82737Y20360*
X82720Y20380*
X82720Y20380*
X82705Y20405*
X82705Y20405*
X82693Y20435*
X82693Y20435*
X82685Y20470*
X82579Y20460*
X82589Y20410*
X82606Y20365*
X82630Y20327*
X82660Y20294*
X82696Y20268*
X82737Y20250*
X82783Y20239*
X82834Y20235*
X82882Y20238*
X83035Y20861D02*
X83035Y20861D01*
X83032Y20907*
X83023Y20948*
X83007Y20983*
X82984Y21014*
X82957Y21039*
X82928Y21056*
X82896Y21067*
X82861Y21070*
X82825Y21067*
X82791Y21055*
X82760Y21036*
X82731Y21010*
X82707Y20977*
X82690Y20940*
X82680Y20898*
X82676Y20852*
X82680Y20811*
X82689Y20773*
X82706Y20740*
X82729Y20711*
X82756Y20687*
X82787Y20670*
X82821Y20660*
X82858Y20657*
X82895Y20660*
X82929Y20670*
X82959Y20687*
X82985Y20711*
X83007Y20741*
X83023Y20776*
X83032Y20816*
X83035Y20861*
D10*
X84560Y21025D02*
X86560Y21025D01*
X84560Y18625D02*
X86560Y18625D01*
%LNtop silkscreen component fb13be85d48014ff*%
X85075Y22450D02*
X85575Y22450D01*
X85575Y22950*
X85075Y26450D02*
X85575Y26450D01*
X85575Y25950*
X82075Y22450D02*
X81575Y22450D01*
X81575Y22950*
X82075Y26450D02*
X81575Y26450D01*
X81575Y25950*
D11*
X79250Y26474D02*
X79250Y26474D01*
X79306Y26483*
X79356Y26499*
X79400Y26521*
X79437Y26548*
X79468Y26579*
X79493Y26613*
X79511Y26652*
X79525Y26696*
X79534Y26746*
X79540Y26804*
X79542Y26869*
X79542Y27394*
X79423Y27394*
X79423Y26870*
X79423Y26870*
X79419Y26791*
X79419Y26791*
X79409Y26726*
X79409Y26726*
X79391Y26675*
X79391Y26675*
X79366Y26638*
X79366Y26638*
X79333Y26612*
X79333Y26612*
X79291Y26593*
X79291Y26593*
X79239Y26582*
X79239Y26582*
X79177Y26578*
X79177Y26578*
X79140Y26580*
X79140Y26580*
X79105Y26585*
X79105Y26585*
X79074Y26595*
X79074Y26595*
X79045Y26608*
X79045Y26608*
X79021Y26625*
X79021Y26625*
X79000Y26645*
X79000Y26645*
X78983Y26669*
X78983Y26669*
X78970Y26695*
X78970Y26695*
X78960Y26727*
X78960Y26727*
X78953Y26767*
X78953Y26767*
X78949Y26814*
X78949Y26814*
X78948Y26870*
X78948Y26870*
X78948Y27394*
X78828Y27394*
X78828Y26869*
X78830Y26801*
X78837Y26740*
X78848Y26687*
X78863Y26642*
X78883Y26602*
X78909Y26568*
X78941Y26539*
X78979Y26514*
X79022Y26495*
X79071Y26481*
X79126Y26473*
X79187Y26470*
X79250Y26474*
X80048Y26473D02*
X80048Y26473D01*
X80086Y26480*
X80121Y26492*
X80155Y26509*
X80185Y26531*
X80212Y26557*
X80236Y26587*
X80256Y26622*
X80272Y26659*
X80283Y26698*
X80290Y26739*
X80293Y26781*
X80288Y26843*
X80273Y26899*
X80249Y26949*
X80214Y26993*
X80173Y27028*
X80128Y27054*
X80078Y27069*
X80025Y27075*
X79993Y27073*
X79962Y27067*
X79932Y27058*
X79903Y27045*
X79875Y27028*
X79849Y27007*
X79825Y26983*
X79804Y26954*
X79803Y26954*
X79806Y27018*
X79806Y27019*
X79812Y27075*
X79812Y27075*
X79822Y27124*
X79822Y27124*
X79835Y27165*
X79835Y27165*
X79852Y27199*
X79852Y27199*
X79871Y27230*
X79871Y27230*
X79893Y27256*
X79893Y27256*
X79918Y27277*
X79918Y27277*
X79939Y27290*
X79939Y27290*
X79962Y27299*
X79962Y27299*
X79986Y27305*
X79986Y27305*
X80012Y27307*
X80012Y27307*
X80044Y27304*
X80044Y27304*
X80073Y27295*
X80073Y27295*
X80100Y27280*
X80100Y27280*
X80124Y27259*
X80124Y27259*
X80137Y27242*
X80137Y27242*
X80148Y27220*
X80148Y27220*
X80158Y27194*
X80158Y27194*
X80166Y27164*
X80276Y27172*
X80266Y27222*
X80249Y27266*
X80225Y27305*
X80194Y27338*
X80158Y27364*
X80116Y27383*
X80070Y27394*
X80019Y27398*
X79951Y27391*
X79890Y27372*
X79837Y27339*
X79791Y27294*
X79748Y27225*
X79718Y27138*
X79699Y27033*
X79693Y26911*
X79699Y26801*
X79715Y26708*
X79743Y26632*
X79781Y26573*
X79828Y26528*
X79882Y26496*
X79942Y26477*
X80008Y26470*
X80048Y26473*
X79821Y26780D02*
X79821Y26780D01*
X79823Y26751*
X79827Y26723*
X79835Y26696*
X79846Y26670*
X79859Y26645*
X79875Y26623*
X79893Y26605*
X79914Y26589*
X79936Y26577*
X79959Y26569*
X79983Y26563*
X80007Y26562*
X80041Y26565*
X80072Y26576*
X80101Y26594*
X80128Y26619*
X80150Y26650*
X80166Y26686*
X80176Y26727*
X80179Y26774*
X80176Y26818*
X80166Y26858*
X80151Y26893*
X80129Y26922*
X80102Y26946*
X80072Y26963*
X80039Y26973*
X80002Y26976*
X79966Y26973*
X79932Y26963*
X79902Y26946*
X79874Y26922*
X79851Y26893*
X79834Y26860*
X79824Y26822*
X79821Y26780*
D14*
X80940Y25450D03*
%LNtop silkscreen component a1e8fb290b8eb6fe*%
D10*
X82075Y39550D02*
X81075Y39550D01*
X81075Y37950D02*
X82075Y37950D01*
D11*
X85184Y38040D02*
X85184Y38040D01*
X85246Y38054*
X85304Y38079*
X85355Y38113*
X85401Y38156*
X85439Y38208*
X85469Y38269*
X85491Y38338*
X85372Y38368*
X85357Y38315*
X85357Y38315*
X85336Y38268*
X85336Y38268*
X85309Y38228*
X85309Y38228*
X85277Y38195*
X85277Y38195*
X85240Y38170*
X85240Y38170*
X85199Y38152*
X85199Y38152*
X85154Y38141*
X85154Y38141*
X85106Y38137*
X85106Y38137*
X85065Y38140*
X85065Y38140*
X85025Y38148*
X85025Y38148*
X84987Y38161*
X84987Y38161*
X84951Y38180*
X84951Y38180*
X84918Y38204*
X84918Y38204*
X84889Y38234*
X84889Y38234*
X84865Y38269*
X84865Y38269*
X84846Y38309*
X84846Y38309*
X84831Y38354*
X84831Y38354*
X84820Y38403*
X84820Y38403*
X84814Y38456*
X84814Y38456*
X84812Y38512*
X84812Y38512*
X84814Y38557*
X84814Y38557*
X84819Y38601*
X84819Y38601*
X84828Y38644*
X84828Y38644*
X84840Y38687*
X84840Y38687*
X84857Y38727*
X84857Y38727*
X84879Y38763*
X84879Y38763*
X84907Y38795*
X84907Y38795*
X84939Y38822*
X84939Y38822*
X84977Y38844*
X84977Y38844*
X85019Y38860*
X85019Y38860*
X85065Y38869*
X85065Y38869*
X85115Y38872*
X85115Y38872*
X85159Y38869*
X85159Y38869*
X85198Y38861*
X85198Y38861*
X85234Y38847*
X85234Y38847*
X85266Y38827*
X85267Y38827*
X85295Y38801*
X85295Y38801*
X85320Y38768*
X85320Y38768*
X85341Y38728*
X85341Y38728*
X85358Y38682*
X85476Y38710*
X85454Y38769*
X85425Y38821*
X85389Y38867*
X85347Y38905*
X85297Y38935*
X85243Y38957*
X85183Y38970*
X85117Y38974*
X85059Y38971*
X85002Y38960*
X84948Y38943*
X84897Y38919*
X84850Y38889*
X84809Y38852*
X84773Y38808*
X84743Y38759*
X84719Y38704*
X84702Y38644*
X84692Y38580*
X84689Y38511*
X84692Y38447*
X84701Y38385*
X84716Y38326*
X84737Y38268*
X84764Y38215*
X84796Y38168*
X84834Y38128*
X84877Y38095*
X84926Y38069*
X84982Y38050*
X85046Y38039*
X85116Y38035*
X85184Y38040*
X85916Y38038D02*
X85916Y38038D01*
X85961Y38048*
X86003Y38065*
X86042Y38089*
X86077Y38119*
X86107Y38155*
X86133Y38197*
X86154Y38246*
X86171Y38302*
X86183Y38367*
X86190Y38440*
X86192Y38523*
X86190Y38602*
X86183Y38671*
X86171Y38730*
X86154Y38779*
X86133Y38820*
X86107Y38857*
X86077Y38888*
X86043Y38915*
X86005Y38935*
X85965Y38950*
X85924Y38959*
X85881Y38962*
X85822Y38957*
X85768Y38941*
X85720Y38915*
X85677Y38878*
X85641Y38833*
X85616Y38780*
X85600Y38722*
X85595Y38656*
X85600Y38592*
X85615Y38535*
X85639Y38485*
X85673Y38440*
X85715Y38405*
X85760Y38379*
X85810Y38364*
X85864Y38359*
X85897Y38361*
X85929Y38367*
X85960Y38377*
X85989Y38392*
X86017Y38410*
X86041Y38430*
X86062Y38453*
X86081Y38478*
X86082Y38478*
X86082Y38471*
X86082Y38471*
X86082Y38465*
X86082Y38465*
X86082Y38460*
X86082Y38460*
X86082Y38456*
X86082Y38456*
X86081Y38421*
X86081Y38421*
X86078Y38387*
X86078Y38387*
X86073Y38353*
X86073Y38353*
X86065Y38319*
X86065Y38319*
X86057Y38287*
X86057Y38287*
X86047Y38259*
X86047Y38259*
X86036Y38234*
X86036Y38234*
X86024Y38213*
X86024Y38212*
X86011Y38194*
X86010Y38194*
X85995Y38177*
X85995Y38177*
X85979Y38162*
X85979Y38162*
X85960Y38149*
X85960Y38149*
X85940Y38139*
X85940Y38139*
X85918Y38132*
X85918Y38132*
X85895Y38127*
X85895Y38127*
X85870Y38126*
X85870Y38126*
X85841Y38128*
X85841Y38128*
X85815Y38134*
X85815Y38134*
X85791Y38145*
X85791Y38145*
X85771Y38160*
X85771Y38160*
X85753Y38180*
X85753Y38180*
X85738Y38205*
X85738Y38205*
X85727Y38235*
X85727Y38235*
X85719Y38270*
X85612Y38260*
X85622Y38210*
X85639Y38165*
X85663Y38127*
X85693Y38094*
X85729Y38068*
X85770Y38050*
X85816Y38039*
X85867Y38035*
X85916Y38038*
X86069Y38661D02*
X86069Y38661D01*
X86065Y38707*
X86056Y38748*
X86040Y38783*
X86017Y38814*
X85991Y38839*
X85961Y38856*
X85929Y38867*
X85894Y38870*
X85858Y38867*
X85825Y38855*
X85794Y38836*
X85765Y38810*
X85741Y38777*
X85723Y38740*
X85713Y38698*
X85710Y38652*
X85713Y38611*
X85723Y38573*
X85739Y38540*
X85762Y38511*
X85790Y38487*
X85821Y38470*
X85854Y38460*
X85891Y38457*
X85928Y38460*
X85962Y38470*
X85992Y38487*
X86019Y38511*
X86041Y38541*
X86056Y38576*
X86066Y38616*
X86069Y38661*
%LNtop silkscreen component cae1136e676ce164*%
D10*
X92360Y26231D02*
X92360Y27060D01*
X91110Y26231D02*
X91110Y27060D01*
D11*
X90529Y28850D02*
X90529Y28850D01*
X90592Y28864*
X90649Y28889*
X90701Y28923*
X90746Y28966*
X90784Y29018*
X90814Y29079*
X90837Y29148*
X90717Y29178*
X90702Y29125*
X90702Y29125*
X90681Y29078*
X90681Y29078*
X90655Y29038*
X90655Y29038*
X90623Y29005*
X90623Y29005*
X90585Y28980*
X90585Y28980*
X90545Y28962*
X90545Y28962*
X90500Y28951*
X90500Y28951*
X90451Y28947*
X90451Y28947*
X90410Y28950*
X90410Y28950*
X90371Y28958*
X90371Y28958*
X90333Y28971*
X90333Y28971*
X90296Y28990*
X90296Y28990*
X90263Y29014*
X90263Y29014*
X90234Y29044*
X90234Y29044*
X90210Y29079*
X90210Y29079*
X90191Y29119*
X90191Y29119*
X90176Y29164*
X90176Y29164*
X90166Y29213*
X90166Y29213*
X90159Y29266*
X90159Y29266*
X90157Y29322*
X90157Y29322*
X90159Y29367*
X90159Y29367*
X90164Y29411*
X90164Y29411*
X90173Y29454*
X90173Y29454*
X90186Y29497*
X90186Y29497*
X90203Y29537*
X90203Y29537*
X90225Y29573*
X90225Y29573*
X90252Y29605*
X90252Y29605*
X90285Y29632*
X90285Y29632*
X90322Y29654*
X90322Y29654*
X90364Y29670*
X90364Y29670*
X90410Y29679*
X90410Y29679*
X90460Y29682*
X90460Y29682*
X90504Y29679*
X90504Y29679*
X90544Y29671*
X90544Y29671*
X90580Y29657*
X90580Y29657*
X90612Y29637*
X90612Y29637*
X90640Y29611*
X90640Y29611*
X90665Y29578*
X90665Y29578*
X90686Y29538*
X90686Y29538*
X90704Y29492*
X90821Y29520*
X90800Y29579*
X90771Y29631*
X90735Y29677*
X90692Y29715*
X90643Y29745*
X90588Y29767*
X90528Y29780*
X90463Y29784*
X90404Y29781*
X90348Y29770*
X90294Y29753*
X90243Y29729*
X90195Y29699*
X90154Y29662*
X90118Y29618*
X90088Y29569*
X90065Y29514*
X90048Y29454*
X90038Y29390*
X90034Y29321*
X90037Y29257*
X90046Y29195*
X90061Y29136*
X90082Y29078*
X90109Y29025*
X90141Y28978*
X90179Y28938*
X90222Y28905*
X90272Y28879*
X90328Y28860*
X90391Y28849*
X90461Y28845*
X90529Y28850*
X91360Y29772D02*
X91360Y29772D01*
X91289Y29772*
X91272Y29743*
X91272Y29743*
X91250Y29713*
X91250Y29713*
X91222Y29682*
X91222Y29682*
X91190Y29651*
X91190Y29651*
X91153Y29621*
X91153Y29621*
X91114Y29593*
X91114Y29593*
X91072Y29567*
X91071Y29567*
X91026Y29544*
X91026Y29437*
X91053Y29448*
X91081Y29461*
X91111Y29477*
X91143Y29495*
X91174Y29514*
X91202Y29533*
X91227Y29552*
X91249Y29572*
X91250Y29572*
X91250Y28861*
X91360Y28861*
X91360Y29772*
X91902Y28927D02*
X91902Y28927D01*
X91902Y28927*
X91911Y28990*
X91911Y28990*
X91923Y29052*
X91923Y29052*
X91938Y29110*
X91938Y29110*
X91964Y29190*
X91964Y29190*
X91994Y29270*
X91994Y29270*
X92030Y29348*
X92030Y29348*
X92070Y29425*
X92070Y29425*
X92113Y29498*
X92113Y29498*
X92156Y29563*
X92156Y29563*
X92199Y29621*
X92199Y29621*
X92242Y29671*
X92242Y29757*
X91655Y29757*
X91655Y29651*
X92100Y29651*
X92100Y29650*
X92058Y29599*
X92017Y29542*
X91978Y29480*
X91939Y29412*
X91904Y29341*
X91873Y29268*
X91846Y29194*
X91824Y29119*
X91806Y29046*
X91793Y28978*
X91785Y28916*
X91782Y28861*
X91895Y28861*
X91902Y28927*
%LNtop silkscreen component b021b47e5c9b40d3*%
D10*
X45700Y40890D02*
X45700Y36348D01*
X45700Y40890D02*
X43600Y40890D01*
X43600Y36348*
X45700Y36348*
D11*
X44039Y42173D02*
X44039Y42173D01*
X44040Y42173*
X44180Y42173*
X44180Y42173*
X44201Y42173*
X44201Y42173*
X44220Y42172*
X44220Y42172*
X44235Y42171*
X44235Y42171*
X44247Y42169*
X44247Y42169*
X44261Y42165*
X44261Y42165*
X44274Y42159*
X44274Y42159*
X44288Y42153*
X44288Y42153*
X44302Y42145*
X44302Y42144*
X44316Y42134*
X44316Y42134*
X44330Y42121*
X44330Y42121*
X44346Y42104*
X44346Y42104*
X44363Y42084*
X44363Y42084*
X44381Y42060*
X44381Y42060*
X44402Y42031*
X44402Y42031*
X44424Y41997*
X44424Y41997*
X44450Y41958*
X44450Y41958*
X44570Y41769*
X44720Y41769*
X44562Y42016*
X44538Y42051*
X44514Y42083*
X44489Y42111*
X44463Y42137*
X44449Y42148*
X44432Y42159*
X44413Y42171*
X44390Y42182*
X44390Y42183*
X44451Y42195*
X44504Y42213*
X44548Y42237*
X44583Y42267*
X44611Y42302*
X44630Y42341*
X44642Y42384*
X44646Y42430*
X44644Y42467*
X44637Y42502*
X44625Y42535*
X44608Y42567*
X44588Y42595*
X44564Y42619*
X44537Y42638*
X44507Y42653*
X44472Y42664*
X44430Y42671*
X44380Y42676*
X44323Y42677*
X43920Y42677*
X43920Y41769*
X44039Y41769*
X44039Y42173*
X44040Y42277D02*
X44040Y42277D01*
X44299Y42277*
X44338Y42278*
X44372Y42281*
X44402Y42286*
X44428Y42294*
X44449Y42304*
X44468Y42316*
X44485Y42331*
X44498Y42348*
X44509Y42368*
X44516Y42388*
X44521Y42408*
X44522Y42430*
X44520Y42461*
X44511Y42489*
X44496Y42514*
X44476Y42536*
X44449Y42554*
X44415Y42567*
X44375Y42575*
X44328Y42578*
X44040Y42578*
X44040Y42277*
X45376Y41876D02*
X45376Y41876D01*
X44930Y41876*
X44930Y41876*
X44940Y41892*
X44940Y41892*
X44951Y41907*
X44951Y41907*
X44964Y41922*
X44964Y41922*
X44977Y41937*
X44977Y41937*
X44996Y41955*
X44996Y41955*
X45024Y41981*
X45024Y41981*
X45061Y42013*
X45061Y42013*
X45106Y42051*
X45162Y42100*
X45209Y42142*
X45248Y42180*
X45278Y42211*
X45302Y42240*
X45323Y42268*
X45339Y42296*
X45352Y42322*
X45362Y42349*
X45369Y42375*
X45373Y42402*
X45375Y42429*
X45370Y42481*
X45356Y42528*
X45332Y42570*
X45298Y42609*
X45257Y42640*
X45209Y42663*
X45154Y42677*
X45092Y42681*
X45030Y42677*
X44975Y42664*
X44927Y42643*
X44886Y42614*
X44851Y42577*
X44825Y42532*
X44807Y42479*
X44797Y42419*
X44911Y42408*
X44914Y42448*
X44914Y42448*
X44923Y42483*
X44923Y42483*
X44939Y42515*
X44939Y42515*
X44960Y42541*
X44960Y42541*
X44986Y42563*
X44986Y42563*
X45016Y42578*
X45017Y42578*
X45051Y42587*
X45051Y42587*
X45089Y42590*
X45089Y42590*
X45126Y42587*
X45126Y42587*
X45158Y42578*
X45158Y42578*
X45188Y42564*
X45188Y42564*
X45213Y42544*
X45213Y42544*
X45234Y42520*
X45234Y42520*
X45249Y42493*
X45249Y42493*
X45258Y42464*
X45258Y42464*
X45261Y42432*
X45261Y42432*
X45258Y42400*
X45258Y42400*
X45248Y42366*
X45248Y42366*
X45232Y42332*
X45232Y42332*
X45209Y42297*
X45209Y42297*
X45177Y42259*
X45177Y42259*
X45133Y42214*
X45133Y42214*
X45076Y42162*
X45076Y42162*
X45008Y42105*
X45008Y42105*
X44963Y42067*
X44924Y42031*
X44890Y41998*
X44862Y41967*
X44839Y41937*
X44819Y41907*
X44802Y41877*
X44789Y41846*
X44783Y41827*
X44779Y41808*
X44776Y41789*
X44776Y41769*
X45376Y41769*
X45376Y41876*
%LNtop silkscreen component 70a3b04ffb43faca*%
X79719Y32715D02*
X79719Y32715D01*
X79782Y32729*
X79839Y32754*
X79891Y32788*
X79936Y32831*
X79974Y32883*
X80004Y32944*
X80027Y33013*
X79907Y33043*
X79892Y32990*
X79892Y32990*
X79871Y32943*
X79871Y32943*
X79845Y32903*
X79845Y32903*
X79812Y32870*
X79812Y32870*
X79775Y32845*
X79775Y32845*
X79734Y32827*
X79734Y32827*
X79690Y32816*
X79690Y32816*
X79641Y32812*
X79641Y32812*
X79600Y32815*
X79600Y32815*
X79561Y32823*
X79561Y32823*
X79523Y32836*
X79523Y32836*
X79486Y32855*
X79486Y32855*
X79453Y32879*
X79453Y32879*
X79424Y32909*
X79424Y32909*
X79400Y32944*
X79400Y32944*
X79381Y32984*
X79381Y32984*
X79366Y33029*
X79366Y33029*
X79356Y33078*
X79356Y33078*
X79349Y33131*
X79349Y33131*
X79347Y33187*
X79347Y33187*
X79349Y33232*
X79349Y33232*
X79354Y33276*
X79354Y33276*
X79363Y33319*
X79363Y33319*
X79376Y33362*
X79376Y33362*
X79393Y33402*
X79393Y33402*
X79415Y33438*
X79415Y33438*
X79442Y33470*
X79442Y33470*
X79475Y33497*
X79475Y33497*
X79512Y33519*
X79512Y33519*
X79554Y33535*
X79554Y33535*
X79600Y33544*
X79600Y33544*
X79650Y33547*
X79650Y33547*
X79694Y33544*
X79694Y33544*
X79734Y33536*
X79734Y33536*
X79770Y33522*
X79770Y33522*
X79802Y33502*
X79802Y33502*
X79830Y33476*
X79830Y33476*
X79855Y33443*
X79855Y33443*
X79876Y33403*
X79876Y33403*
X79894Y33357*
X80011Y33385*
X79989Y33444*
X79961Y33496*
X79925Y33542*
X79882Y33580*
X79833Y33610*
X79778Y33632*
X79718Y33645*
X79653Y33649*
X79594Y33646*
X79538Y33635*
X79484Y33618*
X79433Y33594*
X79385Y33564*
X79344Y33527*
X79308Y33483*
X79278Y33434*
X79255Y33379*
X79238Y33319*
X79228Y33255*
X79224Y33186*
X79227Y33122*
X79236Y33060*
X79251Y33001*
X79272Y32943*
X79299Y32890*
X79331Y32843*
X79369Y32803*
X79412Y32770*
X79461Y32744*
X79518Y32725*
X79581Y32714*
X79651Y32710*
X79719Y32715*
X80550Y33637D02*
X80550Y33637D01*
X80479Y33637*
X80462Y33608*
X80462Y33608*
X80440Y33578*
X80440Y33578*
X80412Y33547*
X80412Y33547*
X80380Y33516*
X80380Y33516*
X80343Y33486*
X80343Y33486*
X80304Y33458*
X80304Y33458*
X80261Y33432*
X80261Y33432*
X80216Y33409*
X80216Y33302*
X80242Y33313*
X80271Y33326*
X80301Y33342*
X80333Y33360*
X80364Y33379*
X80392Y33398*
X80417Y33417*
X80439Y33437*
X80440Y33437*
X80440Y32726*
X80550Y32726*
X80550Y33637*
X81181Y32713D02*
X81181Y32713D01*
X81224Y32723*
X81263Y32740*
X81298Y32764*
X81329Y32793*
X81355Y32828*
X81378Y32869*
X81396Y32915*
X81410Y32968*
X81421Y33029*
X81427Y33097*
X81429Y33173*
X81428Y33237*
X81424Y33295*
X81417Y33345*
X81408Y33388*
X81397Y33426*
X81384Y33462*
X81369Y33494*
X81352Y33523*
X81333Y33549*
X81311Y33572*
X81287Y33592*
X81261Y33608*
X81232Y33621*
X81202Y33630*
X81168Y33635*
X81133Y33637*
X81086Y33634*
X81042Y33624*
X81003Y33607*
X80969Y33584*
X80938Y33555*
X80911Y33520*
X80889Y33479*
X80870Y33433*
X80856Y33380*
X80845Y33319*
X80839Y33250*
X80837Y33173*
X80843Y33054*
X80860Y32953*
X80888Y32870*
X80927Y32804*
X80968Y32763*
X81016Y32734*
X81071Y32716*
X81133Y32710*
X81181Y32713*
X80951Y33173D02*
X80951Y33173D01*
X80955Y33071*
X80964Y32987*
X80981Y32922*
X81004Y32875*
X81031Y32843*
X81062Y32820*
X81096Y32806*
X81133Y32801*
X81170Y32806*
X81204Y32820*
X81235Y32843*
X81262Y32876*
X81285Y32922*
X81302Y32987*
X81311Y33071*
X81315Y33173*
X81311Y33276*
X81302Y33360*
X81285Y33425*
X81262Y33472*
X81234Y33504*
X81203Y33527*
X81169Y33541*
X81132Y33545*
X81095Y33541*
X81063Y33529*
X81034Y33509*
X81009Y33480*
X80984Y33430*
X80966Y33362*
X80955Y33276*
X80951Y33173*
D10*
X79200Y29040D02*
X79200Y31040D01*
X81600Y29040D02*
X81600Y31040D01*
%LNtop silkscreen component 591a2af3fa307e1a*%
D15*
X15685Y39975D02*
X15685Y29125D01*
X9515Y39975D02*
X9515Y29125D01*
D16*
X14885Y37925D03*
%LNtop silkscreen component 19ccbc794673eff7*%
D11*
X76344Y17440D02*
X76344Y17440D01*
X76407Y17454*
X76464Y17479*
X76516Y17513*
X76561Y17556*
X76599Y17608*
X76629Y17669*
X76651Y17738*
X76532Y17768*
X76517Y17715*
X76517Y17715*
X76496Y17668*
X76496Y17668*
X76469Y17628*
X76469Y17628*
X76437Y17595*
X76437Y17595*
X76400Y17570*
X76400Y17570*
X76359Y17552*
X76359Y17552*
X76314Y17541*
X76314Y17541*
X76266Y17537*
X76266Y17537*
X76225Y17540*
X76225Y17540*
X76185Y17548*
X76185Y17548*
X76147Y17561*
X76147Y17561*
X76111Y17580*
X76111Y17580*
X76078Y17604*
X76078Y17604*
X76049Y17634*
X76049Y17634*
X76025Y17669*
X76025Y17669*
X76006Y17709*
X76006Y17709*
X75991Y17754*
X75991Y17754*
X75980Y17803*
X75980Y17803*
X75974Y17856*
X75974Y17856*
X75972Y17912*
X75972Y17912*
X75974Y17957*
X75974Y17957*
X75979Y18001*
X75979Y18001*
X75988Y18044*
X75988Y18044*
X76000Y18087*
X76000Y18087*
X76017Y18127*
X76017Y18127*
X76039Y18163*
X76039Y18163*
X76067Y18195*
X76067Y18195*
X76099Y18222*
X76100Y18222*
X76137Y18244*
X76137Y18244*
X76179Y18260*
X76179Y18260*
X76225Y18269*
X76225Y18269*
X76275Y18272*
X76275Y18272*
X76319Y18269*
X76319Y18269*
X76359Y18261*
X76359Y18261*
X76394Y18247*
X76395Y18247*
X76427Y18227*
X76427Y18227*
X76455Y18201*
X76455Y18201*
X76480Y18168*
X76480Y18168*
X76501Y18128*
X76501Y18128*
X76518Y18082*
X76636Y18110*
X76614Y18169*
X76585Y18221*
X76550Y18267*
X76507Y18305*
X76457Y18335*
X76403Y18357*
X76343Y18370*
X76277Y18374*
X76219Y18371*
X76162Y18360*
X76109Y18343*
X76057Y18319*
X76010Y18289*
X75969Y18252*
X75933Y18208*
X75903Y18159*
X75879Y18104*
X75862Y18044*
X75852Y17980*
X75849Y17911*
X75852Y17847*
X75861Y17785*
X75876Y17726*
X75897Y17668*
X75924Y17615*
X75956Y17568*
X75994Y17528*
X76037Y17495*
X76086Y17469*
X76142Y17450*
X76206Y17439*
X76276Y17435*
X76344Y17440*
X77175Y18362D02*
X77175Y18362D01*
X77104Y18362*
X77087Y18333*
X77087Y18333*
X77064Y18303*
X77064Y18303*
X77037Y18272*
X77037Y18272*
X77005Y18241*
X77005Y18241*
X76968Y18211*
X76968Y18211*
X76929Y18183*
X76929Y18183*
X76886Y18157*
X76886Y18157*
X76841Y18134*
X76841Y18027*
X76867Y18038*
X76896Y18051*
X76926Y18067*
X76958Y18085*
X76989Y18104*
X77017Y18123*
X77042Y18142*
X77064Y18162*
X77064Y18162*
X77064Y17451*
X77175Y17451*
X77175Y18362*
X77814Y17440D02*
X77814Y17440D01*
X77872Y17455*
X77924Y17481*
X77970Y17517*
X78008Y17561*
X78035Y17609*
X78051Y17661*
X78057Y17719*
X78054Y17761*
X78046Y17799*
X78032Y17834*
X78012Y17865*
X77988Y17892*
X77959Y17913*
X77925Y17930*
X77887Y17942*
X77887Y17943*
X77916Y17958*
X77941Y17976*
X77963Y17997*
X77981Y18020*
X77994Y18044*
X78004Y18070*
X78010Y18098*
X78012Y18127*
X78010Y18157*
X78004Y18187*
X77993Y18216*
X77979Y18243*
X77961Y18270*
X77939Y18293*
X77913Y18313*
X77883Y18330*
X77851Y18344*
X77818Y18354*
X77783Y18360*
X77747Y18362*
X77695Y18358*
X77648Y18347*
X77605Y18328*
X77566Y18301*
X77533Y18267*
X77507Y18227*
X77487Y18180*
X77474Y18128*
X77584Y18108*
X77592Y18146*
X77592Y18146*
X77604Y18179*
X77604Y18179*
X77620Y18207*
X77620Y18207*
X77640Y18230*
X77640Y18230*
X77663Y18248*
X77663Y18248*
X77689Y18261*
X77689Y18261*
X77718Y18269*
X77718Y18269*
X77749Y18272*
X77749Y18272*
X77780Y18269*
X77780Y18269*
X77809Y18261*
X77809Y18261*
X77834Y18249*
X77834Y18249*
X77857Y18231*
X77857Y18231*
X77875Y18210*
X77875Y18210*
X77888Y18185*
X77888Y18185*
X77896Y18159*
X77896Y18158*
X77898Y18129*
X77898Y18129*
X77895Y18093*
X77895Y18093*
X77884Y18061*
X77884Y18061*
X77866Y18035*
X77866Y18035*
X77841Y18014*
X77841Y18014*
X77812Y17998*
X77812Y17998*
X77780Y17986*
X77780Y17986*
X77747Y17979*
X77747Y17979*
X77712Y17977*
X77712Y17977*
X77709Y17977*
X77709Y17977*
X77705Y17977*
X77704Y17977*
X77700Y17977*
X77700Y17977*
X77695Y17978*
X77683Y17881*
X77705Y17886*
X77705Y17886*
X77725Y17890*
X77725Y17890*
X77744Y17892*
X77744Y17892*
X77761Y17893*
X77761Y17893*
X77798Y17890*
X77798Y17890*
X77832Y17881*
X77832Y17881*
X77862Y17865*
X77862Y17865*
X77889Y17843*
X77889Y17843*
X77911Y17817*
X77911Y17816*
X77927Y17786*
X77927Y17786*
X77936Y17753*
X77936Y17753*
X77939Y17716*
X77939Y17716*
X77936Y17677*
X77936Y17677*
X77926Y17642*
X77926Y17642*
X77909Y17609*
X77909Y17609*
X77885Y17581*
X77885Y17580*
X77856Y17557*
X77856Y17557*
X77824Y17539*
X77824Y17539*
X77789Y17529*
X77789Y17529*
X77752Y17526*
X77751Y17526*
X77720Y17528*
X77719Y17528*
X77690Y17536*
X77690Y17536*
X77663Y17549*
X77663Y17549*
X77639Y17568*
X77639Y17568*
X77617Y17592*
X77617Y17592*
X77599Y17623*
X77599Y17623*
X77584Y17661*
X77584Y17661*
X77573Y17704*
X77463Y17690*
X77472Y17636*
X77491Y17587*
X77517Y17544*
X77552Y17506*
X77594Y17474*
X77642Y17452*
X77694Y17439*
X77751Y17434*
X77814Y17440*
D10*
X80100Y16525D02*
X78850Y16525D01*
%LNtop silkscreen component 999027b6d5737ba9*%
D11*
X52319Y30540D02*
X52319Y30540D01*
X52382Y30554*
X52439Y30579*
X52491Y30613*
X52536Y30656*
X52574Y30708*
X52604Y30769*
X52627Y30838*
X52507Y30868*
X52492Y30815*
X52492Y30815*
X52471Y30768*
X52471Y30768*
X52445Y30728*
X52445Y30728*
X52412Y30695*
X52412Y30695*
X52375Y30670*
X52375Y30670*
X52334Y30652*
X52334Y30652*
X52290Y30641*
X52290Y30641*
X52241Y30637*
X52241Y30637*
X52200Y30640*
X52200Y30640*
X52161Y30648*
X52161Y30648*
X52123Y30661*
X52123Y30661*
X52086Y30680*
X52086Y30680*
X52053Y30704*
X52053Y30704*
X52024Y30734*
X52024Y30734*
X52000Y30769*
X52000Y30769*
X51981Y30809*
X51981Y30809*
X51966Y30854*
X51966Y30854*
X51956Y30903*
X51956Y30903*
X51949Y30956*
X51949Y30956*
X51947Y31012*
X51947Y31012*
X51949Y31057*
X51949Y31057*
X51954Y31101*
X51954Y31101*
X51963Y31144*
X51963Y31144*
X51976Y31187*
X51976Y31187*
X51993Y31227*
X51993Y31227*
X52015Y31263*
X52015Y31263*
X52042Y31295*
X52042Y31295*
X52075Y31322*
X52075Y31322*
X52112Y31344*
X52112Y31344*
X52154Y31360*
X52154Y31360*
X52200Y31369*
X52200Y31369*
X52250Y31372*
X52250Y31372*
X52294Y31369*
X52294Y31369*
X52334Y31361*
X52334Y31361*
X52370Y31347*
X52370Y31347*
X52402Y31327*
X52402Y31327*
X52430Y31301*
X52430Y31301*
X52455Y31268*
X52455Y31268*
X52476Y31228*
X52476Y31228*
X52494Y31182*
X52611Y31210*
X52589Y31269*
X52561Y31321*
X52525Y31367*
X52482Y31405*
X52433Y31435*
X52378Y31457*
X52318Y31470*
X52253Y31474*
X52194Y31471*
X52138Y31460*
X52084Y31443*
X52033Y31419*
X51985Y31389*
X51944Y31352*
X51908Y31308*
X51878Y31259*
X51855Y31204*
X51838Y31144*
X51828Y31080*
X51824Y31011*
X51827Y30947*
X51836Y30885*
X51851Y30826*
X51872Y30768*
X51899Y30715*
X51931Y30668*
X51969Y30628*
X52012Y30595*
X52061Y30569*
X52118Y30550*
X52181Y30539*
X52251Y30535*
X52319Y30540*
X53199Y30768D02*
X53199Y30768D01*
X53199Y30768*
X53322Y30768*
X53322Y30869*
X53199Y30869*
X53199Y30870*
X53199Y31459*
X53109Y31459*
X52694Y30870*
X52694Y30768*
X53088Y30768*
X53089Y30768*
X53089Y30551*
X53199Y30551*
X53199Y30768*
X53088Y31278D02*
X53088Y31278D01*
X52804Y30870*
X53088Y30870*
X53088Y31278*
D10*
X53725Y35085D02*
X53725Y33085D01*
X51325Y35085D02*
X51325Y33085D01*
%LNtop silkscreen component 03b293a0feb5f9bf*%
D11*
X80919Y12965D02*
X80919Y12965D01*
X80982Y12979*
X81039Y13004*
X81091Y13038*
X81136Y13081*
X81174Y13133*
X81204Y13194*
X81226Y13263*
X81107Y13293*
X81092Y13240*
X81092Y13240*
X81071Y13193*
X81071Y13193*
X81044Y13153*
X81044Y13153*
X81012Y13120*
X81012Y13120*
X80975Y13095*
X80975Y13095*
X80934Y13077*
X80934Y13077*
X80889Y13066*
X80889Y13066*
X80841Y13062*
X80841Y13062*
X80800Y13065*
X80800Y13065*
X80760Y13073*
X80760Y13073*
X80722Y13086*
X80722Y13086*
X80686Y13105*
X80686Y13105*
X80653Y13129*
X80653Y13129*
X80624Y13159*
X80624Y13159*
X80600Y13194*
X80600Y13194*
X80581Y13234*
X80581Y13234*
X80566Y13279*
X80566Y13279*
X80555Y13328*
X80555Y13328*
X80549Y13381*
X80549Y13381*
X80547Y13437*
X80547Y13437*
X80549Y13482*
X80549Y13482*
X80554Y13526*
X80554Y13526*
X80563Y13569*
X80563Y13569*
X80575Y13612*
X80575Y13612*
X80592Y13652*
X80592Y13652*
X80614Y13688*
X80614Y13688*
X80642Y13720*
X80642Y13720*
X80674Y13747*
X80675Y13747*
X80712Y13769*
X80712Y13769*
X80754Y13785*
X80754Y13785*
X80800Y13794*
X80800Y13794*
X80850Y13797*
X80850Y13797*
X80894Y13794*
X80894Y13794*
X80934Y13786*
X80934Y13786*
X80969Y13772*
X80970Y13772*
X81002Y13752*
X81002Y13752*
X81030Y13726*
X81030Y13726*
X81055Y13693*
X81055Y13693*
X81076Y13653*
X81076Y13653*
X81093Y13607*
X81211Y13635*
X81189Y13694*
X81160Y13746*
X81125Y13792*
X81082Y13830*
X81032Y13860*
X80978Y13882*
X80918Y13895*
X80852Y13899*
X80794Y13896*
X80737Y13885*
X80684Y13868*
X80632Y13844*
X80585Y13814*
X80544Y13777*
X80508Y13733*
X80478Y13684*
X80454Y13629*
X80437Y13569*
X80427Y13505*
X80424Y13436*
X80427Y13372*
X80436Y13310*
X80451Y13251*
X80472Y13193*
X80499Y13140*
X80531Y13093*
X80569Y13053*
X80612Y13020*
X80661Y12994*
X80717Y12975*
X80781Y12964*
X80851Y12960*
X80919Y12965*
X81750Y13887D02*
X81750Y13887D01*
X81679Y13887*
X81662Y13858*
X81662Y13858*
X81639Y13828*
X81639Y13828*
X81612Y13797*
X81612Y13797*
X81580Y13766*
X81580Y13766*
X81543Y13736*
X81543Y13736*
X81504Y13708*
X81504Y13708*
X81461Y13682*
X81461Y13682*
X81416Y13659*
X81416Y13552*
X81442Y13563*
X81471Y13576*
X81501Y13592*
X81533Y13610*
X81564Y13629*
X81592Y13648*
X81617Y13667*
X81639Y13687*
X81639Y13687*
X81639Y12976*
X81750Y12976*
X81750Y13887*
X82505Y13193D02*
X82505Y13193D01*
X82506Y13193*
X82628Y13193*
X82628Y13294*
X82506Y13294*
X82505Y13295*
X82505Y13884*
X82415Y13884*
X82000Y13295*
X82000Y13193*
X82394Y13193*
X82395Y13193*
X82395Y12976*
X82505Y12976*
X82505Y13193*
X82394Y13703D02*
X82394Y13703D01*
X82110Y13295*
X82394Y13295*
X82394Y13703*
D10*
X82250Y16525D02*
X81000Y16525D01*
%LNtop silkscreen component 1fd199a2c64ec8cf*%
D15*
X85975Y14925D02*
X85975Y18025D01*
X85475Y14925D02*
X85475Y18025D01*
X85475Y14925D02*
X85975Y14925D01*
X85475Y18025D02*
X85975Y18025D01*
D11*
X81947Y18688D02*
X81947Y18688D01*
X82003Y18698*
X82053Y18713*
X82097Y18735*
X82134Y18763*
X82165Y18793*
X82190Y18828*
X82208Y18866*
X82222Y18910*
X82232Y18961*
X82237Y19019*
X82239Y19084*
X82239Y19609*
X82120Y19609*
X82120Y19084*
X82120Y19084*
X82117Y19006*
X82117Y19006*
X82106Y18941*
X82106Y18941*
X82088Y18890*
X82088Y18890*
X82064Y18853*
X82063Y18853*
X82030Y18826*
X82030Y18826*
X81988Y18808*
X81988Y18808*
X81936Y18796*
X81936Y18796*
X81874Y18793*
X81874Y18793*
X81837Y18794*
X81837Y18794*
X81802Y18800*
X81802Y18800*
X81771Y18810*
X81771Y18810*
X81743Y18823*
X81743Y18823*
X81718Y18840*
X81718Y18840*
X81697Y18860*
X81697Y18860*
X81680Y18883*
X81680Y18883*
X81667Y18910*
X81667Y18910*
X81657Y18942*
X81657Y18942*
X81650Y18982*
X81650Y18982*
X81646Y19029*
X81646Y19029*
X81645Y19084*
X81645Y19084*
X81645Y19609*
X81525Y19609*
X81525Y19084*
X81528Y19015*
X81534Y18955*
X81545Y18902*
X81560Y18856*
X81580Y18817*
X81606Y18783*
X81638Y18753*
X81676Y18729*
X81719Y18710*
X81768Y18696*
X81824Y18688*
X81885Y18685*
X81947Y18688*
X82759Y18692D02*
X82759Y18692D01*
X82822Y18713*
X82878Y18747*
X82925Y18795*
X82957Y18842*
X82979Y18893*
X82993Y18949*
X82997Y19008*
X82992Y19070*
X82977Y19126*
X82951Y19176*
X82915Y19220*
X82872Y19256*
X82824Y19282*
X82772Y19297*
X82715Y19302*
X82670Y19299*
X82627Y19288*
X82585Y19270*
X82543Y19245*
X82543Y19245*
X82592Y19490*
X82592Y19491*
X82954Y19491*
X82954Y19596*
X82503Y19596*
X82415Y19130*
X82519Y19117*
X82533Y19135*
X82533Y19135*
X82549Y19152*
X82549Y19152*
X82567Y19167*
X82567Y19167*
X82587Y19180*
X82587Y19180*
X82610Y19191*
X82610Y19191*
X82634Y19199*
X82634Y19199*
X82659Y19203*
X82659Y19203*
X82685Y19205*
X82685Y19205*
X82726Y19201*
X82727Y19201*
X82764Y19191*
X82764Y19191*
X82797Y19174*
X82797Y19174*
X82826Y19149*
X82826Y19149*
X82849Y19119*
X82849Y19119*
X82866Y19084*
X82866Y19084*
X82876Y19044*
X82876Y19044*
X82880Y18998*
X82880Y18998*
X82876Y18950*
X82876Y18950*
X82866Y18908*
X82866Y18908*
X82848Y18870*
X82848Y18870*
X82824Y18837*
X82824Y18837*
X82794Y18810*
X82794Y18810*
X82762Y18791*
X82762Y18791*
X82726Y18780*
X82726Y18780*
X82687Y18776*
X82687Y18776*
X82655Y18778*
X82655Y18778*
X82625Y18787*
X82625Y18787*
X82597Y18800*
X82597Y18800*
X82572Y18819*
X82572Y18819*
X82551Y18843*
X82551Y18843*
X82533Y18873*
X82533Y18873*
X82520Y18908*
X82520Y18908*
X82512Y18948*
X82395Y18938*
X82405Y18884*
X82423Y18835*
X82450Y18792*
X82485Y18754*
X82527Y18724*
X82574Y18702*
X82628Y18689*
X82687Y18685*
X82759Y18692*
D17*
X84525Y18300D03*
%LNtop silkscreen component 3c80428743dcbac9*%
D10*
X15943Y25075D02*
X15114Y25075D01*
X15943Y23825D02*
X15114Y23825D01*
D11*
X15369Y26340D02*
X15369Y26340D01*
X15432Y26354*
X15489Y26379*
X15541Y26413*
X15586Y26456*
X15624Y26508*
X15654Y26569*
X15677Y26638*
X15557Y26668*
X15542Y26615*
X15542Y26615*
X15521Y26568*
X15521Y26568*
X15495Y26528*
X15495Y26528*
X15462Y26495*
X15462Y26495*
X15425Y26470*
X15425Y26470*
X15384Y26452*
X15384Y26452*
X15340Y26441*
X15340Y26441*
X15291Y26437*
X15291Y26437*
X15250Y26440*
X15250Y26440*
X15211Y26448*
X15211Y26448*
X15173Y26461*
X15173Y26461*
X15136Y26480*
X15136Y26480*
X15103Y26504*
X15103Y26504*
X15074Y26534*
X15074Y26534*
X15050Y26569*
X15050Y26569*
X15031Y26609*
X15031Y26609*
X15016Y26654*
X15016Y26654*
X15006Y26703*
X15006Y26703*
X14999Y26756*
X14999Y26756*
X14997Y26812*
X14997Y26812*
X14999Y26857*
X14999Y26857*
X15004Y26901*
X15004Y26901*
X15013Y26944*
X15013Y26944*
X15026Y26987*
X15026Y26987*
X15043Y27027*
X15043Y27027*
X15065Y27063*
X15065Y27063*
X15092Y27095*
X15092Y27095*
X15125Y27122*
X15125Y27122*
X15162Y27144*
X15162Y27144*
X15204Y27160*
X15204Y27160*
X15250Y27169*
X15250Y27169*
X15300Y27172*
X15300Y27172*
X15344Y27169*
X15344Y27169*
X15384Y27161*
X15384Y27161*
X15420Y27147*
X15420Y27147*
X15452Y27127*
X15452Y27127*
X15480Y27101*
X15480Y27101*
X15505Y27068*
X15505Y27068*
X15526Y27028*
X15526Y27028*
X15544Y26982*
X15661Y27010*
X15639Y27069*
X15611Y27121*
X15575Y27167*
X15532Y27205*
X15483Y27235*
X15428Y27257*
X15368Y27270*
X15303Y27274*
X15244Y27271*
X15188Y27260*
X15134Y27243*
X15083Y27219*
X15035Y27189*
X14994Y27152*
X14958Y27108*
X14928Y27059*
X14905Y27004*
X14888Y26944*
X14878Y26880*
X14874Y26811*
X14877Y26747*
X14886Y26685*
X14901Y26626*
X14922Y26568*
X14949Y26515*
X14981Y26468*
X15019Y26428*
X15062Y26395*
X15111Y26369*
X15168Y26350*
X15231Y26339*
X15301Y26335*
X15369Y26340*
X16200Y27262D02*
X16200Y27262D01*
X16129Y27262*
X16112Y27233*
X16112Y27233*
X16090Y27203*
X16090Y27203*
X16062Y27172*
X16062Y27172*
X16030Y27141*
X16030Y27141*
X15993Y27111*
X15993Y27111*
X15954Y27083*
X15954Y27083*
X15911Y27057*
X15911Y27057*
X15866Y27034*
X15866Y26927*
X15892Y26938*
X15921Y26951*
X15951Y26967*
X15983Y26985*
X16014Y27004*
X16042Y27023*
X16067Y27042*
X16089Y27062*
X16090Y27062*
X16090Y26351*
X16200Y26351*
X16200Y27262*
%LNtop silkscreen component 747a6f21bc2acc76*%
X84868Y10954D02*
X84868Y10954D01*
X84869Y10954*
X85008Y10954*
X85008Y10954*
X85030Y10954*
X85030Y10954*
X85048Y10953*
X85048Y10953*
X85063Y10952*
X85063Y10952*
X85075Y10950*
X85075Y10950*
X85089Y10946*
X85089Y10946*
X85103Y10940*
X85103Y10940*
X85117Y10934*
X85117Y10934*
X85130Y10926*
X85130Y10926*
X85144Y10915*
X85144Y10915*
X85159Y10902*
X85159Y10902*
X85175Y10885*
X85175Y10885*
X85192Y10865*
X85192Y10865*
X85210Y10841*
X85210Y10841*
X85230Y10812*
X85230Y10812*
X85253Y10778*
X85253Y10778*
X85278Y10739*
X85278Y10739*
X85399Y10551*
X85549Y10551*
X85391Y10797*
X85367Y10832*
X85343Y10864*
X85317Y10892*
X85291Y10918*
X85278Y10929*
X85261Y10940*
X85241Y10952*
X85219Y10963*
X85219Y10964*
X85280Y10976*
X85333Y10994*
X85377Y11018*
X85412Y11048*
X85440Y11083*
X85459Y11122*
X85471Y11165*
X85475Y11211*
X85472Y11248*
X85465Y11283*
X85453Y11316*
X85437Y11348*
X85417Y11376*
X85393Y11400*
X85366Y11420*
X85336Y11434*
X85301Y11445*
X85258Y11452*
X85209Y11457*
X85152Y11459*
X84749Y11459*
X84749Y10551*
X84868Y10551*
X84868Y10954*
X84869Y11058D02*
X84869Y11058D01*
X85127Y11058*
X85166Y11059*
X85201Y11062*
X85231Y11067*
X85256Y11075*
X85278Y11085*
X85297Y11097*
X85314Y11112*
X85327Y11129*
X85338Y11149*
X85345Y11169*
X85350Y11189*
X85351Y11211*
X85348Y11242*
X85340Y11270*
X85325Y11295*
X85304Y11317*
X85278Y11335*
X85244Y11348*
X85204Y11356*
X85156Y11359*
X84869Y11359*
X84869Y11058*
X85969Y10537D02*
X85969Y10537D01*
X86007Y10545*
X86042Y10557*
X86075Y10574*
X86106Y10596*
X86133Y10622*
X86156Y10652*
X86176Y10686*
X86193Y10724*
X86204Y10763*
X86211Y10803*
X86213Y10845*
X86208Y10907*
X86194Y10963*
X86169Y11013*
X86135Y11057*
X86094Y11093*
X86048Y11119*
X85999Y11134*
X85945Y11139*
X85914Y11137*
X85883Y11132*
X85853Y11123*
X85823Y11110*
X85795Y11093*
X85770Y11072*
X85746Y11047*
X85725Y11018*
X85724Y11018*
X85726Y11083*
X85726Y11083*
X85733Y11140*
X85733Y11140*
X85742Y11188*
X85742Y11188*
X85756Y11229*
X85756Y11229*
X85772Y11264*
X85772Y11264*
X85792Y11294*
X85792Y11294*
X85814Y11320*
X85814Y11320*
X85839Y11342*
X85839Y11342*
X85860Y11355*
X85860Y11355*
X85883Y11364*
X85883Y11364*
X85907Y11370*
X85907Y11370*
X85933Y11372*
X85933Y11372*
X85965Y11369*
X85965Y11369*
X85994Y11360*
X85994Y11360*
X86021Y11345*
X86021Y11345*
X86045Y11324*
X86045Y11324*
X86058Y11306*
X86058Y11306*
X86069Y11285*
X86069Y11285*
X86079Y11259*
X86079Y11259*
X86087Y11228*
X86197Y11237*
X86187Y11286*
X86170Y11331*
X86146Y11369*
X86115Y11402*
X86079Y11429*
X86037Y11447*
X85991Y11459*
X85940Y11462*
X85872Y11456*
X85811Y11436*
X85757Y11404*
X85711Y11358*
X85669Y11290*
X85638Y11203*
X85620Y11098*
X85614Y10975*
X85620Y10866*
X85636Y10773*
X85664Y10697*
X85702Y10637*
X85749Y10593*
X85803Y10561*
X85863Y10541*
X85929Y10535*
X85969Y10537*
X85742Y10845D02*
X85742Y10845D01*
X85743Y10816*
X85748Y10788*
X85756Y10761*
X85766Y10734*
X85780Y10709*
X85796Y10688*
X85814Y10669*
X85835Y10654*
X85857Y10642*
X85880Y10633*
X85903Y10628*
X85927Y10626*
X85961Y10630*
X85993Y10641*
X86022Y10658*
X86049Y10683*
X86071Y10714*
X86087Y10751*
X86097Y10792*
X86100Y10838*
X86097Y10883*
X86087Y10923*
X86071Y10957*
X86049Y10987*
X86023Y11011*
X85993Y11028*
X85959Y11038*
X85923Y11041*
X85887Y11038*
X85853Y11028*
X85822Y11011*
X85795Y10987*
X85772Y10958*
X85755Y10924*
X85745Y10886*
X85742Y10845*
D10*
X85700Y13425D02*
X85300Y13425D01*
X85300Y12175D02*
X85700Y12175D01*
%LNtop silkscreen component 2e5a51aab9dd6953*%
X-7225Y20240D02*
X-7225Y28540D01*
X4610Y28540*
X4610Y20240*
X-7225Y20240*
D11*
X2570Y18262D02*
X2570Y18262D01*
X2606Y18268*
X2640Y18278*
X2671Y18293*
X2699Y18311*
X2723Y18333*
X2743Y18359*
X2758Y18388*
X2770Y18423*
X2779Y18463*
X2784Y18511*
X2786Y18565*
X2786Y19184*
X2667Y19184*
X2667Y18558*
X2667Y18558*
X2666Y18521*
X2666Y18521*
X2664Y18490*
X2664Y18490*
X2660Y18464*
X2660Y18464*
X2654Y18444*
X2654Y18444*
X2647Y18427*
X2647Y18427*
X2637Y18412*
X2637Y18412*
X2624Y18399*
X2624Y18398*
X2609Y18387*
X2609Y18387*
X2591Y18378*
X2591Y18378*
X2573Y18371*
X2573Y18371*
X2552Y18368*
X2552Y18368*
X2530Y18366*
X2530Y18366*
X2501Y18369*
X2501Y18369*
X2475Y18376*
X2475Y18376*
X2453Y18388*
X2453Y18388*
X2434Y18405*
X2434Y18405*
X2418Y18428*
X2418Y18428*
X2407Y18460*
X2407Y18460*
X2399Y18500*
X2399Y18500*
X2395Y18547*
X2287Y18533*
X2290Y18469*
X2301Y18414*
X2320Y18367*
X2348Y18329*
X2383Y18299*
X2425Y18277*
X2475Y18264*
X2531Y18260*
X2570Y18262*
X3358Y19187D02*
X3358Y19187D01*
X3287Y19187*
X3270Y19158*
X3270Y19158*
X3247Y19128*
X3247Y19128*
X3220Y19097*
X3220Y19097*
X3187Y19066*
X3187Y19066*
X3151Y19036*
X3151Y19036*
X3111Y19008*
X3111Y19008*
X3069Y18982*
X3069Y18982*
X3024Y18959*
X3024Y18852*
X3050Y18863*
X3079Y18876*
X3109Y18892*
X3141Y18910*
X3172Y18929*
X3200Y18948*
X3225Y18967*
X3246Y18987*
X3247Y18987*
X3247Y18276*
X3358Y18276*
X3358Y19187*
%LNtop silkscreen component ef1c58f661e6cfba*%
X89968Y21729D02*
X89968Y21729D01*
X89969Y21729*
X90108Y21729*
X90108Y21729*
X90130Y21729*
X90130Y21729*
X90148Y21728*
X90148Y21728*
X90163Y21727*
X90163Y21727*
X90175Y21725*
X90175Y21725*
X90189Y21721*
X90189Y21721*
X90203Y21715*
X90203Y21715*
X90217Y21709*
X90217Y21709*
X90230Y21701*
X90230Y21701*
X90244Y21690*
X90244Y21690*
X90259Y21677*
X90259Y21677*
X90275Y21660*
X90275Y21660*
X90292Y21640*
X90292Y21640*
X90310Y21616*
X90310Y21616*
X90330Y21587*
X90330Y21587*
X90353Y21553*
X90353Y21553*
X90378Y21514*
X90378Y21514*
X90499Y21326*
X90649Y21326*
X90491Y21572*
X90467Y21607*
X90443Y21639*
X90417Y21667*
X90391Y21693*
X90378Y21704*
X90361Y21715*
X90341Y21727*
X90319Y21738*
X90319Y21739*
X90380Y21751*
X90433Y21769*
X90477Y21793*
X90512Y21823*
X90540Y21858*
X90559Y21897*
X90571Y21940*
X90575Y21986*
X90572Y22023*
X90565Y22058*
X90553Y22091*
X90537Y22123*
X90517Y22151*
X90493Y22175*
X90466Y22195*
X90436Y22209*
X90401Y22220*
X90358Y22227*
X90309Y22232*
X90252Y22234*
X89849Y22234*
X89849Y21326*
X89968Y21326*
X89968Y21729*
X89969Y21833D02*
X89969Y21833D01*
X90227Y21833*
X90266Y21834*
X90301Y21837*
X90331Y21842*
X90356Y21850*
X90378Y21860*
X90397Y21872*
X90414Y21887*
X90427Y21904*
X90438Y21924*
X90445Y21944*
X90450Y21964*
X90451Y21986*
X90448Y22017*
X90439Y22045*
X90425Y22070*
X90404Y22092*
X90378Y22110*
X90344Y22123*
X90304Y22131*
X90256Y22134*
X89969Y22134*
X89969Y21833*
X90973Y21392D02*
X90973Y21392D01*
X90973Y21392*
X90983Y21455*
X90983Y21455*
X90995Y21517*
X90995Y21517*
X91010Y21575*
X91010Y21575*
X91036Y21655*
X91036Y21655*
X91066Y21735*
X91066Y21735*
X91102Y21813*
X91102Y21813*
X91142Y21890*
X91142Y21890*
X91185Y21963*
X91185Y21963*
X91228Y22028*
X91228Y22028*
X91271Y22086*
X91271Y22086*
X91314Y22136*
X91314Y22222*
X90726Y22222*
X90726Y22116*
X91171Y22116*
X91172Y22115*
X91130Y22064*
X91089Y22007*
X91050Y21945*
X91011Y21877*
X90976Y21806*
X90945Y21733*
X90918Y21659*
X90896Y21584*
X90878Y21511*
X90865Y21443*
X90857Y21381*
X90854Y21326*
X90967Y21326*
X90973Y21392*
D10*
X90275Y19350D02*
X90675Y19350D01*
X90675Y20600D02*
X90275Y20600D01*
%LNtop silkscreen component 56334b3d3b6f7dd6*%
X88038Y18350D02*
X93012Y18350D01*
X88038Y18350D02*
X88038Y14600D01*
X93012Y14600*
X93012Y18350*
D11*
X94581Y16063D02*
X94581Y16063D01*
X94546Y16078*
X94546Y16078*
X94508Y16097*
X94508Y16097*
X94468Y16120*
X94468Y16120*
X94427Y16147*
X94427Y16148*
X94460Y16182*
X94487Y16220*
X94511Y16260*
X94530Y16303*
X94545Y16350*
X94556Y16399*
X94562Y16451*
X94564Y16505*
X94561Y16571*
X94551Y16633*
X94534Y16692*
X94511Y16748*
X94482Y16798*
X94446Y16843*
X94405Y16882*
X94357Y16915*
X94305Y16941*
X94250Y16960*
X94192Y16971*
X94131Y16975*
X94070Y16971*
X94012Y16960*
X93957Y16942*
X93906Y16917*
X93858Y16885*
X93816Y16846*
X93781Y16801*
X93750Y16749*
X93727Y16693*
X93709Y16633*
X93699Y16570*
X93696Y16505*
X93699Y16439*
X93709Y16376*
X93726Y16317*
X93750Y16262*
X93780Y16211*
X93816Y16166*
X93857Y16127*
X93905Y16094*
X93956Y16068*
X94011Y16050*
X94068Y16039*
X94128Y16035*
X94188Y16039*
X94245Y16049*
X94299Y16067*
X94351Y16091*
X94352Y16091*
X94400Y16056*
X94449Y16025*
X94498Y16000*
X94546Y15980*
X94581Y16063*
X94163Y16301D02*
X94163Y16301D01*
X94213Y16285*
X94258Y16265*
X94299Y16241*
X94335Y16214*
X94381Y16269*
X94414Y16335*
X94434Y16414*
X94441Y16505*
X94438Y16559*
X94431Y16609*
X94420Y16655*
X94403Y16698*
X94382Y16737*
X94357Y16771*
X94327Y16801*
X94293Y16826*
X94256Y16846*
X94217Y16860*
X94175Y16869*
X94131Y16872*
X94067Y16866*
X94008Y16849*
X93955Y16820*
X93908Y16780*
X93869Y16728*
X93842Y16665*
X93825Y16590*
X93819Y16505*
X93825Y16421*
X93841Y16348*
X93869Y16285*
X93907Y16232*
X93954Y16191*
X94007Y16161*
X94066Y16143*
X94131Y16137*
X94163Y16139*
X94194Y16143*
X94224Y16151*
X94253Y16162*
X94224Y16179*
X94195Y16193*
X94165Y16205*
X94134Y16214*
X94163Y16301*
X95101Y16962D02*
X95101Y16962D01*
X95030Y16962*
X95013Y16933*
X95013Y16933*
X94991Y16903*
X94991Y16903*
X94963Y16872*
X94963Y16872*
X94931Y16841*
X94931Y16841*
X94894Y16811*
X94894Y16811*
X94855Y16783*
X94855Y16783*
X94813Y16757*
X94813Y16757*
X94767Y16734*
X94767Y16627*
X94794Y16638*
X94822Y16651*
X94852Y16667*
X94884Y16685*
X94915Y16704*
X94943Y16723*
X94968Y16742*
X94990Y16762*
X94991Y16762*
X94991Y16051*
X95101Y16051*
X95101Y16962*
%LNtext*%
X3172Y42093D02*
X3172Y42093D01*
X3172Y42093*
X3666Y42093*
X3666Y42300*
X3172Y42300*
X3172Y42301*
X3172Y42795*
X2962Y42795*
X2962Y42301*
X2961Y42300*
X2467Y42300*
X2467Y42093*
X2961Y42093*
X2962Y42093*
X2962Y41594*
X3172Y41594*
X3172Y42093*
X40783Y2565D02*
X40783Y2565D01*
X40783Y2566*
X40979Y2566*
X40979Y2566*
X41009Y2565*
X41009Y2565*
X41035Y2564*
X41035Y2564*
X41056Y2562*
X41056Y2562*
X41072Y2560*
X41072Y2560*
X41092Y2554*
X41092Y2554*
X41111Y2546*
X41111Y2546*
X41130Y2537*
X41130Y2537*
X41149Y2526*
X41149Y2526*
X41169Y2511*
X41169Y2511*
X41190Y2492*
X41190Y2492*
X41212Y2469*
X41212Y2469*
X41235Y2440*
X41235Y2440*
X41261Y2407*
X41261Y2407*
X41289Y2366*
X41289Y2366*
X41321Y2319*
X41321Y2319*
X41357Y2265*
X41357Y2265*
X41525Y2001*
X41736Y2001*
X41515Y2346*
X41481Y2395*
X41447Y2439*
X41411Y2479*
X41375Y2515*
X41356Y2531*
X41332Y2547*
X41305Y2563*
X41273Y2579*
X41273Y2579*
X41359Y2596*
X41433Y2622*
X41494Y2655*
X41544Y2697*
X41583Y2747*
X41610Y2801*
X41626Y2860*
X41632Y2925*
X41628Y2977*
X41619Y3026*
X41602Y3073*
X41579Y3117*
X41550Y3157*
X41517Y3191*
X41480Y3218*
X41438Y3238*
X41388Y3253*
X41329Y3264*
X41259Y3270*
X41179Y3272*
X40615Y3272*
X40615Y2001*
X40783Y2001*
X40783Y2565*
X40783Y2711D02*
X40783Y2711D01*
X41145Y2711*
X41200Y2713*
X41248Y2717*
X41290Y2724*
X41326Y2735*
X41356Y2749*
X41383Y2766*
X41406Y2787*
X41425Y2811*
X41440Y2838*
X41450Y2866*
X41457Y2895*
X41459Y2925*
X41455Y2969*
X41442Y3008*
X41422Y3043*
X41393Y3074*
X41356Y3099*
X41309Y3118*
X41252Y3128*
X41186Y3132*
X40783Y3132*
X40783Y2711*
X42340Y1985D02*
X42340Y1985D01*
X42410Y1999*
X42472Y2024*
X42527Y2058*
X42575Y2101*
X42614Y2152*
X42645Y2210*
X42668Y2277*
X42508Y2296*
X42488Y2251*
X42488Y2251*
X42466Y2211*
X42466Y2211*
X42440Y2178*
X42440Y2178*
X42411Y2152*
X42411Y2152*
X42379Y2133*
X42379Y2133*
X42344Y2118*
X42344Y2118*
X42306Y2110*
X42306Y2110*
X42264Y2107*
X42264Y2107*
X42209Y2112*
X42209Y2112*
X42158Y2127*
X42158Y2127*
X42112Y2153*
X42112Y2153*
X42071Y2188*
X42071Y2188*
X42037Y2233*
X42037Y2233*
X42011Y2287*
X42011Y2287*
X41994Y2349*
X41994Y2349*
X41985Y2421*
X41985Y2422*
X42673Y2422*
X42673Y2434*
X42673Y2445*
X42674Y2455*
X42674Y2463*
X42666Y2570*
X42644Y2665*
X42608Y2747*
X42556Y2817*
X42494Y2872*
X42423Y2911*
X42343Y2934*
X42255Y2942*
X42164Y2934*
X42082Y2910*
X42009Y2870*
X41944Y2814*
X41892Y2743*
X41855Y2660*
X41832Y2563*
X41825Y2453*
X41832Y2347*
X41854Y2254*
X41891Y2173*
X41943Y2104*
X42007Y2050*
X42082Y2011*
X42168Y1987*
X42263Y1980*
X42340Y1985*
X41994Y2550D02*
X41994Y2550D01*
X42509Y2550*
X42502Y2604*
X42489Y2651*
X42472Y2691*
X42450Y2724*
X42410Y2764*
X42364Y2792*
X42313Y2809*
X42256Y2814*
X42205Y2810*
X42157Y2796*
X42114Y2774*
X42075Y2742*
X42043Y2703*
X42019Y2658*
X42002Y2607*
X41994Y2550*
X43615Y2921D02*
X43615Y2921D01*
X43456Y2921*
X43251Y2359*
X43233Y2310*
X43218Y2264*
X43204Y2222*
X43193Y2184*
X43192Y2184*
X43178Y2232*
X43164Y2279*
X43149Y2325*
X43133Y2370*
X42935Y2921*
X42771Y2921*
X43122Y2001*
X43267Y2001*
X43615Y2921*
X43844Y2177D02*
X43844Y2177D01*
X43667Y2177*
X43667Y2001*
X43844Y2001*
X43844Y2177*
X45048Y1983D02*
X45048Y1983D01*
X45109Y1998*
X45164Y2021*
X45213Y2054*
X45256Y2095*
X45293Y2144*
X45324Y2201*
X45350Y2266*
X45370Y2340*
X45385Y2425*
X45393Y2521*
X45396Y2628*
X45394Y2717*
X45389Y2797*
X45380Y2868*
X45367Y2928*
X45352Y2982*
X45333Y3031*
X45312Y3077*
X45289Y3117*
X45262Y3154*
X45232Y3186*
X45198Y3213*
X45161Y3236*
X45121Y3254*
X45078Y3267*
X45031Y3275*
X44982Y3277*
X44915Y3273*
X44855Y3259*
X44800Y3235*
X44751Y3203*
X44709Y3162*
X44671Y3113*
X44640Y3056*
X44614Y2991*
X44593Y2917*
X44579Y2831*
X44570Y2735*
X44567Y2628*
X44575Y2461*
X44599Y2319*
X44638Y2202*
X44693Y2111*
X44750Y2053*
X44818Y2012*
X44895Y1987*
X44982Y1979*
X45048Y1983*
X44727Y2628D02*
X44727Y2628D01*
X44732Y2484*
X44746Y2367*
X44769Y2276*
X44801Y2211*
X44839Y2165*
X44883Y2133*
X44930Y2113*
X44982Y2107*
X45033Y2113*
X45081Y2133*
X45124Y2165*
X45163Y2211*
X45195Y2276*
X45218Y2367*
X45231Y2484*
X45236Y2628*
X45231Y2772*
X45218Y2889*
X45195Y2980*
X45163Y3045*
X45124Y3090*
X45080Y3123*
X45032Y3142*
X44980Y3149*
X44929Y3143*
X44883Y3126*
X44843Y3097*
X44808Y3057*
X44773Y2987*
X44747Y2892*
X44732Y2772*
X44727Y2628*
X7825Y2507D02*
X7825Y2507D01*
X7825Y2507*
X8358Y3022*
X8131Y3022*
X7499Y2391*
X7498Y2391*
X7498Y3022*
X7331Y3022*
X7331Y1751*
X7498Y1751*
X7498Y2191*
X7498Y2191*
X7707Y2395*
X7707Y2395*
X8160Y1751*
X8381Y1751*
X7825Y2507*
X8700Y2328D02*
X8700Y2328D01*
X8700Y2329*
X9297Y2329*
X9297Y2478*
X8700Y2478*
X8700Y2478*
X8700Y2873*
X8700Y2873*
X9390Y2873*
X9390Y3022*
X8532Y3022*
X8532Y1751*
X8700Y1751*
X8700Y2328*
X10202Y2055D02*
X10202Y2055D01*
X10203Y2055*
X10374Y2055*
X10374Y2197*
X10203Y2197*
X10202Y2198*
X10202Y3022*
X10076Y3022*
X9495Y2198*
X9495Y2055*
X10047Y2055*
X10047Y2055*
X10047Y1751*
X10202Y1751*
X10202Y2055*
X10046Y2770D02*
X10046Y2770D01*
X9649Y2198*
X10046Y2198*
X10046Y2770*
X11807Y3022D02*
X11807Y3022D01*
X11581Y3022*
X11277Y2137*
X11255Y2074*
X11237Y2019*
X11221Y1972*
X11209Y1933*
X11208Y1933*
X11197Y1968*
X11183Y2011*
X11166Y2062*
X11147Y2121*
X10846Y3022*
X10593Y3022*
X10593Y1751*
X10755Y1751*
X10755Y2834*
X10755Y2834*
X11124Y1751*
X11275Y1751*
X11645Y2816*
X11646Y2816*
X11646Y1751*
X11807Y1751*
X11807Y3022*
X12718Y1734D02*
X12718Y1734D01*
X12797Y1748*
X12872Y1773*
X12945Y1807*
X13013Y1851*
X13072Y1904*
X13123Y1967*
X13166Y2038*
X13201Y2117*
X13225Y2201*
X13240Y2290*
X13245Y2385*
X13240Y2478*
X13226Y2565*
X13203Y2648*
X13170Y2726*
X13129Y2797*
X13079Y2860*
X13021Y2914*
X12955Y2961*
X12882Y2997*
X12805Y3024*
X12723Y3040*
X12637Y3045*
X12509Y3034*
X12393Y3000*
X12290Y2944*
X12198Y2866*
X12124Y2768*
X12071Y2652*
X12039Y2520*
X12028Y2370*
X12033Y2287*
X12047Y2207*
X12069Y2128*
X12101Y2052*
X12142Y1981*
X12191Y1918*
X12249Y1863*
X12316Y1816*
X12389Y1778*
X12466Y1750*
X12549Y1734*
X12636Y1729*
X12718Y1734*
X12202Y2367D02*
X12202Y2367D01*
X12209Y2258*
X12232Y2162*
X12271Y2077*
X12325Y2005*
X12391Y1947*
X12465Y1906*
X12546Y1881*
X12636Y1872*
X12726Y1881*
X12809Y1906*
X12883Y1948*
X12949Y2006*
X13002Y2080*
X13041Y2168*
X13064Y2270*
X13071Y2385*
X13068Y2461*
X13058Y2531*
X13042Y2596*
X13019Y2657*
X12990Y2711*
X12954Y2760*
X12913Y2801*
X12865Y2837*
X12813Y2864*
X12758Y2884*
X12700Y2896*
X12638Y2900*
X12552Y2893*
X12472Y2870*
X12398Y2831*
X12330Y2777*
X12274Y2706*
X12234Y2613*
X12210Y2501*
X12202Y2367*
X13954Y2873D02*
X13954Y2873D01*
X13954Y2873*
X14375Y2873*
X14375Y3022*
X13367Y3022*
X13367Y2873*
X13786Y2873*
X13786Y2873*
X13786Y1751*
X13954Y1751*
X13954Y2873*
X15456Y1738D02*
X15456Y1738D01*
X15545Y1767*
X15623Y1816*
X15689Y1883*
X15733Y1949*
X15765Y2021*
X15784Y2098*
X15790Y2181*
X15783Y2268*
X15761Y2346*
X15726Y2416*
X15676Y2478*
X15615Y2528*
X15548Y2565*
X15475Y2586*
X15395Y2593*
X15332Y2588*
X15272Y2573*
X15212Y2548*
X15154Y2513*
X15154Y2514*
X15222Y2856*
X15223Y2857*
X15730Y2857*
X15730Y3005*
X15098Y3005*
X14975Y2352*
X15121Y2333*
X15140Y2359*
X15140Y2359*
X15162Y2382*
X15162Y2383*
X15188Y2404*
X15188Y2404*
X15216Y2422*
X15216Y2422*
X15248Y2437*
X15248Y2437*
X15281Y2448*
X15281Y2448*
X15316Y2454*
X15316Y2454*
X15353Y2456*
X15353Y2456*
X15411Y2451*
X15411Y2451*
X15463Y2437*
X15463Y2437*
X15509Y2413*
X15509Y2413*
X15550Y2379*
X15550Y2379*
X15583Y2337*
X15583Y2337*
X15606Y2287*
X15606Y2287*
X15621Y2231*
X15621Y2231*
X15625Y2168*
X15625Y2168*
X15620Y2101*
X15620Y2101*
X15606Y2041*
X15606Y2041*
X15581Y1988*
X15581Y1988*
X15547Y1942*
X15547Y1942*
X15506Y1904*
X15506Y1904*
X15460Y1878*
X15460Y1878*
X15410Y1862*
X15410Y1862*
X15356Y1856*
X15356Y1856*
X15310Y1860*
X15310Y1860*
X15268Y1871*
X15268Y1871*
X15230Y1890*
X15230Y1890*
X15195Y1917*
X15195Y1917*
X15165Y1951*
X15165Y1951*
X15141Y1992*
X15141Y1992*
X15122Y2041*
X15122Y2041*
X15110Y2097*
X14947Y2083*
X14961Y2007*
X14986Y1939*
X15024Y1878*
X15072Y1826*
X15131Y1783*
X15198Y1753*
X15273Y1735*
X15356Y1729*
X15456Y1738*
X16644Y1736D02*
X16644Y1736D01*
X16732Y1756*
X16812Y1790*
X16885Y1838*
X16948Y1898*
X17001Y1971*
X17043Y2056*
X17075Y2153*
X16907Y2196*
X16886Y2121*
X16886Y2121*
X16857Y2055*
X16857Y2055*
X16820Y1999*
X16820Y1999*
X16775Y1954*
X16774Y1954*
X16723Y1918*
X16723Y1918*
X16665Y1892*
X16665Y1892*
X16603Y1877*
X16603Y1877*
X16535Y1872*
X16535Y1872*
X16477Y1876*
X16477Y1876*
X16422Y1887*
X16422Y1887*
X16369Y1906*
X16369Y1906*
X16318Y1932*
X16318Y1932*
X16271Y1966*
X16271Y1966*
X16231Y2007*
X16231Y2007*
X16198Y2056*
X16198Y2056*
X16171Y2113*
X16171Y2113*
X16150Y2176*
X16150Y2176*
X16135Y2245*
X16135Y2245*
X16126Y2318*
X16126Y2318*
X16123Y2397*
X16123Y2397*
X16126Y2459*
X16126Y2459*
X16133Y2521*
X16133Y2521*
X16146Y2582*
X16146Y2582*
X16163Y2641*
X16163Y2641*
X16187Y2698*
X16187Y2698*
X16218Y2748*
X16218Y2748*
X16256Y2792*
X16256Y2792*
X16302Y2830*
X16302Y2830*
X16354Y2861*
X16354Y2861*
X16413Y2883*
X16413Y2883*
X16477Y2896*
X16477Y2896*
X16548Y2901*
X16548Y2901*
X16609Y2897*
X16609Y2897*
X16664Y2885*
X16665Y2885*
X16715Y2865*
X16715Y2865*
X16760Y2837*
X16760Y2837*
X16799Y2801*
X16799Y2801*
X16834Y2755*
X16834Y2755*
X16864Y2700*
X16864Y2700*
X16888Y2635*
X17053Y2674*
X17023Y2757*
X16982Y2830*
X16932Y2893*
X16872Y2947*
X16803Y2989*
X16727Y3020*
X16643Y3038*
X16551Y3044*
X16469Y3039*
X16390Y3025*
X16314Y3001*
X16243Y2967*
X16177Y2924*
X16119Y2873*
X16069Y2812*
X16027Y2743*
X15993Y2665*
X15970Y2582*
X15956Y2492*
X15951Y2396*
X15955Y2306*
X15968Y2220*
X15989Y2136*
X16018Y2055*
X16055Y1980*
X16101Y1915*
X16154Y1859*
X16214Y1813*
X16283Y1776*
X16362Y1750*
X16450Y1734*
X16548Y1729*
X16644Y1736*
X18492Y3022D02*
X18492Y3022D01*
X18266Y3022*
X17961Y2137*
X17940Y2074*
X17922Y2019*
X17906Y1972*
X17894Y1933*
X17893Y1933*
X17882Y1968*
X17868Y2011*
X17851Y2062*
X17832Y2121*
X17531Y3022*
X17278Y3022*
X17278Y1751*
X17440Y1751*
X17440Y2834*
X17440Y2834*
X17809Y1751*
X17960Y1751*
X18330Y2816*
X18330Y2816*
X18330Y1751*
X18492Y1751*
X18492Y3022*
X19783Y3027D02*
X19783Y3027D01*
X19683Y3027*
X19659Y2986*
X19659Y2986*
X19628Y2944*
X19628Y2944*
X19589Y2901*
X19589Y2901*
X19544Y2857*
X19544Y2857*
X19493Y2815*
X19493Y2815*
X19438Y2776*
X19438Y2776*
X19378Y2740*
X19378Y2740*
X19315Y2708*
X19315Y2558*
X19352Y2573*
X19392Y2591*
X19434Y2613*
X19479Y2639*
X19522Y2665*
X19561Y2692*
X19596Y2719*
X19627Y2746*
X19627Y2746*
X19627Y1751*
X19783Y1751*
X19783Y3027*
X21767Y3022D02*
X21767Y3022D01*
X21599Y3022*
X21399Y2205*
X21399Y2205*
X21381Y2129*
X21364Y2057*
X21349Y1990*
X21336Y1927*
X21335Y1927*
X21317Y2035*
X21295Y2146*
X21268Y2260*
X21236Y2378*
X21054Y3022*
X20851Y3022*
X20609Y2163*
X20603Y2137*
X20591Y2089*
X20574Y2019*
X20552Y1927*
X20551Y1927*
X20539Y1993*
X20526Y2058*
X20512Y2123*
X20497Y2188*
X20304Y3022*
X20132Y3022*
X20470Y1751*
X20641Y1751*
X20911Y2720*
X20919Y2752*
X20929Y2788*
X20938Y2827*
X20948Y2870*
X20949Y2870*
X20954Y2849*
X20962Y2818*
X20974Y2775*
X20989Y2720*
X20989Y2720*
X21257Y1751*
X21418Y1751*
X21767Y3022*
M02*